<svg width="16" height="16" viewBox="0 0 16 16" fill="#ffffff" xmlns="http://www.w3.org/2000/svg">
<path d="M7.56363 13.4303V9.0916C7.5647 8.47646 7.28235 7.89486 6.79767 7.51383C5.92199 6.82623 4.8825 6.37632 3.78046 6.20795C3.27749 6.14081 2.76778 6.14081 2.2648 6.20795L0 10.5888C4.47591 10.4472 6.95444 12.8471 6.95444 12.8471" fill="#666666"/>
<path d="M13.7363 6.20795C13.2332 6.14081 12.7234 6.14081 12.2203 6.20795C11.1181 6.37636 10.0783 6.82636 9.20247 7.51411C8.71769 7.89521 8.43528 8.47693 8.43634 9.09221V12.8361C10.0874 10.047 13.7363 9.26791 13.7363 9.26791L12.4151 6.60477C12.4151 6.60477 12.7065 6.54638 13.2648 6.57558L15.0581 10.0302C15.0581 10.0302 11.1243 10.2162 9.04404 12.8485C9.04404 12.8485 11.5231 10.4481 16 10.5898L13.7363 6.20795Z" fill="#666666"/>
<path fill-rule="evenodd" clip-rule="evenodd" d="M8.14603 6.1576C9.1098 6.15729 9.89093 5.37592 9.89093 4.41214C9.89093 3.94893 9.70681 3.50472 9.37912 3.17734C9.05142 2.84995 8.60703 2.66625 8.14382 2.66669C7.18005 2.6676 6.39942 3.44947 6.40002 4.41324C6.40063 5.37702 7.18226 6.1579 8.14603 6.1576ZM8.48189 4.3581C8.54446 4.38741 8.59744 4.43388 8.63465 4.49211C8.67953 4.5688 8.70064 4.65709 8.69531 4.74579C8.69833 4.83557 8.67617 4.92439 8.63134 5.00223C8.5862 5.07456 8.51999 5.13134 8.44163 5.16492C8.40302 5.18197 8.36272 5.19491 8.3214 5.20353V5.39544H8.02636V5.2129C7.99167 5.20829 7.95724 5.20185 7.92323 5.1936C7.85287 5.17616 7.78476 5.15062 7.72028 5.11749C7.67194 5.0957 7.629 5.0635 7.59454 5.02319L7.73131 4.77943C7.78673 4.82903 7.85087 4.86793 7.92047 4.89414C7.99086 4.92123 8.06565 4.93507 8.14107 4.93495C8.20858 4.9389 8.27565 4.92175 8.33298 4.88587C8.37794 4.85444 8.40372 4.80224 8.40137 4.74745C8.40344 4.7118 8.39268 4.67658 8.37104 4.64818C8.35006 4.62293 8.32261 4.60387 8.29162 4.59303C8.25116 4.57926 8.20967 4.56875 8.16754 4.5616H8.16313H8.15816C8.15581 4.56103 8.15335 4.56103 8.15099 4.5616H8.14382C8.06045 4.54639 7.97853 4.52406 7.89896 4.49487C7.8334 4.46927 7.77708 4.42449 7.73738 4.36637C7.68764 4.28701 7.6641 4.19402 7.6701 4.10055C7.66668 4.01124 7.68685 3.92261 7.72856 3.84356C7.77105 3.77104 7.83476 3.71329 7.9111 3.67811C7.94644 3.66176 7.98341 3.64918 8.02139 3.64061V3.44704H8.31644V3.63896L8.3567 3.64778C8.41102 3.66071 8.46388 3.67919 8.51442 3.70293C8.56579 3.72761 8.61456 3.75735 8.66002 3.79172L8.53538 4.04154C8.48527 4.00113 8.42954 3.96825 8.36993 3.94393C8.31734 3.92258 8.26124 3.91117 8.20449 3.91029C8.14195 3.90667 8.07979 3.92225 8.02636 3.95496C7.98517 3.98308 7.96124 4.03031 7.96294 4.08015C7.96051 4.12003 7.9731 4.15938 7.99823 4.19045C8.0217 4.21705 8.05175 4.23702 8.08537 4.24835C8.13221 4.26378 8.1799 4.27648 8.2282 4.2864H8.23261H8.24309H8.25412C8.33226 4.30258 8.40857 4.3266 8.48189 4.3581Z" fill="#666666"/>
</svg>
