<?xml version="1.0" encoding="UTF-8"?>
<svg width="48px" height="33px" viewBox="0 0 48 33" version="1.1" xmlns="http://www.w3.org/2000/svg" xmlns:xlink="http://www.w3.org/1999/xlink">
    <title>icon-A</title>
    <g id="Homepage" stroke="none" stroke-width="1" fill="none" fill-rule="evenodd">
        <g id="Option-B---Homepage---6-Tiles---Desktop---1440px---November-'22" transform="translate(-150.000000, -632.000000)" fill="#555555" fill-rule="nonzero">
            <g id="Explainer---Large" transform="translate(150.000000, 161.000000)">
                <g id="Group-2" transform="translate(0.000000, 464.000000)">
                    <g id="icon-A" transform="translate(0.000000, 7.000000)">
                        <path d="M22.6909091,32.2909091 L22.6909091,19.2747476 C22.6940881,17.4293153 21.8470359,15.6845231 20.3930051,14.5414505 C17.7659582,12.4786273 14.6474987,11.1289181 11.3413816,10.6237918 C9.83246576,10.4223724 8.30332933,10.4223724 6.79441354,10.6237918 L0,23.766434 C13.427714,23.3415886 20.8633249,30.5412594 20.8633249,30.5412594" id="Path"></path>
                        <path d="M41.2090075,10.6237946 C39.6997644,10.4223715 38.1703041,10.4223715 36.661061,10.6237946 C33.3542323,11.1290272 30.2351017,12.4790206 27.6074895,14.5422779 C26.1531457,15.6855912 25.3059113,17.4307506 25.3090909,19.2765713 L25.3090909,30.5081511 C30.2623573,22.1408269 41.2090075,19.8036851 41.2090075,19.8036851 L37.2454249,11.814261 C37.2454249,11.814261 38.1195291,11.639097 39.7944887,11.726679 L45.1742179,22.0905483 C45.1742179,22.0905483 33.3729965,22.6484781 27.1321851,30.5454545 C27.1321851,30.5454545 34.5693962,23.3442684 48,23.7692032 L41.2090075,10.6237946 Z" id="Path"></path>
                        <path d="M29.6727262,5.23636572 C29.6727262,8.12768167 27.3293332,10.4718115 24.4380165,10.4727244 C21.5466999,10.4736368 19.2018288,8.13098687 19.2000011,5.2396715 C19.1981755,2.34835614 21.5400848,0.00274528684 24.4314003,2.3472988e-06 C25.8210297,-0.00131248152 27.1541945,0.54979243 28.1372767,1.53194341 C29.1203589,2.5140944 29.6727262,3.84673605 29.6727262,5.23636572 Z M25.9038687,5.4762622 C25.7922336,5.30158002 25.6333149,5.16216764 25.4455836,5.07422879 C25.2256334,4.97973633 24.9967101,4.90767817 24.7622921,4.85914919 L24.7292029,4.85914919 L24.6977682,4.85914919 L24.6845325,4.85914919 C24.5396161,4.82938992 24.3965422,4.79127372 24.2560276,4.74499156 C24.1551738,4.7109961 24.0650272,4.65108856 23.9946231,4.57127342 C23.9192317,4.47807634 23.881458,4.36003356 23.8887377,4.24038173 L23.8887377,4.24038173 C23.8836591,4.0908724 23.9554496,3.94916426 24.0790005,3.86481966 C24.2392975,3.76670124 24.4257628,3.71994061 24.6133908,3.73080853 C24.7836549,3.73345923 24.9519492,3.76767906 25.1097284,3.83173049 C25.2885362,3.9046843 25.4557432,4.00333639 25.6060661,4.12456964 L25.9799738,3.37509996 C25.8436055,3.27200115 25.697288,3.18276967 25.5431967,3.10873215 C25.3915555,3.03752025 25.2329975,2.98208042 25.0700214,2.9432863 L24.9492459,2.91681496 L24.9492459,2.34106342 L24.0641104,2.34106342 L24.0641104,2.92177834 C23.9501504,2.94749174 23.8392345,2.98520315 23.7332186,3.03428151 C23.5042034,3.1398153 23.3130664,3.3130512 23.1855927,3.53061905 C23.0604633,3.76775863 22.9999782,4.03366454 23.01022,4.30159669 L23.01022,4.30159669 C22.9922376,4.58200008 23.0628464,4.86096264 23.212064,5.09904567 C23.3311657,5.273405 23.5001178,5.40775934 23.6968205,5.48453449 C23.9355125,5.57212499 24.1812715,5.63909983 24.4314003,5.68472396 L24.4529082,5.68472396 C24.4599783,5.68303661 24.4673462,5.68303661 24.4744162,5.68472396 L24.4893063,5.68472396 L24.502542,5.68472396 C24.6289397,5.70619549 24.7534201,5.73773052 24.8747953,5.7790281 C24.9677498,5.81153854 25.0501059,5.86873024 25.1130374,5.94447394 C25.1779738,6.02968219 25.2102537,6.13532564 25.2040326,6.24227646 L25.2040326,6.24227646 C25.211101,6.40666135 25.1337313,6.56327255 24.9988797,6.65754554 C24.8268876,6.76517371 24.625674,6.81663347 24.423128,6.80479234 C24.1968716,6.80513514 23.9725034,6.76362702 23.7613444,6.68236241 C23.552541,6.60371333 23.3601295,6.48703232 23.193865,6.33823505 L22.7835592,7.06950569 C22.8869339,7.19043341 23.0157402,7.28703811 23.1607758,7.35241809 C23.3542133,7.45180585 23.5585253,7.52842283 23.7696167,7.58073336 C23.8716518,7.60547563 23.9749239,7.62480464 24.0790005,7.6386394 L24.0790005,8.18626515 L24.9641361,8.18626515 L24.9641361,7.61051361 C25.0880893,7.58466676 25.2089789,7.54584902 25.3248081,7.49470152 C25.5599066,7.3939462 25.7585196,7.22362407 25.893942,7.00663627 C26.0284292,6.77311967 26.0949068,6.50663622 26.0858592,6.23731309 L26.0858592,6.23731309 C26.1018579,5.97120842 26.0385202,5.70634184 25.9038687,5.4762622 L25.9038687,5.4762622 Z" id="Shape"></path>
                    </g>
                </g>
            </g>
        </g>
    </g>
</svg>