<?xml version="1.0" encoding="utf-8"?>
<!-- Generator: Adobe Illustrator 25.3.1, SVG Export Plug-In . SVG Version: 6.00 Build 0)  -->
<svg version="1.1" id="Layer_1" xmlns="http://www.w3.org/2000/svg" xmlns:xlink="http://www.w3.org/1999/xlink" x="0px" y="0px"
	 viewBox="0 0 552 369" style="enable-background:new 0 0 552 369;" xml:space="preserve">
<style type="text/css">
	.st0{fill-rule:evenodd;clip-rule:evenodd;fill:#F1F1F1;}
	.st1{enable-background:new    ;}
	.st2{fill:#666666;}
	.st3{fill-rule:evenodd;clip-rule:evenodd;fill:#B3532D;}
	.st4{fill-rule:evenodd;clip-rule:evenodd;fill:#4A0072;}
	.st5{fill:#555555;}
</style>
<g id="Deficit">
	<g id="Deficit---Desktop---1440px---April-_x27_22" transform="translate(-444.000000, -3367.000000)">
		<g id="The-Difference-Between-the-National-Deficit-and-the-National-Debt" transform="translate(443.000000, 2963.500000)">
			<g id="Visualizing-Deficit-vs.-Debt" transform="translate(1.000000, 404.000000)">
				<rect id="Rectangle" y="0" class="st0" width="552" height="368"/>
				<g id="Data-contents" transform="translate(38.542895, 64.000000)">
					<g class="st1">
						<path class="st2" d="M24.2,117.3v-1.2c-0.4,0-0.8-0.1-1.1-0.3c-0.4-0.2-0.7-0.4-0.9-0.6l0.5-0.7c0.3,0.2,0.5,0.4,0.8,0.6
							c0.3,0.2,0.6,0.2,1,0.2c0.4,0,0.8-0.1,1-0.3s0.3-0.5,0.3-0.9c0-0.3-0.1-0.6-0.2-0.8s-0.4-0.4-0.6-0.6
							c-0.2-0.2-0.5-0.3-0.8-0.4c-0.3-0.1-0.6-0.3-0.8-0.5c-0.2-0.2-0.5-0.4-0.6-0.6s-0.2-0.6-0.2-1c0-0.5,0.2-1,0.5-1.3
							c0.3-0.4,0.7-0.6,1.3-0.7V107h0.7v1.2c0.4,0,0.7,0.1,1,0.3s0.5,0.4,0.7,0.6l-0.5,0.6c-0.2-0.2-0.4-0.4-0.7-0.5
							S25,109,24.6,109c-0.4,0-0.7,0.1-0.9,0.3c-0.2,0.2-0.3,0.5-0.3,0.8c0,0.3,0.1,0.5,0.2,0.7c0.2,0.2,0.4,0.3,0.6,0.5
							s0.5,0.3,0.8,0.4s0.6,0.3,0.8,0.5c0.2,0.2,0.5,0.4,0.6,0.7s0.2,0.6,0.2,1.1c0,0.6-0.2,1-0.5,1.4c-0.3,0.4-0.8,0.6-1.4,0.7v1.2
							H24.2z"/>
						<path class="st2" d="M28.4,116v-0.8h1.8v-5.6h-1.4v-0.6c0.4-0.1,0.7-0.1,0.9-0.2c0.3-0.1,0.5-0.2,0.7-0.3h0.8v6.8h1.6v0.8
							H28.4z"/>
						<path class="st2" d="M36.3,116.1c-0.3,0-0.6,0-0.8-0.1c-0.3-0.1-0.5-0.1-0.7-0.2c-0.2-0.1-0.4-0.2-0.6-0.3s-0.3-0.3-0.4-0.4
							l0.5-0.6c0.2,0.2,0.5,0.4,0.8,0.6c0.3,0.2,0.7,0.3,1.1,0.3c0.2,0,0.5,0,0.7-0.1c0.2-0.1,0.4-0.2,0.5-0.4
							c0.2-0.2,0.3-0.3,0.4-0.6c0.1-0.2,0.1-0.5,0.1-0.7c0-0.5-0.1-0.9-0.4-1.2c-0.3-0.3-0.7-0.4-1.2-0.4c-0.3,0-0.5,0-0.7,0.1
							c-0.2,0.1-0.4,0.2-0.6,0.3l-0.5-0.3l0.3-3.7h3.8v0.9h-3l-0.2,2.3c0.2-0.1,0.4-0.2,0.6-0.2c0.2-0.1,0.4-0.1,0.6-0.1
							c0.3,0,0.6,0,0.9,0.1s0.5,0.2,0.8,0.4c0.2,0.2,0.4,0.4,0.5,0.7c0.1,0.3,0.2,0.7,0.2,1.1s-0.1,0.8-0.2,1.1
							c-0.1,0.3-0.3,0.6-0.6,0.8c-0.2,0.2-0.5,0.4-0.8,0.5C36.9,116.1,36.6,116.1,36.3,116.1z"/>
						<path class="st2" d="M42.4,116.1c-0.8,0-1.4-0.3-1.8-1c-0.4-0.7-0.6-1.7-0.6-3s0.2-2.3,0.6-2.9c0.4-0.7,1-1,1.8-1
							c0.8,0,1.4,0.3,1.8,1s0.6,1.7,0.6,2.9s-0.2,2.3-0.6,3C43.8,115.8,43.2,116.1,42.4,116.1z M42.4,115.4c0.2,0,0.4-0.1,0.6-0.2
							c0.2-0.1,0.3-0.3,0.5-0.6s0.2-0.6,0.3-1c0.1-0.4,0.1-0.9,0.1-1.4c0-0.6,0-1-0.1-1.4c-0.1-0.4-0.2-0.7-0.3-1
							c-0.1-0.3-0.3-0.4-0.5-0.6c-0.2-0.1-0.4-0.2-0.6-0.2c-0.2,0-0.4,0.1-0.6,0.2s-0.3,0.3-0.5,0.6c-0.1,0.3-0.2,0.6-0.3,1
							c-0.1,0.4-0.1,0.9-0.1,1.4c0,1.1,0.1,1.9,0.4,2.4C41.6,115.1,42,115.4,42.4,115.4z"/>
					</g>
					<g class="st1">
						<path class="st2" d="M66.2,145.3v-1.2c-0.4,0-0.8-0.1-1.1-0.3c-0.4-0.2-0.7-0.4-0.9-0.6l0.5-0.7c0.3,0.2,0.5,0.4,0.8,0.6
							c0.3,0.2,0.6,0.2,1,0.2c0.4,0,0.8-0.1,1-0.3s0.3-0.5,0.3-0.9c0-0.3-0.1-0.6-0.2-0.8s-0.4-0.4-0.6-0.6
							c-0.2-0.2-0.5-0.3-0.8-0.4c-0.3-0.1-0.6-0.3-0.8-0.5c-0.2-0.2-0.5-0.4-0.6-0.6s-0.2-0.6-0.2-1c0-0.5,0.2-1,0.5-1.3
							c0.3-0.4,0.7-0.6,1.3-0.7V135h0.7v1.2c0.4,0,0.7,0.1,1,0.3s0.5,0.4,0.7,0.6l-0.5,0.6c-0.2-0.2-0.4-0.4-0.7-0.5
							s-0.5-0.2-0.8-0.2c-0.4,0-0.7,0.1-0.9,0.3c-0.2,0.2-0.3,0.5-0.3,0.8c0,0.3,0.1,0.5,0.2,0.7c0.2,0.2,0.4,0.3,0.6,0.5
							s0.5,0.3,0.8,0.4s0.6,0.3,0.8,0.5c0.2,0.2,0.5,0.4,0.6,0.7s0.2,0.6,0.2,1.1c0,0.6-0.2,1-0.5,1.4c-0.3,0.4-0.8,0.6-1.4,0.7v1.2
							H66.2z"/>
						<path class="st2" d="M71.6,144c0-0.7,0.1-1.4,0.2-2c0.1-0.6,0.2-1.2,0.4-1.7c0.2-0.5,0.4-1.1,0.7-1.6s0.6-1,1-1.5H70v-0.9h4.9
							v0.6c-0.5,0.6-0.8,1.1-1.1,1.7c-0.3,0.5-0.5,1.1-0.7,1.6c-0.2,0.5-0.3,1.1-0.4,1.7c-0.1,0.6-0.1,1.3-0.2,2H71.6z"/>
						<path class="st2" d="M78.2,144.1c-0.3,0-0.6,0-0.8-0.1c-0.3-0.1-0.5-0.1-0.7-0.2c-0.2-0.1-0.4-0.2-0.6-0.3s-0.3-0.3-0.4-0.4
							l0.5-0.6c0.2,0.2,0.5,0.4,0.8,0.6c0.3,0.2,0.7,0.3,1.1,0.3c0.2,0,0.5,0,0.7-0.1c0.2-0.1,0.4-0.2,0.5-0.4
							c0.2-0.2,0.3-0.3,0.4-0.6c0.1-0.2,0.1-0.5,0.1-0.7c0-0.5-0.1-0.9-0.4-1.2c-0.3-0.3-0.7-0.4-1.2-0.4c-0.3,0-0.5,0-0.7,0.1
							c-0.2,0.1-0.4,0.2-0.6,0.3l-0.5-0.3l0.3-3.7h3.8v0.9h-3l-0.2,2.3c0.2-0.1,0.4-0.2,0.6-0.2c0.2-0.1,0.4-0.1,0.6-0.1
							c0.3,0,0.6,0,0.9,0.1s0.5,0.2,0.8,0.4c0.2,0.2,0.4,0.4,0.5,0.7c0.1,0.3,0.2,0.7,0.2,1.1s-0.1,0.8-0.2,1.1
							c-0.1,0.3-0.3,0.6-0.6,0.8c-0.2,0.2-0.5,0.4-0.8,0.5C78.9,144.1,78.6,144.1,78.2,144.1z"/>
					</g>
					<g class="st1">
						<path class="st2" d="M103.2,135.3v-1.2c-0.4,0-0.8-0.1-1.1-0.3c-0.4-0.2-0.7-0.4-0.9-0.6l0.5-0.7c0.3,0.2,0.5,0.4,0.8,0.6
							c0.3,0.2,0.6,0.2,1,0.2c0.4,0,0.8-0.1,1-0.3s0.3-0.5,0.3-0.9c0-0.3-0.1-0.6-0.2-0.8s-0.4-0.4-0.6-0.6
							c-0.2-0.2-0.5-0.3-0.8-0.4c-0.3-0.1-0.6-0.3-0.8-0.5c-0.2-0.2-0.5-0.4-0.6-0.6s-0.2-0.6-0.2-1c0-0.5,0.2-1,0.5-1.3
							c0.3-0.4,0.7-0.6,1.3-0.7V125h0.7v1.2c0.4,0,0.7,0.1,1,0.3s0.5,0.4,0.7,0.6l-0.5,0.6c-0.2-0.2-0.4-0.4-0.7-0.5
							s-0.5-0.2-0.8-0.2c-0.4,0-0.7,0.1-0.9,0.3c-0.2,0.2-0.3,0.5-0.3,0.8c0,0.3,0.1,0.5,0.2,0.7c0.2,0.2,0.4,0.3,0.6,0.5
							s0.5,0.3,0.8,0.4s0.6,0.3,0.8,0.5c0.2,0.2,0.5,0.4,0.6,0.7s0.2,0.6,0.2,1.1c0,0.6-0.2,1-0.5,1.4c-0.3,0.4-0.8,0.6-1.4,0.7v1.2
							H103.2z"/>
						<path class="st2" d="M107.4,134v-0.8h1.8v-5.6h-1.4v-0.6c0.4-0.1,0.7-0.1,0.9-0.2c0.3-0.1,0.5-0.2,0.7-0.3h0.8v6.8h1.6v0.8
							H107.4z"/>
						<path class="st2" d="M115.4,134.1c-0.8,0-1.4-0.3-1.8-1c-0.4-0.7-0.6-1.7-0.6-3s0.2-2.3,0.6-2.9c0.4-0.7,1-1,1.8-1
							c0.8,0,1.4,0.3,1.8,1s0.6,1.7,0.6,2.9s-0.2,2.3-0.6,3C116.8,133.8,116.2,134.1,115.4,134.1z M115.4,133.4
							c0.2,0,0.4-0.1,0.6-0.2c0.2-0.1,0.3-0.3,0.5-0.6s0.2-0.6,0.3-1c0.1-0.4,0.1-0.9,0.1-1.4c0-0.6,0-1-0.1-1.4
							c-0.1-0.4-0.2-0.7-0.3-1c-0.1-0.3-0.3-0.4-0.5-0.6c-0.2-0.1-0.4-0.2-0.6-0.2c-0.2,0-0.4,0.1-0.6,0.2s-0.3,0.3-0.5,0.6
							c-0.1,0.3-0.2,0.6-0.3,1c-0.1,0.4-0.1,0.9-0.1,1.4c0,1.1,0.1,1.9,0.4,2.4C114.6,133.1,115,133.4,115.4,133.4z"/>
						<path class="st2" d="M121.4,134.1c-0.8,0-1.4-0.3-1.8-1c-0.4-0.7-0.6-1.7-0.6-3s0.2-2.3,0.6-2.9c0.4-0.7,1-1,1.8-1
							c0.8,0,1.4,0.3,1.8,1s0.6,1.7,0.6,2.9s-0.2,2.3-0.6,3C122.8,133.8,122.2,134.1,121.4,134.1z M121.4,133.4
							c0.2,0,0.4-0.1,0.6-0.2c0.2-0.1,0.3-0.3,0.5-0.6s0.2-0.6,0.3-1c0.1-0.4,0.1-0.9,0.1-1.4c0-0.6,0-1-0.1-1.4
							c-0.1-0.4-0.2-0.7-0.3-1c-0.1-0.3-0.3-0.4-0.5-0.6c-0.2-0.1-0.4-0.2-0.6-0.2c-0.2,0-0.4,0.1-0.6,0.2s-0.3,0.3-0.5,0.6
							c-0.1,0.3-0.2,0.6-0.3,1c-0.1,0.4-0.1,0.9-0.1,1.4c0,1.1,0.1,1.9,0.4,2.4C120.6,133.1,121,133.4,121.4,133.4z"/>
					</g>
					<g class="st1">
						<path class="st2" d="M228.2,136.3v-1.2c-0.4,0-0.8-0.1-1.1-0.3c-0.4-0.2-0.7-0.4-0.9-0.6l0.5-0.7c0.3,0.2,0.5,0.4,0.8,0.6
							c0.3,0.2,0.6,0.2,1,0.2c0.4,0,0.8-0.1,1-0.3s0.3-0.5,0.3-0.9c0-0.3-0.1-0.6-0.2-0.8s-0.4-0.4-0.6-0.6
							c-0.2-0.2-0.5-0.3-0.8-0.4c-0.3-0.1-0.6-0.3-0.8-0.5c-0.2-0.2-0.5-0.4-0.6-0.6s-0.2-0.6-0.2-1c0-0.5,0.2-1,0.5-1.3
							c0.3-0.4,0.7-0.6,1.3-0.7V126h0.7v1.2c0.4,0,0.7,0.1,1,0.3s0.5,0.4,0.7,0.6l-0.5,0.6c-0.2-0.2-0.4-0.4-0.7-0.5
							s-0.5-0.2-0.8-0.2c-0.4,0-0.7,0.1-0.9,0.3c-0.2,0.2-0.3,0.5-0.3,0.8c0,0.3,0.1,0.5,0.2,0.7c0.2,0.2,0.4,0.3,0.6,0.5
							s0.5,0.3,0.8,0.4s0.6,0.3,0.8,0.5c0.2,0.2,0.5,0.4,0.6,0.7s0.2,0.6,0.2,1.1c0,0.6-0.2,1-0.5,1.4c-0.3,0.4-0.8,0.6-1.4,0.7v1.2
							H228.2z"/>
						<path class="st2" d="M232.4,135v-0.8h1.8v-5.6h-1.4v-0.6c0.4-0.1,0.7-0.1,0.9-0.2c0.3-0.1,0.5-0.2,0.7-0.3h0.8v6.8h1.6v0.8
							H232.4z"/>
						<path class="st2" d="M240.4,135.1c-0.8,0-1.4-0.3-1.8-1c-0.4-0.7-0.6-1.7-0.6-3s0.2-2.3,0.6-2.9c0.4-0.7,1-1,1.8-1
							c0.8,0,1.4,0.3,1.8,1c0.4,0.7,0.6,1.7,0.6,2.9s-0.2,2.3-0.6,3C241.8,134.8,241.2,135.1,240.4,135.1z M240.4,134.4
							c0.2,0,0.4-0.1,0.6-0.2s0.3-0.3,0.5-0.6s0.2-0.6,0.3-1c0.1-0.4,0.1-0.9,0.1-1.4c0-0.6,0-1-0.1-1.4c-0.1-0.4-0.2-0.7-0.3-1
							c-0.1-0.3-0.3-0.4-0.5-0.6s-0.4-0.2-0.6-0.2c-0.2,0-0.4,0.1-0.6,0.2c-0.2,0.1-0.3,0.3-0.5,0.6c-0.1,0.3-0.2,0.6-0.3,1
							s-0.1,0.9-0.1,1.4c0,1.1,0.1,1.9,0.4,2.4C239.6,134.1,240,134.4,240.4,134.4z"/>
						<path class="st2" d="M246.4,135.1c-0.8,0-1.4-0.3-1.8-1c-0.4-0.7-0.6-1.7-0.6-3s0.2-2.3,0.6-2.9s1-1,1.8-1
							c0.8,0,1.4,0.3,1.8,1c0.4,0.7,0.6,1.7,0.6,2.9s-0.2,2.3-0.6,3C247.8,134.8,247.2,135.1,246.4,135.1z M246.4,134.4
							c0.2,0,0.4-0.1,0.6-0.2s0.3-0.3,0.5-0.6s0.2-0.6,0.3-1c0.1-0.4,0.1-0.9,0.1-1.4c0-0.6,0-1-0.1-1.4c-0.1-0.4-0.2-0.7-0.3-1
							c-0.1-0.3-0.3-0.4-0.5-0.6s-0.4-0.2-0.6-0.2c-0.2,0-0.4,0.1-0.6,0.2c-0.2,0.1-0.3,0.3-0.5,0.6c-0.1,0.3-0.2,0.6-0.3,1
							s-0.1,0.9-0.1,1.4c0,1.1,0.1,1.9,0.4,2.4C245.6,134.1,246,134.4,246.4,134.4z"/>
					</g>
					<g class="st1">
						<path class="st2" d="M408.2,13.3v-1.2c-0.4,0-0.8-0.1-1.1-0.3c-0.4-0.2-0.7-0.4-0.9-0.6l0.5-0.7c0.3,0.2,0.5,0.4,0.8,0.6
							c0.3,0.2,0.6,0.2,1,0.2c0.4,0,0.8-0.1,1-0.3c0.2-0.2,0.3-0.5,0.3-0.9c0-0.3-0.1-0.6-0.2-0.8s-0.4-0.4-0.6-0.6
							c-0.2-0.2-0.5-0.3-0.8-0.4c-0.3-0.1-0.6-0.3-0.8-0.5c-0.2-0.2-0.5-0.4-0.6-0.6s-0.2-0.6-0.2-1c0-0.5,0.2-1,0.5-1.3
							c0.3-0.4,0.7-0.6,1.3-0.7V3h0.7v1.2c0.4,0,0.7,0.1,1,0.3c0.3,0.2,0.5,0.4,0.7,0.6l-0.5,0.6c-0.2-0.2-0.4-0.4-0.7-0.5
							S409,5,408.6,5c-0.4,0-0.7,0.1-0.9,0.3s-0.3,0.5-0.3,0.8c0,0.3,0.1,0.5,0.2,0.7c0.2,0.2,0.4,0.3,0.6,0.5s0.5,0.3,0.8,0.4
							s0.6,0.3,0.8,0.5c0.2,0.2,0.5,0.4,0.6,0.7s0.2,0.6,0.2,1.1c0,0.6-0.2,1-0.5,1.4c-0.3,0.4-0.8,0.6-1.4,0.7v1.2H408.2z"/>
						<path class="st2" d="M415.1,12V9.9h-3.4V9.2l3.3-4.9h1.1v4.8h1v0.8h-1V12H415.1z M412.7,9.1h2.4V6.9c0-0.2,0-0.5,0-0.7
							c0-0.3,0-0.5,0-0.7h0c-0.1,0.2-0.2,0.4-0.3,0.5c-0.1,0.2-0.2,0.4-0.3,0.5L412.7,9.1z"/>
						<path class="st2" d="M417.9,12v-0.6c0.6-0.6,1.1-1.1,1.5-1.6c0.4-0.5,0.8-0.9,1.1-1.3c0.3-0.4,0.5-0.8,0.7-1.1s0.2-0.7,0.2-1
							c0-0.4-0.1-0.8-0.4-1.1c-0.2-0.3-0.6-0.4-1.1-0.4c-0.3,0-0.6,0.1-0.9,0.3c-0.3,0.2-0.5,0.4-0.7,0.7l-0.6-0.6
							c0.3-0.4,0.7-0.6,1-0.8c0.4-0.2,0.8-0.3,1.3-0.3c0.7,0,1.3,0.2,1.7,0.6s0.6,1,0.6,1.6c0,0.4-0.1,0.7-0.2,1.1s-0.4,0.7-0.6,1.1
							c-0.3,0.4-0.6,0.8-1,1.2s-0.8,0.9-1.3,1.3c0.2,0,0.4,0,0.6,0c0.2,0,0.4,0,0.6,0h2.2V12H417.9z"/>
						<path class="st2" d="M426.2,12.1c-0.3,0-0.6,0-0.8-0.1c-0.3-0.1-0.5-0.1-0.7-0.2c-0.2-0.1-0.4-0.2-0.6-0.3s-0.3-0.3-0.4-0.4
							l0.5-0.6c0.2,0.2,0.5,0.4,0.8,0.6c0.3,0.2,0.7,0.3,1.1,0.3c0.2,0,0.5,0,0.7-0.1c0.2-0.1,0.4-0.2,0.5-0.4
							c0.2-0.2,0.3-0.3,0.4-0.6s0.1-0.5,0.1-0.7c0-0.5-0.1-0.9-0.4-1.2c-0.3-0.3-0.7-0.4-1.2-0.4c-0.3,0-0.5,0-0.7,0.1
							c-0.2,0.1-0.4,0.2-0.6,0.3L424.3,8l0.3-3.7h3.8v0.9h-3l-0.2,2.3c0.2-0.1,0.4-0.2,0.6-0.2c0.2-0.1,0.4-0.1,0.6-0.1
							c0.3,0,0.6,0,0.9,0.1s0.5,0.2,0.8,0.4c0.2,0.2,0.4,0.4,0.5,0.7c0.1,0.3,0.2,0.7,0.2,1.1s-0.1,0.8-0.2,1.1
							c-0.1,0.3-0.3,0.6-0.6,0.8c-0.2,0.2-0.5,0.4-0.8,0.5C426.9,12.1,426.6,12.1,426.2,12.1z"/>
					</g>
					<g id="Amounts" transform="translate(0.000000, 124.000000)">
						<path class="st2" d="M144,56.5H0c-0.3,0-0.5-0.2-0.5-0.5s0.2-0.5,0.5-0.5h144c0.3,0,0.5,0.2,0.5,0.5S144.3,56.5,144,56.5z"/>
						<g id="Group" transform="translate(17.000000, 0.000000)">
							<rect id="Rectangle-Copy-12" x="0" y="0" class="st3" width="32" height="56"/>
							<rect id="Rectangle-Copy-13" x="79.5" y="18" class="st3" width="32" height="38"/>
							<rect id="Rectangle-Copy-14" x="39.5" y="28" class="st3" width="32" height="28"/>
						</g>
					</g>
					<g id="this-year_x27_s-deficit" transform="translate(200.000000, 143.000000)">
						<path class="st2" d="M72,38.1H0c-0.3,0-0.5-0.2-0.5-0.5s0.2-0.5,0.5-0.5h72c0.3,0,0.5,0.2,0.5,0.5S72.3,38.1,72,38.1z"/>
						<rect id="Rectangle-Copy-16" x="21" y="0" class="st3" width="32" height="38"/>
					</g>
					<g id="total-debt" transform="translate(381.000000, 20.000000)">
						<path class="st2" d="M72,160H0c-0.3,0-0.5-0.2-0.5-0.5S-0.3,159,0,159h72c0.3,0,0.5,0.2,0.5,0.5S72.3,160,72,160z"/>
						<rect id="Rectangle-Copy-17" x="20" y="0" class="st4" width="32" height="160"/>
					</g>
					<g class="st1">
						<path class="st2" d="M40.7,210v-9.2H43c1.4,0,2.5,0.4,3.2,1.2c0.7,0.8,1.1,1.9,1.1,3.4c0,0.7-0.1,1.4-0.3,2
							c-0.2,0.6-0.5,1.1-0.8,1.5c-0.4,0.4-0.8,0.7-1.3,0.9c-0.5,0.2-1.1,0.3-1.8,0.3H40.7z M41.8,209h1.1c1.1,0,1.9-0.3,2.4-1
							c0.5-0.6,0.8-1.5,0.8-2.7c0-1.2-0.3-2.1-0.8-2.7c-0.5-0.6-1.3-0.9-2.4-0.9h-1.1V209z"/>
						<path class="st2" d="M51.9,210.2c-0.5,0-0.9-0.1-1.3-0.2c-0.4-0.2-0.7-0.4-1-0.7s-0.5-0.7-0.7-1.1c-0.2-0.4-0.3-0.9-0.3-1.5
							s0.1-1.1,0.3-1.5s0.4-0.8,0.7-1.1c0.3-0.3,0.6-0.5,1-0.7c0.4-0.2,0.7-0.2,1.1-0.2c0.4,0,0.8,0.1,1.2,0.2
							c0.3,0.1,0.6,0.4,0.9,0.6c0.2,0.3,0.4,0.6,0.5,1c0.1,0.4,0.2,0.8,0.2,1.3c0,0.1,0,0.2,0,0.4c0,0.1,0,0.2,0,0.3h-4.6
							c0,0.7,0.3,1.3,0.7,1.7c0.4,0.4,0.9,0.6,1.6,0.6c0.3,0,0.6,0,0.9-0.1c0.3-0.1,0.5-0.2,0.8-0.4l0.4,0.8c-0.3,0.2-0.6,0.4-1,0.5
							C52.8,210.1,52.4,210.2,51.9,210.2z M49.8,206h3.6c0-0.7-0.1-1.2-0.4-1.6s-0.7-0.5-1.2-0.5c-0.2,0-0.5,0-0.7,0.1
							s-0.4,0.2-0.6,0.4s-0.3,0.4-0.4,0.7C49.9,205.4,49.8,205.7,49.8,206z"/>
						<path class="st2" d="M56.3,210v-5.9h-0.9v-0.9l0.9-0.1v-1.1c0-0.7,0.2-1.2,0.5-1.7c0.3-0.4,0.8-0.6,1.5-0.6
							c0.2,0,0.4,0,0.6,0.1c0.2,0,0.4,0.1,0.5,0.2l-0.3,0.9c-0.3-0.1-0.5-0.2-0.8-0.2c-0.6,0-1,0.4-1,1.3v1.1h1.4v0.9h-1.4v5.9H56.3
							z"/>
						<path class="st2" d="M60.8,201.8c-0.2,0-0.4-0.1-0.6-0.2c-0.2-0.1-0.2-0.3-0.2-0.5c0-0.2,0.1-0.4,0.2-0.5
							c0.2-0.1,0.3-0.2,0.6-0.2c0.2,0,0.4,0.1,0.6,0.2c0.2,0.1,0.2,0.3,0.2,0.5c0,0.2-0.1,0.4-0.2,0.5
							C61.2,201.7,61,201.8,60.8,201.8z M60.2,210v-6.8h1.1v6.8H60.2z"/>
						<path class="st2" d="M66.3,210.2c-0.4,0-0.9-0.1-1.3-0.2c-0.4-0.2-0.7-0.4-1-0.7c-0.3-0.3-0.5-0.7-0.7-1.1
							c-0.2-0.4-0.2-0.9-0.2-1.5c0-0.6,0.1-1.1,0.3-1.5c0.2-0.4,0.4-0.8,0.7-1.1c0.3-0.3,0.6-0.5,1-0.7c0.4-0.2,0.8-0.2,1.3-0.2
							c0.4,0,0.8,0.1,1.1,0.2s0.6,0.3,0.8,0.6l-0.6,0.8c-0.2-0.2-0.4-0.3-0.6-0.4c-0.2-0.1-0.5-0.2-0.7-0.2c-0.3,0-0.6,0.1-0.9,0.2
							c-0.3,0.1-0.5,0.3-0.7,0.5c-0.2,0.2-0.3,0.5-0.4,0.8c-0.1,0.3-0.2,0.7-0.2,1.1s0.1,0.7,0.2,1.1c0.1,0.3,0.2,0.6,0.4,0.8
							s0.4,0.4,0.7,0.5c0.3,0.1,0.5,0.2,0.9,0.2c0.3,0,0.6-0.1,0.9-0.2c0.3-0.1,0.5-0.3,0.7-0.5l0.5,0.8c-0.3,0.3-0.6,0.5-1,0.6
							C67.1,210.1,66.8,210.2,66.3,210.2z"/>
						<path class="st2" d="M70.6,201.8c-0.2,0-0.4-0.1-0.6-0.2c-0.2-0.1-0.2-0.3-0.2-0.5c0-0.2,0.1-0.4,0.2-0.5
							c0.2-0.1,0.3-0.2,0.6-0.2c0.2,0,0.4,0.1,0.6,0.2c0.2,0.1,0.2,0.3,0.2,0.5c0,0.2-0.1,0.4-0.2,0.5
							C71,201.7,70.9,201.8,70.6,201.8z M70,210v-6.8h1.1v6.8H70z"/>
						<path class="st2" d="M75.6,210.2c-0.4,0-0.7-0.1-0.9-0.2c-0.2-0.1-0.4-0.3-0.6-0.5c-0.2-0.2-0.3-0.4-0.3-0.7
							c-0.1-0.3-0.1-0.6-0.1-0.9v-3.8h-1v-0.9l1.1-0.1l0.1-1.9h1v1.9h1.8v0.9h-1.8v3.8c0,0.4,0.1,0.7,0.2,1c0.2,0.2,0.4,0.3,0.8,0.3
							c0.1,0,0.3,0,0.4-0.1c0.1,0,0.3-0.1,0.4-0.1l0.2,0.9c-0.2,0.1-0.4,0.1-0.6,0.2C76.1,210.1,75.8,210.2,75.6,210.2z"/>
						<path class="st2" d="M81.2,210v-5.9h-0.9v-0.9l0.9-0.1v-1.1c0-0.7,0.2-1.2,0.5-1.7c0.3-0.4,0.8-0.6,1.5-0.6
							c0.2,0,0.4,0,0.6,0.1c0.2,0,0.4,0.1,0.5,0.2l-0.3,0.9c-0.3-0.1-0.5-0.2-0.8-0.2c-0.6,0-1,0.4-1,1.3v1.1h1.4v0.9h-1.4v5.9H81.2
							z"/>
						<path class="st2" d="M85.1,210v-6.8h1l0.1,1.2h0c0.2-0.4,0.5-0.8,0.8-1c0.3-0.3,0.7-0.4,1.1-0.4c0.3,0,0.5,0,0.7,0.1l-0.2,1
							c-0.1,0-0.2-0.1-0.3-0.1c-0.1,0-0.2,0-0.4,0c-0.3,0-0.6,0.1-0.9,0.3c-0.3,0.2-0.6,0.6-0.8,1.2v4.4H85.1z"/>
						<path class="st2" d="M92.5,210.2c-0.4,0-0.8-0.1-1.2-0.2s-0.7-0.4-1-0.7c-0.3-0.3-0.5-0.7-0.7-1.1s-0.3-0.9-0.3-1.5
							c0-0.6,0.1-1.1,0.3-1.5s0.4-0.8,0.7-1.1c0.3-0.3,0.6-0.5,1-0.7s0.8-0.2,1.2-0.2s0.8,0.1,1.2,0.2c0.4,0.2,0.7,0.4,1,0.7
							c0.3,0.3,0.5,0.7,0.7,1.1c0.2,0.4,0.3,1,0.3,1.5c0,0.6-0.1,1.1-0.3,1.5c-0.2,0.4-0.4,0.8-0.7,1.1c-0.3,0.3-0.6,0.5-1,0.7
							C93.3,210.1,92.9,210.2,92.5,210.2z M92.5,209.2c0.3,0,0.6-0.1,0.8-0.2c0.2-0.1,0.5-0.3,0.6-0.5s0.3-0.5,0.4-0.8
							c0.1-0.3,0.1-0.7,0.1-1.1s0-0.7-0.1-1.1s-0.2-0.6-0.4-0.8c-0.2-0.2-0.4-0.4-0.6-0.5c-0.2-0.1-0.5-0.2-0.8-0.2
							c-0.3,0-0.6,0.1-0.8,0.2c-0.2,0.1-0.5,0.3-0.6,0.5c-0.2,0.2-0.3,0.5-0.4,0.8c-0.1,0.3-0.1,0.7-0.1,1.1s0,0.7,0.1,1.1
							c0.1,0.3,0.2,0.6,0.4,0.8c0.2,0.2,0.4,0.4,0.6,0.5C91.9,209.1,92.2,209.2,92.5,209.2z"/>
						<path class="st2" d="M97.4,210v-6.8h1l0.1,1h0c0.3-0.3,0.6-0.6,1-0.8c0.4-0.2,0.7-0.3,1.1-0.3c0.5,0,0.9,0.1,1.2,0.3
							s0.5,0.5,0.7,1c0.4-0.4,0.7-0.7,1.1-0.9s0.7-0.4,1.2-0.4c0.7,0,1.2,0.2,1.6,0.7c0.3,0.4,0.5,1.1,0.5,2v4.3h-1.1v-4.2
							c0-0.6-0.1-1.1-0.3-1.4c-0.2-0.3-0.5-0.4-1-0.4c-0.5,0-1.1,0.3-1.7,1.1v4.9h-1.1v-4.2c0-0.6-0.1-1.1-0.3-1.4
							c-0.2-0.3-0.5-0.4-1-0.4c-0.5,0-1.1,0.3-1.7,1.1v4.9H97.4z"/>
					</g>
					<g class="st1">
						<path class="st2" d="M32.6,228.9v-9.7h1l0.1,0.8h0c0.3-0.3,0.6-0.5,1-0.7c0.4-0.2,0.8-0.3,1.2-0.3c0.4,0,0.8,0.1,1.2,0.2
							c0.3,0.2,0.6,0.4,0.8,0.7s0.4,0.7,0.5,1.1c0.1,0.4,0.2,0.9,0.2,1.4c0,0.6-0.1,1.1-0.2,1.5s-0.4,0.8-0.6,1.2
							c-0.3,0.3-0.6,0.6-0.9,0.7c-0.4,0.2-0.7,0.2-1.1,0.2c-0.3,0-0.6-0.1-0.9-0.2c-0.3-0.1-0.6-0.3-0.9-0.6l0,1.2v2.3H32.6z
							 M35.5,225.2c0.3,0,0.5-0.1,0.8-0.2c0.2-0.1,0.4-0.3,0.6-0.5s0.3-0.5,0.4-0.8c0.1-0.3,0.1-0.7,0.1-1.1c0-0.4,0-0.7-0.1-1
							c-0.1-0.3-0.2-0.6-0.3-0.8c-0.1-0.2-0.3-0.4-0.6-0.5c-0.2-0.1-0.5-0.2-0.8-0.2c-0.3,0-0.6,0.1-0.9,0.2
							c-0.3,0.2-0.6,0.4-0.9,0.7v3.6c0.3,0.3,0.6,0.4,0.9,0.6S35.2,225.2,35.5,225.2z"/>
						<path class="st2" d="M40.4,226v-6.8h1l0.1,1.2h0c0.2-0.4,0.5-0.8,0.8-1c0.3-0.3,0.7-0.4,1.1-0.4c0.3,0,0.5,0,0.7,0.1l-0.2,1
							c-0.1,0-0.2-0.1-0.3-0.1c-0.1,0-0.2,0-0.4,0c-0.3,0-0.6,0.1-0.9,0.3c-0.3,0.2-0.6,0.6-0.8,1.2v4.4H40.4z"/>
						<path class="st2" d="M47.9,226.2c-0.5,0-0.9-0.1-1.3-0.2c-0.4-0.2-0.7-0.4-1-0.7s-0.5-0.7-0.7-1.1c-0.2-0.4-0.3-0.9-0.3-1.5
							s0.1-1.1,0.3-1.5s0.4-0.8,0.7-1.1c0.3-0.3,0.6-0.5,1-0.7c0.4-0.2,0.7-0.2,1.1-0.2c0.4,0,0.8,0.1,1.2,0.2
							c0.3,0.1,0.6,0.4,0.9,0.6c0.2,0.3,0.4,0.6,0.5,1c0.1,0.4,0.2,0.8,0.2,1.3c0,0.1,0,0.2,0,0.4c0,0.1,0,0.2,0,0.3h-4.6
							c0,0.7,0.3,1.3,0.7,1.7c0.4,0.4,0.9,0.6,1.6,0.6c0.3,0,0.6,0,0.9-0.1c0.3-0.1,0.5-0.2,0.8-0.4l0.4,0.8c-0.3,0.2-0.6,0.4-1,0.5
							C48.8,226.1,48.4,226.2,47.9,226.2z M45.7,222h3.6c0-0.7-0.1-1.2-0.4-1.6s-0.7-0.5-1.2-0.5c-0.2,0-0.5,0-0.7,0.1
							s-0.4,0.2-0.6,0.4s-0.3,0.4-0.4,0.7C45.9,221.4,45.8,221.7,45.7,222z"/>
						<path class="st2" d="M53.6,226l-2.5-6.8h1.2l1.3,3.9c0.1,0.3,0.2,0.7,0.3,1s0.2,0.7,0.3,1h0.1c0.1-0.3,0.2-0.7,0.3-1
							c0.1-0.3,0.2-0.7,0.3-1l1.3-3.9h1.1L55,226H53.6z"/>
						<path class="st2" d="M59.3,217.8c-0.2,0-0.4-0.1-0.6-0.2c-0.2-0.1-0.2-0.3-0.2-0.5c0-0.2,0.1-0.4,0.2-0.5
							c0.2-0.1,0.3-0.2,0.6-0.2c0.2,0,0.4,0.1,0.6,0.2c0.2,0.1,0.2,0.3,0.2,0.5c0,0.2-0.1,0.4-0.2,0.5
							C59.7,217.7,59.5,217.8,59.3,217.8z M58.7,226v-6.8h1.1v6.8H58.7z"/>
						<path class="st2" d="M64.8,226.2c-0.4,0-0.8-0.1-1.2-0.2s-0.7-0.4-1-0.7c-0.3-0.3-0.5-0.7-0.7-1.1s-0.3-0.9-0.3-1.5
							c0-0.6,0.1-1.1,0.3-1.5s0.4-0.8,0.7-1.1c0.3-0.3,0.6-0.5,1-0.7s0.8-0.2,1.2-0.2s0.8,0.1,1.2,0.2c0.4,0.2,0.7,0.4,1,0.7
							c0.3,0.3,0.5,0.7,0.7,1.1c0.2,0.4,0.3,1,0.3,1.5c0,0.6-0.1,1.1-0.3,1.5c-0.2,0.4-0.4,0.8-0.7,1.1c-0.3,0.3-0.6,0.5-1,0.7
							C65.6,226.1,65.2,226.2,64.8,226.2z M64.8,225.2c0.3,0,0.6-0.1,0.8-0.2c0.2-0.1,0.5-0.3,0.6-0.5s0.3-0.5,0.4-0.8
							c0.1-0.3,0.1-0.7,0.1-1.1s0-0.7-0.1-1.1s-0.2-0.6-0.4-0.8c-0.2-0.2-0.4-0.4-0.6-0.5c-0.2-0.1-0.5-0.2-0.8-0.2
							c-0.3,0-0.6,0.1-0.8,0.2c-0.2,0.1-0.5,0.3-0.6,0.5c-0.2,0.2-0.3,0.5-0.4,0.8c-0.1,0.3-0.1,0.7-0.1,1.1s0,0.7,0.1,1.1
							c0.1,0.3,0.2,0.6,0.4,0.8c0.2,0.2,0.4,0.4,0.6,0.5C64.2,225.1,64.5,225.2,64.8,225.2z"/>
						<path class="st2" d="M71.7,226.2c-0.7,0-1.3-0.2-1.6-0.7c-0.3-0.4-0.5-1.1-0.5-2v-4.3h1.2v4.2c0,0.6,0.1,1.1,0.3,1.4
							c0.2,0.3,0.5,0.4,1,0.4c0.4,0,0.7-0.1,0.9-0.3c0.3-0.2,0.6-0.5,0.9-0.9v-4.8H75v6.8h-1l-0.1-1.1h0c-0.3,0.4-0.7,0.7-1,0.9
							C72.6,226,72.2,226.2,71.7,226.2z"/>
						<path class="st2" d="M79.1,226.2c-0.5,0-0.9-0.1-1.4-0.3c-0.4-0.2-0.8-0.4-1.1-0.7l0.6-0.8c0.3,0.2,0.6,0.4,0.9,0.6
							c0.3,0.2,0.7,0.2,1.1,0.2c0.4,0,0.8-0.1,1-0.3s0.3-0.5,0.3-0.8c0-0.2,0-0.3-0.1-0.5s-0.2-0.2-0.4-0.3s-0.3-0.2-0.5-0.3
							c-0.2-0.1-0.4-0.1-0.6-0.2c-0.2-0.1-0.5-0.2-0.7-0.3s-0.5-0.2-0.7-0.4s-0.3-0.3-0.5-0.5c-0.1-0.2-0.2-0.5-0.2-0.7
							c0-0.3,0.1-0.5,0.2-0.8c0.1-0.2,0.3-0.4,0.5-0.6c0.2-0.2,0.4-0.3,0.7-0.4c0.3-0.1,0.6-0.1,1-0.1c0.4,0,0.8,0.1,1.2,0.2
							c0.4,0.1,0.7,0.3,0.9,0.5l-0.5,0.7c-0.2-0.2-0.5-0.3-0.7-0.4c-0.3-0.1-0.5-0.2-0.8-0.2c-0.4,0-0.7,0.1-0.9,0.3
							c-0.2,0.2-0.3,0.4-0.3,0.7c0,0.2,0,0.3,0.1,0.4s0.2,0.2,0.3,0.3c0.1,0.1,0.3,0.2,0.5,0.2c0.2,0.1,0.4,0.1,0.6,0.2
							c0.2,0.1,0.5,0.2,0.7,0.3c0.2,0.1,0.5,0.2,0.7,0.4c0.2,0.2,0.4,0.3,0.5,0.6c0.1,0.2,0.2,0.5,0.2,0.8c0,0.3-0.1,0.5-0.2,0.8
							s-0.3,0.5-0.5,0.6c-0.2,0.2-0.5,0.3-0.8,0.4C79.9,226.1,79.5,226.2,79.1,226.2z"/>
						<path class="st2" d="M86.1,228.9c-0.2,0-0.3,0-0.4,0c-0.1,0-0.3-0.1-0.4-0.1l0.2-0.9c0.1,0,0.2,0,0.3,0.1c0.1,0,0.2,0,0.3,0
							c0.4,0,0.7-0.1,1-0.4c0.2-0.3,0.4-0.6,0.6-1l0.2-0.5l-2.7-6.8h1.2l1.4,3.8c0.1,0.3,0.2,0.6,0.3,0.9c0.1,0.3,0.2,0.7,0.3,1h0.1
							c0.1-0.3,0.2-0.6,0.3-1s0.2-0.7,0.3-1l1.2-3.8h1.1l-2.6,7.4c-0.1,0.3-0.3,0.7-0.4,0.9s-0.3,0.5-0.5,0.7
							c-0.2,0.2-0.4,0.4-0.7,0.5S86.4,228.9,86.1,228.9z"/>
						<path class="st2" d="M95.2,226.2c-0.5,0-0.9-0.1-1.3-0.2c-0.4-0.2-0.7-0.4-1-0.7s-0.5-0.7-0.7-1.1c-0.2-0.4-0.3-0.9-0.3-1.5
							s0.1-1.1,0.3-1.5s0.4-0.8,0.7-1.1c0.3-0.3,0.6-0.5,1-0.7c0.4-0.2,0.7-0.2,1.1-0.2c0.4,0,0.8,0.1,1.2,0.2
							c0.3,0.1,0.6,0.4,0.9,0.6c0.2,0.3,0.4,0.6,0.5,1c0.1,0.4,0.2,0.8,0.2,1.3c0,0.1,0,0.2,0,0.4c0,0.1,0,0.2,0,0.3h-4.6
							c0,0.7,0.3,1.3,0.7,1.7c0.4,0.4,0.9,0.6,1.6,0.6c0.3,0,0.6,0,0.9-0.1c0.3-0.1,0.5-0.2,0.8-0.4l0.4,0.8c-0.3,0.2-0.6,0.4-1,0.5
							C96.1,226.1,95.7,226.2,95.2,226.2z M93.1,222h3.6c0-0.7-0.1-1.2-0.4-1.6s-0.7-0.5-1.2-0.5c-0.2,0-0.5,0-0.7,0.1
							s-0.4,0.2-0.6,0.4s-0.3,0.4-0.4,0.7C93.2,221.4,93.1,221.7,93.1,222z"/>
						<path class="st2" d="M100.8,226.2c-0.6,0-1-0.2-1.4-0.5s-0.6-0.8-0.6-1.4c0-0.7,0.3-1.3,1-1.7c0.7-0.4,1.7-0.7,3.2-0.8
							c0-0.2,0-0.4-0.1-0.6c0-0.2-0.1-0.4-0.2-0.5c-0.1-0.2-0.2-0.3-0.4-0.4c-0.2-0.1-0.4-0.1-0.7-0.1c-0.4,0-0.8,0.1-1.1,0.2
							c-0.3,0.2-0.7,0.3-0.9,0.5l-0.4-0.8c0.3-0.2,0.7-0.4,1.2-0.6c0.5-0.2,1-0.3,1.5-0.3c0.8,0,1.4,0.3,1.8,0.8
							c0.4,0.5,0.6,1.2,0.6,2v4.2h-1l-0.1-0.8h0c-0.3,0.3-0.7,0.5-1.1,0.7C101.6,226.1,101.2,226.2,100.8,226.2z M101.1,225.2
							c0.3,0,0.6-0.1,0.9-0.2c0.3-0.2,0.6-0.4,0.9-0.7v-1.9c-0.6,0.1-1,0.2-1.4,0.3c-0.4,0.1-0.7,0.2-0.9,0.4
							c-0.2,0.1-0.4,0.3-0.5,0.5s-0.2,0.4-0.2,0.6c0,0.4,0.1,0.7,0.4,0.8C100.5,225.2,100.8,225.2,101.1,225.2z"/>
						<path class="st2" d="M106.3,226v-6.8h1l0.1,1.2h0c0.2-0.4,0.5-0.8,0.8-1c0.3-0.3,0.7-0.4,1.1-0.4c0.3,0,0.5,0,0.7,0.1l-0.2,1
							c-0.1,0-0.2-0.1-0.3-0.1c-0.1,0-0.2,0-0.4,0c-0.3,0-0.6,0.1-0.9,0.3c-0.3,0.2-0.6,0.6-0.8,1.2v4.4H106.3z"/>
						<path class="st2" d="M112.9,226.2c-0.5,0-0.9-0.1-1.4-0.3c-0.4-0.2-0.8-0.4-1.1-0.7l0.6-0.8c0.3,0.2,0.6,0.4,0.9,0.6
							c0.3,0.2,0.7,0.2,1.1,0.2c0.4,0,0.8-0.1,1-0.3s0.3-0.5,0.3-0.8c0-0.2,0-0.3-0.1-0.5s-0.2-0.2-0.4-0.3s-0.3-0.2-0.5-0.3
							c-0.2-0.1-0.4-0.1-0.6-0.2c-0.2-0.1-0.5-0.2-0.7-0.3s-0.5-0.2-0.7-0.4s-0.3-0.3-0.5-0.5c-0.1-0.2-0.2-0.5-0.2-0.7
							c0-0.3,0.1-0.5,0.2-0.8c0.1-0.2,0.3-0.4,0.5-0.6c0.2-0.2,0.4-0.3,0.7-0.4c0.3-0.1,0.6-0.1,1-0.1c0.4,0,0.8,0.1,1.2,0.2
							c0.4,0.1,0.7,0.3,0.9,0.5l-0.5,0.7c-0.2-0.2-0.5-0.3-0.7-0.4c-0.3-0.1-0.5-0.2-0.8-0.2c-0.4,0-0.7,0.1-0.9,0.3
							c-0.2,0.2-0.3,0.4-0.3,0.7c0,0.2,0,0.3,0.1,0.4s0.2,0.2,0.3,0.3c0.1,0.1,0.3,0.2,0.5,0.2c0.2,0.1,0.4,0.1,0.6,0.2
							c0.2,0.1,0.5,0.2,0.7,0.3c0.2,0.1,0.5,0.2,0.7,0.4c0.2,0.2,0.4,0.3,0.5,0.6c0.1,0.2,0.2,0.5,0.2,0.8c0,0.3-0.1,0.5-0.2,0.8
							s-0.3,0.5-0.5,0.6c-0.2,0.2-0.5,0.3-0.8,0.4C113.6,226.1,113.3,226.2,112.9,226.2z"/>
					</g>
					<g class="st1">
						<path class="st2" d="M189.8,211.1v-8.2H187v-1h6.7v1h-2.8v8.2H189.8z"/>
						<path class="st2" d="M195.3,211.1v-10h1.1v2.7l0,1.4c0.3-0.3,0.7-0.6,1-0.8c0.4-0.2,0.8-0.3,1.2-0.3c0.7,0,1.2,0.2,1.6,0.7
							c0.3,0.4,0.5,1.1,0.5,2v4.3h-1.1v-4.2c0-0.6-0.1-1.1-0.3-1.4c-0.2-0.3-0.5-0.4-1-0.4c-0.4,0-0.7,0.1-0.9,0.3
							c-0.3,0.2-0.6,0.4-0.9,0.8v4.9H195.3z"/>
						<path class="st2" d="M203.5,202.9c-0.2,0-0.4-0.1-0.6-0.2c-0.2-0.1-0.2-0.3-0.2-0.5c0-0.2,0.1-0.4,0.2-0.5
							c0.2-0.1,0.3-0.2,0.6-0.2c0.2,0,0.4,0.1,0.6,0.2c0.2,0.1,0.2,0.3,0.2,0.5c0,0.2-0.1,0.4-0.2,0.5
							C203.9,202.8,203.7,202.9,203.5,202.9z M202.9,211.1v-6.8h1.1v6.8H202.9z"/>
						<path class="st2" d="M208.1,211.3c-0.5,0-0.9-0.1-1.4-0.3c-0.4-0.2-0.8-0.4-1.1-0.7l0.6-0.8c0.3,0.2,0.6,0.4,0.9,0.6
							c0.3,0.1,0.7,0.2,1.1,0.2c0.4,0,0.8-0.1,1-0.3s0.3-0.5,0.3-0.8c0-0.2,0-0.3-0.1-0.5s-0.2-0.2-0.4-0.3
							c-0.1-0.1-0.3-0.2-0.5-0.3c-0.2-0.1-0.4-0.1-0.6-0.2c-0.2-0.1-0.5-0.2-0.7-0.3s-0.5-0.2-0.7-0.4c-0.2-0.2-0.3-0.3-0.5-0.5
							c-0.1-0.2-0.2-0.5-0.2-0.7c0-0.3,0.1-0.5,0.2-0.8c0.1-0.2,0.3-0.4,0.5-0.6s0.4-0.3,0.7-0.4c0.3-0.1,0.6-0.1,1-0.1
							c0.4,0,0.8,0.1,1.2,0.2s0.7,0.3,0.9,0.5l-0.5,0.7c-0.2-0.2-0.5-0.3-0.7-0.4c-0.3-0.1-0.5-0.2-0.8-0.2c-0.4,0-0.7,0.1-0.9,0.3
							c-0.2,0.2-0.3,0.4-0.3,0.7c0,0.2,0,0.3,0.1,0.4c0.1,0.1,0.2,0.2,0.3,0.3s0.3,0.2,0.5,0.2c0.2,0.1,0.4,0.1,0.6,0.2
							c0.2,0.1,0.5,0.2,0.7,0.3c0.2,0.1,0.5,0.2,0.7,0.4c0.2,0.2,0.4,0.3,0.5,0.6c0.1,0.2,0.2,0.5,0.2,0.8c0,0.3-0.1,0.5-0.2,0.8
							c-0.1,0.2-0.3,0.5-0.5,0.6c-0.2,0.2-0.5,0.3-0.8,0.4C208.8,211.2,208.5,211.3,208.1,211.3z"/>
						<path class="st2" d="M215.1,214c-0.2,0-0.3,0-0.4,0c-0.1,0-0.3-0.1-0.4-0.1l0.2-0.9c0.1,0,0.2,0,0.3,0.1c0.1,0,0.2,0,0.3,0
							c0.4,0,0.7-0.1,1-0.4c0.2-0.3,0.4-0.6,0.6-1l0.2-0.5l-2.7-6.8h1.2l1.4,3.8c0.1,0.3,0.2,0.6,0.3,0.9c0.1,0.3,0.2,0.7,0.3,1h0.1
							c0.1-0.3,0.2-0.6,0.3-1s0.2-0.7,0.3-1l1.2-3.8h1.1l-2.6,7.4c-0.1,0.3-0.3,0.6-0.4,0.9s-0.3,0.5-0.5,0.7
							c-0.2,0.2-0.4,0.4-0.7,0.5S215.4,214,215.1,214z"/>
						<path class="st2" d="M224.2,211.3c-0.5,0-0.9-0.1-1.3-0.2c-0.4-0.2-0.7-0.4-1-0.7c-0.3-0.3-0.5-0.7-0.7-1.1s-0.3-0.9-0.3-1.5
							c0-0.6,0.1-1.1,0.3-1.5s0.4-0.8,0.7-1.1c0.3-0.3,0.6-0.5,1-0.7c0.4-0.2,0.7-0.2,1.1-0.2c0.4,0,0.8,0.1,1.2,0.2
							c0.3,0.1,0.6,0.4,0.9,0.6c0.2,0.3,0.4,0.6,0.5,1c0.1,0.4,0.2,0.8,0.2,1.3c0,0.1,0,0.2,0,0.4c0,0.1,0,0.2,0,0.3h-4.6
							c0,0.7,0.3,1.3,0.7,1.7c0.4,0.4,0.9,0.6,1.6,0.6c0.3,0,0.6,0,0.9-0.1c0.3-0.1,0.5-0.2,0.8-0.4l0.4,0.8c-0.3,0.2-0.6,0.4-1,0.5
							C225.1,211.2,224.7,211.3,224.2,211.3z M222.1,207.1h3.6c0-0.7-0.1-1.2-0.4-1.6c-0.3-0.4-0.7-0.5-1.2-0.5
							c-0.2,0-0.5,0-0.7,0.1s-0.4,0.2-0.6,0.4c-0.2,0.2-0.3,0.4-0.4,0.7C222.2,206.5,222.1,206.8,222.1,207.1z"/>
						<path class="st2" d="M229.8,211.3c-0.6,0-1-0.2-1.4-0.5s-0.6-0.8-0.6-1.4c0-0.7,0.3-1.3,1-1.7c0.7-0.4,1.7-0.7,3.2-0.8
							c0-0.2,0-0.4-0.1-0.6c0-0.2-0.1-0.4-0.2-0.5c-0.1-0.2-0.2-0.3-0.4-0.4c-0.2-0.1-0.4-0.1-0.7-0.1c-0.4,0-0.8,0.1-1.1,0.2
							s-0.7,0.3-0.9,0.5l-0.4-0.8c0.3-0.2,0.7-0.4,1.2-0.6c0.5-0.2,1-0.3,1.5-0.3c0.8,0,1.4,0.3,1.8,0.8c0.4,0.5,0.6,1.2,0.6,2v4.2
							h-1l-0.1-0.8h0c-0.3,0.3-0.7,0.5-1.1,0.7C230.6,211.2,230.2,211.3,229.8,211.3z M230.1,210.3c0.3,0,0.6-0.1,0.9-0.2
							c0.3-0.2,0.6-0.4,0.9-0.7v-1.9c-0.6,0.1-1,0.2-1.4,0.3s-0.7,0.2-0.9,0.4c-0.2,0.1-0.4,0.3-0.5,0.5c-0.1,0.2-0.2,0.4-0.2,0.6
							c0,0.4,0.1,0.7,0.4,0.8C229.5,210.3,229.8,210.3,230.1,210.3z"/>
						<path class="st2" d="M235.3,211.1v-6.8h1l0.1,1.2h0c0.2-0.4,0.5-0.8,0.8-1c0.3-0.3,0.7-0.4,1.1-0.4c0.3,0,0.5,0,0.7,0.1
							l-0.2,1c-0.1,0-0.2-0.1-0.3-0.1c-0.1,0-0.2,0-0.4,0c-0.3,0-0.6,0.1-0.9,0.3c-0.3,0.2-0.6,0.6-0.8,1.2v4.4H235.3z"/>
						<path class="st2" d="M240.4,205.1l-0.3-0.5c0.4-0.2,0.6-0.5,0.8-0.7c0.2-0.3,0.3-0.6,0.3-1c0,0-0.1,0-0.1,0
							c-0.2,0-0.4-0.1-0.5-0.2c-0.1-0.1-0.2-0.3-0.2-0.5c0-0.2,0.1-0.4,0.2-0.6c0.1-0.1,0.3-0.2,0.5-0.2c0.3,0,0.5,0.1,0.6,0.3
							c0.2,0.2,0.2,0.5,0.2,0.9c0,0.6-0.1,1-0.4,1.4C241.3,204.4,240.9,204.8,240.4,205.1z"/>
						<path class="st2" d="M245,211.3c-0.5,0-0.9-0.1-1.4-0.3c-0.4-0.2-0.8-0.4-1.1-0.7l0.6-0.8c0.3,0.2,0.6,0.4,0.9,0.6
							c0.3,0.1,0.7,0.2,1.1,0.2c0.4,0,0.8-0.1,1-0.3c0.2-0.2,0.3-0.5,0.3-0.8c0-0.2,0-0.3-0.1-0.5c-0.1-0.1-0.2-0.2-0.4-0.3
							c-0.1-0.1-0.3-0.2-0.5-0.3c-0.2-0.1-0.4-0.1-0.6-0.2c-0.2-0.1-0.5-0.2-0.7-0.3c-0.2-0.1-0.5-0.2-0.7-0.4
							c-0.2-0.2-0.3-0.3-0.5-0.5s-0.2-0.5-0.2-0.7c0-0.3,0.1-0.5,0.2-0.8c0.1-0.2,0.3-0.4,0.5-0.6c0.2-0.2,0.4-0.3,0.7-0.4
							c0.3-0.1,0.6-0.1,1-0.1c0.4,0,0.8,0.1,1.2,0.2s0.7,0.3,0.9,0.5l-0.5,0.7c-0.2-0.2-0.5-0.3-0.7-0.4c-0.3-0.1-0.5-0.2-0.8-0.2
							c-0.4,0-0.7,0.1-0.9,0.3c-0.2,0.2-0.3,0.4-0.3,0.7c0,0.2,0,0.3,0.1,0.4c0.1,0.1,0.2,0.2,0.3,0.3c0.1,0.1,0.3,0.2,0.5,0.2
							c0.2,0.1,0.4,0.1,0.6,0.2c0.2,0.1,0.5,0.2,0.7,0.3s0.5,0.2,0.7,0.4c0.2,0.2,0.4,0.3,0.5,0.6c0.1,0.2,0.2,0.5,0.2,0.8
							c0,0.3-0.1,0.5-0.2,0.8c-0.1,0.2-0.3,0.5-0.5,0.6s-0.5,0.3-0.8,0.4S245.4,211.3,245,211.3z"/>
						<path class="st2" d="M254.2,211.3c-0.9,0-1.5-0.3-2.1-0.9s-0.8-1.5-0.8-2.6c0-0.6,0.1-1,0.2-1.5c0.2-0.4,0.4-0.8,0.7-1.1
							c0.3-0.3,0.6-0.5,0.9-0.7c0.4-0.2,0.7-0.3,1.1-0.3c0.4,0,0.7,0.1,1,0.2c0.3,0.1,0.6,0.3,0.9,0.6l-0.1-1.2v-2.6h1.2v10h-1
							l-0.1-0.8h0c-0.3,0.3-0.6,0.5-0.9,0.7C254.9,211.2,254.6,211.3,254.2,211.3z M254.4,210.3c0.3,0,0.6-0.1,0.9-0.2
							c0.3-0.2,0.6-0.4,0.8-0.7v-3.6c-0.3-0.3-0.6-0.4-0.8-0.6c-0.3-0.1-0.5-0.2-0.8-0.2c-0.3,0-0.5,0.1-0.8,0.2s-0.4,0.3-0.6,0.5
							c-0.2,0.2-0.3,0.5-0.4,0.8s-0.2,0.7-0.2,1.1c0,0.8,0.2,1.5,0.5,1.9C253.4,210.1,253.8,210.3,254.4,210.3z"/>
						<path class="st2" d="M262.4,211.3c-0.5,0-0.9-0.1-1.3-0.2s-0.7-0.4-1-0.7c-0.3-0.3-0.5-0.7-0.7-1.1s-0.3-0.9-0.3-1.5
							c0-0.6,0.1-1.1,0.3-1.5s0.4-0.8,0.7-1.1c0.3-0.3,0.6-0.5,1-0.7c0.4-0.2,0.7-0.2,1.1-0.2c0.4,0,0.8,0.1,1.2,0.2
							c0.3,0.1,0.6,0.4,0.9,0.6c0.2,0.3,0.4,0.6,0.5,1c0.1,0.4,0.2,0.8,0.2,1.3c0,0.1,0,0.2,0,0.4c0,0.1,0,0.2,0,0.3h-4.6
							c0,0.7,0.3,1.3,0.7,1.7s0.9,0.6,1.6,0.6c0.3,0,0.6,0,0.9-0.1c0.3-0.1,0.5-0.2,0.8-0.4l0.4,0.8c-0.3,0.2-0.6,0.4-1,0.5
							S262.8,211.3,262.4,211.3z M260.2,207.1h3.6c0-0.7-0.1-1.2-0.4-1.6c-0.3-0.4-0.7-0.5-1.2-0.5c-0.2,0-0.5,0-0.7,0.1
							c-0.2,0.1-0.4,0.2-0.6,0.4c-0.2,0.2-0.3,0.4-0.4,0.7C260.3,206.5,260.3,206.8,260.2,207.1z"/>
						<path class="st2" d="M266.7,211.1v-5.9h-0.9v-0.9l0.9-0.1v-1.1c0-0.7,0.2-1.3,0.5-1.7c0.3-0.4,0.8-0.6,1.5-0.6
							c0.2,0,0.4,0,0.6,0.1s0.4,0.1,0.5,0.2l-0.3,0.9c-0.3-0.1-0.5-0.2-0.8-0.2c-0.6,0-1,0.4-1,1.3v1.1h1.4v0.9h-1.4v5.9H266.7z"/>
						<path class="st2" d="M271.2,202.9c-0.2,0-0.4-0.1-0.6-0.2s-0.2-0.3-0.2-0.5c0-0.2,0.1-0.4,0.2-0.5c0.2-0.1,0.3-0.2,0.6-0.2
							c0.2,0,0.4,0.1,0.6,0.2c0.2,0.1,0.2,0.3,0.2,0.5c0,0.2-0.1,0.4-0.2,0.5S271.5,202.9,271.2,202.9z M270.6,211.1v-6.8h1.1v6.8
							H270.6z"/>
						<path class="st2" d="M276.8,211.3c-0.4,0-0.9-0.1-1.3-0.2c-0.4-0.2-0.7-0.4-1-0.7c-0.3-0.3-0.5-0.7-0.7-1.1
							c-0.2-0.4-0.2-0.9-0.2-1.5c0-0.6,0.1-1.1,0.3-1.5s0.4-0.8,0.7-1.1c0.3-0.3,0.6-0.5,1-0.7c0.4-0.2,0.8-0.2,1.3-0.2
							c0.4,0,0.8,0.1,1.1,0.2c0.3,0.2,0.6,0.3,0.8,0.6l-0.6,0.8c-0.2-0.2-0.4-0.3-0.6-0.4c-0.2-0.1-0.5-0.2-0.7-0.2
							c-0.3,0-0.6,0.1-0.9,0.2c-0.3,0.1-0.5,0.3-0.7,0.5c-0.2,0.2-0.3,0.5-0.4,0.8s-0.2,0.7-0.2,1.1c0,0.4,0.1,0.7,0.2,1.1
							s0.2,0.6,0.4,0.8c0.2,0.2,0.4,0.4,0.7,0.5s0.5,0.2,0.9,0.2c0.3,0,0.6-0.1,0.9-0.2c0.3-0.1,0.5-0.3,0.7-0.5l0.5,0.8
							c-0.3,0.3-0.6,0.5-1,0.6C277.6,211.2,277.2,211.3,276.8,211.3z"/>
						<path class="st2" d="M281.1,202.9c-0.2,0-0.4-0.1-0.6-0.2c-0.2-0.1-0.2-0.3-0.2-0.5c0-0.2,0.1-0.4,0.2-0.5
							c0.2-0.1,0.3-0.2,0.6-0.2s0.4,0.1,0.6,0.2c0.2,0.1,0.2,0.3,0.2,0.5c0,0.2-0.1,0.4-0.2,0.5
							C281.5,202.8,281.3,202.9,281.1,202.9z M280.5,211.1v-6.8h1.1v6.8H280.5z"/>
						<path class="st2" d="M286.1,211.3c-0.4,0-0.7-0.1-0.9-0.2c-0.2-0.1-0.4-0.3-0.6-0.5c-0.2-0.2-0.3-0.4-0.3-0.7
							c-0.1-0.3-0.1-0.6-0.1-0.9v-3.8h-1v-0.9l1.1-0.1l0.1-1.9h1v1.9h1.8v0.9h-1.8v3.8c0,0.4,0.1,0.7,0.2,1c0.2,0.2,0.4,0.3,0.8,0.3
							c0.1,0,0.3,0,0.4-0.1c0.1,0,0.3-0.1,0.4-0.1l0.2,0.9c-0.2,0.1-0.4,0.1-0.6,0.2C286.5,211.2,286.3,211.3,286.1,211.3z"/>
					</g>
					<g class="st1">
						<path class="st2" d="M392.4,209.4v-8.2h-2.8v-1h6.7v1h-2.8v8.2H392.4z"/>
						<path class="st2" d="M399.6,209.6c-0.4,0-0.8-0.1-1.2-0.2s-0.7-0.4-1-0.7c-0.3-0.3-0.5-0.7-0.7-1.1s-0.3-0.9-0.3-1.5
							c0-0.6,0.1-1.1,0.3-1.5s0.4-0.8,0.7-1.1c0.3-0.3,0.6-0.5,1-0.7s0.8-0.2,1.2-0.2s0.8,0.1,1.2,0.2s0.7,0.4,1,0.7
							c0.3,0.3,0.5,0.7,0.7,1.1c0.2,0.4,0.3,1,0.3,1.5c0,0.6-0.1,1.1-0.3,1.5c-0.2,0.4-0.4,0.8-0.7,1.1s-0.6,0.5-1,0.7
							S400.1,209.6,399.6,209.6z M399.6,208.7c0.3,0,0.6-0.1,0.8-0.2c0.2-0.1,0.5-0.3,0.6-0.5s0.3-0.5,0.4-0.8
							c0.1-0.3,0.1-0.7,0.1-1.1s0-0.7-0.1-1.1c-0.1-0.3-0.2-0.6-0.4-0.8c-0.2-0.2-0.4-0.4-0.6-0.5c-0.2-0.1-0.5-0.2-0.8-0.2
							s-0.6,0.1-0.8,0.2c-0.2,0.1-0.5,0.3-0.6,0.5c-0.2,0.2-0.3,0.5-0.4,0.8c-0.1,0.3-0.1,0.7-0.1,1.1s0,0.7,0.1,1.1
							c0.1,0.3,0.2,0.6,0.4,0.8s0.4,0.4,0.6,0.5C399.1,208.6,399.4,208.7,399.6,208.7z"/>
						<path class="st2" d="M406.5,209.6c-0.4,0-0.7-0.1-0.9-0.2c-0.2-0.1-0.4-0.3-0.6-0.5c-0.2-0.2-0.3-0.4-0.3-0.7
							c-0.1-0.3-0.1-0.6-0.1-0.9v-3.8h-1v-0.9l1.1-0.1l0.1-1.9h1v1.9h1.8v0.9h-1.8v3.8c0,0.4,0.1,0.7,0.2,1s0.4,0.3,0.8,0.3
							c0.1,0,0.3,0,0.4-0.1s0.3-0.1,0.4-0.1l0.2,0.9c-0.2,0.1-0.4,0.1-0.6,0.2C406.9,209.6,406.7,209.6,406.5,209.6z"/>
						<path class="st2" d="M410.4,209.6c-0.6,0-1-0.2-1.4-0.5s-0.6-0.8-0.6-1.4c0-0.7,0.3-1.3,1-1.7c0.7-0.4,1.7-0.7,3.2-0.8
							c0-0.2,0-0.4-0.1-0.6c0-0.2-0.1-0.4-0.2-0.5s-0.2-0.3-0.4-0.4s-0.4-0.1-0.7-0.1c-0.4,0-0.8,0.1-1.1,0.2
							c-0.3,0.2-0.7,0.3-0.9,0.5l-0.4-0.8c0.3-0.2,0.7-0.4,1.2-0.6c0.5-0.2,1-0.3,1.5-0.3c0.8,0,1.4,0.3,1.8,0.8
							c0.4,0.5,0.6,1.2,0.6,2v4.2h-1l-0.1-0.8h0c-0.3,0.3-0.7,0.5-1.1,0.7S410.8,209.6,410.4,209.6z M410.7,208.7
							c0.3,0,0.6-0.1,0.9-0.2c0.3-0.2,0.6-0.4,0.9-0.7v-1.9c-0.6,0.1-1,0.2-1.4,0.3c-0.4,0.1-0.7,0.2-0.9,0.4
							c-0.2,0.1-0.4,0.3-0.5,0.5s-0.2,0.4-0.2,0.6c0,0.4,0.1,0.7,0.3,0.8S410.4,208.7,410.7,208.7z"/>
						<path class="st2" d="M417.1,209.6c-0.4,0-0.8-0.1-0.9-0.4c-0.2-0.3-0.3-0.6-0.3-1.1v-8.6h1.1v8.7c0,0.2,0,0.3,0.1,0.4
							c0.1,0.1,0.1,0.1,0.2,0.1c0,0,0.1,0,0.1,0c0,0,0.1,0,0.1,0l0.2,0.9c-0.1,0-0.2,0.1-0.3,0.1
							C417.4,209.6,417.2,209.6,417.1,209.6z"/>
						<path class="st2" d="M424.5,209.6c-0.9,0-1.5-0.3-2.1-0.9c-0.5-0.6-0.8-1.5-0.8-2.6c0-0.6,0.1-1,0.2-1.5s0.4-0.8,0.7-1.1
							c0.3-0.3,0.6-0.5,0.9-0.7s0.7-0.3,1.1-0.3s0.7,0.1,1,0.2c0.3,0.1,0.6,0.3,0.9,0.6l-0.1-1.2v-2.6h1.2v10h-1l-0.1-0.8h0
							c-0.3,0.3-0.6,0.5-0.9,0.7C425.3,209.5,424.9,209.6,424.5,209.6z M424.8,208.6c0.3,0,0.6-0.1,0.9-0.2s0.6-0.4,0.8-0.7v-3.6
							c-0.3-0.3-0.6-0.4-0.8-0.6c-0.3-0.1-0.5-0.2-0.8-0.2c-0.3,0-0.5,0.1-0.8,0.2c-0.2,0.1-0.4,0.3-0.6,0.5
							c-0.2,0.2-0.3,0.5-0.4,0.8c-0.1,0.3-0.2,0.7-0.2,1.1c0,0.8,0.2,1.5,0.5,1.9C423.7,208.4,424.2,208.6,424.8,208.6z"/>
						<path class="st2" d="M432.7,209.6c-0.5,0-0.9-0.1-1.3-0.2c-0.4-0.2-0.7-0.4-1-0.7s-0.5-0.7-0.7-1.1c-0.2-0.4-0.3-0.9-0.3-1.5
							s0.1-1.1,0.3-1.5s0.4-0.8,0.7-1.1c0.3-0.3,0.6-0.5,1-0.7c0.4-0.2,0.7-0.2,1.1-0.2c0.4,0,0.8,0.1,1.2,0.2
							c0.3,0.1,0.6,0.4,0.9,0.6c0.2,0.3,0.4,0.6,0.5,1c0.1,0.4,0.2,0.8,0.2,1.3c0,0.1,0,0.2,0,0.4s0,0.2,0,0.3h-4.6
							c0,0.7,0.3,1.3,0.7,1.7c0.4,0.4,0.9,0.6,1.6,0.6c0.3,0,0.6,0,0.9-0.1c0.3-0.1,0.5-0.2,0.8-0.4l0.4,0.8c-0.3,0.2-0.6,0.4-1,0.5
							C433.6,209.5,433.2,209.6,432.7,209.6z M430.6,205.5h3.6c0-0.7-0.1-1.2-0.4-1.6s-0.7-0.5-1.2-0.5c-0.2,0-0.5,0-0.7,0.1
							c-0.2,0.1-0.4,0.2-0.6,0.4c-0.2,0.2-0.3,0.4-0.4,0.7C430.7,204.9,430.6,205.2,430.6,205.5z"/>
						<path class="st2" d="M439.9,209.6c-0.3,0-0.6-0.1-1-0.2c-0.3-0.2-0.7-0.4-1-0.6h0l-0.1,0.7h-0.9v-10h1.1v2.7l0,1.2
							c0.3-0.3,0.6-0.5,1-0.7c0.4-0.2,0.7-0.3,1.1-0.3c0.4,0,0.8,0.1,1.2,0.2c0.3,0.2,0.6,0.4,0.8,0.7c0.2,0.3,0.4,0.7,0.5,1.1
							c0.1,0.4,0.2,0.9,0.2,1.4c0,0.6-0.1,1.1-0.2,1.6c-0.2,0.5-0.4,0.8-0.6,1.2c-0.3,0.3-0.6,0.6-0.9,0.7
							C440.7,209.5,440.3,209.6,439.9,209.6z M439.7,208.6c0.3,0,0.5-0.1,0.8-0.2c0.2-0.1,0.4-0.3,0.6-0.5s0.3-0.5,0.4-0.8
							s0.1-0.7,0.1-1.1c0-0.4,0-0.7-0.1-1c-0.1-0.3-0.2-0.6-0.3-0.8c-0.1-0.2-0.3-0.4-0.6-0.5s-0.5-0.2-0.8-0.2
							c-0.6,0-1.2,0.3-1.8,0.9v3.6c0.3,0.3,0.6,0.4,0.9,0.6S439.5,208.6,439.7,208.6z"/>
						<path class="st2" d="M446.6,209.6c-0.4,0-0.7-0.1-0.9-0.2c-0.2-0.1-0.4-0.3-0.6-0.5c-0.2-0.2-0.3-0.4-0.3-0.7
							c-0.1-0.3-0.1-0.6-0.1-0.9v-3.8h-1v-0.9l1.1-0.1l0.1-1.9h1v1.9h1.8v0.9h-1.8v3.8c0,0.4,0.1,0.7,0.2,1c0.2,0.2,0.4,0.3,0.8,0.3
							c0.1,0,0.3,0,0.4-0.1c0.1,0,0.3-0.1,0.4-0.1l0.2,0.9c-0.2,0.1-0.4,0.1-0.6,0.2C447,209.6,446.8,209.6,446.6,209.6z"/>
					</g>
					<g id="Plus" transform="translate(167.000000, 124.000000)">
						<path class="st2" d="M8.5,17c-0.6,0-1-0.4-1-1V0c0-0.6,0.4-1,1-1s1,0.4,1,1v16C9.5,16.6,9.1,17,8.5,17z"/>
						<path class="st2" d="M16,9.5H0c-0.6,0-1-0.4-1-1s0.4-1,1-1h16c0.6,0,1,0.4,1,1S16.6,9.5,16,9.5z"/>
					</g>
					<g id="Equal" transform="translate(324.000000, 128.000000)">
						<path class="st2" d="M16,1.5H0c-0.6,0-1-0.4-1-1s0.4-1,1-1h16c0.6,0,1,0.4,1,1S16.6,1.5,16,1.5z"/>
						<path class="st2" d="M16,9.5H0c-0.6,0-1-0.4-1-1s0.4-1,1-1h16c0.6,0,1,0.4,1,1S16.6,9.5,16,9.5z"/>
					</g>
				</g>
				<g class="st1">
					<path class="st2" d="M40.4,332.7l-0.6-0.4l0.8-1.3l-1.4-0.6l0.2-0.6l1.4,0.3l0.1-1.5h0.7l0.1,1.5l1.4-0.3l0.2,0.6l-1.4,0.6
						l0.8,1.3l-0.5,0.4l-1-1.2L40.4,332.7z"/>
					<path class="st2" d="M45.6,338.5v-9.2h2.6c0.5,0,1,0,1.4,0.1c0.4,0.1,0.8,0.2,1.1,0.5c0.3,0.2,0.5,0.5,0.7,0.8s0.3,0.8,0.3,1.3
						c0,0.5-0.1,0.9-0.2,1.3c-0.2,0.4-0.4,0.6-0.7,0.9s-0.7,0.4-1.1,0.5c-0.4,0.1-0.9,0.2-1.4,0.2h-1.5v3.6H45.6z M46.8,334h1.4
						c0.8,0,1.4-0.2,1.8-0.5c0.4-0.3,0.6-0.8,0.6-1.4c0-0.7-0.2-1.1-0.6-1.4c-0.4-0.3-1-0.4-1.8-0.4h-1.3V334z"/>
					<path class="st2" d="M54.6,338.7c-0.4,0-0.8-0.1-0.9-0.4c-0.2-0.3-0.3-0.6-0.3-1.1v-8.6h1.1v8.7c0,0.2,0,0.3,0.1,0.4
						c0.1,0.1,0.1,0.1,0.2,0.1c0,0,0.1,0,0.1,0c0,0,0.1,0,0.1,0l0.2,0.9c-0.1,0-0.2,0.1-0.3,0.1S54.8,338.7,54.6,338.7z"/>
					<path class="st2" d="M59.8,338.7c-0.5,0-0.9-0.1-1.3-0.2c-0.4-0.2-0.7-0.4-1-0.7c-0.3-0.3-0.5-0.7-0.7-1.1s-0.3-0.9-0.3-1.5
						c0-0.6,0.1-1.1,0.3-1.5s0.4-0.8,0.7-1.1c0.3-0.3,0.6-0.5,1-0.7c0.4-0.2,0.7-0.2,1.1-0.2c0.4,0,0.8,0.1,1.2,0.2
						c0.3,0.1,0.6,0.4,0.9,0.6c0.2,0.3,0.4,0.6,0.5,1c0.1,0.4,0.2,0.8,0.2,1.3c0,0.1,0,0.2,0,0.4c0,0.1,0,0.2,0,0.3h-4.6
						c0,0.7,0.3,1.3,0.7,1.7c0.4,0.4,0.9,0.6,1.6,0.6c0.3,0,0.6,0,0.9-0.1c0.3-0.1,0.5-0.2,0.8-0.4L62,338c-0.3,0.2-0.6,0.4-1,0.5
						C60.6,338.6,60.2,338.7,59.8,338.7z M57.6,334.6h3.6c0-0.7-0.1-1.2-0.4-1.6c-0.3-0.4-0.7-0.5-1.2-0.5c-0.2,0-0.5,0-0.7,0.1
						s-0.4,0.2-0.6,0.4c-0.2,0.2-0.3,0.4-0.4,0.7C57.7,334,57.6,334.3,57.6,334.6z"/>
					<path class="st2" d="M65.3,338.7c-0.6,0-1-0.2-1.4-0.5s-0.6-0.8-0.6-1.4c0-0.7,0.3-1.3,1-1.7c0.7-0.4,1.7-0.7,3.2-0.8
						c0-0.2,0-0.4-0.1-0.6c0-0.2-0.1-0.4-0.2-0.5c-0.1-0.2-0.2-0.3-0.4-0.4c-0.2-0.1-0.4-0.1-0.7-0.1c-0.4,0-0.8,0.1-1.1,0.2
						s-0.7,0.3-0.9,0.5l-0.4-0.8c0.3-0.2,0.7-0.4,1.2-0.6c0.5-0.2,1-0.3,1.5-0.3c0.8,0,1.4,0.3,1.8,0.8c0.4,0.5,0.6,1.2,0.6,2v4.2
						h-1l-0.1-0.8h0c-0.3,0.3-0.7,0.5-1.1,0.7C66.1,338.6,65.7,338.7,65.3,338.7z M65.6,337.8c0.3,0,0.6-0.1,0.9-0.2
						c0.3-0.2,0.6-0.4,0.9-0.7V335c-0.6,0.1-1,0.2-1.4,0.3s-0.7,0.2-0.9,0.4c-0.2,0.1-0.4,0.3-0.5,0.5c-0.1,0.2-0.2,0.4-0.2,0.6
						c0,0.4,0.1,0.7,0.4,0.8C65,337.7,65.3,337.8,65.6,337.8z"/>
					<path class="st2" d="M72.6,338.7c-0.5,0-0.9-0.1-1.4-0.3c-0.4-0.2-0.8-0.4-1.1-0.7l0.6-0.8c0.3,0.2,0.6,0.4,0.9,0.6
						c0.3,0.1,0.7,0.2,1.1,0.2c0.4,0,0.8-0.1,1-0.3s0.3-0.5,0.3-0.8c0-0.2,0-0.3-0.1-0.5s-0.2-0.2-0.4-0.3c-0.1-0.1-0.3-0.2-0.5-0.3
						c-0.2-0.1-0.4-0.1-0.6-0.2c-0.2-0.1-0.5-0.2-0.7-0.3s-0.5-0.2-0.7-0.4c-0.2-0.2-0.3-0.3-0.5-0.5c-0.1-0.2-0.2-0.5-0.2-0.7
						c0-0.3,0.1-0.5,0.2-0.8c0.1-0.2,0.3-0.4,0.5-0.6s0.4-0.3,0.7-0.4c0.3-0.1,0.6-0.1,1-0.1c0.4,0,0.8,0.1,1.2,0.2s0.7,0.3,0.9,0.5
						l-0.5,0.7c-0.2-0.2-0.5-0.3-0.7-0.4c-0.3-0.1-0.5-0.2-0.8-0.2c-0.4,0-0.7,0.1-0.9,0.3c-0.2,0.2-0.3,0.4-0.3,0.7
						c0,0.2,0,0.3,0.1,0.4c0.1,0.1,0.2,0.2,0.3,0.3s0.3,0.2,0.5,0.2c0.2,0.1,0.4,0.1,0.6,0.2c0.2,0.1,0.5,0.2,0.7,0.3
						c0.2,0.1,0.5,0.2,0.7,0.4c0.2,0.2,0.4,0.3,0.5,0.6c0.1,0.2,0.2,0.5,0.2,0.8c0,0.3-0.1,0.5-0.2,0.8c-0.1,0.2-0.3,0.5-0.5,0.6
						c-0.2,0.2-0.5,0.3-0.8,0.4C73.3,338.7,73,338.7,72.6,338.7z"/>
					<path class="st2" d="M79.4,338.7c-0.5,0-0.9-0.1-1.3-0.2c-0.4-0.2-0.7-0.4-1-0.7c-0.3-0.3-0.5-0.7-0.7-1.1s-0.3-0.9-0.3-1.5
						c0-0.6,0.1-1.1,0.3-1.5s0.4-0.8,0.7-1.1c0.3-0.3,0.6-0.5,1-0.7c0.4-0.2,0.7-0.2,1.1-0.2c0.4,0,0.8,0.1,1.2,0.2
						c0.3,0.1,0.6,0.4,0.9,0.6c0.2,0.3,0.4,0.6,0.5,1c0.1,0.4,0.2,0.8,0.2,1.3c0,0.1,0,0.2,0,0.4c0,0.1,0,0.2,0,0.3h-4.6
						c0,0.7,0.3,1.3,0.7,1.7c0.4,0.4,0.9,0.6,1.6,0.6c0.3,0,0.6,0,0.9-0.1c0.3-0.1,0.5-0.2,0.8-0.4l0.4,0.8c-0.3,0.2-0.6,0.4-1,0.5
						C80.3,338.6,79.9,338.7,79.4,338.7z M77.3,334.6h3.6c0-0.7-0.1-1.2-0.4-1.6c-0.3-0.4-0.7-0.5-1.2-0.5c-0.2,0-0.5,0-0.7,0.1
						s-0.4,0.2-0.6,0.4c-0.2,0.2-0.3,0.4-0.4,0.7C77.4,334,77.3,334.3,77.3,334.6z"/>
					<path class="st2" d="M86.4,338.5v-6.8h1l0.1,1h0c0.3-0.3,0.7-0.6,1-0.8c0.4-0.2,0.8-0.3,1.3-0.3c0.7,0,1.2,0.2,1.6,0.7
						c0.3,0.4,0.5,1.1,0.5,2v4.3h-1.1v-4.2c0-0.6-0.1-1.1-0.3-1.4c-0.2-0.3-0.5-0.4-1-0.4c-0.4,0-0.7,0.1-0.9,0.3
						c-0.3,0.2-0.6,0.4-0.9,0.8v4.9H86.4z"/>
					<path class="st2" d="M96.7,338.7c-0.4,0-0.8-0.1-1.2-0.2c-0.4-0.2-0.7-0.4-1-0.7c-0.3-0.3-0.5-0.7-0.7-1.1s-0.3-0.9-0.3-1.5
						c0-0.6,0.1-1.1,0.3-1.5s0.4-0.8,0.7-1.1c0.3-0.3,0.6-0.5,1-0.7c0.4-0.2,0.8-0.2,1.2-0.2s0.8,0.1,1.2,0.2c0.4,0.2,0.7,0.4,1,0.7
						c0.3,0.3,0.5,0.7,0.7,1.1c0.2,0.4,0.3,1,0.3,1.5c0,0.6-0.1,1.1-0.3,1.5c-0.2,0.4-0.4,0.8-0.7,1.1c-0.3,0.3-0.6,0.5-1,0.7
						C97.5,338.6,97.1,338.7,96.7,338.7z M96.7,337.8c0.3,0,0.6-0.1,0.8-0.2s0.5-0.3,0.6-0.5s0.3-0.5,0.4-0.8s0.1-0.7,0.1-1.1
						c0-0.4,0-0.7-0.1-1.1s-0.2-0.6-0.4-0.8s-0.4-0.4-0.6-0.5s-0.5-0.2-0.8-0.2c-0.3,0-0.6,0.1-0.8,0.2s-0.5,0.3-0.6,0.5
						c-0.2,0.2-0.3,0.5-0.4,0.8c-0.1,0.3-0.1,0.7-0.1,1.1c0,0.4,0,0.7,0.1,1.1c0.1,0.3,0.2,0.6,0.4,0.8c0.2,0.2,0.4,0.4,0.6,0.5
						S96.4,337.8,96.7,337.8z"/>
					<path class="st2" d="M103.6,338.7c-0.4,0-0.7-0.1-0.9-0.2c-0.2-0.1-0.4-0.3-0.6-0.5s-0.3-0.4-0.3-0.7c-0.1-0.3-0.1-0.6-0.1-0.9
						v-3.8h-1v-0.9l1.1-0.1l0.1-1.9h1v1.9h1.8v0.9h-1.8v3.8c0,0.4,0.1,0.7,0.2,1c0.2,0.2,0.4,0.3,0.8,0.3c0.1,0,0.3,0,0.4-0.1
						c0.1,0,0.3-0.1,0.4-0.1l0.2,0.9c-0.2,0.1-0.4,0.1-0.6,0.2C104,338.7,103.8,338.7,103.6,338.7z"/>
					<path class="st2" d="M108.7,338.7c-0.5,0-0.9-0.1-1.3-0.2c-0.4-0.2-0.7-0.4-1-0.7c-0.3-0.3-0.5-0.7-0.7-1.1s-0.3-0.9-0.3-1.5
						c0-0.6,0.1-1.1,0.3-1.5s0.4-0.8,0.7-1.1c0.3-0.3,0.6-0.5,1-0.7c0.4-0.2,0.7-0.2,1.1-0.2c0.4,0,0.8,0.1,1.2,0.2
						c0.3,0.1,0.6,0.4,0.9,0.6c0.2,0.3,0.4,0.6,0.5,1c0.1,0.4,0.2,0.8,0.2,1.3c0,0.1,0,0.2,0,0.4c0,0.1,0,0.2,0,0.3h-4.6
						c0,0.7,0.3,1.3,0.7,1.7c0.4,0.4,0.9,0.6,1.6,0.6c0.3,0,0.6,0,0.9-0.1c0.3-0.1,0.5-0.2,0.8-0.4l0.4,0.8c-0.3,0.2-0.6,0.4-1,0.5
						C109.6,338.6,109.2,338.7,108.7,338.7z M106.6,334.6h3.6c0-0.7-0.1-1.2-0.4-1.6c-0.3-0.4-0.7-0.5-1.2-0.5c-0.2,0-0.5,0-0.7,0.1
						s-0.4,0.2-0.6,0.4c-0.2,0.2-0.3,0.4-0.4,0.7C106.7,334,106.6,334.3,106.6,334.6z"/>
					<path class="st2" d="M117.8,338.7c-0.4,0-0.7-0.1-0.9-0.2c-0.2-0.1-0.4-0.3-0.6-0.5s-0.3-0.4-0.3-0.7c-0.1-0.3-0.1-0.6-0.1-0.9
						v-3.8h-1v-0.9l1.1-0.1l0.1-1.9h1v1.9h1.8v0.9h-1.8v3.8c0,0.4,0.1,0.7,0.2,1c0.2,0.2,0.4,0.3,0.8,0.3c0.1,0,0.3,0,0.4-0.1
						c0.1,0,0.3-0.1,0.4-0.1l0.2,0.9c-0.2,0.1-0.4,0.1-0.6,0.2C118.3,338.7,118.1,338.7,117.8,338.7z"/>
					<path class="st2" d="M120.4,338.5v-10h1.1v2.7l0,1.4c0.3-0.3,0.7-0.6,1-0.8c0.4-0.2,0.8-0.3,1.2-0.3c0.7,0,1.2,0.2,1.6,0.7
						c0.3,0.4,0.5,1.1,0.5,2v4.3h-1.1v-4.2c0-0.6-0.1-1.1-0.3-1.4c-0.2-0.3-0.5-0.4-1-0.4c-0.4,0-0.7,0.1-0.9,0.3
						c-0.3,0.2-0.6,0.4-0.9,0.8v4.9H120.4z"/>
					<path class="st2" d="M128.6,330.3c-0.2,0-0.4-0.1-0.6-0.2c-0.2-0.1-0.2-0.3-0.2-0.5c0-0.2,0.1-0.4,0.2-0.5
						c0.2-0.1,0.3-0.2,0.6-0.2c0.2,0,0.4,0.1,0.6,0.2c0.2,0.1,0.2,0.3,0.2,0.5c0,0.2-0.1,0.4-0.2,0.5
						C129,330.3,128.9,330.3,128.6,330.3z M128,338.5v-6.8h1.1v6.8H128z"/>
					<path class="st2" d="M133.3,338.7c-0.5,0-0.9-0.1-1.4-0.3c-0.4-0.2-0.8-0.4-1.1-0.7l0.6-0.8c0.3,0.2,0.6,0.4,0.9,0.6
						c0.3,0.1,0.7,0.2,1.1,0.2c0.4,0,0.8-0.1,1-0.3s0.3-0.5,0.3-0.8c0-0.2,0-0.3-0.1-0.5s-0.2-0.2-0.4-0.3c-0.1-0.1-0.3-0.2-0.5-0.3
						c-0.2-0.1-0.4-0.1-0.6-0.2c-0.2-0.1-0.5-0.2-0.7-0.3s-0.5-0.2-0.7-0.4c-0.2-0.2-0.3-0.3-0.5-0.5c-0.1-0.2-0.2-0.5-0.2-0.7
						c0-0.3,0.1-0.5,0.2-0.8c0.1-0.2,0.3-0.4,0.5-0.6s0.4-0.3,0.7-0.4c0.3-0.1,0.6-0.1,1-0.1c0.4,0,0.8,0.1,1.2,0.2s0.7,0.3,0.9,0.5
						l-0.5,0.7c-0.2-0.2-0.5-0.3-0.7-0.4c-0.3-0.1-0.5-0.2-0.8-0.2c-0.4,0-0.7,0.1-0.9,0.3c-0.2,0.2-0.3,0.4-0.3,0.7
						c0,0.2,0,0.3,0.1,0.4c0.1,0.1,0.2,0.2,0.3,0.3s0.3,0.2,0.5,0.2c0.2,0.1,0.4,0.1,0.6,0.2c0.2,0.1,0.5,0.2,0.7,0.3
						c0.2,0.1,0.5,0.2,0.7,0.4c0.2,0.2,0.4,0.3,0.5,0.6c0.1,0.2,0.2,0.5,0.2,0.8c0,0.3-0.1,0.5-0.2,0.8c-0.1,0.2-0.3,0.5-0.5,0.6
						c-0.2,0.2-0.5,0.3-0.8,0.4C134,338.7,133.7,338.7,133.3,338.7z"/>
					<path class="st2" d="M140.7,330.3c-0.2,0-0.4-0.1-0.6-0.2c-0.2-0.1-0.2-0.3-0.2-0.5c0-0.2,0.1-0.4,0.2-0.5
						c0.2-0.1,0.3-0.2,0.6-0.2c0.2,0,0.4,0.1,0.6,0.2c0.2,0.1,0.2,0.3,0.2,0.5c0,0.2-0.1,0.4-0.2,0.5
						C141.2,330.3,141,330.3,140.7,330.3z M140.2,338.5v-6.8h1.1v6.8H140.2z"/>
					<path class="st2" d="M144.8,338.7c-0.4,0-0.8-0.1-0.9-0.4c-0.2-0.3-0.3-0.6-0.3-1.1v-8.6h1.1v8.7c0,0.2,0,0.3,0.1,0.4
						c0.1,0.1,0.1,0.1,0.2,0.1c0,0,0.1,0,0.1,0c0,0,0.1,0,0.1,0l0.2,0.9c-0.1,0-0.2,0.1-0.3,0.1S145,338.7,144.8,338.7z"/>
					<path class="st2" d="M148.4,338.7c-0.4,0-0.8-0.1-0.9-0.4c-0.2-0.3-0.3-0.6-0.3-1.1v-8.6h1.1v8.7c0,0.2,0,0.3,0.1,0.4
						c0.1,0.1,0.1,0.1,0.2,0.1c0,0,0.1,0,0.1,0c0,0,0.1,0,0.1,0l0.2,0.9c-0.1,0-0.2,0.1-0.3,0.1S148.5,338.7,148.4,338.7z"/>
					<path class="st2" d="M152.7,338.7c-0.7,0-1.3-0.2-1.6-0.7c-0.3-0.4-0.5-1.1-0.5-2v-4.3h1.2v4.2c0,0.6,0.1,1.1,0.3,1.4
						c0.2,0.3,0.5,0.4,1,0.4c0.4,0,0.7-0.1,0.9-0.3c0.3-0.2,0.6-0.5,0.9-0.9v-4.8h1.1v6.8h-1l-0.1-1.1h0c-0.3,0.4-0.7,0.7-1,0.9
						S153.2,338.7,152.7,338.7z"/>
					<path class="st2" d="M160.1,338.7c-0.5,0-0.9-0.1-1.4-0.3c-0.4-0.2-0.8-0.4-1.1-0.7l0.6-0.8c0.3,0.2,0.6,0.4,0.9,0.6
						c0.3,0.1,0.7,0.2,1.1,0.2c0.4,0,0.8-0.1,1-0.3s0.3-0.5,0.3-0.8c0-0.2,0-0.3-0.1-0.5s-0.2-0.2-0.4-0.3c-0.1-0.1-0.3-0.2-0.5-0.3
						c-0.2-0.1-0.4-0.1-0.6-0.2c-0.2-0.1-0.5-0.2-0.7-0.3s-0.5-0.2-0.7-0.4c-0.2-0.2-0.3-0.3-0.5-0.5c-0.1-0.2-0.2-0.5-0.2-0.7
						c0-0.3,0.1-0.5,0.2-0.8c0.1-0.2,0.3-0.4,0.5-0.6s0.4-0.3,0.7-0.4c0.3-0.1,0.6-0.1,1-0.1c0.4,0,0.8,0.1,1.2,0.2s0.7,0.3,0.9,0.5
						l-0.5,0.7c-0.2-0.2-0.5-0.3-0.7-0.4c-0.3-0.1-0.5-0.2-0.8-0.2c-0.4,0-0.7,0.1-0.9,0.3c-0.2,0.2-0.3,0.4-0.3,0.7
						c0,0.2,0,0.3,0.1,0.4c0.1,0.1,0.2,0.2,0.3,0.3s0.3,0.2,0.5,0.2c0.2,0.1,0.4,0.1,0.6,0.2c0.2,0.1,0.5,0.2,0.7,0.3
						c0.2,0.1,0.5,0.2,0.7,0.4c0.2,0.2,0.4,0.3,0.5,0.6c0.1,0.2,0.2,0.5,0.2,0.8c0,0.3-0.1,0.5-0.2,0.8c-0.1,0.2-0.3,0.5-0.5,0.6
						c-0.2,0.2-0.5,0.3-0.8,0.4C160.9,338.7,160.5,338.7,160.1,338.7z"/>
					<path class="st2" d="M166.1,338.7c-0.4,0-0.7-0.1-0.9-0.2c-0.2-0.1-0.4-0.3-0.6-0.5s-0.3-0.4-0.3-0.7c-0.1-0.3-0.1-0.6-0.1-0.9
						v-3.8h-1v-0.9l1.1-0.1l0.1-1.9h1v1.9h1.8v0.9h-1.8v3.8c0,0.4,0.1,0.7,0.2,1c0.2,0.2,0.4,0.3,0.8,0.3c0.1,0,0.3,0,0.4-0.1
						c0.1,0,0.3-0.1,0.4-0.1l0.2,0.9c-0.2,0.1-0.4,0.1-0.6,0.2C166.5,338.7,166.3,338.7,166.1,338.7z"/>
					<path class="st2" d="M168.7,338.5v-6.8h1l0.1,1.2h0c0.2-0.4,0.5-0.8,0.8-1c0.3-0.3,0.7-0.4,1.1-0.4c0.3,0,0.5,0,0.7,0.1l-0.2,1
						c-0.1,0-0.2-0.1-0.3-0.1c-0.1,0-0.2,0-0.4,0c-0.3,0-0.6,0.1-0.9,0.3c-0.3,0.2-0.6,0.6-0.8,1.2v4.4H168.7z"/>
					<path class="st2" d="M174.8,338.7c-0.6,0-1-0.2-1.4-0.5s-0.6-0.8-0.6-1.4c0-0.7,0.3-1.3,1-1.7c0.7-0.4,1.7-0.7,3.2-0.8
						c0-0.2,0-0.4-0.1-0.6c0-0.2-0.1-0.4-0.2-0.5c-0.1-0.2-0.2-0.3-0.4-0.4c-0.2-0.1-0.4-0.1-0.7-0.1c-0.4,0-0.8,0.1-1.1,0.2
						s-0.7,0.3-0.9,0.5l-0.4-0.8c0.3-0.2,0.7-0.4,1.2-0.6c0.5-0.2,1-0.3,1.5-0.3c0.8,0,1.4,0.3,1.8,0.8c0.4,0.5,0.6,1.2,0.6,2v4.2
						h-1l-0.1-0.8h0c-0.3,0.3-0.7,0.5-1.1,0.7C175.6,338.6,175.2,338.7,174.8,338.7z M175.1,337.8c0.3,0,0.6-0.1,0.9-0.2
						c0.3-0.2,0.6-0.4,0.9-0.7V335c-0.6,0.1-1,0.2-1.4,0.3s-0.7,0.2-0.9,0.4c-0.2,0.1-0.4,0.3-0.5,0.5c-0.1,0.2-0.2,0.4-0.2,0.6
						c0,0.4,0.1,0.7,0.4,0.8C174.5,337.7,174.8,337.8,175.1,337.8z"/>
					<path class="st2" d="M182.2,338.7c-0.4,0-0.7-0.1-0.9-0.2c-0.2-0.1-0.4-0.3-0.6-0.5s-0.3-0.4-0.3-0.7c-0.1-0.3-0.1-0.6-0.1-0.9
						v-3.8h-1v-0.9l1.1-0.1l0.1-1.9h1v1.9h1.8v0.9h-1.8v3.8c0,0.4,0.1,0.7,0.2,1c0.2,0.2,0.4,0.3,0.8,0.3c0.1,0,0.3,0,0.4-0.1
						c0.1,0,0.3-0.1,0.4-0.1l0.2,0.9c-0.2,0.1-0.4,0.1-0.6,0.2C182.6,338.7,182.4,338.7,182.2,338.7z"/>
					<path class="st2" d="M185.4,330.3c-0.2,0-0.4-0.1-0.6-0.2c-0.2-0.1-0.2-0.3-0.2-0.5c0-0.2,0.1-0.4,0.2-0.5
						c0.2-0.1,0.3-0.2,0.6-0.2c0.2,0,0.4,0.1,0.6,0.2c0.2,0.1,0.2,0.3,0.2,0.5c0,0.2-0.1,0.4-0.2,0.5
						C185.8,330.3,185.6,330.3,185.4,330.3z M184.8,338.5v-6.8h1.1v6.8H184.8z"/>
					<path class="st2" d="M190.9,338.7c-0.4,0-0.8-0.1-1.2-0.2c-0.4-0.2-0.7-0.4-1-0.7c-0.3-0.3-0.5-0.7-0.7-1.1s-0.3-0.9-0.3-1.5
						c0-0.6,0.1-1.1,0.3-1.5s0.4-0.8,0.7-1.1c0.3-0.3,0.6-0.5,1-0.7c0.4-0.2,0.8-0.2,1.2-0.2s0.8,0.1,1.2,0.2c0.4,0.2,0.7,0.4,1,0.7
						c0.3,0.3,0.5,0.7,0.7,1.1c0.2,0.4,0.3,1,0.3,1.5c0,0.6-0.1,1.1-0.3,1.5c-0.2,0.4-0.4,0.8-0.7,1.1c-0.3,0.3-0.6,0.5-1,0.7
						C191.7,338.6,191.3,338.7,190.9,338.7z M190.9,337.8c0.3,0,0.6-0.1,0.8-0.2s0.5-0.3,0.6-0.5s0.3-0.5,0.4-0.8s0.1-0.7,0.1-1.1
						c0-0.4,0-0.7-0.1-1.1s-0.2-0.6-0.4-0.8s-0.4-0.4-0.6-0.5s-0.5-0.2-0.8-0.2c-0.3,0-0.6,0.1-0.8,0.2s-0.5,0.3-0.6,0.5
						c-0.2,0.2-0.3,0.5-0.4,0.8c-0.1,0.3-0.1,0.7-0.1,1.1c0,0.4,0,0.7,0.1,1.1c0.1,0.3,0.2,0.6,0.4,0.8c0.2,0.2,0.4,0.4,0.6,0.5
						S190.6,337.8,190.9,337.8z"/>
					<path class="st2" d="M195.8,338.5v-6.8h1l0.1,1h0c0.3-0.3,0.7-0.6,1-0.8c0.4-0.2,0.8-0.3,1.3-0.3c0.7,0,1.2,0.2,1.6,0.7
						c0.3,0.4,0.5,1.1,0.5,2v4.3h-1.1v-4.2c0-0.6-0.1-1.1-0.3-1.4c-0.2-0.3-0.5-0.4-1-0.4c-0.4,0-0.7,0.1-0.9,0.3
						c-0.3,0.2-0.6,0.4-0.9,0.8v4.9H195.8z"/>
					<path class="st2" d="M208.3,338.7c-0.7,0-1.3-0.2-1.6-0.7c-0.3-0.4-0.5-1.1-0.5-2v-4.3h1.2v4.2c0,0.6,0.1,1.1,0.3,1.4
						c0.2,0.3,0.5,0.4,1,0.4c0.4,0,0.7-0.1,0.9-0.3c0.3-0.2,0.6-0.5,0.9-0.9v-4.8h1.1v6.8h-1l-0.1-1.1h0c-0.3,0.4-0.7,0.7-1,0.9
						S208.7,338.7,208.3,338.7z"/>
					<path class="st2" d="M215.7,338.7c-0.5,0-0.9-0.1-1.4-0.3c-0.4-0.2-0.8-0.4-1.1-0.7l0.6-0.8c0.3,0.2,0.6,0.4,0.9,0.6
						c0.3,0.1,0.7,0.2,1.1,0.2c0.4,0,0.8-0.1,1-0.3s0.3-0.5,0.3-0.8c0-0.2,0-0.3-0.1-0.5s-0.2-0.2-0.4-0.3c-0.1-0.1-0.3-0.2-0.5-0.3
						c-0.2-0.1-0.4-0.1-0.6-0.2c-0.2-0.1-0.5-0.2-0.7-0.3s-0.5-0.2-0.7-0.4c-0.2-0.2-0.3-0.3-0.5-0.5c-0.1-0.2-0.2-0.5-0.2-0.7
						c0-0.3,0.1-0.5,0.2-0.8c0.1-0.2,0.3-0.4,0.5-0.6s0.4-0.3,0.7-0.4c0.3-0.1,0.6-0.1,1-0.1c0.4,0,0.8,0.1,1.2,0.2s0.7,0.3,0.9,0.5
						l-0.5,0.7c-0.2-0.2-0.5-0.3-0.7-0.4c-0.3-0.1-0.5-0.2-0.8-0.2c-0.4,0-0.7,0.1-0.9,0.3c-0.2,0.2-0.3,0.4-0.3,0.7
						c0,0.2,0,0.3,0.1,0.4c0.1,0.1,0.2,0.2,0.3,0.3s0.3,0.2,0.5,0.2c0.2,0.1,0.4,0.1,0.6,0.2c0.2,0.1,0.5,0.2,0.7,0.3
						c0.2,0.1,0.5,0.2,0.7,0.4c0.2,0.2,0.4,0.3,0.5,0.6c0.1,0.2,0.2,0.5,0.2,0.8c0,0.3-0.1,0.5-0.2,0.8c-0.1,0.2-0.3,0.5-0.5,0.6
						c-0.2,0.2-0.5,0.3-0.8,0.4C216.4,338.7,216.1,338.7,215.7,338.7z"/>
					<path class="st2" d="M222.5,338.7c-0.5,0-0.9-0.1-1.3-0.2c-0.4-0.2-0.7-0.4-1-0.7c-0.3-0.3-0.5-0.7-0.7-1.1s-0.3-0.9-0.3-1.5
						c0-0.6,0.1-1.1,0.3-1.5s0.4-0.8,0.7-1.1c0.3-0.3,0.6-0.5,1-0.7c0.4-0.2,0.7-0.2,1.1-0.2c0.4,0,0.8,0.1,1.2,0.2
						c0.3,0.1,0.6,0.4,0.9,0.6c0.2,0.3,0.4,0.6,0.5,1c0.1,0.4,0.2,0.8,0.2,1.3c0,0.1,0,0.2,0,0.4c0,0.1,0,0.2,0,0.3h-4.6
						c0,0.7,0.3,1.3,0.7,1.7c0.4,0.4,0.9,0.6,1.6,0.6c0.3,0,0.6,0,0.9-0.1c0.3-0.1,0.5-0.2,0.8-0.4l0.4,0.8c-0.3,0.2-0.6,0.4-1,0.5
						C223.4,338.6,223,338.7,222.5,338.7z M220.4,334.6h3.6c0-0.7-0.1-1.2-0.4-1.6c-0.3-0.4-0.7-0.5-1.2-0.5c-0.2,0-0.5,0-0.7,0.1
						s-0.4,0.2-0.6,0.4c-0.2,0.2-0.3,0.4-0.4,0.7C220.5,334,220.4,334.3,220.4,334.6z"/>
					<path class="st2" d="M228.5,338.7c-0.5,0-0.9-0.1-1.4-0.3c-0.4-0.2-0.8-0.4-1.1-0.7l0.6-0.8c0.3,0.2,0.6,0.4,0.9,0.6
						c0.3,0.1,0.7,0.2,1.1,0.2c0.4,0,0.8-0.1,1-0.3s0.3-0.5,0.3-0.8c0-0.2,0-0.3-0.1-0.5s-0.2-0.2-0.4-0.3c-0.1-0.1-0.3-0.2-0.5-0.3
						c-0.2-0.1-0.4-0.1-0.6-0.2c-0.2-0.1-0.5-0.2-0.7-0.3s-0.5-0.2-0.7-0.4c-0.2-0.2-0.3-0.3-0.5-0.5c-0.1-0.2-0.2-0.5-0.2-0.7
						c0-0.3,0.1-0.5,0.2-0.8c0.1-0.2,0.3-0.4,0.5-0.6s0.4-0.3,0.7-0.4c0.3-0.1,0.6-0.1,1-0.1c0.4,0,0.8,0.1,1.2,0.2s0.7,0.3,0.9,0.5
						l-0.5,0.7c-0.2-0.2-0.5-0.3-0.7-0.4c-0.3-0.1-0.5-0.2-0.8-0.2c-0.4,0-0.7,0.1-0.9,0.3c-0.2,0.2-0.3,0.4-0.3,0.7
						c0,0.2,0,0.3,0.1,0.4c0.1,0.1,0.2,0.2,0.3,0.3s0.3,0.2,0.5,0.2c0.2,0.1,0.4,0.1,0.6,0.2c0.2,0.1,0.5,0.2,0.7,0.3
						c0.2,0.1,0.5,0.2,0.7,0.4c0.2,0.2,0.4,0.3,0.5,0.6c0.1,0.2,0.2,0.5,0.2,0.8c0,0.3-0.1,0.5-0.2,0.8c-0.1,0.2-0.3,0.5-0.5,0.6
						c-0.2,0.2-0.5,0.3-0.8,0.4C229.2,338.7,228.9,338.7,228.5,338.7z"/>
					<path class="st2" d="M235.6,338.5v-5.9h-0.9v-0.9l0.9-0.1v-1.1c0-0.7,0.2-1.3,0.5-1.7c0.3-0.4,0.8-0.6,1.5-0.6
						c0.2,0,0.4,0,0.6,0.1s0.4,0.1,0.5,0.2l-0.3,0.9c-0.3-0.1-0.5-0.2-0.8-0.2c-0.6,0-1,0.4-1,1.3v1.1h1.4v0.9h-1.4v5.9H235.6z"/>
					<path class="st2" d="M240,330.3c-0.2,0-0.4-0.1-0.6-0.2c-0.2-0.1-0.2-0.3-0.2-0.5c0-0.2,0.1-0.4,0.2-0.5
						c0.2-0.1,0.3-0.2,0.6-0.2c0.2,0,0.4,0.1,0.6,0.2c0.2,0.1,0.2,0.3,0.2,0.5c0,0.2-0.1,0.4-0.2,0.5
						C240.5,330.3,240.3,330.3,240,330.3z M239.5,338.5v-6.8h1.1v6.8H239.5z"/>
					<path class="st2" d="M245.6,338.7c-0.4,0-0.9-0.1-1.3-0.2c-0.4-0.2-0.7-0.4-1-0.7c-0.3-0.3-0.5-0.7-0.7-1.1
						c-0.2-0.4-0.2-0.9-0.2-1.5c0-0.6,0.1-1.1,0.3-1.5c0.2-0.4,0.4-0.8,0.7-1.1c0.3-0.3,0.6-0.5,1-0.7c0.4-0.2,0.8-0.2,1.3-0.2
						c0.4,0,0.8,0.1,1.1,0.2c0.3,0.2,0.6,0.3,0.8,0.6l-0.6,0.8c-0.2-0.2-0.4-0.3-0.6-0.4c-0.2-0.1-0.5-0.2-0.7-0.2
						c-0.3,0-0.6,0.1-0.9,0.2s-0.5,0.3-0.7,0.5c-0.2,0.2-0.3,0.5-0.4,0.8c-0.1,0.3-0.2,0.7-0.2,1.1c0,0.4,0.1,0.7,0.2,1.1
						c0.1,0.3,0.2,0.6,0.4,0.8s0.4,0.4,0.7,0.5c0.3,0.1,0.5,0.2,0.9,0.2c0.3,0,0.6-0.1,0.9-0.2c0.3-0.1,0.5-0.3,0.7-0.5l0.5,0.8
						c-0.3,0.3-0.6,0.5-1,0.6C246.4,338.6,246,338.7,245.6,338.7z"/>
					<path class="st2" d="M251.3,338.7c-0.4,0-0.7-0.1-0.9-0.2c-0.2-0.1-0.4-0.3-0.6-0.5s-0.3-0.4-0.3-0.7c-0.1-0.3-0.1-0.6-0.1-0.9
						v-3.8h-1v-0.9l1.1-0.1l0.1-1.9h1v1.9h1.8v0.9h-1.8v3.8c0,0.4,0.1,0.7,0.2,1c0.2,0.2,0.4,0.3,0.8,0.3c0.1,0,0.3,0,0.4-0.1
						c0.1,0,0.3-0.1,0.4-0.1l0.2,0.9c-0.2,0.1-0.4,0.1-0.6,0.2C251.7,338.7,251.5,338.7,251.3,338.7z"/>
					<path class="st2" d="M254.5,330.3c-0.2,0-0.4-0.1-0.6-0.2c-0.2-0.1-0.2-0.3-0.2-0.5c0-0.2,0.1-0.4,0.2-0.5
						c0.2-0.1,0.3-0.2,0.6-0.2c0.2,0,0.4,0.1,0.6,0.2c0.2,0.1,0.2,0.3,0.2,0.5c0,0.2-0.1,0.4-0.2,0.5
						C254.9,330.3,254.7,330.3,254.5,330.3z M253.9,338.5v-6.8h1.1v6.8H253.9z"/>
					<path class="st2" d="M260,338.7c-0.4,0-0.8-0.1-1.2-0.2c-0.4-0.2-0.7-0.4-1-0.7c-0.3-0.3-0.5-0.7-0.7-1.1s-0.3-0.9-0.3-1.5
						c0-0.6,0.1-1.1,0.3-1.5s0.4-0.8,0.7-1.1c0.3-0.3,0.6-0.5,1-0.7c0.4-0.2,0.8-0.2,1.2-0.2s0.8,0.1,1.2,0.2c0.4,0.2,0.7,0.4,1,0.7
						c0.3,0.3,0.5,0.7,0.7,1.1c0.2,0.4,0.3,1,0.3,1.5c0,0.6-0.1,1.1-0.3,1.5c-0.2,0.4-0.4,0.8-0.7,1.1c-0.3,0.3-0.6,0.5-1,0.7
						C260.8,338.6,260.4,338.7,260,338.7z M260,337.8c0.3,0,0.6-0.1,0.8-0.2s0.5-0.3,0.6-0.5s0.3-0.5,0.4-0.8s0.1-0.7,0.1-1.1
						c0-0.4,0-0.7-0.1-1.1s-0.2-0.6-0.4-0.8s-0.4-0.4-0.6-0.5s-0.5-0.2-0.8-0.2c-0.3,0-0.6,0.1-0.8,0.2s-0.5,0.3-0.6,0.5
						c-0.2,0.2-0.3,0.5-0.4,0.8c-0.1,0.3-0.1,0.7-0.1,1.1c0,0.4,0,0.7,0.1,1.1c0.1,0.3,0.2,0.6,0.4,0.8c0.2,0.2,0.4,0.4,0.6,0.5
						S259.7,337.8,260,337.8z"/>
					<path class="st2" d="M264.9,338.5v-6.8h1l0.1,1h0c0.3-0.3,0.7-0.6,1-0.8c0.4-0.2,0.8-0.3,1.3-0.3c0.7,0,1.2,0.2,1.6,0.7
						c0.3,0.4,0.5,1.1,0.5,2v4.3h-1.1v-4.2c0-0.6-0.1-1.1-0.3-1.4c-0.2-0.3-0.5-0.4-1-0.4c-0.4,0-0.7,0.1-0.9,0.3
						c-0.3,0.2-0.6,0.4-0.9,0.8v4.9H264.9z"/>
					<path class="st2" d="M274.1,338.7c-0.6,0-1-0.2-1.4-0.5s-0.6-0.8-0.6-1.4c0-0.7,0.3-1.3,1-1.7c0.7-0.4,1.7-0.7,3.2-0.8
						c0-0.2,0-0.4-0.1-0.6c0-0.2-0.1-0.4-0.2-0.5c-0.1-0.2-0.2-0.3-0.4-0.4c-0.2-0.1-0.4-0.1-0.7-0.1c-0.4,0-0.8,0.1-1.1,0.2
						s-0.7,0.3-0.9,0.5l-0.4-0.8c0.3-0.2,0.7-0.4,1.2-0.6c0.5-0.2,1-0.3,1.5-0.3c0.8,0,1.4,0.3,1.8,0.8c0.4,0.5,0.6,1.2,0.6,2v4.2
						h-1l-0.1-0.8h0c-0.3,0.3-0.7,0.5-1.1,0.7C275,338.6,274.6,338.7,274.1,338.7z M274.5,337.8c0.3,0,0.6-0.1,0.9-0.2
						c0.3-0.2,0.6-0.4,0.9-0.7V335c-0.6,0.1-1,0.2-1.4,0.3s-0.7,0.2-0.9,0.4c-0.2,0.1-0.4,0.3-0.5,0.5c-0.1,0.2-0.2,0.4-0.2,0.6
						c0,0.4,0.1,0.7,0.4,0.8C273.8,337.7,274.1,337.8,274.5,337.8z"/>
					<path class="st2" d="M280.8,338.7c-0.4,0-0.8-0.1-0.9-0.4c-0.2-0.3-0.3-0.6-0.3-1.1v-8.6h1.1v8.7c0,0.2,0,0.3,0.1,0.4
						c0.1,0.1,0.1,0.1,0.2,0.1c0,0,0.1,0,0.1,0c0,0,0.1,0,0.1,0l0.2,0.9c-0.1,0-0.2,0.1-0.3,0.1C281.1,338.7,281,338.7,280.8,338.7z
						"/>
					<path class="st2" d="M288.3,338.7c-0.9,0-1.5-0.3-2.1-0.9s-0.8-1.5-0.8-2.6c0-0.6,0.1-1,0.2-1.5c0.2-0.4,0.4-0.8,0.7-1.1
						c0.3-0.3,0.6-0.5,0.9-0.7c0.4-0.2,0.7-0.3,1.1-0.3c0.4,0,0.7,0.1,1,0.2c0.3,0.1,0.6,0.3,0.9,0.6l-0.1-1.2v-2.6h1.2v10h-1
						l-0.1-0.8h0c-0.3,0.3-0.6,0.5-0.9,0.7C289.1,338.6,288.7,338.7,288.3,338.7z M288.6,337.7c0.3,0,0.6-0.1,0.9-0.2
						c0.3-0.2,0.6-0.4,0.8-0.7v-3.6c-0.3-0.3-0.6-0.4-0.8-0.6s-0.5-0.2-0.8-0.2c-0.3,0-0.5,0.1-0.8,0.2s-0.4,0.3-0.6,0.5
						s-0.3,0.5-0.4,0.8s-0.2,0.7-0.2,1.1c0,0.8,0.2,1.5,0.5,1.9C287.5,337.5,288,337.7,288.6,337.7z"/>
					<path class="st2" d="M295.3,338.7c-0.6,0-1-0.2-1.4-0.5c-0.4-0.3-0.6-0.8-0.6-1.4c0-0.7,0.3-1.3,1-1.7c0.7-0.4,1.7-0.7,3.2-0.8
						c0-0.2,0-0.4-0.1-0.6c0-0.2-0.1-0.4-0.2-0.5c-0.1-0.2-0.2-0.3-0.4-0.4s-0.4-0.1-0.7-0.1c-0.4,0-0.8,0.1-1.1,0.2
						s-0.7,0.3-0.9,0.5l-0.4-0.8c0.3-0.2,0.7-0.4,1.2-0.6c0.5-0.2,1-0.3,1.5-0.3c0.8,0,1.4,0.3,1.8,0.8s0.6,1.2,0.6,2v4.2h-1
						l-0.1-0.8h0c-0.3,0.3-0.7,0.5-1.1,0.7S295.8,338.7,295.3,338.7z M295.7,337.8c0.3,0,0.6-0.1,0.9-0.2c0.3-0.2,0.6-0.4,0.9-0.7
						V335c-0.6,0.1-1,0.2-1.4,0.3c-0.4,0.1-0.7,0.2-0.9,0.4c-0.2,0.1-0.4,0.3-0.5,0.5c-0.1,0.2-0.2,0.4-0.2,0.6
						c0,0.4,0.1,0.7,0.4,0.8C295,337.7,295.3,337.8,295.7,337.8z"/>
					<path class="st2" d="M302.8,338.7c-0.4,0-0.7-0.1-0.9-0.2c-0.2-0.1-0.4-0.3-0.6-0.5s-0.3-0.4-0.3-0.7c-0.1-0.3-0.1-0.6-0.1-0.9
						v-3.8h-1v-0.9l1.1-0.1l0.1-1.9h1v1.9h1.8v0.9H302v3.8c0,0.4,0.1,0.7,0.2,1c0.2,0.2,0.4,0.3,0.8,0.3c0.1,0,0.3,0,0.4-0.1
						c0.1,0,0.3-0.1,0.4-0.1l0.2,0.9c-0.2,0.1-0.4,0.1-0.6,0.2C303.2,338.7,303,338.7,302.8,338.7z"/>
					<path class="st2" d="M306.6,338.7c-0.6,0-1-0.2-1.4-0.5s-0.6-0.8-0.6-1.4c0-0.7,0.3-1.3,1-1.7c0.7-0.4,1.7-0.7,3.2-0.8
						c0-0.2,0-0.4-0.1-0.6c0-0.2-0.1-0.4-0.2-0.5c-0.1-0.2-0.2-0.3-0.4-0.4s-0.4-0.1-0.7-0.1c-0.4,0-0.8,0.1-1.1,0.2
						c-0.3,0.1-0.7,0.3-0.9,0.5l-0.4-0.8c0.3-0.2,0.7-0.4,1.2-0.6s1-0.3,1.5-0.3c0.8,0,1.4,0.3,1.8,0.8s0.6,1.2,0.6,2v4.2h-1
						l-0.1-0.8h0c-0.3,0.3-0.7,0.5-1.1,0.7S307.1,338.7,306.6,338.7z M307,337.8c0.3,0,0.6-0.1,0.9-0.2c0.3-0.2,0.6-0.4,0.9-0.7V335
						c-0.6,0.1-1,0.2-1.4,0.3s-0.7,0.2-0.9,0.4c-0.2,0.1-0.4,0.3-0.5,0.5c-0.1,0.2-0.2,0.4-0.2,0.6c0,0.4,0.1,0.7,0.4,0.8
						S306.6,337.8,307,337.8z"/>
					<path class="st2" d="M312.7,338.7c-0.2,0-0.4-0.1-0.6-0.2c-0.2-0.2-0.2-0.4-0.2-0.6c0-0.3,0.1-0.5,0.2-0.7
						c0.2-0.2,0.4-0.2,0.6-0.2c0.2,0,0.4,0.1,0.6,0.2c0.2,0.2,0.2,0.4,0.2,0.7c0,0.3-0.1,0.5-0.2,0.6
						C313.1,338.6,312.9,338.7,312.7,338.7z"/>
				</g>
				<g class="st1">
					<path class="st5" d="M185,31.5h2l1.4,5.2c0.3,1.2,0.6,2.2,0.9,3.4h0.1c0.4-1.2,0.6-2.2,0.9-3.4l1.5-5.2h2L190.4,42h-2.3
						L185,31.5z"/>
					<path class="st5" d="M194.6,31.7c0-0.6,0.5-1.1,1.1-1.1s1.1,0.4,1.1,1.1c0,0.6-0.5,1.1-1.1,1.1S194.6,32.3,194.6,31.7z
						 M194.8,34.1h1.9V42h-1.9V34.1z"/>
					<path class="st5" d="M198.2,41l0.8-1.1c0.7,0.6,1.4,0.8,2.2,0.8c0.8,0,1.2-0.4,1.2-0.9c0-0.7-0.8-0.9-1.6-1.2
						c-1.1-0.4-2.2-1.1-2.2-2.3c0-1.4,1.1-2.4,2.9-2.4c1.1,0,2,0.4,2.6,1l-0.8,1.1c-0.6-0.4-1.1-0.6-1.8-0.6c-0.8,0-1.1,0.4-1.1,0.8
						c0,0.6,0.6,0.8,1.6,1.1c1.2,0.4,2.3,1,2.3,2.4s-1.1,2.4-3.1,2.4C200.1,42.2,199,41.8,198.2,41z"/>
					<path class="st5" d="M205.8,39.1v-4.9h1.9v4.7c0,1.3,0.4,1.8,1.2,1.8c0.7,0,1.1-0.3,1.7-1.1v-5.4h1.9V42H211l-0.1-1.2h0
						c-0.7,0.8-1.4,1.3-2.5,1.3C206.6,42.2,205.8,41,205.8,39.1z"/>
					<path class="st5" d="M214.4,39.9c0-1.7,1.4-2.6,4.6-2.9c0-0.8-0.4-1.5-1.4-1.5c-0.8,0-1.5,0.3-2.2,0.7l-0.7-1.2
						c0.9-0.5,2-1,3.2-1c2,0,2.9,1.2,2.9,3.4V42h-1.5l-0.2-0.9h-0.1c-0.7,0.6-1.5,1.1-2.4,1.1C215.4,42.2,214.4,41.3,214.4,39.9z
						 M219,39.9v-1.7c-2.1,0.3-2.8,0.7-2.8,1.5c0,0.7,0.4,0.9,1.1,0.9S218.5,40.4,219,39.9z"/>
					<path class="st5" d="M223.1,39.9v-9.2h1.9V40c0,0.5,0.2,0.6,0.4,0.6c0.1,0,0.2,0,0.3,0l0.2,1.4c-0.2,0.1-0.5,0.2-1,0.2
						C223.6,42.2,223.1,41.3,223.1,39.9z"/>
					<path class="st5" d="M227.3,31.7c0-0.6,0.5-1.1,1.1-1.1s1.1,0.4,1.1,1.1c0,0.6-0.5,1.1-1.1,1.1S227.3,32.3,227.3,31.7z
						 M227.4,34.1h1.9V42h-1.9V34.1z"/>
					<path class="st5" d="M231.1,41l3.7-5.4h-3.3v-1.5h5.6v1l-3.7,5.3h3.8V42h-6.2V41z"/>
					<path class="st5" d="M238.6,31.7c0-0.6,0.5-1.1,1.1-1.1s1.1,0.4,1.1,1.1c0,0.6-0.5,1.1-1.1,1.1S238.6,32.3,238.6,31.7z
						 M238.8,34.1h1.9V42h-1.9V34.1z"/>
					<path class="st5" d="M243,34.1h1.6l0.1,1.1h0c0.7-0.7,1.5-1.2,2.6-1.2c1.7,0,2.4,1.2,2.4,3.1V42h-1.9v-4.7
						c0-1.3-0.4-1.7-1.2-1.7c-0.7,0-1.1,0.3-1.8,1V42H243V34.1z"/>
					<path class="st5" d="M251.4,43.4c0-0.7,0.4-1.2,1.1-1.7v-0.1c-0.4-0.3-0.7-0.7-0.7-1.3c0-0.6,0.4-1.1,0.9-1.5v-0.1
						c-0.5-0.4-1-1.2-1-2.1c0-1.8,1.5-2.8,3.1-2.8c0.4,0,0.8,0.1,1.2,0.2h2.8v1.4h-1.4c0.2,0.3,0.4,0.8,0.4,1.3c0,1.7-1.3,2.7-3,2.7
						c-0.3,0-0.7-0.1-1.1-0.2c-0.2,0.2-0.4,0.4-0.4,0.7c0,0.4,0.3,0.7,1.3,0.7h1.4c1.9,0,2.9,0.6,2.9,2c0,1.6-1.6,2.8-4.2,2.8
						C252.8,45.5,251.4,44.8,251.4,43.4z M257.1,43c0-0.6-0.5-0.8-1.4-0.8h-1.1c-0.4,0-0.8,0-1.1-0.1c-0.4,0.3-0.6,0.7-0.6,1
						c0,0.7,0.8,1.1,2,1.1C256.2,44.2,257.1,43.7,257.1,43z M256.1,36.8c0-1-0.6-1.5-1.3-1.5c-0.8,0-1.3,0.5-1.3,1.5
						c0,1,0.6,1.6,1.3,1.6S256.1,37.8,256.1,36.8z"/>
					<path class="st5" d="M263.7,31.5h2.8c3.2,0,5.1,1.7,5.1,5.2c0,3.5-1.9,5.3-5,5.3h-2.9V31.5z M266.3,40.5c2.1,0,3.3-1.2,3.3-3.7
						c0-2.6-1.2-3.6-3.3-3.6h-0.8v7.4H266.3z"/>
					<path class="st5" d="M273,38.1c0-2.6,1.8-4.1,3.6-4.1c2.1,0,3.3,1.5,3.3,3.7c0,0.4,0,0.7-0.1,1h-5c0.2,1.3,1,2.1,2.3,2.1
						c0.7,0,1.3-0.2,1.8-0.5l0.6,1.2c-0.7,0.5-1.7,0.8-2.7,0.8C274.7,42.2,273,40.7,273,38.1z M278.2,37.2c0-1.2-0.5-1.8-1.6-1.8
						c-0.9,0-1.7,0.6-1.8,1.8H278.2z"/>
					<path class="st5" d="M281.9,35.6h-1.1v-1.4l1.1-0.1v-0.8c0-1.6,0.8-2.8,2.6-2.8c0.6,0,1.1,0.1,1.5,0.3l-0.4,1.4
						c-0.3-0.1-0.6-0.1-0.8-0.1c-0.7,0-1,0.4-1,1.3v0.8h1.5v1.5h-1.5V42h-1.9V35.6z"/>
					<path class="st5" d="M286.5,31.7c0-0.6,0.5-1.1,1.1-1.1c0.7,0,1.1,0.4,1.1,1.1c0,0.6-0.5,1.1-1.1,1.1
						C287,32.8,286.5,32.3,286.5,31.7z M286.7,34.1h1.9V42h-1.9V34.1z"/>
					<path class="st5" d="M290.4,38.1c0-2.6,1.9-4.1,4-4.1c1,0,1.7,0.4,2.3,0.9l-0.9,1.2c-0.4-0.4-0.8-0.5-1.3-0.5
						c-1.2,0-2.1,1-2.1,2.6c0,1.6,0.8,2.6,2,2.6c0.6,0,1.2-0.3,1.6-0.6l0.8,1.2c-0.8,0.7-1.7,1-2.6,1
						C292,42.2,290.4,40.7,290.4,38.1z"/>
					<path class="st5" d="M298.1,31.7c0-0.6,0.5-1.1,1.1-1.1c0.7,0,1.1,0.4,1.1,1.1c0,0.6-0.5,1.1-1.1,1.1
						C298.5,32.8,298.1,32.3,298.1,31.7z M298.3,34.1h1.9V42h-1.9V34.1z"/>
					<path class="st5" d="M302.8,39.3v-3.7h-1.1v-1.4l1.2-0.1l0.2-2.4h1.6v2.4h2v1.5h-2v3.7c0,0.9,0.4,1.4,1.1,1.4
						c0.3,0,0.5,0,0.8-0.2l0.3,1.3c-0.4,0.2-1,0.3-1.6,0.3C303.4,42.2,302.8,41,302.8,39.3z"/>
					<path class="st5" d="M310.5,34.1h1.9l1.2,4c0.2,0.8,0.4,1.6,0.7,2.4h0.1c0.2-0.8,0.4-1.6,0.7-2.4l1.2-4h1.8l-2.7,7.9h-2.2
						L310.5,34.1z"/>
					<path class="st5" d="M318.7,41l0.8-1.1c0.7,0.6,1.4,0.8,2.2,0.8c0.8,0,1.2-0.4,1.2-0.9c0-0.7-0.8-0.9-1.6-1.2
						c-1.1-0.4-2.2-1.1-2.2-2.3c0-1.4,1.1-2.4,2.9-2.4c1.1,0,2,0.4,2.6,1l-0.8,1.1c-0.6-0.4-1.1-0.6-1.8-0.6c-0.8,0-1.1,0.4-1.1,0.8
						c0,0.6,0.6,0.8,1.6,1.1c1.2,0.4,2.3,1,2.3,2.4s-1.1,2.4-3.1,2.4C320.6,42.2,319.4,41.8,318.7,41z"/>
					<path class="st5" d="M326.2,40.9c0-0.7,0.5-1.3,1.2-1.3s1.2,0.5,1.2,1.3c0,0.7-0.5,1.3-1.2,1.3S326.2,41.6,326.2,40.9z"/>
					<path class="st5" d="M334.2,31.5h2.8c3.2,0,5.1,1.7,5.1,5.2c0,3.5-1.9,5.3-5,5.3h-2.9V31.5z M336.9,40.5c2.1,0,3.3-1.2,3.3-3.7
						c0-2.6-1.2-3.6-3.3-3.6h-0.8v7.4H336.9z"/>
					<path class="st5" d="M343.5,38.1c0-2.6,1.8-4.1,3.6-4.1c2.1,0,3.3,1.5,3.3,3.7c0,0.4,0,0.7-0.1,1h-5c0.2,1.3,1,2.1,2.3,2.1
						c0.7,0,1.3-0.2,1.8-0.5l0.6,1.2c-0.7,0.5-1.7,0.8-2.7,0.8C345.2,42.2,343.5,40.7,343.5,38.1z M348.8,37.2
						c0-1.2-0.5-1.8-1.6-1.8c-0.9,0-1.7,0.6-1.8,1.8H348.8z"/>
					<path class="st5" d="M353.9,41.2L353.9,41.2l-0.2,0.8h-1.5V30.7h1.9v2.9l-0.1,1.3c0.7-0.6,1.5-1,2.3-1c2,0,3.1,1.6,3.1,4
						c0,2.7-1.6,4.3-3.3,4.3C355.3,42.2,354.5,41.8,353.9,41.2z M357.4,38c0-1.6-0.5-2.5-1.7-2.5c-0.6,0-1.1,0.3-1.7,0.9V40
						c0.5,0.5,1.1,0.6,1.5,0.6C356.6,40.6,357.4,39.7,357.4,38z"/>
					<path class="st5" d="M361.1,39.3v-3.7H360v-1.4l1.2-0.1l0.2-2.4h1.6v2.4h2v1.5h-2v3.7c0,0.9,0.4,1.4,1.1,1.4
						c0.3,0,0.5,0,0.8-0.2l0.3,1.3c-0.4,0.2-1,0.3-1.6,0.3C361.8,42.2,361.1,41,361.1,39.3z"/>
				</g>
			</g>
		</g>
	</g>
</g>
</svg>
