<?xml version="1.0" encoding="utf-8"?>
<!-- Generator: Adobe Illustrator 25.3.1, SVG Export Plug-In . SVG Version: 6.00 Build 0)  -->
<svg version="1.1" id="Layer_1" xmlns="http://www.w3.org/2000/svg" xmlns:xlink="http://www.w3.org/1999/xlink" x="0px" y="0px"
	 viewBox="0 0 340 337" style="enable-background:new 0 0 340 337;" xml:space="preserve">
<style type="text/css">
	.st0{fill-rule:evenodd;clip-rule:evenodd;fill:#F1F1F1;}
	.st1{enable-background:new    ;}
	.st2{fill:#666666;}
	.st3{fill:none;stroke:#979797;stroke-width:0.6844;stroke-linecap:round;stroke-linejoin:round;}
	.st4{fill:#B3532D;}
	.st5{fill-rule:evenodd;clip-rule:evenodd;fill:#4A0072;}
	.st6{fill:none;stroke:#666666;stroke-width:2;stroke-linecap:round;}
	.st7{fill:none;stroke:#666666;stroke-width:2;stroke-linecap:round;stroke-linejoin:round;}
</style>
<g id="Deficit">
	<g id="Deficit---Mobile---360px---April-_x27_22" transform="translate(-10.000000, -4366.000000)">
		<g id="The-Difference-Between-the-National-Deficit-and-the-National-Debt-Copy" transform="translate(10.000000, 3822.160000)">
			<g id="Visualizing-Deficit-vs.-Debt" transform="translate(0.000000, 544.000000)">
				<rect id="Rectangle" y="0" class="st0" width="340" height="336"/>
				<g class="st1">
					<path class="st2" d="M46.7,154.2V153c-0.4,0-0.8-0.1-1.1-0.3c-0.4-0.2-0.7-0.4-0.9-0.6l0.5-0.7c0.3,0.2,0.5,0.4,0.8,0.6
						c0.3,0.2,0.6,0.2,1,0.2c0.4,0,0.8-0.1,1-0.3s0.3-0.5,0.3-0.9c0-0.3-0.1-0.6-0.2-0.8s-0.4-0.4-0.6-0.6c-0.2-0.2-0.5-0.3-0.8-0.4
						c-0.3-0.1-0.6-0.3-0.8-0.5c-0.2-0.2-0.5-0.4-0.6-0.6s-0.2-0.6-0.2-1c0-0.5,0.2-1,0.5-1.3c0.3-0.4,0.7-0.6,1.3-0.7v-1.2h0.7v1.2
						c0.4,0,0.7,0.1,1,0.3s0.5,0.4,0.7,0.6l-0.5,0.6c-0.2-0.2-0.4-0.4-0.7-0.5s-0.5-0.2-0.8-0.2c-0.4,0-0.7,0.1-0.9,0.3
						c-0.2,0.2-0.3,0.5-0.3,0.8c0,0.3,0.1,0.5,0.2,0.7c0.2,0.2,0.4,0.3,0.6,0.5s0.5,0.3,0.8,0.4s0.6,0.3,0.8,0.5
						c0.2,0.2,0.5,0.4,0.6,0.7s0.2,0.6,0.2,1.1c0,0.6-0.2,1-0.5,1.4c-0.3,0.4-0.8,0.6-1.4,0.7v1.2H46.7z"/>
					<path class="st2" d="M51,152.8V152h1.8v-5.6h-1.4v-0.6c0.4-0.1,0.7-0.1,0.9-0.2c0.3-0.1,0.5-0.2,0.7-0.3h0.8v6.8h1.6v0.8H51z"
						/>
					<path class="st2" d="M58.8,153c-0.3,0-0.6,0-0.8-0.1c-0.3-0.1-0.5-0.1-0.7-0.2c-0.2-0.1-0.4-0.2-0.6-0.3s-0.3-0.3-0.4-0.4
						l0.5-0.6c0.2,0.2,0.5,0.4,0.8,0.6c0.3,0.2,0.7,0.3,1.1,0.3c0.2,0,0.5,0,0.7-0.1c0.2-0.1,0.4-0.2,0.5-0.4
						c0.2-0.2,0.3-0.3,0.4-0.6c0.1-0.2,0.1-0.5,0.1-0.7c0-0.5-0.1-0.9-0.4-1.2c-0.3-0.3-0.7-0.4-1.2-0.4c-0.3,0-0.5,0-0.7,0.1
						c-0.2,0.1-0.4,0.2-0.6,0.3l-0.5-0.3l0.3-3.7H61v0.9h-3l-0.2,2.3c0.2-0.1,0.4-0.2,0.6-0.2c0.2-0.1,0.4-0.1,0.6-0.1
						c0.3,0,0.6,0,0.9,0.1s0.5,0.2,0.8,0.4c0.2,0.2,0.4,0.4,0.5,0.7c0.1,0.3,0.2,0.7,0.2,1.1s-0.1,0.8-0.2,1.1
						c-0.1,0.3-0.3,0.6-0.6,0.8c-0.2,0.2-0.5,0.4-0.8,0.5C59.5,152.9,59.1,153,58.8,153z"/>
					<path class="st2" d="M65,153c-0.8,0-1.4-0.3-1.8-1c-0.4-0.7-0.6-1.7-0.6-3s0.2-2.3,0.6-2.9c0.4-0.7,1-1,1.8-1
						c0.8,0,1.4,0.3,1.8,1s0.6,1.7,0.6,2.9s-0.2,2.3-0.6,3C66.3,152.6,65.7,153,65,153z M65,152.2c0.2,0,0.4-0.1,0.6-0.2
						c0.2-0.1,0.3-0.3,0.5-0.6s0.2-0.6,0.3-1c0.1-0.4,0.1-0.9,0.1-1.4c0-0.6,0-1-0.1-1.4c-0.1-0.4-0.2-0.7-0.3-1
						c-0.1-0.3-0.3-0.4-0.5-0.6c-0.2-0.1-0.4-0.2-0.6-0.2c-0.2,0-0.4,0.1-0.6,0.2s-0.3,0.3-0.5,0.6c-0.1,0.3-0.2,0.6-0.3,1
						c-0.1,0.4-0.1,0.9-0.1,1.4c0,1.1,0.1,1.9,0.4,2.4C64.1,151.9,64.5,152.2,65,152.2z"/>
				</g>
				<g class="st1">
					<path class="st2" d="M77.7,175.2V174c-0.4,0-0.8-0.1-1.1-0.3c-0.4-0.2-0.7-0.4-0.9-0.6l0.5-0.7c0.3,0.2,0.5,0.4,0.8,0.6
						c0.3,0.2,0.6,0.2,1,0.2c0.4,0,0.8-0.1,1-0.3s0.3-0.5,0.3-0.9c0-0.3-0.1-0.6-0.2-0.8s-0.4-0.4-0.6-0.6c-0.2-0.2-0.5-0.3-0.8-0.4
						c-0.3-0.1-0.6-0.3-0.8-0.5c-0.2-0.2-0.5-0.4-0.6-0.6s-0.2-0.6-0.2-1c0-0.5,0.2-1,0.5-1.3c0.3-0.4,0.7-0.6,1.3-0.7v-1.2h0.7v1.2
						c0.4,0,0.7,0.1,1,0.3s0.5,0.4,0.7,0.6l-0.5,0.6c-0.2-0.2-0.4-0.4-0.7-0.5s-0.5-0.2-0.8-0.2c-0.4,0-0.7,0.1-0.9,0.3
						c-0.2,0.2-0.3,0.5-0.3,0.8c0,0.3,0.1,0.5,0.2,0.7c0.2,0.2,0.4,0.3,0.6,0.5s0.5,0.3,0.8,0.4s0.6,0.3,0.8,0.5
						c0.2,0.2,0.5,0.4,0.6,0.7s0.2,0.6,0.2,1.1c0,0.6-0.2,1-0.5,1.4c-0.3,0.4-0.8,0.6-1.4,0.7v1.2H77.7z"/>
					<path class="st2" d="M83.1,173.8c0-0.7,0.1-1.4,0.2-2c0.1-0.6,0.2-1.2,0.4-1.7c0.2-0.5,0.4-1.1,0.7-1.6s0.6-1,1-1.5h-3.8v-0.9
						h4.9v0.6c-0.5,0.6-0.8,1.1-1.1,1.7c-0.3,0.5-0.5,1.1-0.7,1.6c-0.2,0.5-0.3,1.1-0.4,1.7c-0.1,0.6-0.1,1.3-0.2,2H83.1z"/>
					<path class="st2" d="M89.8,174c-0.3,0-0.6,0-0.8-0.1c-0.3-0.1-0.5-0.1-0.7-0.2c-0.2-0.1-0.4-0.2-0.6-0.3s-0.3-0.3-0.4-0.4
						l0.5-0.6c0.2,0.2,0.5,0.4,0.8,0.6c0.3,0.2,0.7,0.3,1.1,0.3c0.2,0,0.5,0,0.7-0.1c0.2-0.1,0.4-0.2,0.5-0.4
						c0.2-0.2,0.3-0.3,0.4-0.6c0.1-0.2,0.1-0.5,0.1-0.7c0-0.5-0.1-0.9-0.4-1.2c-0.3-0.3-0.7-0.4-1.2-0.4c-0.3,0-0.5,0-0.7,0.1
						c-0.2,0.1-0.4,0.2-0.6,0.3l-0.5-0.3l0.3-3.7H92v0.9h-3l-0.2,2.3c0.2-0.1,0.4-0.2,0.6-0.2c0.2-0.1,0.4-0.1,0.6-0.1
						c0.3,0,0.6,0,0.9,0.1s0.5,0.2,0.8,0.4c0.2,0.2,0.4,0.4,0.5,0.7c0.1,0.3,0.2,0.7,0.2,1.1s-0.1,0.8-0.2,1.1
						c-0.1,0.3-0.3,0.6-0.6,0.8c-0.2,0.2-0.5,0.4-0.8,0.5C90.4,173.9,90.1,174,89.8,174z"/>
				</g>
				<g class="st1">
					<path class="st2" d="M102.7,154.2V153c-0.4,0-0.8-0.1-1.1-0.3c-0.4-0.2-0.7-0.4-0.9-0.6l0.5-0.7c0.3,0.2,0.5,0.4,0.8,0.6
						c0.3,0.2,0.6,0.2,1,0.2c0.4,0,0.8-0.1,1-0.3s0.3-0.5,0.3-0.9c0-0.3-0.1-0.6-0.2-0.8s-0.4-0.4-0.6-0.6c-0.2-0.2-0.5-0.3-0.8-0.4
						c-0.3-0.1-0.6-0.3-0.8-0.5c-0.2-0.2-0.5-0.4-0.6-0.6s-0.2-0.6-0.2-1c0-0.5,0.2-1,0.5-1.3c0.3-0.4,0.7-0.6,1.3-0.7v-1.2h0.7v1.2
						c0.4,0,0.7,0.1,1,0.3s0.5,0.4,0.7,0.6l-0.5,0.6c-0.2-0.2-0.4-0.4-0.7-0.5s-0.5-0.2-0.8-0.2c-0.4,0-0.7,0.1-0.9,0.3
						c-0.2,0.2-0.3,0.5-0.3,0.8c0,0.3,0.1,0.5,0.2,0.7c0.2,0.2,0.4,0.3,0.6,0.5s0.5,0.3,0.8,0.4s0.6,0.3,0.8,0.5
						c0.2,0.2,0.5,0.4,0.6,0.7s0.2,0.6,0.2,1.1c0,0.6-0.2,1-0.5,1.4c-0.3,0.4-0.8,0.6-1.4,0.7v1.2H102.7z"/>
					<path class="st2" d="M107,152.8V152h1.8v-5.6h-1.4v-0.6c0.4-0.1,0.7-0.1,0.9-0.2c0.3-0.1,0.5-0.2,0.7-0.3h0.8v6.8h1.6v0.8H107z
						"/>
					<path class="st2" d="M115,153c-0.8,0-1.4-0.3-1.8-1c-0.4-0.7-0.6-1.7-0.6-3s0.2-2.3,0.6-2.9c0.4-0.7,1-1,1.8-1
						c0.8,0,1.4,0.3,1.8,1s0.6,1.7,0.6,2.9s-0.2,2.3-0.6,3C116.4,152.6,115.8,153,115,153z M115,152.2c0.2,0,0.4-0.1,0.6-0.2
						c0.2-0.1,0.3-0.3,0.5-0.6s0.2-0.6,0.3-1c0.1-0.4,0.1-0.9,0.1-1.4c0-0.6,0-1-0.1-1.4c-0.1-0.4-0.2-0.7-0.3-1
						c-0.1-0.3-0.3-0.4-0.5-0.6c-0.2-0.1-0.4-0.2-0.6-0.2c-0.2,0-0.4,0.1-0.6,0.2s-0.3,0.3-0.5,0.6c-0.1,0.3-0.2,0.6-0.3,1
						c-0.1,0.4-0.1,0.9-0.1,1.4c0,1.1,0.1,1.9,0.4,2.4C114.2,151.9,114.5,152.2,115,152.2z"/>
					<path class="st2" d="M121,153c-0.8,0-1.4-0.3-1.8-1c-0.4-0.7-0.6-1.7-0.6-3s0.2-2.3,0.6-2.9c0.4-0.7,1-1,1.8-1
						c0.8,0,1.4,0.3,1.8,1s0.6,1.7,0.6,2.9s-0.2,2.3-0.6,3C122.3,152.6,121.7,153,121,153z M121,152.2c0.2,0,0.4-0.1,0.6-0.2
						c0.2-0.1,0.3-0.3,0.5-0.6s0.2-0.6,0.3-1c0.1-0.4,0.1-0.9,0.1-1.4c0-0.6,0-1-0.1-1.4c-0.1-0.4-0.2-0.7-0.3-1
						c-0.1-0.3-0.3-0.4-0.5-0.6c-0.2-0.1-0.4-0.2-0.6-0.2c-0.2,0-0.4,0.1-0.6,0.2s-0.3,0.3-0.5,0.6c-0.1,0.3-0.2,0.6-0.3,1
						c-0.1,0.4-0.1,0.9-0.1,1.4c0,1.1,0.1,1.9,0.4,2.4C120.1,151.9,120.5,152.2,121,152.2z"/>
				</g>
				<g class="st1">
					<path class="st2" d="M185.7,155.3v-1.2c-0.4,0-0.8-0.1-1.1-0.3c-0.4-0.2-0.7-0.4-0.9-0.6l0.5-0.7c0.3,0.2,0.5,0.4,0.8,0.6
						c0.3,0.2,0.6,0.2,1,0.2c0.4,0,0.8-0.1,1-0.3c0.2-0.2,0.3-0.5,0.3-0.9c0-0.3-0.1-0.6-0.2-0.8s-0.4-0.4-0.6-0.6
						c-0.2-0.2-0.5-0.3-0.8-0.4c-0.3-0.1-0.6-0.3-0.8-0.5c-0.2-0.2-0.5-0.4-0.6-0.6s-0.2-0.6-0.2-1c0-0.5,0.2-1,0.5-1.3
						c0.3-0.4,0.7-0.6,1.3-0.7V145h0.7v1.2c0.4,0,0.7,0.1,1,0.3c0.3,0.2,0.5,0.4,0.7,0.6l-0.5,0.6c-0.2-0.2-0.4-0.4-0.7-0.5
						s-0.5-0.2-0.8-0.2c-0.4,0-0.7,0.1-0.9,0.3s-0.3,0.5-0.3,0.8c0,0.3,0.1,0.5,0.2,0.7c0.2,0.2,0.4,0.3,0.6,0.5s0.5,0.3,0.8,0.4
						s0.6,0.3,0.8,0.5c0.2,0.2,0.5,0.4,0.6,0.7s0.2,0.6,0.2,1.1c0,0.6-0.2,1-0.5,1.4c-0.3,0.4-0.8,0.6-1.4,0.7v1.2H185.7z"/>
					<path class="st2" d="M190,154v-0.8h1.8v-5.6h-1.4v-0.6c0.4-0.1,0.7-0.1,0.9-0.2s0.5-0.2,0.7-0.3h0.8v6.8h1.6v0.8H190z"/>
					<path class="st2" d="M198,154.1c-0.8,0-1.4-0.3-1.8-1c-0.4-0.7-0.6-1.7-0.6-3s0.2-2.3,0.6-2.9s1-1,1.8-1c0.8,0,1.4,0.3,1.8,1
						c0.4,0.7,0.6,1.7,0.6,2.9s-0.2,2.3-0.6,3C199.4,153.8,198.8,154.1,198,154.1z M198,153.4c0.2,0,0.4-0.1,0.6-0.2
						s0.3-0.3,0.5-0.6s0.2-0.6,0.3-1c0.1-0.4,0.1-0.9,0.1-1.4c0-0.6,0-1-0.1-1.4c-0.1-0.4-0.2-0.7-0.3-1c-0.1-0.3-0.3-0.4-0.5-0.6
						s-0.4-0.2-0.6-0.2c-0.2,0-0.4,0.1-0.6,0.2c-0.2,0.1-0.3,0.3-0.5,0.6c-0.1,0.3-0.2,0.6-0.3,1s-0.1,0.9-0.1,1.4
						c0,1.1,0.1,1.9,0.4,2.4C197.2,153.1,197.5,153.4,198,153.4z"/>
					<path class="st2" d="M204,154.1c-0.8,0-1.4-0.3-1.8-1c-0.4-0.7-0.6-1.7-0.6-3s0.2-2.3,0.6-2.9s1-1,1.8-1c0.8,0,1.4,0.3,1.8,1
						c0.4,0.7,0.6,1.7,0.6,2.9s-0.2,2.3-0.6,3C205.3,153.8,204.7,154.1,204,154.1z M204,153.4c0.2,0,0.4-0.1,0.6-0.2
						s0.3-0.3,0.5-0.6s0.2-0.6,0.3-1c0.1-0.4,0.1-0.9,0.1-1.4c0-0.6,0-1-0.1-1.4c-0.1-0.4-0.2-0.7-0.3-1c-0.1-0.3-0.3-0.4-0.5-0.6
						s-0.4-0.2-0.6-0.2c-0.2,0-0.4,0.1-0.6,0.2c-0.2,0.1-0.3,0.3-0.5,0.6c-0.1,0.3-0.2,0.6-0.3,1s-0.1,0.9-0.1,1.4
						c0,1.1,0.1,1.9,0.4,2.4C203.1,153.1,203.5,153.4,204,153.4z"/>
				</g>
				<g class="st1">
					<path class="st2" d="M269.7,79.3v-1.2c-0.4,0-0.8-0.1-1.1-0.3c-0.4-0.2-0.7-0.4-0.9-0.6l0.5-0.7c0.3,0.2,0.5,0.4,0.8,0.6
						c0.3,0.2,0.6,0.2,1,0.2c0.4,0,0.8-0.1,1-0.3c0.2-0.2,0.3-0.5,0.3-0.9c0-0.3-0.1-0.6-0.2-0.8s-0.4-0.4-0.6-0.6
						c-0.2-0.2-0.5-0.3-0.8-0.4c-0.3-0.1-0.6-0.3-0.8-0.5c-0.2-0.2-0.5-0.4-0.6-0.6s-0.2-0.6-0.2-1c0-0.5,0.2-1,0.5-1.3
						c0.3-0.4,0.7-0.6,1.3-0.7V69h0.7v1.2c0.4,0,0.7,0.1,1,0.3c0.3,0.2,0.5,0.4,0.7,0.6l-0.5,0.6c-0.2-0.2-0.4-0.4-0.7-0.5
						s-0.5-0.2-0.8-0.2c-0.4,0-0.7,0.1-0.9,0.3s-0.3,0.5-0.3,0.8c0,0.3,0.1,0.5,0.2,0.7c0.2,0.2,0.4,0.3,0.6,0.5s0.5,0.3,0.8,0.4
						s0.6,0.3,0.8,0.5c0.2,0.2,0.5,0.4,0.6,0.7s0.2,0.6,0.2,1.1c0,0.6-0.2,1-0.5,1.4c-0.3,0.4-0.8,0.6-1.4,0.7v1.2H269.7z"/>
					<path class="st2" d="M276.7,78v-2.1h-3.4v-0.6l3.3-4.9h1.1v4.8h1v0.8h-1V78H276.7z M274.3,75.1h2.4v-2.2c0-0.2,0-0.5,0-0.7
						c0-0.3,0-0.5,0-0.7h0c-0.1,0.2-0.2,0.4-0.3,0.5c-0.1,0.2-0.2,0.4-0.3,0.5L274.3,75.1z"/>
					<path class="st2" d="M279.5,78v-0.6c0.6-0.6,1.1-1.1,1.5-1.6c0.4-0.5,0.8-0.9,1.1-1.3c0.3-0.4,0.5-0.8,0.7-1.1s0.2-0.7,0.2-1
						c0-0.4-0.1-0.8-0.4-1.1c-0.2-0.3-0.6-0.4-1.1-0.4c-0.3,0-0.6,0.1-0.9,0.3c-0.3,0.2-0.5,0.4-0.7,0.7l-0.6-0.6
						c0.3-0.4,0.7-0.6,1-0.8c0.4-0.2,0.8-0.3,1.3-0.3c0.7,0,1.3,0.2,1.7,0.6s0.6,1,0.6,1.6c0,0.4-0.1,0.7-0.2,1.1s-0.4,0.7-0.6,1.1
						c-0.3,0.4-0.6,0.8-1,1.2s-0.8,0.9-1.3,1.3c0.2,0,0.4,0,0.6,0c0.2,0,0.4,0,0.6,0h2.2V78H279.5z"/>
					<path class="st2" d="M287.8,78.1c-0.3,0-0.6,0-0.8-0.1c-0.3-0.1-0.5-0.1-0.7-0.2c-0.2-0.1-0.4-0.2-0.6-0.3s-0.3-0.3-0.4-0.4
						l0.5-0.6c0.2,0.2,0.5,0.4,0.8,0.6c0.3,0.2,0.7,0.3,1.1,0.3c0.2,0,0.5,0,0.7-0.1c0.2-0.1,0.4-0.2,0.5-0.4
						c0.2-0.2,0.3-0.3,0.4-0.6s0.1-0.5,0.1-0.7c0-0.5-0.1-0.9-0.4-1.2c-0.3-0.3-0.7-0.4-1.2-0.4c-0.3,0-0.5,0-0.7,0.1
						c-0.2,0.1-0.4,0.2-0.6,0.3l-0.5-0.3l0.3-3.7h3.8v0.9h-3l-0.2,2.3c0.2-0.1,0.4-0.2,0.6-0.2c0.2-0.1,0.4-0.1,0.6-0.1
						c0.3,0,0.6,0,0.9,0.1s0.5,0.2,0.8,0.4c0.2,0.2,0.4,0.4,0.5,0.7c0.1,0.3,0.2,0.7,0.2,1.1s-0.1,0.8-0.2,1.1
						c-0.1,0.3-0.3,0.6-0.6,0.8c-0.2,0.2-0.5,0.4-0.8,0.5C288.4,78.1,288.1,78.1,287.8,78.1z"/>
				</g>
				<g id="Group-2" transform="translate(36.000000, 160.840000)">
					<line id="Line-Copy-5" class="st3" x1="0" y1="41.7" x2="96" y2="41.7"/>
					<g id="Group" transform="translate(8.000000, 0.000000)">
						<rect id="Rectangle-Copy-12" y="0" class="st4" width="24" height="42"/>
						<rect id="Rectangle-Copy-13" x="56" y="0" class="st4" width="24" height="42"/>
						<rect id="Rectangle-Copy-14" x="28" y="21" class="st4" width="24" height="21"/>
					</g>
				</g>
				<g id="Group-3" transform="translate(170.000000, 162.000000)">
					<line id="Line-Copy-6" class="st3" x1="0" y1="41.5" x2="48" y2="41.5"/>
					<rect id="Rectangle-Copy-16" x="13" y="0" class="st4" width="24" height="42"/>
				</g>
				<g id="Group-4" transform="translate(255.000000, 86.000000)">
					<line id="Line-Copy-7" class="st3" x1="0" y1="117.5" x2="48" y2="117.5"/>
					<rect id="Rectangle-Copy-17" x="12" y="0" class="st5" width="24" height="118"/>
				</g>
				<g class="st1">
					<path class="st2" d="M51.3,232v-9.2h2.3c1.4,0,2.5,0.4,3.2,1.2s1.1,1.9,1.1,3.4c0,0.7-0.1,1.4-0.3,2c-0.2,0.6-0.5,1.1-0.8,1.5
						c-0.4,0.4-0.8,0.7-1.3,0.9c-0.5,0.2-1.1,0.3-1.8,0.3H51.3z M52.4,231h1.1c1.1,0,1.9-0.3,2.4-1c0.5-0.6,0.8-1.5,0.8-2.7
						s-0.3-2.1-0.8-2.7c-0.5-0.6-1.3-0.9-2.4-0.9h-1.1V231z"/>
					<path class="st2" d="M62.5,232.2c-0.5,0-0.9-0.1-1.3-0.2c-0.4-0.2-0.7-0.4-1-0.7c-0.3-0.3-0.5-0.7-0.7-1.1s-0.3-0.9-0.3-1.5
						c0-0.6,0.1-1.1,0.3-1.5s0.4-0.8,0.7-1.1c0.3-0.3,0.6-0.5,1-0.7c0.4-0.2,0.7-0.2,1.1-0.2c0.4,0,0.8,0.1,1.2,0.2
						c0.3,0.1,0.6,0.4,0.9,0.6c0.2,0.3,0.4,0.6,0.5,1c0.1,0.4,0.2,0.8,0.2,1.3c0,0.1,0,0.2,0,0.4c0,0.1,0,0.2,0,0.3h-4.6
						c0,0.7,0.3,1.3,0.7,1.7c0.4,0.4,0.9,0.6,1.6,0.6c0.3,0,0.6,0,0.9-0.1c0.3-0.1,0.5-0.2,0.8-0.4l0.4,0.8c-0.3,0.2-0.6,0.4-1,0.5
						C63.4,232.1,63,232.2,62.5,232.2z M60.4,228.1H64c0-0.7-0.1-1.2-0.4-1.6c-0.3-0.4-0.7-0.5-1.2-0.5c-0.2,0-0.5,0-0.7,0.1
						s-0.4,0.2-0.6,0.4c-0.2,0.2-0.3,0.4-0.4,0.7C60.5,227.4,60.4,227.7,60.4,228.1z"/>
					<path class="st2" d="M66.9,232v-5.9H66v-0.9l0.9-0.1v-1.1c0-0.7,0.2-1.3,0.5-1.7c0.3-0.4,0.8-0.6,1.5-0.6c0.2,0,0.4,0,0.6,0.1
						s0.4,0.1,0.5,0.2l-0.3,0.9c-0.3-0.1-0.5-0.2-0.8-0.2c-0.6,0-1,0.4-1,1.3v1.1h1.4v0.9H68v5.9H66.9z"/>
					<path class="st2" d="M71.4,223.8c-0.2,0-0.4-0.1-0.6-0.2c-0.2-0.1-0.2-0.3-0.2-0.5c0-0.2,0.1-0.4,0.2-0.5
						c0.2-0.1,0.3-0.2,0.6-0.2c0.2,0,0.4,0.1,0.6,0.2c0.2,0.1,0.2,0.3,0.2,0.5c0,0.2-0.1,0.4-0.2,0.5
						C71.8,223.7,71.6,223.8,71.4,223.8z M70.8,232v-6.8h1.1v6.8H70.8z"/>
					<path class="st2" d="M76.9,232.2c-0.4,0-0.9-0.1-1.3-0.2c-0.4-0.2-0.7-0.4-1-0.7c-0.3-0.3-0.5-0.7-0.7-1.1
						c-0.2-0.4-0.2-0.9-0.2-1.5c0-0.6,0.1-1.1,0.3-1.5c0.2-0.4,0.4-0.8,0.7-1.1c0.3-0.3,0.6-0.5,1-0.7c0.4-0.2,0.8-0.2,1.3-0.2
						c0.4,0,0.8,0.1,1.1,0.2c0.3,0.2,0.6,0.3,0.8,0.6l-0.6,0.8c-0.2-0.2-0.4-0.3-0.6-0.4c-0.2-0.1-0.5-0.2-0.7-0.2
						c-0.3,0-0.6,0.1-0.9,0.2s-0.5,0.3-0.7,0.5c-0.2,0.2-0.3,0.5-0.4,0.8c-0.1,0.3-0.2,0.7-0.2,1.1c0,0.4,0.1,0.7,0.2,1.1
						c0.1,0.3,0.2,0.6,0.4,0.8s0.4,0.4,0.7,0.5c0.3,0.1,0.5,0.2,0.9,0.2c0.3,0,0.6-0.1,0.9-0.2c0.3-0.1,0.5-0.3,0.7-0.5l0.5,0.8
						c-0.3,0.3-0.6,0.5-1,0.6C77.7,232.1,77.3,232.2,76.9,232.2z"/>
					<path class="st2" d="M81.2,223.8c-0.2,0-0.4-0.1-0.6-0.2c-0.2-0.1-0.2-0.3-0.2-0.5c0-0.2,0.1-0.4,0.2-0.5
						c0.2-0.1,0.3-0.2,0.6-0.2c0.2,0,0.4,0.1,0.6,0.2c0.2,0.1,0.2,0.3,0.2,0.5c0,0.2-0.1,0.4-0.2,0.5
						C81.6,223.7,81.4,223.8,81.2,223.8z M80.6,232v-6.8h1.1v6.8H80.6z"/>
					<path class="st2" d="M86.2,232.2c-0.4,0-0.7-0.1-0.9-0.2c-0.2-0.1-0.4-0.3-0.6-0.5s-0.3-0.4-0.3-0.7c-0.1-0.3-0.1-0.6-0.1-0.9
						v-3.8h-1v-0.9l1.1-0.1l0.1-1.9h1v1.9h1.8v0.9h-1.8v3.8c0,0.4,0.1,0.7,0.2,1c0.2,0.2,0.4,0.3,0.8,0.3c0.1,0,0.3,0,0.4-0.1
						c0.1,0,0.3-0.1,0.4-0.1l0.2,0.9c-0.2,0.1-0.4,0.1-0.6,0.2C86.6,232.1,86.4,232.2,86.2,232.2z"/>
					<path class="st2" d="M91.8,232v-5.9h-0.9v-0.9l0.9-0.1v-1.1c0-0.7,0.2-1.3,0.5-1.7c0.3-0.4,0.8-0.6,1.5-0.6
						c0.2,0,0.4,0,0.6,0.1s0.4,0.1,0.5,0.2l-0.3,0.9c-0.3-0.1-0.5-0.2-0.8-0.2c-0.6,0-1,0.4-1,1.3v1.1h1.4v0.9h-1.4v5.9H91.8z"/>
					<path class="st2" d="M95.7,232v-6.8h1l0.1,1.2h0c0.2-0.4,0.5-0.8,0.8-1c0.3-0.3,0.7-0.4,1.1-0.4c0.3,0,0.5,0,0.7,0.1l-0.2,1
						c-0.1,0-0.2-0.1-0.3-0.1c-0.1,0-0.2,0-0.4,0c-0.3,0-0.6,0.1-0.9,0.3c-0.3,0.2-0.6,0.6-0.8,1.2v4.4H95.7z"/>
					<path class="st2" d="M103,232.2c-0.4,0-0.8-0.1-1.2-0.2c-0.4-0.2-0.7-0.4-1-0.7c-0.3-0.3-0.5-0.7-0.7-1.1s-0.3-0.9-0.3-1.5
						c0-0.6,0.1-1.1,0.3-1.5s0.4-0.8,0.7-1.1c0.3-0.3,0.6-0.5,1-0.7c0.4-0.2,0.8-0.2,1.2-0.2s0.8,0.1,1.2,0.2c0.4,0.2,0.7,0.4,1,0.7
						c0.3,0.3,0.5,0.7,0.7,1.1c0.2,0.4,0.3,1,0.3,1.5c0,0.6-0.1,1.1-0.3,1.5c-0.2,0.4-0.4,0.8-0.7,1.1c-0.3,0.3-0.6,0.5-1,0.7
						C103.9,232.1,103.5,232.2,103,232.2z M103,231.2c0.3,0,0.6-0.1,0.8-0.2s0.5-0.3,0.6-0.5s0.3-0.5,0.4-0.8s0.1-0.7,0.1-1.1
						c0-0.4,0-0.7-0.1-1.1s-0.2-0.6-0.4-0.8s-0.4-0.4-0.6-0.5s-0.5-0.2-0.8-0.2c-0.3,0-0.6,0.1-0.8,0.2s-0.5,0.3-0.6,0.5
						c-0.2,0.2-0.3,0.5-0.4,0.8c-0.1,0.3-0.1,0.7-0.1,1.1c0,0.4,0,0.7,0.1,1.1c0.1,0.3,0.2,0.6,0.4,0.8c0.2,0.2,0.4,0.4,0.6,0.5
						S102.8,231.2,103,231.2z"/>
					<path class="st2" d="M108,232v-6.8h1l0.1,1h0c0.3-0.3,0.6-0.6,1-0.8c0.4-0.2,0.7-0.3,1.1-0.3c0.5,0,0.9,0.1,1.2,0.3
						s0.5,0.5,0.7,1c0.4-0.4,0.7-0.7,1.1-0.9c0.4-0.2,0.7-0.4,1.2-0.4c0.7,0,1.2,0.2,1.6,0.7c0.3,0.4,0.5,1.1,0.5,2v4.3h-1.1v-4.2
						c0-0.6-0.1-1.1-0.3-1.4c-0.2-0.3-0.5-0.4-1-0.4c-0.5,0-1.1,0.3-1.7,1v4.9h-1.1v-4.2c0-0.6-0.1-1.1-0.3-1.4
						c-0.2-0.3-0.5-0.4-1-0.4c-0.5,0-1.1,0.3-1.7,1v4.9H108z"/>
				</g>
				<g class="st1">
					<path class="st2" d="M60.1,250.9v-9.7h1l0.1,0.8h0c0.3-0.3,0.6-0.5,1-0.7c0.4-0.2,0.8-0.3,1.2-0.3c0.4,0,0.8,0.1,1.2,0.2
						c0.3,0.2,0.6,0.4,0.8,0.7c0.2,0.3,0.4,0.7,0.5,1.1s0.2,0.9,0.2,1.4c0,0.6-0.1,1.1-0.2,1.5c-0.2,0.5-0.4,0.8-0.6,1.2
						c-0.3,0.3-0.6,0.6-0.9,0.7c-0.4,0.2-0.7,0.2-1.1,0.2c-0.3,0-0.6-0.1-0.9-0.2s-0.6-0.3-0.9-0.6l0,1.2v2.3H60.1z M62.9,247.2
						c0.3,0,0.5-0.1,0.8-0.2c0.2-0.1,0.4-0.3,0.6-0.5c0.2-0.2,0.3-0.5,0.4-0.8c0.1-0.3,0.1-0.7,0.1-1.1c0-0.4,0-0.7-0.1-1
						c-0.1-0.3-0.2-0.6-0.3-0.8c-0.1-0.2-0.3-0.4-0.6-0.5c-0.2-0.1-0.5-0.2-0.8-0.2c-0.3,0-0.6,0.1-0.9,0.2
						c-0.3,0.2-0.6,0.4-0.9,0.7v3.6c0.3,0.3,0.6,0.4,0.9,0.6S62.7,247.2,62.9,247.2z"/>
					<path class="st2" d="M67.9,248v-6.8h1l0.1,1.2h0c0.2-0.4,0.5-0.8,0.8-1c0.3-0.3,0.7-0.4,1.1-0.4c0.3,0,0.5,0,0.7,0.1l-0.2,1
						c-0.1,0-0.2-0.1-0.3-0.1c-0.1,0-0.2,0-0.4,0c-0.3,0-0.6,0.1-0.9,0.3c-0.3,0.2-0.6,0.6-0.8,1.2v4.4H67.9z"/>
					<path class="st2" d="M75.3,248.2c-0.5,0-0.9-0.1-1.3-0.2c-0.4-0.2-0.7-0.4-1-0.7c-0.3-0.3-0.5-0.7-0.7-1.1s-0.3-0.9-0.3-1.5
						c0-0.6,0.1-1.1,0.3-1.5s0.4-0.8,0.7-1.1c0.3-0.3,0.6-0.5,1-0.7c0.4-0.2,0.7-0.2,1.1-0.2c0.4,0,0.8,0.1,1.2,0.2
						c0.3,0.1,0.6,0.4,0.9,0.6c0.2,0.3,0.4,0.6,0.5,1c0.1,0.4,0.2,0.8,0.2,1.3c0,0.1,0,0.2,0,0.4c0,0.1,0,0.2,0,0.3h-4.6
						c0,0.7,0.3,1.3,0.7,1.7c0.4,0.4,0.9,0.6,1.6,0.6c0.3,0,0.6,0,0.9-0.1c0.3-0.1,0.5-0.2,0.8-0.4l0.4,0.8c-0.3,0.2-0.6,0.4-1,0.5
						C76.2,248.1,75.8,248.2,75.3,248.2z M73.2,244.1h3.6c0-0.7-0.1-1.2-0.4-1.6c-0.3-0.4-0.7-0.5-1.2-0.5c-0.2,0-0.5,0-0.7,0.1
						s-0.4,0.2-0.6,0.4c-0.2,0.2-0.3,0.4-0.4,0.7C73.3,243.4,73.2,243.7,73.2,244.1z"/>
					<path class="st2" d="M81.1,248l-2.5-6.8h1.2l1.3,3.9c0.1,0.3,0.2,0.7,0.3,1s0.2,0.7,0.3,1h0.1c0.1-0.3,0.2-0.7,0.3-1
						c0.1-0.3,0.2-0.7,0.3-1l1.3-3.9h1.1l-2.4,6.8H81.1z"/>
					<path class="st2" d="M86.7,239.8c-0.2,0-0.4-0.1-0.6-0.2c-0.2-0.1-0.2-0.3-0.2-0.5c0-0.2,0.1-0.4,0.2-0.5
						c0.2-0.1,0.3-0.2,0.6-0.2c0.2,0,0.4,0.1,0.6,0.2c0.2,0.1,0.2,0.3,0.2,0.5c0,0.2-0.1,0.4-0.2,0.5
						C87.1,239.7,86.9,239.8,86.7,239.8z M86.1,248v-6.8h1.1v6.8H86.1z"/>
					<path class="st2" d="M92.2,248.2c-0.4,0-0.8-0.1-1.2-0.2c-0.4-0.2-0.7-0.4-1-0.7c-0.3-0.3-0.5-0.7-0.7-1.1s-0.3-0.9-0.3-1.5
						c0-0.6,0.1-1.1,0.3-1.5s0.4-0.8,0.7-1.1c0.3-0.3,0.6-0.5,1-0.7c0.4-0.2,0.8-0.2,1.2-0.2s0.8,0.1,1.2,0.2c0.4,0.2,0.7,0.4,1,0.7
						c0.3,0.3,0.5,0.7,0.7,1.1c0.2,0.4,0.3,1,0.3,1.5c0,0.6-0.1,1.1-0.3,1.5c-0.2,0.4-0.4,0.8-0.7,1.1c-0.3,0.3-0.6,0.5-1,0.7
						C93,248.1,92.6,248.2,92.2,248.2z M92.2,247.2c0.3,0,0.6-0.1,0.8-0.2s0.5-0.3,0.6-0.5s0.3-0.5,0.4-0.8s0.1-0.7,0.1-1.1
						c0-0.4,0-0.7-0.1-1.1s-0.2-0.6-0.4-0.8s-0.4-0.4-0.6-0.5s-0.5-0.2-0.8-0.2c-0.3,0-0.6,0.1-0.8,0.2s-0.5,0.3-0.6,0.5
						c-0.2,0.2-0.3,0.5-0.4,0.8c-0.1,0.3-0.1,0.7-0.1,1.1c0,0.4,0,0.7,0.1,1.1c0.1,0.3,0.2,0.6,0.4,0.8c0.2,0.2,0.4,0.4,0.6,0.5
						S91.9,247.2,92.2,247.2z"/>
					<path class="st2" d="M99.2,248.2c-0.7,0-1.3-0.2-1.6-0.7c-0.3-0.4-0.5-1.1-0.5-2v-4.3h1.2v4.2c0,0.6,0.1,1.1,0.3,1.4
						c0.2,0.3,0.5,0.4,1,0.4c0.4,0,0.7-0.1,0.9-0.3c0.3-0.2,0.6-0.5,0.9-0.9v-4.8h1.1v6.8h-1l-0.1-1.1h0c-0.3,0.4-0.7,0.7-1,0.9
						S99.6,248.2,99.2,248.2z"/>
					<path class="st2" d="M106.6,248.2c-0.5,0-0.9-0.1-1.4-0.3c-0.4-0.2-0.8-0.4-1.1-0.7l0.6-0.8c0.3,0.2,0.6,0.4,0.9,0.6
						c0.3,0.1,0.7,0.2,1.1,0.2c0.4,0,0.8-0.1,1-0.3s0.3-0.5,0.3-0.8c0-0.2,0-0.3-0.1-0.5s-0.2-0.2-0.4-0.3c-0.1-0.1-0.3-0.2-0.5-0.3
						c-0.2-0.1-0.4-0.1-0.6-0.2c-0.2-0.1-0.5-0.2-0.7-0.3s-0.5-0.2-0.7-0.4c-0.2-0.2-0.3-0.3-0.5-0.5c-0.1-0.2-0.2-0.5-0.2-0.7
						c0-0.3,0.1-0.5,0.2-0.8c0.1-0.2,0.3-0.4,0.5-0.6s0.4-0.3,0.7-0.4c0.3-0.1,0.6-0.1,1-0.1c0.4,0,0.8,0.1,1.2,0.2s0.7,0.3,0.9,0.5
						l-0.5,0.7c-0.2-0.2-0.5-0.3-0.7-0.4c-0.3-0.1-0.5-0.2-0.8-0.2c-0.4,0-0.7,0.1-0.9,0.3c-0.2,0.2-0.3,0.4-0.3,0.7
						c0,0.2,0,0.3,0.1,0.4c0.1,0.1,0.2,0.2,0.3,0.3s0.3,0.2,0.5,0.2c0.2,0.1,0.4,0.1,0.6,0.2c0.2,0.1,0.5,0.2,0.7,0.3
						c0.2,0.1,0.5,0.2,0.7,0.4c0.2,0.2,0.4,0.3,0.5,0.6c0.1,0.2,0.2,0.5,0.2,0.8c0,0.3-0.1,0.5-0.2,0.8c-0.1,0.2-0.3,0.5-0.5,0.6
						c-0.2,0.2-0.5,0.3-0.8,0.4C107.3,248.1,107,248.2,106.6,248.2z"/>
				</g>
				<g class="st1">
					<path class="st2" d="M70,266.9c-0.2,0-0.3,0-0.4,0c-0.1,0-0.3-0.1-0.4-0.1l0.2-0.9c0.1,0,0.2,0,0.3,0.1c0.1,0,0.2,0,0.3,0
						c0.4,0,0.7-0.1,1-0.4c0.2-0.3,0.4-0.6,0.6-1l0.2-0.5l-2.7-6.8h1.2l1.4,3.8c0.1,0.3,0.2,0.6,0.3,0.9c0.1,0.3,0.2,0.7,0.3,1h0.1
						c0.1-0.3,0.2-0.6,0.3-1s0.2-0.7,0.3-1l1.2-3.8h1.1l-2.6,7.4c-0.1,0.3-0.3,0.6-0.4,0.9s-0.3,0.5-0.5,0.7
						c-0.2,0.2-0.4,0.4-0.7,0.5S70.4,266.9,70,266.9z"/>
					<path class="st2" d="M79.1,264.2c-0.5,0-0.9-0.1-1.3-0.2c-0.4-0.2-0.7-0.4-1-0.7c-0.3-0.3-0.5-0.7-0.7-1.1s-0.3-0.9-0.3-1.5
						c0-0.6,0.1-1.1,0.3-1.5s0.4-0.8,0.7-1.1c0.3-0.3,0.6-0.5,1-0.7c0.4-0.2,0.7-0.2,1.1-0.2c0.4,0,0.8,0.1,1.2,0.2
						c0.3,0.1,0.6,0.4,0.9,0.6c0.2,0.3,0.4,0.6,0.5,1c0.1,0.4,0.2,0.8,0.2,1.3c0,0.1,0,0.2,0,0.4c0,0.1,0,0.2,0,0.3H77
						c0,0.7,0.3,1.3,0.7,1.7c0.4,0.4,0.9,0.6,1.6,0.6c0.3,0,0.6,0,0.9-0.1c0.3-0.1,0.5-0.2,0.8-0.4l0.4,0.8c-0.3,0.2-0.6,0.4-1,0.5
						C80,264.1,79.6,264.2,79.1,264.2z M77,260.1h3.6c0-0.7-0.1-1.2-0.4-1.6c-0.3-0.4-0.7-0.5-1.2-0.5c-0.2,0-0.5,0-0.7,0.1
						s-0.4,0.2-0.6,0.4c-0.2,0.2-0.3,0.4-0.4,0.7C77.1,259.4,77,259.7,77,260.1z"/>
					<path class="st2" d="M84.7,264.2c-0.6,0-1-0.2-1.4-0.5s-0.6-0.8-0.6-1.4c0-0.7,0.3-1.3,1-1.7c0.7-0.4,1.7-0.7,3.2-0.8
						c0-0.2,0-0.4-0.1-0.6c0-0.2-0.1-0.4-0.2-0.5c-0.1-0.2-0.2-0.3-0.4-0.4c-0.2-0.1-0.4-0.1-0.7-0.1c-0.4,0-0.8,0.1-1.1,0.2
						s-0.7,0.3-0.9,0.5l-0.4-0.8c0.3-0.2,0.7-0.4,1.2-0.6c0.5-0.2,1-0.3,1.5-0.3c0.8,0,1.4,0.3,1.8,0.8c0.4,0.5,0.6,1.2,0.6,2v4.2
						h-1l-0.1-0.8h0c-0.3,0.3-0.7,0.5-1.1,0.7C85.5,264.1,85.1,264.2,84.7,264.2z M85,263.2c0.3,0,0.6-0.1,0.9-0.2
						c0.3-0.2,0.6-0.4,0.9-0.7v-1.9c-0.6,0.1-1,0.2-1.4,0.3s-0.7,0.2-0.9,0.4c-0.2,0.1-0.4,0.3-0.5,0.5c-0.1,0.2-0.2,0.4-0.2,0.6
						c0,0.4,0.1,0.7,0.4,0.8C84.4,263.2,84.7,263.2,85,263.2z"/>
					<path class="st2" d="M90.2,264v-6.8h1l0.1,1.2h0c0.2-0.4,0.5-0.8,0.8-1c0.3-0.3,0.7-0.4,1.1-0.4c0.3,0,0.5,0,0.7,0.1l-0.2,1
						c-0.1,0-0.2-0.1-0.3-0.1c-0.1,0-0.2,0-0.4,0c-0.3,0-0.6,0.1-0.9,0.3c-0.3,0.2-0.6,0.6-0.8,1.2v4.4H90.2z"/>
					<path class="st2" d="M96.8,264.2c-0.5,0-0.9-0.1-1.4-0.3c-0.4-0.2-0.8-0.4-1.1-0.7l0.6-0.8c0.3,0.2,0.6,0.4,0.9,0.6
						c0.3,0.1,0.7,0.2,1.1,0.2c0.4,0,0.8-0.1,1-0.3s0.3-0.5,0.3-0.8c0-0.2,0-0.3-0.1-0.5s-0.2-0.2-0.4-0.3c-0.1-0.1-0.3-0.2-0.5-0.3
						c-0.2-0.1-0.4-0.1-0.6-0.2c-0.2-0.1-0.5-0.2-0.7-0.3s-0.5-0.2-0.7-0.4c-0.2-0.2-0.3-0.3-0.5-0.5c-0.1-0.2-0.2-0.5-0.2-0.7
						c0-0.3,0.1-0.5,0.2-0.8c0.1-0.2,0.3-0.4,0.5-0.6s0.4-0.3,0.7-0.4c0.3-0.1,0.6-0.1,1-0.1c0.4,0,0.8,0.1,1.2,0.2s0.7,0.3,0.9,0.5
						l-0.5,0.7c-0.2-0.2-0.5-0.3-0.7-0.4c-0.3-0.1-0.5-0.2-0.8-0.2c-0.4,0-0.7,0.1-0.9,0.3c-0.2,0.2-0.3,0.4-0.3,0.7
						c0,0.2,0,0.3,0.1,0.4c0.1,0.1,0.2,0.2,0.3,0.3s0.3,0.2,0.5,0.2c0.2,0.1,0.4,0.1,0.6,0.2c0.2,0.1,0.5,0.2,0.7,0.3
						c0.2,0.1,0.5,0.2,0.7,0.4c0.2,0.2,0.4,0.3,0.5,0.6c0.1,0.2,0.2,0.5,0.2,0.8c0,0.3-0.1,0.5-0.2,0.8c-0.1,0.2-0.3,0.5-0.5,0.6
						c-0.2,0.2-0.5,0.3-0.8,0.4C97.5,264.1,97.2,264.2,96.8,264.2z"/>
				</g>
				<g class="st1">
					<path class="st2" d="M19.9,306.1l-0.6-0.4l0.8-1.3l-1.4-0.6l0.2-0.6l1.4,0.3l0.1-1.5h0.7l0.1,1.5l1.4-0.3l0.2,0.6l-1.4,0.6
						l0.8,1.3l-0.5,0.4l-1-1.2L19.9,306.1z"/>
					<path class="st2" d="M25.1,312v-9.2h2.6c0.5,0,1,0,1.4,0.1c0.4,0.1,0.8,0.2,1.1,0.5c0.3,0.2,0.5,0.5,0.7,0.8s0.3,0.8,0.3,1.3
						c0,0.5-0.1,0.9-0.2,1.3c-0.2,0.4-0.4,0.6-0.7,0.9s-0.7,0.4-1.1,0.5c-0.4,0.1-0.9,0.2-1.4,0.2h-1.5v3.6H25.1z M26.3,307.4h1.4
						c0.8,0,1.4-0.2,1.8-0.5c0.4-0.3,0.6-0.8,0.6-1.4c0-0.7-0.2-1.1-0.6-1.4c-0.4-0.3-1-0.4-1.8-0.4h-1.3V307.4z"/>
					<path class="st2" d="M34.1,312.2c-0.4,0-0.8-0.1-0.9-0.4c-0.2-0.3-0.3-0.6-0.3-1.1V302h1.1v8.7c0,0.2,0,0.3,0.1,0.4
						c0.1,0.1,0.1,0.1,0.2,0.1c0,0,0.1,0,0.1,0c0,0,0.1,0,0.1,0l0.2,0.9c-0.1,0-0.2,0.1-0.3,0.1S34.3,312.2,34.1,312.2z"/>
					<path class="st2" d="M39.3,312.2c-0.5,0-0.9-0.1-1.3-0.2c-0.4-0.2-0.7-0.4-1-0.7c-0.3-0.3-0.5-0.7-0.7-1.1s-0.3-0.9-0.3-1.5
						c0-0.6,0.1-1.1,0.3-1.5s0.4-0.8,0.7-1.1c0.3-0.3,0.6-0.5,1-0.7c0.4-0.2,0.7-0.2,1.1-0.2c0.4,0,0.8,0.1,1.2,0.2
						c0.3,0.1,0.6,0.4,0.9,0.6c0.2,0.3,0.4,0.6,0.5,1c0.1,0.4,0.2,0.8,0.2,1.3c0,0.1,0,0.2,0,0.4c0,0.1,0,0.2,0,0.3h-4.6
						c0,0.7,0.3,1.3,0.7,1.7c0.4,0.4,0.9,0.6,1.6,0.6c0.3,0,0.6,0,0.9-0.1c0.3-0.1,0.5-0.2,0.8-0.4l0.4,0.8c-0.3,0.2-0.6,0.4-1,0.5
						C40.1,312.1,39.7,312.2,39.3,312.2z M37.1,308.1h3.6c0-0.7-0.1-1.2-0.4-1.6c-0.3-0.4-0.7-0.5-1.2-0.5c-0.2,0-0.5,0-0.7,0.1
						s-0.4,0.2-0.6,0.4c-0.2,0.2-0.3,0.4-0.4,0.7C37.2,307.4,37.1,307.7,37.1,308.1z"/>
					<path class="st2" d="M44.8,312.2c-0.6,0-1-0.2-1.4-0.5s-0.6-0.8-0.6-1.4c0-0.7,0.3-1.3,1-1.7c0.7-0.4,1.7-0.7,3.2-0.8
						c0-0.2,0-0.4-0.1-0.6c0-0.2-0.1-0.4-0.2-0.5c-0.1-0.2-0.2-0.3-0.4-0.4c-0.2-0.1-0.4-0.1-0.7-0.1c-0.4,0-0.8,0.1-1.1,0.2
						s-0.7,0.3-0.9,0.5l-0.4-0.8c0.3-0.2,0.7-0.4,1.2-0.6c0.5-0.2,1-0.3,1.5-0.3c0.8,0,1.4,0.3,1.8,0.8c0.4,0.5,0.6,1.2,0.6,2v4.2
						h-1l-0.1-0.8h0c-0.3,0.3-0.7,0.5-1.1,0.7C45.6,312.1,45.2,312.2,44.8,312.2z M45.1,311.2c0.3,0,0.6-0.1,0.9-0.2
						c0.3-0.2,0.6-0.4,0.9-0.7v-1.9c-0.6,0.1-1,0.2-1.4,0.3s-0.7,0.2-0.9,0.4c-0.2,0.1-0.4,0.3-0.5,0.5c-0.1,0.2-0.2,0.4-0.2,0.6
						c0,0.4,0.1,0.7,0.4,0.8C44.5,311.2,44.8,311.2,45.1,311.2z"/>
					<path class="st2" d="M52.1,312.2c-0.5,0-0.9-0.1-1.4-0.3c-0.4-0.2-0.8-0.4-1.1-0.7l0.6-0.8c0.3,0.2,0.6,0.4,0.9,0.6
						c0.3,0.1,0.7,0.2,1.1,0.2c0.4,0,0.8-0.1,1-0.3s0.3-0.5,0.3-0.8c0-0.2,0-0.3-0.1-0.5s-0.2-0.2-0.4-0.3c-0.1-0.1-0.3-0.2-0.5-0.3
						c-0.2-0.1-0.4-0.1-0.6-0.2c-0.2-0.1-0.5-0.2-0.7-0.3s-0.5-0.2-0.7-0.4c-0.2-0.2-0.3-0.3-0.5-0.5c-0.1-0.2-0.2-0.5-0.2-0.7
						c0-0.3,0.1-0.5,0.2-0.8c0.1-0.2,0.3-0.4,0.5-0.6s0.4-0.3,0.7-0.4c0.3-0.1,0.6-0.1,1-0.1c0.4,0,0.8,0.1,1.2,0.2s0.7,0.3,0.9,0.5
						l-0.5,0.7c-0.2-0.2-0.5-0.3-0.7-0.4c-0.3-0.1-0.5-0.2-0.8-0.2c-0.4,0-0.7,0.1-0.9,0.3c-0.2,0.2-0.3,0.4-0.3,0.7
						c0,0.2,0,0.3,0.1,0.4c0.1,0.1,0.2,0.2,0.3,0.3s0.3,0.2,0.5,0.2c0.2,0.1,0.4,0.1,0.6,0.2c0.2,0.1,0.5,0.2,0.7,0.3
						c0.2,0.1,0.5,0.2,0.7,0.4c0.2,0.2,0.4,0.3,0.5,0.6c0.1,0.2,0.2,0.5,0.2,0.8c0,0.3-0.1,0.5-0.2,0.8c-0.1,0.2-0.3,0.5-0.5,0.6
						c-0.2,0.2-0.5,0.3-0.8,0.4C52.8,312.1,52.5,312.2,52.1,312.2z"/>
					<path class="st2" d="M58.9,312.2c-0.5,0-0.9-0.1-1.3-0.2c-0.4-0.2-0.7-0.4-1-0.7c-0.3-0.3-0.5-0.7-0.7-1.1s-0.3-0.9-0.3-1.5
						c0-0.6,0.1-1.1,0.3-1.5s0.4-0.8,0.7-1.1c0.3-0.3,0.6-0.5,1-0.7c0.4-0.2,0.7-0.2,1.1-0.2c0.4,0,0.8,0.1,1.2,0.2
						c0.3,0.1,0.6,0.4,0.9,0.6c0.2,0.3,0.4,0.6,0.5,1c0.1,0.4,0.2,0.8,0.2,1.3c0,0.1,0,0.2,0,0.4c0,0.1,0,0.2,0,0.3h-4.6
						c0,0.7,0.3,1.3,0.7,1.7c0.4,0.4,0.9,0.6,1.6,0.6c0.3,0,0.6,0,0.9-0.1c0.3-0.1,0.5-0.2,0.8-0.4l0.4,0.8c-0.3,0.2-0.6,0.4-1,0.5
						C59.8,312.1,59.4,312.2,58.9,312.2z M56.8,308.1h3.6c0-0.7-0.1-1.2-0.4-1.6c-0.3-0.4-0.7-0.5-1.2-0.5c-0.2,0-0.5,0-0.7,0.1
						s-0.4,0.2-0.6,0.4c-0.2,0.2-0.3,0.4-0.4,0.7C56.9,307.4,56.8,307.7,56.8,308.1z"/>
					<path class="st2" d="M65.9,312v-6.8h1l0.1,1h0c0.3-0.3,0.7-0.6,1-0.8c0.4-0.2,0.8-0.3,1.3-0.3c0.7,0,1.2,0.2,1.6,0.7
						c0.3,0.4,0.5,1.1,0.5,2v4.3h-1.1v-4.2c0-0.6-0.1-1.1-0.3-1.4c-0.2-0.3-0.5-0.4-1-0.4c-0.4,0-0.7,0.1-0.9,0.3
						c-0.3,0.2-0.6,0.4-0.9,0.8v4.9H65.9z"/>
					<path class="st2" d="M76.2,312.2c-0.4,0-0.8-0.1-1.2-0.2c-0.4-0.2-0.7-0.4-1-0.7c-0.3-0.3-0.5-0.7-0.7-1.1s-0.3-0.9-0.3-1.5
						c0-0.6,0.1-1.1,0.3-1.5s0.4-0.8,0.7-1.1c0.3-0.3,0.6-0.5,1-0.7c0.4-0.2,0.8-0.2,1.2-0.2s0.8,0.1,1.2,0.2c0.4,0.2,0.7,0.4,1,0.7
						c0.3,0.3,0.5,0.7,0.7,1.1c0.2,0.4,0.3,1,0.3,1.5c0,0.6-0.1,1.1-0.3,1.5c-0.2,0.4-0.4,0.8-0.7,1.1c-0.3,0.3-0.6,0.5-1,0.7
						C77,312.1,76.6,312.2,76.2,312.2z M76.2,311.2c0.3,0,0.6-0.1,0.8-0.2s0.5-0.3,0.6-0.5s0.3-0.5,0.4-0.8s0.1-0.7,0.1-1.1
						c0-0.4,0-0.7-0.1-1.1s-0.2-0.6-0.4-0.8s-0.4-0.4-0.6-0.5s-0.5-0.2-0.8-0.2c-0.3,0-0.6,0.1-0.8,0.2s-0.5,0.3-0.6,0.5
						c-0.2,0.2-0.3,0.5-0.4,0.8c-0.1,0.3-0.1,0.7-0.1,1.1c0,0.4,0,0.7,0.1,1.1c0.1,0.3,0.2,0.6,0.4,0.8c0.2,0.2,0.4,0.4,0.6,0.5
						S75.9,311.2,76.2,311.2z"/>
					<path class="st2" d="M83.1,312.2c-0.4,0-0.7-0.1-0.9-0.2c-0.2-0.1-0.4-0.3-0.6-0.5s-0.3-0.4-0.3-0.7c-0.1-0.3-0.1-0.6-0.1-0.9
						v-3.8h-1v-0.9l1.1-0.1l0.1-1.9h1v1.9h1.8v0.9h-1.8v3.8c0,0.4,0.1,0.7,0.2,1c0.2,0.2,0.4,0.3,0.8,0.3c0.1,0,0.3,0,0.4-0.1
						c0.1,0,0.3-0.1,0.4-0.1l0.2,0.9c-0.2,0.1-0.4,0.1-0.6,0.2C83.5,312.1,83.3,312.2,83.1,312.2z"/>
					<path class="st2" d="M88.2,312.2c-0.5,0-0.9-0.1-1.3-0.2c-0.4-0.2-0.7-0.4-1-0.7c-0.3-0.3-0.5-0.7-0.7-1.1s-0.3-0.9-0.3-1.5
						c0-0.6,0.1-1.1,0.3-1.5s0.4-0.8,0.7-1.1c0.3-0.3,0.6-0.5,1-0.7c0.4-0.2,0.7-0.2,1.1-0.2c0.4,0,0.8,0.1,1.2,0.2
						c0.3,0.1,0.6,0.4,0.9,0.6c0.2,0.3,0.4,0.6,0.5,1c0.1,0.4,0.2,0.8,0.2,1.3c0,0.1,0,0.2,0,0.4c0,0.1,0,0.2,0,0.3h-4.6
						c0,0.7,0.3,1.3,0.7,1.7c0.4,0.4,0.9,0.6,1.6,0.6c0.3,0,0.6,0,0.9-0.1c0.3-0.1,0.5-0.2,0.8-0.4l0.4,0.8c-0.3,0.2-0.6,0.4-1,0.5
						C89.1,312.1,88.7,312.2,88.2,312.2z M86.1,308.1h3.6c0-0.7-0.1-1.2-0.4-1.6c-0.3-0.4-0.7-0.5-1.2-0.5c-0.2,0-0.5,0-0.7,0.1
						s-0.4,0.2-0.6,0.4c-0.2,0.2-0.3,0.4-0.4,0.7C86.2,307.4,86.1,307.7,86.1,308.1z"/>
					<path class="st2" d="M97.3,312.2c-0.4,0-0.7-0.1-0.9-0.2c-0.2-0.1-0.4-0.3-0.6-0.5s-0.3-0.4-0.3-0.7c-0.1-0.3-0.1-0.6-0.1-0.9
						v-3.8h-1v-0.9l1.1-0.1l0.1-1.9h1v1.9h1.8v0.9h-1.8v3.8c0,0.4,0.1,0.7,0.2,1c0.2,0.2,0.4,0.3,0.8,0.3c0.1,0,0.3,0,0.4-0.1
						c0.1,0,0.3-0.1,0.4-0.1l0.2,0.9c-0.2,0.1-0.4,0.1-0.6,0.2C97.8,312.1,97.6,312.2,97.3,312.2z"/>
					<path class="st2" d="M99.9,312v-10h1.1v2.7l0,1.4c0.3-0.3,0.7-0.6,1-0.8c0.4-0.2,0.8-0.3,1.2-0.3c0.7,0,1.2,0.2,1.6,0.7
						c0.3,0.4,0.5,1.1,0.5,2v4.3h-1.1v-4.2c0-0.6-0.1-1.1-0.3-1.4c-0.2-0.3-0.5-0.4-1-0.4c-0.4,0-0.7,0.1-0.9,0.3
						c-0.3,0.2-0.6,0.4-0.9,0.8v4.9H99.9z"/>
					<path class="st2" d="M108.1,303.8c-0.2,0-0.4-0.1-0.6-0.2c-0.2-0.1-0.2-0.3-0.2-0.5c0-0.2,0.1-0.4,0.2-0.5
						c0.2-0.1,0.3-0.2,0.6-0.2c0.2,0,0.4,0.1,0.6,0.2c0.2,0.1,0.2,0.3,0.2,0.5c0,0.2-0.1,0.4-0.2,0.5
						C108.5,303.7,108.4,303.8,108.1,303.8z M107.5,312v-6.8h1.1v6.8H107.5z"/>
					<path class="st2" d="M112.8,312.2c-0.5,0-0.9-0.1-1.4-0.3c-0.4-0.2-0.8-0.4-1.1-0.7l0.6-0.8c0.3,0.2,0.6,0.4,0.9,0.6
						c0.3,0.1,0.7,0.2,1.1,0.2c0.4,0,0.8-0.1,1-0.3s0.3-0.5,0.3-0.8c0-0.2,0-0.3-0.1-0.5s-0.2-0.2-0.4-0.3c-0.1-0.1-0.3-0.2-0.5-0.3
						c-0.2-0.1-0.4-0.1-0.6-0.2c-0.2-0.1-0.5-0.2-0.7-0.3s-0.5-0.2-0.7-0.4c-0.2-0.2-0.3-0.3-0.5-0.5c-0.1-0.2-0.2-0.5-0.2-0.7
						c0-0.3,0.1-0.5,0.2-0.8c0.1-0.2,0.3-0.4,0.5-0.6s0.4-0.3,0.7-0.4c0.3-0.1,0.6-0.1,1-0.1c0.4,0,0.8,0.1,1.2,0.2s0.7,0.3,0.9,0.5
						l-0.5,0.7c-0.2-0.2-0.5-0.3-0.7-0.4c-0.3-0.1-0.5-0.2-0.8-0.2c-0.4,0-0.7,0.1-0.9,0.3c-0.2,0.2-0.3,0.4-0.3,0.7
						c0,0.2,0,0.3,0.1,0.4c0.1,0.1,0.2,0.2,0.3,0.3s0.3,0.2,0.5,0.2c0.2,0.1,0.4,0.1,0.6,0.2c0.2,0.1,0.5,0.2,0.7,0.3
						c0.2,0.1,0.5,0.2,0.7,0.4c0.2,0.2,0.4,0.3,0.5,0.6c0.1,0.2,0.2,0.5,0.2,0.8c0,0.3-0.1,0.5-0.2,0.8c-0.1,0.2-0.3,0.5-0.5,0.6
						c-0.2,0.2-0.5,0.3-0.8,0.4C113.5,312.1,113.2,312.2,112.8,312.2z"/>
					<path class="st2" d="M120.2,303.8c-0.2,0-0.4-0.1-0.6-0.2c-0.2-0.1-0.2-0.3-0.2-0.5c0-0.2,0.1-0.4,0.2-0.5
						c0.2-0.1,0.3-0.2,0.6-0.2c0.2,0,0.4,0.1,0.6,0.2c0.2,0.1,0.2,0.3,0.2,0.5c0,0.2-0.1,0.4-0.2,0.5
						C120.7,303.7,120.5,303.8,120.2,303.8z M119.7,312v-6.8h1.1v6.8H119.7z"/>
					<path class="st2" d="M124.3,312.2c-0.4,0-0.8-0.1-0.9-0.4c-0.2-0.3-0.3-0.6-0.3-1.1V302h1.1v8.7c0,0.2,0,0.3,0.1,0.4
						c0.1,0.1,0.1,0.1,0.2,0.1c0,0,0.1,0,0.1,0c0,0,0.1,0,0.1,0l0.2,0.9c-0.1,0-0.2,0.1-0.3,0.1S124.5,312.2,124.3,312.2z"/>
					<path class="st2" d="M127.9,312.2c-0.4,0-0.8-0.1-0.9-0.4c-0.2-0.3-0.3-0.6-0.3-1.1V302h1.1v8.7c0,0.2,0,0.3,0.1,0.4
						c0.1,0.1,0.1,0.1,0.2,0.1c0,0,0.1,0,0.1,0c0,0,0.1,0,0.1,0l0.2,0.9c-0.1,0-0.2,0.1-0.3,0.1S128,312.2,127.9,312.2z"/>
					<path class="st2" d="M132.2,312.2c-0.7,0-1.3-0.2-1.6-0.7c-0.3-0.4-0.5-1.1-0.5-2v-4.3h1.2v4.2c0,0.6,0.1,1.1,0.3,1.4
						c0.2,0.3,0.5,0.4,1,0.4c0.4,0,0.7-0.1,0.9-0.3c0.3-0.2,0.6-0.5,0.9-0.9v-4.8h1.1v6.8h-1l-0.1-1.1h0c-0.3,0.4-0.7,0.7-1,0.9
						S132.7,312.2,132.2,312.2z"/>
					<path class="st2" d="M139.6,312.2c-0.5,0-0.9-0.1-1.4-0.3c-0.4-0.2-0.8-0.4-1.1-0.7l0.6-0.8c0.3,0.2,0.6,0.4,0.9,0.6
						c0.3,0.1,0.7,0.2,1.1,0.2c0.4,0,0.8-0.1,1-0.3s0.3-0.5,0.3-0.8c0-0.2,0-0.3-0.1-0.5s-0.2-0.2-0.4-0.3c-0.1-0.1-0.3-0.2-0.5-0.3
						c-0.2-0.1-0.4-0.1-0.6-0.2c-0.2-0.1-0.5-0.2-0.7-0.3s-0.5-0.2-0.7-0.4c-0.2-0.2-0.3-0.3-0.5-0.5c-0.1-0.2-0.2-0.5-0.2-0.7
						c0-0.3,0.1-0.5,0.2-0.8c0.1-0.2,0.3-0.4,0.5-0.6s0.4-0.3,0.7-0.4c0.3-0.1,0.6-0.1,1-0.1c0.4,0,0.8,0.1,1.2,0.2s0.7,0.3,0.9,0.5
						l-0.5,0.7c-0.2-0.2-0.5-0.3-0.7-0.4c-0.3-0.1-0.5-0.2-0.8-0.2c-0.4,0-0.7,0.1-0.9,0.3c-0.2,0.2-0.3,0.4-0.3,0.7
						c0,0.2,0,0.3,0.1,0.4c0.1,0.1,0.2,0.2,0.3,0.3s0.3,0.2,0.5,0.2c0.2,0.1,0.4,0.1,0.6,0.2c0.2,0.1,0.5,0.2,0.7,0.3
						c0.2,0.1,0.5,0.2,0.7,0.4c0.2,0.2,0.4,0.3,0.5,0.6c0.1,0.2,0.2,0.5,0.2,0.8c0,0.3-0.1,0.5-0.2,0.8c-0.1,0.2-0.3,0.5-0.5,0.6
						c-0.2,0.2-0.5,0.3-0.8,0.4C140.4,312.1,140,312.2,139.6,312.2z"/>
					<path class="st2" d="M145.6,312.2c-0.4,0-0.7-0.1-0.9-0.2c-0.2-0.1-0.4-0.3-0.6-0.5s-0.3-0.4-0.3-0.7c-0.1-0.3-0.1-0.6-0.1-0.9
						v-3.8h-1v-0.9l1.1-0.1l0.1-1.9h1v1.9h1.8v0.9h-1.8v3.8c0,0.4,0.1,0.7,0.2,1c0.2,0.2,0.4,0.3,0.8,0.3c0.1,0,0.3,0,0.4-0.1
						c0.1,0,0.3-0.1,0.4-0.1l0.2,0.9c-0.2,0.1-0.4,0.1-0.6,0.2C146,312.1,145.8,312.2,145.6,312.2z"/>
					<path class="st2" d="M148.2,312v-6.8h1l0.1,1.2h0c0.2-0.4,0.5-0.8,0.8-1c0.3-0.3,0.7-0.4,1.1-0.4c0.3,0,0.5,0,0.7,0.1l-0.2,1
						c-0.1,0-0.2-0.1-0.3-0.1c-0.1,0-0.2,0-0.4,0c-0.3,0-0.6,0.1-0.9,0.3c-0.3,0.2-0.6,0.6-0.8,1.2v4.4H148.2z"/>
					<path class="st2" d="M154.3,312.2c-0.6,0-1-0.2-1.4-0.5s-0.6-0.8-0.6-1.4c0-0.7,0.3-1.3,1-1.7c0.7-0.4,1.7-0.7,3.2-0.8
						c0-0.2,0-0.4-0.1-0.6c0-0.2-0.1-0.4-0.2-0.5c-0.1-0.2-0.2-0.3-0.4-0.4c-0.2-0.1-0.4-0.1-0.7-0.1c-0.4,0-0.8,0.1-1.1,0.2
						s-0.7,0.3-0.9,0.5l-0.4-0.8c0.3-0.2,0.7-0.4,1.2-0.6c0.5-0.2,1-0.3,1.5-0.3c0.8,0,1.4,0.3,1.8,0.8c0.4,0.5,0.6,1.2,0.6,2v4.2
						h-1l-0.1-0.8h0c-0.3,0.3-0.7,0.5-1.1,0.7C155.1,312.1,154.7,312.2,154.3,312.2z M154.6,311.2c0.3,0,0.6-0.1,0.9-0.2
						c0.3-0.2,0.6-0.4,0.9-0.7v-1.9c-0.6,0.1-1,0.2-1.4,0.3s-0.7,0.2-0.9,0.4c-0.2,0.1-0.4,0.3-0.5,0.5c-0.1,0.2-0.2,0.4-0.2,0.6
						c0,0.4,0.1,0.7,0.4,0.8C154,311.2,154.3,311.2,154.6,311.2z"/>
					<path class="st2" d="M161.7,312.2c-0.4,0-0.7-0.1-0.9-0.2c-0.2-0.1-0.4-0.3-0.6-0.5s-0.3-0.4-0.3-0.7c-0.1-0.3-0.1-0.6-0.1-0.9
						v-3.8h-1v-0.9l1.1-0.1l0.1-1.9h1v1.9h1.8v0.9h-1.8v3.8c0,0.4,0.1,0.7,0.2,1c0.2,0.2,0.4,0.3,0.8,0.3c0.1,0,0.3,0,0.4-0.1
						c0.1,0,0.3-0.1,0.4-0.1l0.2,0.9c-0.2,0.1-0.4,0.1-0.6,0.2C162.1,312.1,161.9,312.2,161.7,312.2z"/>
					<path class="st2" d="M164.9,303.8c-0.2,0-0.4-0.1-0.6-0.2c-0.2-0.1-0.2-0.3-0.2-0.5c0-0.2,0.1-0.4,0.2-0.5
						c0.2-0.1,0.3-0.2,0.6-0.2c0.2,0,0.4,0.1,0.6,0.2c0.2,0.1,0.2,0.3,0.2,0.5c0,0.2-0.1,0.4-0.2,0.5
						C165.3,303.7,165.1,303.8,164.9,303.8z M164.3,312v-6.8h1.1v6.8H164.3z"/>
					<path class="st2" d="M170.4,312.2c-0.4,0-0.8-0.1-1.2-0.2c-0.4-0.2-0.7-0.4-1-0.7c-0.3-0.3-0.5-0.7-0.7-1.1s-0.3-0.9-0.3-1.5
						c0-0.6,0.1-1.1,0.3-1.5s0.4-0.8,0.7-1.1c0.3-0.3,0.6-0.5,1-0.7c0.4-0.2,0.8-0.2,1.2-0.2s0.8,0.1,1.2,0.2c0.4,0.2,0.7,0.4,1,0.7
						c0.3,0.3,0.5,0.7,0.7,1.1s0.3,1,0.3,1.5c0,0.6-0.1,1.1-0.3,1.5s-0.4,0.8-0.7,1.1c-0.3,0.3-0.6,0.5-1,0.7
						C171.2,312.1,170.8,312.2,170.4,312.2z M170.4,311.2c0.3,0,0.6-0.1,0.8-0.2c0.2-0.1,0.4-0.3,0.6-0.5c0.2-0.2,0.3-0.5,0.4-0.8
						s0.1-0.7,0.1-1.1c0-0.4,0-0.7-0.1-1.1s-0.2-0.6-0.4-0.8c-0.2-0.2-0.4-0.4-0.6-0.5c-0.2-0.1-0.5-0.2-0.8-0.2
						c-0.3,0-0.6,0.1-0.8,0.2s-0.5,0.3-0.6,0.5c-0.2,0.2-0.3,0.5-0.4,0.8c-0.1,0.3-0.1,0.7-0.1,1.1c0,0.4,0,0.7,0.1,1.1
						c0.1,0.3,0.2,0.6,0.4,0.8c0.2,0.2,0.4,0.4,0.6,0.5S170.1,311.2,170.4,311.2z"/>
					<path class="st2" d="M175.3,312v-6.8h1l0.1,1h0c0.3-0.3,0.7-0.6,1-0.8c0.4-0.2,0.8-0.3,1.3-0.3c0.7,0,1.2,0.2,1.6,0.7
						s0.5,1.1,0.5,2v4.3h-1.1v-4.2c0-0.6-0.1-1.1-0.3-1.4c-0.2-0.3-0.5-0.4-1-0.4c-0.4,0-0.7,0.1-0.9,0.3s-0.6,0.4-0.9,0.8v4.9
						H175.3z"/>
					<path class="st2" d="M187.8,312.2c-0.7,0-1.3-0.2-1.6-0.7c-0.3-0.4-0.5-1.1-0.5-2v-4.3h1.2v4.2c0,0.6,0.1,1.1,0.3,1.4
						c0.2,0.3,0.5,0.4,1,0.4c0.4,0,0.7-0.1,0.9-0.3c0.3-0.2,0.6-0.5,0.9-0.9v-4.8h1.1v6.8h-1l-0.1-1.1h0c-0.3,0.4-0.7,0.7-1,0.9
						C188.7,312.1,188.2,312.2,187.8,312.2z"/>
					<path class="st2" d="M195.2,312.2c-0.5,0-0.9-0.1-1.4-0.3c-0.4-0.2-0.8-0.4-1.1-0.7l0.6-0.8c0.3,0.2,0.6,0.4,0.9,0.6
						c0.3,0.1,0.7,0.2,1.1,0.2c0.4,0,0.8-0.1,1-0.3c0.2-0.2,0.3-0.5,0.3-0.8c0-0.2,0-0.3-0.1-0.5s-0.2-0.2-0.4-0.3
						c-0.1-0.1-0.3-0.2-0.5-0.3c-0.2-0.1-0.4-0.1-0.6-0.2c-0.2-0.1-0.5-0.2-0.7-0.3c-0.2-0.1-0.5-0.2-0.7-0.4
						c-0.2-0.2-0.3-0.3-0.5-0.5c-0.1-0.2-0.2-0.5-0.2-0.7c0-0.3,0.1-0.5,0.2-0.8c0.1-0.2,0.3-0.4,0.5-0.6c0.2-0.2,0.4-0.3,0.7-0.4
						c0.3-0.1,0.6-0.1,1-0.1c0.4,0,0.8,0.1,1.2,0.2s0.7,0.3,0.9,0.5l-0.5,0.7c-0.2-0.2-0.5-0.3-0.7-0.4c-0.3-0.1-0.5-0.2-0.8-0.2
						c-0.4,0-0.7,0.1-0.9,0.3c-0.2,0.2-0.3,0.4-0.3,0.7c0,0.2,0,0.3,0.1,0.4c0.1,0.1,0.2,0.2,0.3,0.3s0.3,0.2,0.5,0.2
						c0.2,0.1,0.4,0.1,0.6,0.2c0.2,0.1,0.5,0.2,0.7,0.3c0.2,0.1,0.5,0.2,0.7,0.4c0.2,0.2,0.4,0.3,0.5,0.6c0.1,0.2,0.2,0.5,0.2,0.8
						c0,0.3-0.1,0.5-0.2,0.8c-0.1,0.2-0.3,0.5-0.5,0.6c-0.2,0.2-0.5,0.3-0.8,0.4S195.6,312.2,195.2,312.2z"/>
					<path class="st2" d="M202,312.2c-0.5,0-0.9-0.1-1.3-0.2s-0.7-0.4-1-0.7c-0.3-0.3-0.5-0.7-0.7-1.1s-0.3-0.9-0.3-1.5
						c0-0.6,0.1-1.1,0.3-1.5c0.2-0.4,0.4-0.8,0.7-1.1c0.3-0.3,0.6-0.5,1-0.7c0.4-0.2,0.7-0.2,1.1-0.2c0.4,0,0.8,0.1,1.2,0.2
						c0.3,0.1,0.6,0.4,0.9,0.6c0.2,0.3,0.4,0.6,0.5,1c0.1,0.4,0.2,0.8,0.2,1.3c0,0.1,0,0.2,0,0.4c0,0.1,0,0.2,0,0.3h-4.6
						c0,0.7,0.3,1.3,0.7,1.7s0.9,0.6,1.6,0.6c0.3,0,0.6,0,0.9-0.1c0.3-0.1,0.5-0.2,0.8-0.4l0.4,0.8c-0.3,0.2-0.6,0.4-1,0.5
						C202.9,312.1,202.5,312.2,202,312.2z M199.9,308.1h3.6c0-0.7-0.1-1.2-0.4-1.6c-0.3-0.4-0.7-0.5-1.2-0.5c-0.2,0-0.5,0-0.7,0.1
						c-0.2,0.1-0.4,0.2-0.6,0.4c-0.2,0.2-0.3,0.4-0.4,0.7C200,307.4,199.9,307.7,199.9,308.1z"/>
					<path class="st2" d="M208,312.2c-0.5,0-0.9-0.1-1.4-0.3c-0.4-0.2-0.8-0.4-1.1-0.7l0.6-0.8c0.3,0.2,0.6,0.4,0.9,0.6
						c0.3,0.1,0.7,0.2,1.1,0.2c0.4,0,0.8-0.1,1-0.3s0.3-0.5,0.3-0.8c0-0.2,0-0.3-0.1-0.5c-0.1-0.1-0.2-0.2-0.4-0.3
						c-0.1-0.1-0.3-0.2-0.5-0.3c-0.2-0.1-0.4-0.1-0.6-0.2c-0.2-0.1-0.5-0.2-0.7-0.3s-0.5-0.2-0.7-0.4c-0.2-0.2-0.3-0.3-0.5-0.5
						s-0.2-0.5-0.2-0.7c0-0.3,0.1-0.5,0.2-0.8c0.1-0.2,0.3-0.4,0.5-0.6s0.4-0.3,0.7-0.4c0.3-0.1,0.6-0.1,1-0.1
						c0.4,0,0.8,0.1,1.2,0.2s0.7,0.3,0.9,0.5l-0.5,0.7c-0.2-0.2-0.5-0.3-0.7-0.4c-0.3-0.1-0.5-0.2-0.8-0.2c-0.4,0-0.7,0.1-0.9,0.3
						c-0.2,0.2-0.3,0.4-0.3,0.7c0,0.2,0,0.3,0.1,0.4c0.1,0.1,0.2,0.2,0.3,0.3c0.1,0.1,0.3,0.2,0.5,0.2c0.2,0.1,0.4,0.1,0.6,0.2
						c0.2,0.1,0.5,0.2,0.7,0.3c0.2,0.1,0.5,0.2,0.7,0.4c0.2,0.2,0.4,0.3,0.5,0.6c0.1,0.2,0.2,0.5,0.2,0.8c0,0.3-0.1,0.5-0.2,0.8
						c-0.1,0.2-0.3,0.5-0.5,0.6c-0.2,0.2-0.5,0.3-0.8,0.4C208.7,312.1,208.4,312.2,208,312.2z"/>
					<path class="st2" d="M215.1,312v-5.9h-0.9v-0.9l0.9-0.1v-1.1c0-0.7,0.2-1.3,0.5-1.7c0.3-0.4,0.8-0.6,1.5-0.6
						c0.2,0,0.4,0,0.6,0.1s0.4,0.1,0.5,0.2l-0.3,0.9c-0.3-0.1-0.5-0.2-0.8-0.2c-0.6,0-1,0.4-1,1.3v1.1h1.4v0.9h-1.4v5.9H215.1z"/>
					<path class="st2" d="M219.5,303.8c-0.2,0-0.4-0.1-0.6-0.2c-0.2-0.1-0.2-0.3-0.2-0.5c0-0.2,0.1-0.4,0.2-0.5
						c0.2-0.1,0.3-0.2,0.6-0.2c0.2,0,0.4,0.1,0.6,0.2c0.2,0.1,0.2,0.3,0.2,0.5c0,0.2-0.1,0.4-0.2,0.5S219.8,303.8,219.5,303.8z
						 M219,312v-6.8h1.1v6.8H219z"/>
					<path class="st2" d="M225.1,312.2c-0.4,0-0.9-0.1-1.3-0.2c-0.4-0.2-0.7-0.4-1-0.7c-0.3-0.3-0.5-0.7-0.7-1.1s-0.2-0.9-0.2-1.5
						c0-0.6,0.1-1.1,0.3-1.5s0.4-0.8,0.7-1.1c0.3-0.3,0.6-0.5,1-0.7c0.4-0.2,0.8-0.2,1.3-0.2c0.4,0,0.8,0.1,1.1,0.2
						c0.3,0.2,0.6,0.3,0.8,0.6l-0.6,0.8c-0.2-0.2-0.4-0.3-0.6-0.4c-0.2-0.1-0.5-0.2-0.7-0.2c-0.3,0-0.6,0.1-0.9,0.2
						s-0.5,0.3-0.7,0.5s-0.3,0.5-0.4,0.8c-0.1,0.3-0.2,0.7-0.2,1.1c0,0.4,0.1,0.7,0.2,1.1c0.1,0.3,0.2,0.6,0.4,0.8
						c0.2,0.2,0.4,0.4,0.7,0.5s0.5,0.2,0.9,0.2c0.3,0,0.6-0.1,0.9-0.2c0.3-0.1,0.5-0.3,0.7-0.5l0.5,0.8c-0.3,0.3-0.6,0.5-1,0.6
						C225.9,312.1,225.5,312.2,225.1,312.2z"/>
					<path class="st2" d="M230.8,312.2c-0.4,0-0.7-0.1-0.9-0.2c-0.2-0.1-0.4-0.3-0.6-0.5s-0.3-0.4-0.3-0.7c-0.1-0.3-0.1-0.6-0.1-0.9
						v-3.8h-1v-0.9l1.1-0.1l0.1-1.9h1v1.9h1.8v0.9H230v3.8c0,0.4,0.1,0.7,0.2,1c0.2,0.2,0.4,0.3,0.8,0.3c0.1,0,0.3,0,0.4-0.1
						c0.1,0,0.3-0.1,0.4-0.1l0.2,0.9c-0.2,0.1-0.4,0.1-0.6,0.2C231.2,312.1,231,312.2,230.8,312.2z"/>
					<path class="st2" d="M234,303.8c-0.2,0-0.4-0.1-0.6-0.2c-0.2-0.1-0.2-0.3-0.2-0.5c0-0.2,0.1-0.4,0.2-0.5
						c0.2-0.1,0.3-0.2,0.6-0.2c0.2,0,0.4,0.1,0.6,0.2c0.2,0.1,0.2,0.3,0.2,0.5c0,0.2-0.1,0.4-0.2,0.5S234.2,303.8,234,303.8z
						 M233.4,312v-6.8h1.1v6.8H233.4z"/>
					<path class="st2" d="M239.5,312.2c-0.4,0-0.8-0.1-1.2-0.2c-0.4-0.2-0.7-0.4-1-0.7c-0.3-0.3-0.5-0.7-0.7-1.1s-0.3-0.9-0.3-1.5
						c0-0.6,0.1-1.1,0.3-1.5s0.4-0.8,0.7-1.1c0.3-0.3,0.6-0.5,1-0.7c0.4-0.2,0.8-0.2,1.2-0.2s0.8,0.1,1.2,0.2c0.4,0.2,0.7,0.4,1,0.7
						c0.3,0.3,0.5,0.7,0.7,1.1c0.2,0.4,0.3,1,0.3,1.5c0,0.6-0.1,1.1-0.3,1.5c-0.2,0.4-0.4,0.8-0.7,1.1c-0.3,0.3-0.6,0.5-1,0.7
						C240.3,312.1,239.9,312.2,239.5,312.2z M239.5,311.2c0.3,0,0.6-0.1,0.8-0.2c0.2-0.1,0.5-0.3,0.6-0.5c0.2-0.2,0.3-0.5,0.4-0.8
						s0.1-0.7,0.1-1.1c0-0.4,0-0.7-0.1-1.1s-0.2-0.6-0.4-0.8c-0.2-0.2-0.4-0.4-0.6-0.5c-0.2-0.1-0.5-0.2-0.8-0.2
						c-0.3,0-0.6,0.1-0.8,0.2c-0.2,0.1-0.5,0.3-0.6,0.5c-0.2,0.2-0.3,0.5-0.4,0.8s-0.1,0.7-0.1,1.1c0,0.4,0,0.7,0.1,1.1
						s0.2,0.6,0.4,0.8c0.2,0.2,0.4,0.4,0.6,0.5C238.9,311.2,239.2,311.2,239.5,311.2z"/>
					<path class="st2" d="M244.4,312v-6.8h1l0.1,1h0c0.3-0.3,0.7-0.6,1-0.8c0.4-0.2,0.8-0.3,1.3-0.3c0.7,0,1.2,0.2,1.6,0.7
						c0.3,0.4,0.5,1.1,0.5,2v4.3h-1.1v-4.2c0-0.6-0.1-1.1-0.3-1.4c-0.2-0.3-0.5-0.4-1-0.4c-0.4,0-0.7,0.1-0.9,0.3
						c-0.3,0.2-0.6,0.4-0.9,0.8v4.9H244.4z"/>
					<path class="st2" d="M253.6,312.2c-0.6,0-1-0.2-1.4-0.5s-0.6-0.8-0.6-1.4c0-0.7,0.3-1.3,1-1.7c0.7-0.4,1.7-0.7,3.2-0.8
						c0-0.2,0-0.4-0.1-0.6c0-0.2-0.1-0.4-0.2-0.5c-0.1-0.2-0.2-0.3-0.4-0.4s-0.4-0.1-0.7-0.1c-0.4,0-0.8,0.1-1.1,0.2
						c-0.3,0.1-0.7,0.3-0.9,0.5l-0.4-0.8c0.3-0.2,0.7-0.4,1.2-0.6s1-0.3,1.5-0.3c0.8,0,1.4,0.3,1.8,0.8s0.6,1.2,0.6,2v4.2h-1
						l-0.1-0.8h0c-0.3,0.3-0.7,0.5-1.1,0.7S254.1,312.2,253.6,312.2z M254,311.2c0.3,0,0.6-0.1,0.9-0.2c0.3-0.2,0.6-0.4,0.9-0.7
						v-1.9c-0.6,0.1-1,0.2-1.4,0.3s-0.7,0.2-0.9,0.4c-0.2,0.1-0.4,0.3-0.5,0.5c-0.1,0.2-0.2,0.4-0.2,0.6c0,0.4,0.1,0.7,0.4,0.8
						S253.6,311.2,254,311.2z"/>
					<path class="st2" d="M260.3,312.2c-0.4,0-0.8-0.1-0.9-0.4c-0.2-0.3-0.3-0.6-0.3-1.1V302h1.1v8.7c0,0.2,0,0.3,0.1,0.4
						c0.1,0.1,0.1,0.1,0.2,0.1c0,0,0.1,0,0.1,0c0,0,0.1,0,0.1,0l0.2,0.9c-0.1,0-0.2,0.1-0.3,0.1
						C260.6,312.2,260.5,312.2,260.3,312.2z"/>
					<path class="st2" d="M267.8,312.2c-0.9,0-1.5-0.3-2.1-0.9s-0.8-1.5-0.8-2.6c0-0.6,0.1-1,0.2-1.5c0.2-0.4,0.4-0.8,0.7-1.1
						c0.3-0.3,0.6-0.5,0.9-0.7c0.4-0.2,0.7-0.3,1.1-0.3c0.4,0,0.7,0.1,1,0.2c0.3,0.1,0.6,0.3,0.9,0.6l-0.1-1.2V302h1.2v10h-1
						l-0.1-0.8h0c-0.3,0.3-0.6,0.5-0.9,0.7C268.6,312.1,268.2,312.2,267.8,312.2z M268.1,311.2c0.3,0,0.6-0.1,0.9-0.2
						c0.3-0.2,0.6-0.4,0.8-0.7v-3.6c-0.3-0.3-0.6-0.4-0.8-0.6s-0.5-0.2-0.8-0.2c-0.3,0-0.5,0.1-0.8,0.2s-0.4,0.3-0.6,0.5
						s-0.3,0.5-0.4,0.8s-0.2,0.7-0.2,1.1c0,0.8,0.2,1.5,0.5,1.9C267,311,267.5,311.2,268.1,311.2z"/>
					<path class="st2" d="M274.8,312.2c-0.6,0-1-0.2-1.4-0.5c-0.4-0.3-0.6-0.8-0.6-1.4c0-0.7,0.3-1.3,1-1.7c0.7-0.4,1.7-0.7,3.2-0.8
						c0-0.2,0-0.4-0.1-0.6c0-0.2-0.1-0.4-0.2-0.5c-0.1-0.2-0.2-0.3-0.4-0.4s-0.4-0.1-0.7-0.1c-0.4,0-0.8,0.1-1.1,0.2
						s-0.7,0.3-0.9,0.5l-0.4-0.8c0.3-0.2,0.7-0.4,1.2-0.6c0.5-0.2,1-0.3,1.5-0.3c0.8,0,1.4,0.3,1.8,0.8s0.6,1.2,0.6,2v4.2h-1
						l-0.1-0.8h0c-0.3,0.3-0.7,0.5-1.1,0.7S275.3,312.2,274.8,312.2z M275.2,311.2c0.3,0,0.6-0.1,0.9-0.2c0.3-0.2,0.6-0.4,0.9-0.7
						v-1.9c-0.6,0.1-1,0.2-1.4,0.3c-0.4,0.1-0.7,0.2-0.9,0.4c-0.2,0.1-0.4,0.3-0.5,0.5c-0.1,0.2-0.2,0.4-0.2,0.6
						c0,0.4,0.1,0.7,0.4,0.8C274.5,311.2,274.8,311.2,275.2,311.2z"/>
					<path class="st2" d="M282.3,312.2c-0.4,0-0.7-0.1-0.9-0.2c-0.2-0.1-0.4-0.3-0.6-0.5s-0.3-0.4-0.3-0.7c-0.1-0.3-0.1-0.6-0.1-0.9
						v-3.8h-1v-0.9l1.1-0.1l0.1-1.9h1v1.9h1.8v0.9h-1.8v3.8c0,0.4,0.1,0.7,0.2,1c0.2,0.2,0.4,0.3,0.8,0.3c0.1,0,0.3,0,0.4-0.1
						c0.1,0,0.3-0.1,0.4-0.1l0.2,0.9c-0.2,0.1-0.4,0.1-0.6,0.2C282.7,312.1,282.5,312.2,282.3,312.2z"/>
					<path class="st2" d="M286.1,312.2c-0.6,0-1-0.2-1.4-0.5s-0.6-0.8-0.6-1.4c0-0.7,0.3-1.3,1-1.7c0.7-0.4,1.7-0.7,3.2-0.8
						c0-0.2,0-0.4-0.1-0.6c0-0.2-0.1-0.4-0.2-0.5c-0.1-0.2-0.2-0.3-0.4-0.4s-0.4-0.1-0.7-0.1c-0.4,0-0.8,0.1-1.1,0.2
						c-0.3,0.1-0.7,0.3-0.9,0.5l-0.4-0.8c0.3-0.2,0.7-0.4,1.2-0.6s1-0.3,1.5-0.3c0.8,0,1.4,0.3,1.8,0.8s0.6,1.2,0.6,2v4.2h-1
						l-0.1-0.8h0c-0.3,0.3-0.7,0.5-1.1,0.7S286.6,312.2,286.1,312.2z M286.5,311.2c0.3,0,0.6-0.1,0.9-0.2c0.3-0.2,0.6-0.4,0.9-0.7
						v-1.9c-0.6,0.1-1,0.2-1.4,0.3s-0.7,0.2-0.9,0.4c-0.2,0.1-0.4,0.3-0.5,0.5c-0.1,0.2-0.2,0.4-0.2,0.6c0,0.4,0.1,0.7,0.4,0.8
						S286.1,311.2,286.5,311.2z"/>
					<path class="st2" d="M292.2,312.2c-0.2,0-0.4-0.1-0.6-0.2c-0.2-0.2-0.2-0.4-0.2-0.6c0-0.3,0.1-0.5,0.2-0.7
						c0.2-0.2,0.4-0.2,0.6-0.2c0.2,0,0.4,0.1,0.6,0.2c0.2,0.2,0.2,0.4,0.2,0.7c0,0.3-0.1,0.5-0.2,0.6
						C292.6,312.1,292.4,312.2,292.2,312.2z"/>
				</g>
				<g class="st1">
					<path class="st2" d="M167.2,231.4v-8.2h-2.8v-1h6.7v1h-2.8v8.2H167.2z"/>
					<path class="st2" d="M172.6,231.4v-10h1.1v2.7l0,1.4c0.3-0.3,0.7-0.6,1-0.8c0.4-0.2,0.8-0.3,1.2-0.3c0.7,0,1.2,0.2,1.6,0.7
						s0.5,1.1,0.5,2v4.3h-1.1v-4.2c0-0.6-0.1-1.1-0.3-1.4c-0.2-0.3-0.5-0.4-1-0.4c-0.4,0-0.7,0.1-0.9,0.3s-0.6,0.4-0.9,0.8v4.9
						H172.6z"/>
					<path class="st2" d="M180.9,223.2c-0.2,0-0.4-0.1-0.6-0.2c-0.2-0.1-0.2-0.3-0.2-0.5c0-0.2,0.1-0.4,0.2-0.5
						c0.2-0.1,0.3-0.2,0.6-0.2s0.4,0.1,0.6,0.2c0.2,0.1,0.2,0.3,0.2,0.5c0,0.2-0.1,0.4-0.2,0.5C181.3,223.2,181.1,223.2,180.9,223.2
						z M180.3,231.4v-6.8h1.1v6.8H180.3z"/>
					<path class="st2" d="M185.5,231.6c-0.5,0-0.9-0.1-1.4-0.3c-0.4-0.2-0.8-0.4-1.1-0.7l0.6-0.8c0.3,0.2,0.6,0.4,0.9,0.6
						s0.7,0.2,1.1,0.2c0.4,0,0.8-0.1,1-0.3c0.2-0.2,0.3-0.5,0.3-0.8c0-0.2,0-0.3-0.1-0.5c-0.1-0.1-0.2-0.2-0.4-0.3
						c-0.1-0.1-0.3-0.2-0.5-0.3c-0.2-0.1-0.4-0.1-0.6-0.2c-0.2-0.1-0.5-0.2-0.7-0.3c-0.2-0.1-0.5-0.2-0.7-0.4
						c-0.2-0.2-0.3-0.3-0.5-0.5c-0.1-0.2-0.2-0.5-0.2-0.7c0-0.3,0.1-0.5,0.2-0.8c0.1-0.2,0.3-0.4,0.5-0.6c0.2-0.2,0.4-0.3,0.7-0.4
						c0.3-0.1,0.6-0.1,1-0.1c0.4,0,0.8,0.1,1.2,0.2s0.7,0.3,0.9,0.5l-0.5,0.7c-0.2-0.2-0.5-0.3-0.7-0.4c-0.3-0.1-0.5-0.2-0.8-0.2
						c-0.4,0-0.7,0.1-0.9,0.3c-0.2,0.2-0.3,0.4-0.3,0.7c0,0.2,0,0.3,0.1,0.4c0.1,0.1,0.2,0.2,0.3,0.3c0.1,0.1,0.3,0.2,0.5,0.2
						c0.2,0.1,0.4,0.1,0.6,0.2c0.2,0.1,0.5,0.2,0.7,0.3c0.2,0.1,0.5,0.2,0.7,0.4c0.2,0.2,0.4,0.3,0.5,0.6c0.1,0.2,0.2,0.5,0.2,0.8
						c0,0.3-0.1,0.5-0.2,0.8c-0.1,0.2-0.3,0.5-0.5,0.6c-0.2,0.2-0.5,0.3-0.8,0.4C186.2,231.6,185.9,231.6,185.5,231.6z"/>
					<path class="st2" d="M192.5,234.4c-0.2,0-0.3,0-0.4,0c-0.1,0-0.3-0.1-0.4-0.1l0.2-0.9c0.1,0,0.2,0,0.3,0.1c0.1,0,0.2,0,0.3,0
						c0.4,0,0.7-0.1,1-0.4c0.2-0.3,0.4-0.6,0.6-1l0.2-0.5l-2.7-6.8h1.2l1.4,3.8c0.1,0.3,0.2,0.6,0.3,0.9c0.1,0.3,0.2,0.7,0.3,1h0.1
						c0.1-0.3,0.2-0.6,0.3-1c0.1-0.3,0.2-0.7,0.3-1l1.2-3.8h1.1L195,232c-0.1,0.3-0.3,0.6-0.4,0.9s-0.3,0.5-0.5,0.7
						c-0.2,0.2-0.4,0.4-0.7,0.5C193.1,234.3,192.8,234.4,192.5,234.4z"/>
					<path class="st2" d="M201.6,231.6c-0.5,0-0.9-0.1-1.3-0.2s-0.7-0.4-1-0.7c-0.3-0.3-0.5-0.7-0.7-1.1s-0.3-0.9-0.3-1.5
						c0-0.6,0.1-1.1,0.3-1.5s0.4-0.8,0.7-1.1c0.3-0.3,0.6-0.5,1-0.7c0.4-0.2,0.7-0.2,1.1-0.2c0.4,0,0.8,0.1,1.2,0.2
						c0.3,0.1,0.6,0.4,0.9,0.6c0.2,0.3,0.4,0.6,0.5,1c0.1,0.4,0.2,0.8,0.2,1.3c0,0.1,0,0.2,0,0.4c0,0.1,0,0.2,0,0.3h-4.6
						c0,0.7,0.3,1.3,0.7,1.7s0.9,0.6,1.6,0.6c0.3,0,0.6,0,0.9-0.1c0.3-0.1,0.5-0.2,0.8-0.4l0.4,0.8c-0.3,0.2-0.6,0.4-1,0.5
						S202.1,231.6,201.6,231.6z M199.5,227.5h3.6c0-0.7-0.1-1.2-0.4-1.6c-0.3-0.4-0.7-0.5-1.2-0.5c-0.2,0-0.5,0-0.7,0.1
						c-0.2,0.1-0.4,0.2-0.6,0.4c-0.2,0.2-0.3,0.4-0.4,0.7C199.6,226.9,199.5,227.2,199.5,227.5z"/>
					<path class="st2" d="M207.2,231.6c-0.6,0-1-0.2-1.4-0.5s-0.6-0.8-0.6-1.4c0-0.7,0.3-1.3,1-1.7c0.7-0.4,1.7-0.7,3.2-0.8
						c0-0.2,0-0.4-0.1-0.6c0-0.2-0.1-0.4-0.2-0.5c-0.1-0.2-0.2-0.3-0.4-0.4s-0.4-0.1-0.7-0.1c-0.4,0-0.8,0.1-1.1,0.2
						c-0.3,0.1-0.7,0.3-0.9,0.5l-0.4-0.8c0.3-0.2,0.7-0.4,1.2-0.6c0.5-0.2,1-0.3,1.5-0.3c0.8,0,1.4,0.3,1.8,0.8s0.6,1.2,0.6,2v4.2
						h-1l-0.1-0.8h0c-0.3,0.3-0.7,0.5-1.1,0.7S207.6,231.6,207.2,231.6z M207.5,230.7c0.3,0,0.6-0.1,0.9-0.2
						c0.3-0.2,0.6-0.4,0.9-0.7v-1.9c-0.6,0.1-1,0.2-1.4,0.3c-0.4,0.1-0.7,0.2-0.9,0.4c-0.2,0.1-0.4,0.3-0.5,0.5
						c-0.1,0.2-0.2,0.4-0.2,0.6c0,0.4,0.1,0.7,0.3,0.8S207.2,230.7,207.5,230.7z"/>
					<path class="st2" d="M212.7,231.4v-6.8h1l0.1,1.2h0c0.2-0.4,0.5-0.8,0.8-1s0.7-0.4,1.1-0.4c0.3,0,0.5,0,0.7,0.1l-0.2,1
						c-0.1,0-0.2-0.1-0.3-0.1s-0.2,0-0.3,0c-0.3,0-0.6,0.1-0.9,0.3s-0.6,0.6-0.8,1.2v4.4H212.7z"/>
					<path class="st2" d="M217.8,225.4l-0.3-0.5c0.4-0.2,0.6-0.5,0.8-0.7c0.2-0.3,0.3-0.6,0.3-1c0,0-0.1,0-0.1,0
						c-0.2,0-0.4-0.1-0.5-0.2c-0.1-0.1-0.2-0.3-0.2-0.5c0-0.2,0.1-0.4,0.2-0.6c0.1-0.1,0.3-0.2,0.5-0.2c0.3,0,0.5,0.1,0.6,0.3
						c0.2,0.2,0.2,0.5,0.2,0.9c0,0.6-0.1,1-0.4,1.4C218.7,224.8,218.3,225.1,217.8,225.4z"/>
					<path class="st2" d="M222.3,231.6c-0.5,0-0.9-0.1-1.4-0.3c-0.4-0.2-0.8-0.4-1.1-0.7l0.6-0.8c0.3,0.2,0.6,0.4,0.9,0.6
						s0.7,0.2,1.1,0.2c0.4,0,0.8-0.1,1-0.3c0.2-0.2,0.3-0.5,0.3-0.8c0-0.2,0-0.3-0.1-0.5c-0.1-0.1-0.2-0.2-0.4-0.3
						c-0.1-0.1-0.3-0.2-0.5-0.3c-0.2-0.1-0.4-0.1-0.6-0.2c-0.2-0.1-0.5-0.2-0.7-0.3c-0.2-0.1-0.5-0.2-0.7-0.4
						c-0.2-0.2-0.3-0.3-0.5-0.5c-0.1-0.2-0.2-0.5-0.2-0.7c0-0.3,0.1-0.5,0.2-0.8c0.1-0.2,0.3-0.4,0.5-0.6c0.2-0.2,0.4-0.3,0.7-0.4
						c0.3-0.1,0.6-0.1,1-0.1c0.4,0,0.8,0.1,1.2,0.2s0.7,0.3,0.9,0.5l-0.5,0.7c-0.2-0.2-0.5-0.3-0.7-0.4c-0.3-0.1-0.5-0.2-0.8-0.2
						c-0.4,0-0.7,0.1-0.9,0.3c-0.2,0.2-0.3,0.4-0.3,0.7c0,0.2,0,0.3,0.1,0.4c0.1,0.1,0.2,0.2,0.3,0.3c0.1,0.1,0.3,0.2,0.5,0.2
						c0.2,0.1,0.4,0.1,0.6,0.2c0.2,0.1,0.5,0.2,0.7,0.3c0.2,0.1,0.5,0.2,0.7,0.4c0.2,0.2,0.4,0.3,0.5,0.6c0.1,0.2,0.2,0.5,0.2,0.8
						c0,0.3-0.1,0.5-0.2,0.8c-0.1,0.2-0.3,0.5-0.5,0.6c-0.2,0.2-0.5,0.3-0.8,0.4C223.1,231.6,222.8,231.6,222.3,231.6z"/>
				</g>
				<g class="st1">
					<path class="st2" d="M178.7,247.6c-0.9,0-1.5-0.3-2.1-0.9s-0.8-1.5-0.8-2.6c0-0.6,0.1-1,0.2-1.5c0.2-0.4,0.4-0.8,0.7-1.1
						c0.3-0.3,0.6-0.5,0.9-0.7c0.4-0.2,0.7-0.3,1.1-0.3c0.4,0,0.7,0.1,1,0.2c0.3,0.1,0.6,0.3,0.9,0.6l-0.1-1.2v-2.6h1.2v10h-1
						l-0.1-0.8h0c-0.3,0.3-0.6,0.5-0.9,0.7C179.5,247.5,179.1,247.6,178.7,247.6z M179,246.6c0.3,0,0.6-0.1,0.9-0.2
						c0.3-0.2,0.6-0.4,0.8-0.7v-3.6c-0.3-0.3-0.6-0.4-0.8-0.6c-0.3-0.1-0.5-0.2-0.8-0.2c-0.3,0-0.5,0.1-0.8,0.2s-0.4,0.3-0.6,0.5
						c-0.2,0.2-0.3,0.5-0.4,0.8s-0.2,0.7-0.2,1.1c0,0.8,0.2,1.5,0.5,1.9C177.9,246.4,178.4,246.6,179,246.6z"/>
					<path class="st2" d="M186.9,247.6c-0.5,0-0.9-0.1-1.3-0.2s-0.7-0.4-1-0.7c-0.3-0.3-0.5-0.7-0.7-1.1s-0.3-0.9-0.3-1.5
						c0-0.6,0.1-1.1,0.3-1.5s0.4-0.8,0.7-1.1c0.3-0.3,0.6-0.5,1-0.7c0.4-0.2,0.7-0.2,1.1-0.2c0.4,0,0.8,0.1,1.2,0.2
						c0.3,0.1,0.6,0.4,0.9,0.6c0.2,0.3,0.4,0.6,0.5,1c0.1,0.4,0.2,0.8,0.2,1.3c0,0.1,0,0.2,0,0.4c0,0.1,0,0.2,0,0.3h-4.6
						c0,0.7,0.3,1.3,0.7,1.7s0.9,0.6,1.6,0.6c0.3,0,0.6,0,0.9-0.1c0.3-0.1,0.5-0.2,0.8-0.4l0.4,0.8c-0.3,0.2-0.6,0.4-1,0.5
						S187.4,247.6,186.9,247.6z M184.8,243.5h3.6c0-0.7-0.1-1.2-0.4-1.6c-0.3-0.4-0.7-0.5-1.2-0.5c-0.2,0-0.5,0-0.7,0.1
						c-0.2,0.1-0.4,0.2-0.6,0.4c-0.2,0.2-0.3,0.4-0.4,0.7C184.9,242.9,184.8,243.2,184.8,243.5z"/>
					<path class="st2" d="M191.3,247.4v-5.9h-0.9v-0.9l0.9-0.1v-1.1c0-0.7,0.2-1.3,0.5-1.7c0.3-0.4,0.8-0.6,1.5-0.6
						c0.2,0,0.4,0,0.6,0.1s0.4,0.1,0.5,0.2l-0.3,0.9c-0.3-0.1-0.5-0.2-0.8-0.2c-0.6,0-1,0.4-1,1.3v1.1h1.4v0.9h-1.4v5.9H191.3z"/>
					<path class="st2" d="M195.8,239.2c-0.2,0-0.4-0.1-0.6-0.2s-0.2-0.3-0.2-0.5c0-0.2,0.1-0.4,0.2-0.5c0.2-0.1,0.3-0.2,0.6-0.2
						c0.2,0,0.4,0.1,0.6,0.2c0.2,0.1,0.2,0.3,0.2,0.5c0,0.2-0.1,0.4-0.2,0.5S196,239.2,195.8,239.2z M195.2,247.4v-6.8h1.1v6.8
						H195.2z"/>
					<path class="st2" d="M201.3,247.6c-0.4,0-0.9-0.1-1.3-0.2c-0.4-0.2-0.7-0.4-1-0.7c-0.3-0.3-0.5-0.7-0.7-1.1
						c-0.2-0.4-0.2-0.9-0.2-1.5c0-0.6,0.1-1.1,0.3-1.5s0.4-0.8,0.7-1.1c0.3-0.3,0.6-0.5,1-0.7c0.4-0.2,0.8-0.2,1.3-0.2
						c0.4,0,0.8,0.1,1.1,0.2c0.3,0.2,0.6,0.3,0.8,0.6l-0.6,0.8c-0.2-0.2-0.4-0.3-0.6-0.4c-0.2-0.1-0.5-0.2-0.7-0.2
						c-0.3,0-0.6,0.1-0.9,0.2c-0.3,0.1-0.5,0.3-0.7,0.5c-0.2,0.2-0.3,0.5-0.4,0.8s-0.2,0.7-0.2,1.1c0,0.4,0.1,0.7,0.2,1.1
						s0.2,0.6,0.4,0.8c0.2,0.2,0.4,0.4,0.7,0.5s0.5,0.2,0.9,0.2c0.3,0,0.6-0.1,0.9-0.2c0.3-0.1,0.5-0.3,0.7-0.5l0.5,0.8
						c-0.3,0.3-0.6,0.5-1,0.6C202.1,247.5,201.7,247.6,201.3,247.6z"/>
					<path class="st2" d="M205.6,239.2c-0.2,0-0.4-0.1-0.6-0.2c-0.2-0.1-0.2-0.3-0.2-0.5c0-0.2,0.1-0.4,0.2-0.5
						c0.2-0.1,0.3-0.2,0.6-0.2s0.4,0.1,0.6,0.2c0.2,0.1,0.2,0.3,0.2,0.5c0,0.2-0.1,0.4-0.2,0.5C206,239.2,205.8,239.2,205.6,239.2z
						 M205,247.4v-6.8h1.1v6.8H205z"/>
					<path class="st2" d="M210.6,247.6c-0.4,0-0.7-0.1-0.9-0.2c-0.2-0.1-0.4-0.3-0.6-0.5c-0.2-0.2-0.3-0.4-0.3-0.7
						c-0.1-0.3-0.1-0.6-0.1-0.9v-3.8h-1v-0.9l1.1-0.1l0.1-1.9h1v1.9h1.8v0.9h-1.8v3.8c0,0.4,0.1,0.7,0.2,1c0.2,0.2,0.4,0.3,0.8,0.3
						c0.1,0,0.3,0,0.4-0.1c0.1,0,0.3-0.1,0.4-0.1l0.2,0.9c-0.2,0.1-0.4,0.1-0.6,0.2C211,247.6,210.8,247.6,210.6,247.6z"/>
				</g>
				<g class="st1">
					<path class="st2" d="M253.4,231.4v-8.2h-2.8v-1h6.7v1h-2.8v8.2H253.4z"/>
					<path class="st2" d="M260.6,231.6c-0.4,0-0.8-0.1-1.2-0.2c-0.4-0.2-0.7-0.4-1-0.7c-0.3-0.3-0.5-0.7-0.7-1.1s-0.3-0.9-0.3-1.5
						c0-0.6,0.1-1.1,0.3-1.5s0.4-0.8,0.7-1.1c0.3-0.3,0.6-0.5,1-0.7c0.4-0.2,0.8-0.2,1.2-0.2s0.8,0.1,1.2,0.2c0.4,0.2,0.7,0.4,1,0.7
						c0.3,0.3,0.5,0.7,0.7,1.1s0.3,1,0.3,1.5c0,0.6-0.1,1.1-0.3,1.5s-0.4,0.8-0.7,1.1c-0.3,0.3-0.6,0.5-1,0.7
						C261.5,231.5,261.1,231.6,260.6,231.6z M260.6,230.7c0.3,0,0.6-0.1,0.8-0.2c0.2-0.1,0.5-0.3,0.6-0.5s0.3-0.5,0.4-0.8
						c0.1-0.3,0.1-0.7,0.1-1.1c0-0.4,0-0.7-0.1-1.1c-0.1-0.3-0.2-0.6-0.4-0.8s-0.4-0.4-0.6-0.5c-0.2-0.1-0.5-0.2-0.8-0.2
						c-0.3,0-0.6,0.1-0.8,0.2c-0.2,0.1-0.5,0.3-0.6,0.5c-0.2,0.2-0.3,0.5-0.4,0.8s-0.1,0.7-0.1,1.1c0,0.4,0,0.7,0.1,1.1
						s0.2,0.6,0.4,0.8c0.2,0.2,0.4,0.4,0.6,0.5C260.1,230.6,260.4,230.7,260.6,230.7z"/>
					<path class="st2" d="M267.5,231.6c-0.4,0-0.7-0.1-0.9-0.2c-0.2-0.1-0.4-0.3-0.6-0.5c-0.2-0.2-0.3-0.4-0.3-0.7
						c-0.1-0.3-0.1-0.6-0.1-0.9v-3.8h-1v-0.9l1.1-0.1l0.1-1.9h1v1.9h1.8v0.9h-1.8v3.8c0,0.4,0.1,0.7,0.2,1c0.2,0.2,0.4,0.3,0.8,0.3
						c0.1,0,0.3,0,0.4-0.1c0.1,0,0.3-0.1,0.4-0.1l0.2,0.9c-0.2,0.1-0.4,0.1-0.6,0.2C267.9,231.6,267.7,231.6,267.5,231.6z"/>
					<path class="st2" d="M271.4,231.6c-0.6,0-1-0.2-1.4-0.5s-0.6-0.8-0.6-1.4c0-0.7,0.3-1.3,1-1.7c0.7-0.4,1.7-0.7,3.2-0.8
						c0-0.2,0-0.4-0.1-0.6c0-0.2-0.1-0.4-0.2-0.5c-0.1-0.2-0.2-0.3-0.4-0.4c-0.2-0.1-0.4-0.1-0.7-0.1c-0.4,0-0.8,0.1-1.1,0.2
						c-0.3,0.1-0.7,0.3-0.9,0.5l-0.4-0.8c0.3-0.2,0.7-0.4,1.2-0.6s1-0.3,1.5-0.3c0.8,0,1.4,0.3,1.8,0.8c0.4,0.5,0.6,1.2,0.6,2v4.2
						h-1l-0.1-0.8h0c-0.3,0.3-0.7,0.5-1,0.7C272.2,231.5,271.8,231.6,271.4,231.6z M271.7,230.7c0.3,0,0.6-0.1,0.9-0.2
						c0.3-0.2,0.6-0.4,0.9-0.7v-1.9c-0.6,0.1-1,0.2-1.4,0.3c-0.4,0.1-0.7,0.2-0.9,0.4c-0.2,0.1-0.4,0.3-0.5,0.5
						c-0.1,0.2-0.2,0.4-0.2,0.6c0,0.4,0.1,0.7,0.4,0.8C271.1,230.6,271.4,230.7,271.7,230.7z"/>
					<path class="st2" d="M278.1,231.6c-0.4,0-0.8-0.1-0.9-0.4c-0.2-0.3-0.3-0.6-0.3-1.1v-8.6h1.1v8.7c0,0.2,0,0.3,0.1,0.4
						c0.1,0.1,0.1,0.1,0.2,0.1c0,0,0.1,0,0.1,0s0.1,0,0.1,0l0.2,0.9c-0.1,0-0.2,0.1-0.3,0.1S278.2,231.6,278.1,231.6z"/>
					<path class="st2" d="M285.5,231.6c-0.9,0-1.5-0.3-2.1-0.9s-0.8-1.5-0.8-2.6c0-0.6,0.1-1,0.2-1.5c0.2-0.4,0.4-0.8,0.7-1.1
						c0.3-0.3,0.6-0.5,0.9-0.7c0.4-0.2,0.7-0.3,1.1-0.3c0.4,0,0.7,0.1,1,0.2c0.3,0.1,0.6,0.3,0.9,0.6l-0.1-1.2v-2.6h1.2v10h-1
						l-0.1-0.8h0c-0.3,0.3-0.6,0.5-0.9,0.7C286.3,231.5,285.9,231.6,285.5,231.6z M285.8,230.6c0.3,0,0.6-0.1,0.9-0.2
						c0.3-0.2,0.6-0.4,0.8-0.7v-3.6c-0.3-0.3-0.6-0.4-0.8-0.6c-0.3-0.1-0.5-0.2-0.8-0.2c-0.3,0-0.5,0.1-0.8,0.2s-0.4,0.3-0.6,0.5
						c-0.2,0.2-0.3,0.5-0.4,0.8s-0.2,0.7-0.2,1.1c0,0.8,0.2,1.5,0.5,1.9C284.7,230.4,285.2,230.6,285.8,230.6z"/>
					<path class="st2" d="M293.7,231.6c-0.5,0-0.9-0.1-1.3-0.2c-0.4-0.2-0.7-0.4-1-0.7c-0.3-0.3-0.5-0.7-0.7-1.1s-0.3-0.9-0.3-1.5
						c0-0.6,0.1-1.1,0.3-1.5s0.4-0.8,0.7-1.1c0.3-0.3,0.6-0.5,1-0.7c0.4-0.2,0.7-0.2,1.1-0.2c0.4,0,0.8,0.1,1.2,0.2s0.6,0.4,0.9,0.6
						c0.2,0.3,0.4,0.6,0.5,1c0.1,0.4,0.2,0.8,0.2,1.3c0,0.1,0,0.2,0,0.4c0,0.1,0,0.2,0,0.3h-4.6c0,0.7,0.3,1.3,0.7,1.7
						c0.4,0.4,0.9,0.6,1.6,0.6c0.3,0,0.6,0,0.9-0.1c0.3-0.1,0.5-0.2,0.8-0.4l0.4,0.8c-0.3,0.2-0.6,0.4-1,0.5
						C294.6,231.5,294.2,231.6,293.7,231.6z M291.6,227.5h3.6c0-0.7-0.1-1.2-0.4-1.6c-0.3-0.4-0.7-0.5-1.2-0.5c-0.2,0-0.5,0-0.7,0.1
						c-0.2,0.1-0.4,0.2-0.6,0.4c-0.2,0.2-0.3,0.4-0.4,0.7C291.7,226.9,291.6,227.2,291.6,227.5z"/>
					<path class="st2" d="M300.9,231.6c-0.3,0-0.6-0.1-1-0.2c-0.3-0.2-0.7-0.4-1-0.6h0l-0.1,0.7h-0.9v-10h1.1v2.7l0,1.2
						c0.3-0.3,0.6-0.5,1-0.7c0.4-0.2,0.7-0.3,1.1-0.3c0.4,0,0.8,0.1,1.2,0.2c0.3,0.2,0.6,0.4,0.8,0.7c0.2,0.3,0.4,0.7,0.5,1.1
						c0.1,0.4,0.2,0.9,0.2,1.4c0,0.6-0.1,1.1-0.2,1.6c-0.2,0.5-0.4,0.8-0.6,1.2c-0.3,0.3-0.6,0.6-0.9,0.7S301.3,231.6,300.9,231.6z
						 M300.7,230.6c0.3,0,0.5-0.1,0.8-0.2s0.4-0.3,0.6-0.5c0.2-0.2,0.3-0.5,0.4-0.8c0.1-0.3,0.1-0.7,0.1-1.1c0-0.4,0-0.7-0.1-1
						c-0.1-0.3-0.2-0.6-0.3-0.8c-0.1-0.2-0.3-0.4-0.6-0.5c-0.2-0.1-0.5-0.2-0.8-0.2c-0.6,0-1.2,0.3-1.8,0.9v3.6
						c0.3,0.3,0.6,0.4,0.9,0.6S300.5,230.6,300.7,230.6z"/>
					<path class="st2" d="M307.6,231.6c-0.4,0-0.7-0.1-0.9-0.2s-0.4-0.3-0.6-0.5c-0.2-0.2-0.3-0.4-0.3-0.7c-0.1-0.3-0.1-0.6-0.1-0.9
						v-3.8h-1v-0.9l1.1-0.1l0.1-1.9h1v1.9h1.8v0.9h-1.8v3.8c0,0.4,0.1,0.7,0.2,1c0.2,0.2,0.4,0.3,0.8,0.3c0.1,0,0.3,0,0.4-0.1
						s0.3-0.1,0.4-0.1l0.2,0.9c-0.2,0.1-0.4,0.1-0.6,0.2C308,231.6,307.8,231.6,307.6,231.6z"/>
				</g>
				<g class="st1">
					<path class="st2" d="M88.8,22h1.8l1.2,4.6c0.3,1,0.5,1.9,0.8,3h0.1c0.3-1,0.5-1.9,0.8-3l1.3-4.6h1.7l-2.9,9.2h-2L88.8,22z"/>
					<path class="st2" d="M97.3,22.1c0-0.6,0.4-0.9,1-0.9s1,0.4,1,0.9s-0.4,0.9-1,0.9S97.3,22.7,97.3,22.1z M97.4,24.3h1.7v6.9h-1.7
						V24.3z"/>
					<path class="st2" d="M100.4,30.3l0.7-0.9c0.6,0.5,1.2,0.7,1.9,0.7c0.7,0,1.1-0.3,1.1-0.8c0-0.6-0.7-0.8-1.4-1.1
						c-1-0.4-1.9-0.9-1.9-2c0-1.2,1-2.1,2.5-2.1c0.9,0,1.7,0.3,2.3,0.8l-0.7,0.9c-0.5-0.4-1-0.5-1.5-0.5c-0.7,0-1,0.3-1,0.7
						c0,0.5,0.5,0.7,1.4,1c1.1,0.4,2,0.9,2,2.1c0,1.2-1,2.1-2.7,2.1C102.1,31.3,101.1,31,100.4,30.3z"/>
					<path class="st2" d="M107.1,28.6v-4.3h1.7v4.1c0,1.1,0.3,1.5,1.1,1.5c0.6,0,1-0.3,1.5-0.9v-4.7h1.7v6.9h-1.4l-0.1-1h0
						c-0.6,0.7-1.3,1.2-2.2,1.2C107.7,31.3,107.1,30.3,107.1,28.6z"/>
					<path class="st2" d="M114.6,29.3c0-1.5,1.2-2.3,4-2.6c0-0.7-0.3-1.3-1.2-1.3c-0.7,0-1.3,0.3-1.9,0.6l-0.6-1.1
						c0.8-0.5,1.7-0.9,2.8-0.9c1.7,0,2.6,1.1,2.6,3v4.1H119l-0.1-0.8h-0.1c-0.6,0.5-1.3,0.9-2.1,0.9
						C115.5,31.3,114.6,30.5,114.6,29.3z M118.6,29.3v-1.5c-1.9,0.2-2.4,0.6-2.4,1.3c0,0.6,0.4,0.8,1,0.8
						C117.7,30,118.1,29.8,118.6,29.3z"/>
					<path class="st2" d="M122.2,29.3v-8.1h1.7v8.2c0,0.4,0.2,0.5,0.4,0.5c0.1,0,0.1,0,0.3,0l0.2,1.2c-0.2,0.1-0.5,0.2-0.9,0.2
						C122.6,31.3,122.2,30.6,122.2,29.3z"/>
					<path class="st2" d="M125.9,22.1c0-0.6,0.4-0.9,1-0.9s1,0.4,1,0.9s-0.4,0.9-1,0.9S125.9,22.7,125.9,22.1z M126,24.3h1.7v6.9
						H126V24.3z"/>
					<path class="st2" d="M129.2,30.3l3.2-4.7h-2.9v-1.3h4.9v0.9l-3.2,4.7h3.3v1.3h-5.4V30.3z"/>
					<path class="st2" d="M135.8,22.1c0-0.6,0.4-0.9,1-0.9s1,0.4,1,0.9s-0.4,0.9-1,0.9S135.8,22.7,135.8,22.1z M135.9,24.3h1.7v6.9
						h-1.7V24.3z"/>
					<path class="st2" d="M139.6,24.3h1.4l0.1,0.9h0c0.6-0.6,1.3-1.1,2.3-1.1c1.5,0,2.1,1,2.1,2.7v4.3h-1.7V27
						c0-1.1-0.3-1.5-1.1-1.5c-0.6,0-1,0.3-1.5,0.8v4.8h-1.7V24.3z"/>
					<path class="st2" d="M147,32.4c0-0.6,0.4-1.1,1-1.5v-0.1c-0.4-0.2-0.6-0.6-0.6-1.1c0-0.5,0.4-1,0.8-1.3v-0.1
						c-0.5-0.3-0.9-1-0.9-1.8c0-1.6,1.3-2.5,2.7-2.5c0.4,0,0.7,0.1,1,0.2h2.5v1.2h-1.2c0.2,0.3,0.4,0.7,0.4,1.1
						c0,1.5-1.2,2.3-2.6,2.3c-0.3,0-0.6-0.1-0.9-0.2c-0.2,0.2-0.3,0.3-0.3,0.6c0,0.4,0.3,0.6,1.1,0.6h1.2c1.6,0,2.5,0.5,2.5,1.7
						c0,1.4-1.4,2.4-3.7,2.4C148.2,34.2,147,33.6,147,32.4z M151.9,32c0-0.5-0.4-0.7-1.2-0.7h-0.9c-0.4,0-0.7,0-0.9-0.1
						c-0.4,0.3-0.5,0.6-0.5,0.9c0,0.6,0.7,1,1.7,1C151.2,33.1,151.9,32.6,151.9,32z M151.1,26.6c0-0.9-0.5-1.3-1.2-1.3
						s-1.2,0.5-1.2,1.3c0,0.9,0.5,1.4,1.2,1.4C150.6,27.9,151.1,27.4,151.1,26.6z"/>
					<path class="st2" d="M157.7,22h2.5c2.8,0,4.5,1.5,4.5,4.5c0,3.1-1.7,4.6-4.4,4.6h-2.5V22z M160,29.8c1.8,0,2.9-1,2.9-3.3
						c0-2.2-1.1-3.2-2.9-3.2h-0.7v6.5H160z"/>
					<path class="st2" d="M165.9,27.7c0-2.2,1.6-3.6,3.2-3.6c1.9,0,2.9,1.3,2.9,3.3c0,0.3,0,0.6-0.1,0.8h-4.3c0.2,1.1,0.9,1.8,2,1.8
						c0.6,0,1.1-0.2,1.6-0.5l0.6,1c-0.6,0.5-1.5,0.7-2.4,0.7C167.3,31.3,165.9,30,165.9,27.7z M170.4,27c0-1-0.5-1.6-1.4-1.6
						c-0.8,0-1.5,0.6-1.6,1.6H170.4z"/>
					<path class="st2" d="M173.6,25.6h-0.9v-1.2l0.9-0.1v-0.7c0-1.4,0.7-2.5,2.3-2.5c0.5,0,1,0.1,1.3,0.2l-0.3,1.2
						c-0.3-0.1-0.5-0.1-0.7-0.1c-0.6,0-0.9,0.4-0.9,1.1v0.7h1.3v1.3h-1.3v5.6h-1.7V25.6z"/>
					<path class="st2" d="M177.7,22.1c0-0.6,0.4-0.9,1-0.9c0.6,0,1,0.4,1,0.9s-0.4,0.9-1,0.9C178.1,23.1,177.7,22.7,177.7,22.1z
						 M177.8,24.3h1.7v6.9h-1.7V24.3z"/>
					<path class="st2" d="M181.1,27.7c0-2.3,1.6-3.6,3.5-3.6c0.9,0,1.5,0.3,2,0.8l-0.8,1c-0.3-0.3-0.7-0.4-1.1-0.4
						c-1.1,0-1.8,0.9-1.8,2.3c0,1.4,0.7,2.3,1.8,2.3c0.5,0,1-0.2,1.4-0.5l0.7,1.1c-0.7,0.6-1.5,0.8-2.3,0.8
						C182.5,31.3,181.1,30,181.1,27.7z"/>
					<path class="st2" d="M187.8,22.1c0-0.6,0.4-0.9,1-0.9c0.6,0,1,0.4,1,0.9s-0.4,0.9-1,0.9C188.2,23.1,187.8,22.7,187.8,22.1z
						 M188,24.3h1.7v6.9H188V24.3z"/>
					<path class="st2" d="M191.9,28.8v-3.2h-1v-1.2l1.1-0.1l0.2-2.1h1.4v2.1h1.8v1.3h-1.8v3.2c0,0.8,0.3,1.2,1,1.2
						c0.2,0,0.5,0,0.7-0.1l0.3,1.2c-0.4,0.2-0.9,0.3-1.4,0.3C192.5,31.3,191.9,30.3,191.9,28.8z"/>
					<path class="st2" d="M198.7,24.3h1.7l1.1,3.5c0.2,0.7,0.4,1.4,0.6,2.1h0.1c0.2-0.7,0.4-1.4,0.6-2.1l1.1-3.5h1.6l-2.3,6.9h-1.9
						L198.7,24.3z"/>
					<path class="st2" d="M205.8,30.3l0.7-0.9c0.6,0.5,1.2,0.7,1.9,0.7c0.7,0,1.1-0.3,1.1-0.8c0-0.6-0.7-0.8-1.4-1.1
						c-1-0.4-1.9-0.9-1.9-2c0-1.2,1-2.1,2.5-2.1c0.9,0,1.7,0.3,2.3,0.8l-0.7,0.9c-0.5-0.4-1-0.5-1.5-0.5c-0.7,0-1,0.3-1,0.7
						c0,0.5,0.5,0.7,1.4,1c1.1,0.4,2,0.9,2,2.1c0,1.2-1,2.1-2.7,2.1C207.5,31.3,206.5,31,205.8,30.3z"/>
					<path class="st2" d="M212.4,30.2c0-0.6,0.5-1.1,1.1-1.1c0.6,0,1.1,0.5,1.1,1.1c0,0.6-0.5,1.1-1.1,1.1
						C212.9,31.3,212.4,30.8,212.4,30.2z"/>
					<path class="st2" d="M219.4,22h2.5c2.8,0,4.5,1.5,4.5,4.5c0,3.1-1.7,4.6-4.4,4.6h-2.5V22z M221.7,29.8c1.8,0,2.9-1,2.9-3.3
						c0-2.2-1.1-3.2-2.9-3.2h-0.7v6.5H221.7z"/>
					<path class="st2" d="M227.6,27.7c0-2.2,1.6-3.6,3.2-3.6c1.9,0,2.9,1.3,2.9,3.3c0,0.3,0,0.6-0.1,0.8h-4.3c0.2,1.1,0.9,1.8,2,1.8
						c0.6,0,1.1-0.2,1.6-0.5l0.6,1c-0.6,0.5-1.5,0.7-2.4,0.7C229,31.3,227.6,30,227.6,27.7z M232.2,27c0-1-0.5-1.6-1.4-1.6
						c-0.8,0-1.5,0.6-1.6,1.6H232.2z"/>
					<path class="st2" d="M236.6,30.4L236.6,30.4l-0.2,0.7h-1.3v-9.9h1.7v2.5l-0.1,1.1c0.6-0.5,1.3-0.9,2-0.9c1.7,0,2.7,1.4,2.7,3.5
						c0,2.4-1.4,3.7-2.9,3.7C237.9,31.3,237.2,31,236.6,30.4z M239.7,27.6c0-1.4-0.4-2.2-1.5-2.2c-0.5,0-1,0.2-1.5,0.8v3.2
						c0.5,0.4,1,0.5,1.3,0.5C239,29.9,239.7,29.2,239.7,27.6z"/>
					<path class="st2" d="M243,28.8v-3.2h-1v-1.2l1.1-0.1l0.2-2.1h1.4v2.1h1.8v1.3h-1.8v3.2c0,0.8,0.3,1.2,1,1.2
						c0.2,0,0.5,0,0.7-0.1l0.3,1.2c-0.4,0.2-0.9,0.3-1.4,0.3C243.5,31.3,243,30.3,243,28.8z"/>
				</g>
				<g id="Plus" transform="translate(146.000000, 160.840000)">
					<line id="Line-4" class="st6" x1="4.2" y1="0" x2="4.2" y2="8"/>
					<line id="Line-5" class="st7" x1="0" y1="4.3" x2="8" y2="4.3"/>
				</g>
				<g id="Equal" transform="translate(233.000000, 162.840000)">
					<line id="Line-6" class="st7" x1="0" y1="0.3" x2="8" y2="0.3"/>
					<line id="Line-6-Copy" class="st7" x1="0" y1="4.3" x2="8" y2="4.3"/>
				</g>
			</g>
		</g>
	</g>
</g>
</svg>
