<?xml version="1.0" encoding="utf-8"?>
<!-- Generator: Adobe Illustrator 25.3.1, SVG Export Plug-In . SVG Version: 6.00 Build 0)  -->
<svg version="1.1" id="Layer_1" xmlns="http://www.w3.org/2000/svg" xmlns:xlink="http://www.w3.org/1999/xlink" x="0px" y="0px"
	 viewBox="0 0 340 337" style="enable-background:new 0 0 340 337;" xml:space="preserve">
<style type="text/css">
	.st0{fill-rule:evenodd;clip-rule:evenodd;fill:#F1F1F1;}
	.st1{fill:#666666;}
	.st2{font-family:'SourceSansPro-Regular';}
	.st3{font-size:12px;}
	.st4{fill:none;stroke:#979797;stroke-width:0.6844;stroke-linecap:round;stroke-linejoin:round;}
	.st5{fill:#B3532D;}
	.st6{fill-rule:evenodd;clip-rule:evenodd;fill:#4A0072;}
	.st7{font-size:14px;}
	.st8{font-family:'SourceSansPro-Semibold';}
	.st9{fill:none;stroke:#666666;stroke-width:2;stroke-linecap:round;}
	.st10{fill:none;stroke:#666666;stroke-width:2;stroke-linecap:round;stroke-linejoin:round;}
</style>
<g id="Deficit">
	<g id="Deficit---Mobile---360px---April-_x27_22" transform="translate(-10.000000, -4366.000000)">
		<g id="The-Difference-Between-the-National-Deficit-and-the-National-Debt-Copy" transform="translate(10.000000, 3822.160000)">
			<g id="Visualizing-Deficit-vs.-Debt" transform="translate(0.000000, 544.000000)">
				<rect id="Rectangle" y="0" class="st0" width="340" height="336"/>
				<text transform="matrix(1 0 0 1 44.072 152.84)" class="st1 st2 st3">$150</text>
				<text transform="matrix(1 0 0 1 75.054 173.84)" class="st1 st2 st3">$75</text>
				<text transform="matrix(1 0 0 1 100.072 152.84)" class="st1 st2 st3">$100</text>
				<text transform="matrix(1 0 0 1 183.072 154)" class="st1 st2 st3">$100</text>
				<text transform="matrix(1 0 0 1 267.072 78)" class="st1 st2 st3">$425</text>
				<g id="Group-2" transform="translate(36.000000, 160.840000)">
					<line id="Line-Copy-5" class="st4" x1="0" y1="41.7" x2="96" y2="41.7"/>
					<g id="Group" transform="translate(8.000000, 0.000000)">
						<rect id="Rectangle-Copy-12" y="0" class="st5" width="24" height="42"/>
						<rect id="Rectangle-Copy-13" x="56" y="0" class="st5" width="24" height="42"/>
						<rect id="Rectangle-Copy-14" x="28" y="21" class="st5" width="24" height="21"/>
					</g>
				</g>
				<g id="Group-3" transform="translate(170.000000, 162.000000)">
					<line id="Line-Copy-6" class="st4" x1="0" y1="41.5" x2="48" y2="41.5"/>
					<rect id="Rectangle-Copy-16" x="13" y="0" class="st5" width="24" height="42"/>
				</g>
				<g id="Group-4" transform="translate(255.000000, 86.000000)">
					<line id="Line-Copy-7" class="st4" x1="0" y1="117.5" x2="48" y2="117.5"/>
					<rect id="Rectangle-Copy-17" x="12" y="0" class="st6" width="24" height="118"/>
				</g>
				<text transform="matrix(1 0 0 1 50 232)" class="st1 st2 st7">Deficit from </text>
				<text transform="matrix(1 0 0 1 58.946 248)" class="st1 st2 st7">previous </text>
				<text transform="matrix(1 0 0 1 68.746 264)" class="st1 st2 st7">years</text>
				<text transform="matrix(1 0 0 1 18 312)" class="st1 st2 st7">*Please note this illustration uses fictional data.</text>
				<text transform="matrix(1 0 0 1 163.998 231.4479)" class="st1 st2 st7">This year’s </text>
				<text transform="matrix(1 0 0 1 175.241 247.4479)" class="st1 st2 st7">deficit</text>
				<text transform="matrix(1 0 0 1 250.272 231.4479)" class="st1 st2 st7">Total debt</text>
				<text transform="matrix(1 0 0 1 88.894 31.154)" class="st1 st8 st7">Visualizing Deficit vs. Debt</text>
				<g id="Plus" transform="translate(146.000000, 160.840000)">
					<line id="Line-4" class="st9" x1="4.2" y1="0" x2="4.2" y2="8"/>
					<line id="Line-5" class="st10" x1="0" y1="4.3" x2="8" y2="4.3"/>
				</g>
				<g id="Equal" transform="translate(233.000000, 162.840000)">
					<line id="Line-6" class="st10" x1="0" y1="0.3" x2="8" y2="0.3"/>
					<line id="Line-6-Copy" class="st10" x1="0" y1="4.3" x2="8" y2="4.3"/>
				</g>
			</g>
		</g>
	</g>
</g>
</svg>
