<?xml version="1.0" encoding="UTF-8"?>
<svg width="132px" height="37px" viewBox="0 0 132 37" version="1.1" xmlns="http://www.w3.org/2000/svg" xmlns:xlink="http://www.w3.org/1999/xlink">
    <title>Components / Navigation / DTG / Logo 1</title>
    <defs>
        <polygon id="path-1" points="0 0.217020497 131.762813 0.217020497 131.762813 36.7328512 0 36.7328512"></polygon>
    </defs>
    <g id="FINALS-Mobile-Responsive" stroke="none" stroke-width="1" fill="none" fill-rule="evenodd">
        <g id="FINAL---Mobile---Search" transform="translate(-13.000000, -6.000000)">
            <g id="Group">
                <g id="Components-/-Navigation-/-DTG-/-Logo-1" transform="translate(13.000000, 6.000000)">
                    <g id="Group-34">
                        <polygon id="Fill-1" fill="#122B4E" points="46.9053494 19.7151722 41.7572348 19.7151722 41.7572348 25.033441 39.0753005 25.033441 39.0753005 12.0189667 47.5492332 12.0189667 47.5492332 14.1912828 41.7572348 14.1912828 41.7572348 17.5521449 46.9053494 17.5521449"></polygon>
                        <g id="Group-33" transform="translate(0.000000, 0.205198)">
                            <mask id="mask-2" fill="white">
                                <use xlink:href="#path-1"></use>
                            </mask>
                            <g id="Clip-3"></g>
                            <path d="M49.9835361,24.8281582 L52.5759599,24.8281582 L52.5759599,15.1572351 L49.9835361,15.1572351 L49.9835361,24.8281582 Z M49.8319595,12.6543216 C49.8319595,12.2667247 49.9611585,11.9483717 50.2204008,11.6975737 C50.4796432,11.4476201 50.8326182,11.3222211 51.279748,11.3222211 C51.7205445,11.3222211 52.0722528,11.4476201 52.3344507,11.6975737 C52.5962264,11.9483717 52.7275365,12.2667247 52.7275365,12.6543216 C52.7275365,13.0474074 52.5949597,13.3695604 52.3298063,13.619514 C52.0646528,13.8698898 51.7146334,13.9948665 51.279748,13.9948665 C50.8448625,13.9948665 50.4944209,13.8698898 50.2296897,13.619514 C49.964114,13.3695604 49.8319595,13.0474074 49.8319595,12.6543216 L49.8319595,12.6543216 Z" id="Fill-2" fill="#122B4E" mask="url(#mask-2)"></path>
                            <path d="M60.8560941,22.1558506 C60.8560941,21.8400309 60.6998731,21.5913439 60.3870089,21.4093676 C60.0737225,21.2273913 59.5717043,21.0652592 58.880532,20.9225493 C56.5802836,20.4399531 55.4301594,19.4625164 55.4301594,17.9906615 C55.4301594,17.1322905 55.7865122,16.4157851 56.4983732,15.840723 C57.2106564,15.2656609 58.141649,14.9781298 59.291351,14.9781298 C60.5191634,14.9781298 61.5008223,15.267772 62.237172,15.8453674 C62.9730995,16.423385 63.3408521,17.1740902 63.3408521,18.097905 L60.7577171,18.097905 C60.7577171,17.7280413 60.6382291,17.4231993 60.4000977,17.1816901 C60.161544,16.9397587 59.7895692,16.8194263 59.2829066,16.8194263 C58.8475989,16.8194263 58.5110905,16.9178033 58.2729591,17.1145573 C58.0344054,17.3113113 57.9153397,17.5612649 57.9153397,17.8652624 C57.9153397,18.1515268 58.0508719,18.3824806 58.3219364,18.5581236 C58.5934232,18.7341889 59.050264,18.8861877 59.69457,19.01412 C60.3376093,19.1420523 60.8797383,19.2864512 61.3213793,19.4477388 C62.6855684,19.9480681 63.3674519,20.8148834 63.3674519,22.048607 C63.3674519,22.9302 62.9891438,23.6437499 62.2325276,24.1892566 C61.4754892,24.7347634 60.4984747,25.0066724 59.301062,25.0066724 C58.4899796,25.0066724 57.7705186,24.8626957 57.1418347,24.573898 C56.5131508,24.2846781 56.0204214,23.8886368 55.662802,23.3849297 C55.3051826,22.8812226 55.1265841,22.3374047 55.1265841,21.7538982 L57.5754535,21.7538982 C57.59952,22.2124279 57.7692519,22.5641362 58.0850717,22.8081787 C58.4008914,23.0526434 58.8239547,23.1746647 59.3542616,23.1746647 C59.8486799,23.1746647 60.2227658,23.0809321 60.4760971,22.8930447 C60.7294284,22.7055795 60.8560941,22.4594259 60.8560941,22.1558506" id="Fill-4" fill="#122B4E" mask="url(#mask-2)"></path>
                            <path d="M69.9679994,22.9244578 C70.4451068,22.9244578 70.8322815,22.7935699 71.1299458,22.5309498 C71.4284545,22.2691741 71.5829866,21.9204213 71.5952309,21.4855359 L74.0175006,21.4855359 C74.0115895,22.1412418 73.8321465,22.7407926 73.4812826,23.2862994 C73.1295743,23.8318061 72.648667,24.2548694 72.0372941,24.5559115 C71.4267656,24.8569535 70.7516376,25.0068412 70.0127546,25.0068412 C68.6304101,25.0068412 67.5398187,24.5681558 66.7414029,23.6886739 C65.942987,22.8096143 65.5435679,21.595735 65.5435679,20.046614 L65.5435679,19.8764598 C65.5435679,18.3868716 65.9400314,17.1979033 66.7325363,16.309977 C67.5254633,15.4220508 68.6126769,14.9782987 69.9950214,14.9782987 C71.2046785,14.9782987 72.1749374,15.3224071 72.9045316,16.0106239 C73.6345481,16.6988406 74.0056785,17.6146333 74.0175006,18.7592687 L71.5952309,18.7592687 C71.5829866,18.2559838 71.4284545,17.8472759 71.1299458,17.5323006 C70.8322815,17.2181698 70.4387735,17.0606822 69.9506885,17.0606822 C69.3481821,17.0606822 68.8942969,17.280236 68.5869215,17.7189214 C68.2803906,18.1571846 68.1271252,18.8694678 68.1271252,19.85366 L68.1271252,20.1226134 C68.1271252,21.1190499 68.279124,21.8351331 68.5826993,22.2712852 C68.8866969,22.7065929 69.3481821,22.9244578 69.9679994,22.9244578" id="Fill-5" fill="#122B4E" mask="url(#mask-2)"></path>
                            <path d="M79.8753229,23.031828 C80.2565865,23.031828 80.6082949,22.9469621 80.9304479,22.7768079 C81.2521786,22.6070759 81.4903101,22.3790777 81.6452644,22.0932355 L81.6452644,20.4305376 L80.6800721,20.4305376 C79.3868157,20.4305376 78.6985989,20.8776674 78.6154218,21.7715047 L78.606133,21.9235035 C78.606133,22.2452343 78.7192877,22.5103877 78.9460192,22.7189639 C79.1719063,22.9271178 79.4818149,23.031828 79.8753229,23.031828 L79.8753229,23.031828 Z M82.0117504,24.8283693 C81.8922624,24.5961489 81.8061298,24.306929 81.752508,23.9611318 C81.1272018,24.6586373 80.3131639,25.0069679 79.3120829,25.0069679 C78.3646238,25.0069679 77.5797189,24.7333701 76.9573683,24.1849078 C76.3341733,23.6364455 76.022998,22.9452732 76.022998,22.1113909 C76.022998,21.0862435 76.4025727,20.2996498 77.1625667,19.7511875 C77.9221384,19.2031474 79.0207519,18.9261718 80.4567183,18.9198385 L81.6452644,18.9198385 L81.6452644,18.3658874 C81.6452644,17.9187576 81.5304209,17.5611382 81.301156,17.2930292 C81.071469,17.0253425 80.7096274,16.8910769 80.2152091,16.8910769 C79.7799014,16.8910769 79.4387486,16.9953649 79.1917506,17.203941 C78.9443303,17.4125172 78.8210424,17.6987815 78.8210424,18.0618898 L76.2379074,18.0618898 C76.2379074,17.5020276 76.4101727,16.9835428 76.7559699,16.5068577 C77.101345,16.0301726 77.5902744,15.6560867 78.2219138,15.3845999 C78.853131,15.1139576 79.5624587,14.9780032 80.3490525,14.9780032 C81.5405541,14.9780032 82.4871688,15.2777786 83.1876299,15.8764849 C83.8872466,16.4756135 84.237266,17.3170957 84.237266,18.4013537 L84.237266,22.5939871 C84.2431771,23.5114687 84.3711094,24.2060187 84.6219074,24.6763705 L84.6219074,24.8283693 L82.0117504,24.8283693 Z" id="Fill-6" fill="#122B4E" mask="url(#mask-2)"></path>
                            <polygon id="Fill-7" fill="#122B4E" mask="url(#mask-2)" points="87.2705286 24.8281582 89.8633746 24.8281582 89.8633746 11.0984451 87.2705286 11.0984451"></polygon>
                            <path d="M95.75717,13.9860844 L95.75717,22.6745042 L97.0525375,22.6745042 C98.1021736,22.6745042 98.9031228,22.3316625 99.4574962,21.6464013 C100.011447,20.9611401 100.294756,19.9807479 100.306156,18.7056469 L100.306156,18.0174301 C100.306156,16.6941962 100.032136,15.6918486 99.4845182,15.0095429 C98.9360559,14.3272372 98.1346844,13.9860844 97.0799817,13.9860844 L95.75717,13.9860844 Z M93.0752358,24.8282427 L93.0752358,11.8137683 L97.0799817,11.8137683 C98.2241948,11.8137683 99.2476534,12.0717441 100.149935,12.5872733 C101.053061,13.1028025 101.757745,13.8353523 102.264407,14.7861891 C102.770225,15.7366038 103.023979,16.8166397 103.023979,18.0262967 L103.023979,18.6250031 C103.023979,19.8346601 102.77487,20.9100516 102.277496,21.8515997 C101.780122,22.7935699 101.078817,23.5231641 100.172735,24.0416489 C99.2670754,24.5601337 98.2448836,24.8227538 97.1065815,24.8282427 L93.0752358,24.8282427 Z" id="Fill-8" fill="#122B4E" mask="url(#mask-2)"></path>
                            <path d="M109.186137,23.031828 C109.5674,23.031828 109.919109,22.9469621 110.240839,22.7768079 C110.562992,22.6070759 110.801124,22.3790777 110.956078,22.0932355 L110.956078,20.4305376 L109.990886,20.4305376 C108.697629,20.4305376 108.009413,20.8776674 107.926236,21.7715047 L107.916524,21.9235035 C107.916524,22.2452343 108.030101,22.5103877 108.256833,22.7189639 C108.48272,22.9271178 108.792629,23.031828 109.186137,23.031828 L109.186137,23.031828 Z M111.322564,24.8283693 C111.203076,24.5961489 111.116943,24.306929 111.063322,23.9611318 C110.437593,24.6586373 109.623978,25.0069679 108.622897,25.0069679 C107.675438,25.0069679 106.890533,24.7333701 106.26776,24.1849078 C105.644987,23.6364455 105.333389,22.9452732 105.333389,22.1113909 C105.333389,21.0862435 105.713386,20.2996498 106.47338,19.7511875 C107.232952,19.2031474 108.331566,18.9261718 109.76711,18.9198385 L110.956078,18.9198385 L110.956078,18.3658874 C110.956078,17.9187576 110.841235,17.5611382 110.61197,17.2930292 C110.382283,17.0253425 110.020441,16.8910769 109.526023,16.8910769 C109.090715,16.8910769 108.749562,16.9953649 108.502564,17.203941 C108.255144,17.4125172 108.131434,17.6987815 108.131434,18.0618898 L105.548299,18.0618898 C105.548299,17.5020276 105.720986,16.9835428 106.066784,16.5068577 C106.412159,16.0301726 106.901088,15.6560867 107.532728,15.3845999 C108.163945,15.1139576 108.873272,14.9780032 109.659866,14.9780032 C110.851368,14.9780032 111.797983,15.2777786 112.498021,15.8764849 C113.19806,16.4756135 113.54808,17.3170957 113.54808,18.4013537 L113.54808,22.5939871 C113.553991,23.5114687 113.681923,24.2060187 113.932721,24.6763705 L113.932721,24.8283693 L111.322564,24.8283693 Z" id="Fill-9" fill="#122B4E" mask="url(#mask-2)"></path>
                            <path d="M119.540379,12.7794251 L119.540379,15.1573617 L121.193788,15.1573617 L121.193788,17.0518578 L119.540379,17.0518578 L119.540379,21.8786639 C119.540379,22.2362833 119.608356,22.4921479 119.745999,22.6475244 C119.882798,22.8024788 120.145418,22.8797448 120.532593,22.8797448 C120.818435,22.8797448 121.071767,22.8594783 121.292165,22.8168342 L121.292165,24.7750853 C120.785502,24.9291952 120.264484,25.0068835 119.728266,25.0068835 C117.916525,25.0068835 116.993132,24.0927796 116.957244,22.262883 L116.957244,17.0518578 L115.544499,17.0518578 L115.544499,15.1573617 L116.957244,15.1573617 L116.957244,12.7794251 L119.540379,12.7794251 Z" id="Fill-10" fill="#122B4E" mask="url(#mask-2)"></path>
                            <path d="M127.016228,23.031828 C127.397914,23.031828 127.749622,22.9469621 128.071353,22.7768079 C128.393084,22.6070759 128.631215,22.3790777 128.78617,22.0932355 L128.78617,20.4305376 L127.820977,20.4305376 C126.528143,20.4305376 125.839926,20.8776674 125.756749,21.7715047 L125.747038,21.9235035 C125.747038,22.2452343 125.860615,22.5103877 126.086924,22.7189639 C126.313234,22.9271178 126.62272,23.031828 127.016228,23.031828 L127.016228,23.031828 Z M129.153078,24.8283693 C129.03359,24.5961489 128.947035,24.306929 128.893836,23.9611318 C128.268107,24.6586373 127.454491,25.0069679 126.45341,25.0069679 C125.505951,25.0069679 124.720624,24.7333701 124.098274,24.1849078 C123.475079,23.6364455 123.163903,22.9452732 123.163903,22.1113909 C123.163903,21.0862435 123.5439,20.2996498 124.303472,19.7511875 C125.063466,19.2031474 126.161657,18.9261718 127.597624,18.9198385 L128.78617,18.9198385 L128.78617,18.3658874 C128.78617,17.9187576 128.671748,17.5611382 128.442061,17.2930292 C128.212796,17.0253425 127.850955,16.8910769 127.356537,16.8910769 C126.921229,16.8910769 126.580076,16.9953649 126.332656,17.203941 C126.085658,17.4125172 125.961948,17.6987815 125.961948,18.0618898 L123.378813,18.0618898 C123.378813,17.5020276 123.5515,16.9835428 123.896875,16.5068577 C124.242672,16.0301726 124.731602,15.6560867 125.363241,15.3845999 C125.994459,15.1139576 126.703364,14.9780032 127.489958,14.9780032 C128.681882,14.9780032 129.628074,15.2777786 130.328535,15.8764849 C131.028152,16.4756135 131.378594,17.3170957 131.378594,18.4013537 L131.378594,22.5939871 C131.384505,23.5114687 131.512015,24.2060187 131.762813,24.6763705 L131.762813,24.8283693 L129.153078,24.8283693 Z" id="Fill-11" fill="#122B4E" mask="url(#mask-2)"></path>
                            <polygon id="Fill-12" fill="#EF3E32" mask="url(#mask-2)" points="7.65322361 26.6248262 10.0045605 25.3708361 9.77107345 25.2365705 8.44437733e-05 19.6176819 8.44437733e-05 22.2244611 7.40580336 26.4833828"></polygon>
                            <path d="M3.63306668,19.7728473 C4.02868576,19.7728473 4.41374936,19.5642712 4.62021439,19.193563 C4.92463419,18.6484784 4.72956907,17.9602617 4.18490674,17.6558419 L0.000295553206,15.3137938 L0.000295553206,17.9024177 L3.0829155,19.6292929 C3.25729189,19.7268254 3.44644594,19.7728473 3.63306668,19.7728473" id="Fill-13" fill="#EF3E32" mask="url(#mask-2)"></path>
                            <path d="M13.9048495,21.3928589 C14.0821814,21.4950358 14.2759799,21.543591 14.467245,21.543591 C14.8582197,21.543591 15.2390611,21.3400815 15.4476372,20.9765511 C15.6241247,20.6695979 15.6359468,20.3162007 15.5181478,20.0096698 C15.4282152,19.7757606 15.2656609,19.5684511 15.0313294,19.4337633 L14.0125153,18.8654567 L9.77090456,16.4026541 L-8.44437733e-05,10.7841876 L-8.44437733e-05,13.3905447 L7.40563447,17.6494664 L13.9048495,21.3928589 Z" id="Fill-14" fill="#EF3E32" mask="url(#mask-2)"></path>
                            <path d="M3.63306668,28.4534983 C4.02868576,28.4534983 4.41374936,28.2445 4.62021439,27.874214 C4.92463419,27.3291294 4.72956907,26.6409127 4.18490674,26.3364929 L0.000295553206,23.9944448 L0.000295553206,26.5830687 L3.0829155,28.3099439 C3.25729189,28.4074764 3.44644594,28.4534983 3.63306668,28.4534983" id="Fill-15" fill="#EF3E32" mask="url(#mask-2)"></path>
                            <polygon id="Fill-16" fill="#EF3E32" mask="url(#mask-2)" points="0.0237709222 30.6985627 0.0132154505 30.7044737 0.521989184 30.9894715"></polygon>
                            <polygon id="Fill-17" fill="#EF3E32" mask="url(#mask-2)" points="0.0227575969 30.6979716 0.019379846 30.6962827 2.38042775 29.4368038 -4.22218866e-05 28.1047033 -4.22218866e-05 30.6933272 0.0155798762 30.7017715"></polygon>
                            <path d="M15.0220406,28.2654842 L14.0032265,27.6971776 L9.99890275,25.3707517 L7.64756588,26.6247417 L13.8955607,30.2245798 C14.0728926,30.3267567 14.266691,30.3753119 14.4579562,30.3753119 C14.8489309,30.3753119 15.2293501,30.1718024 15.4383484,29.808272 C15.6148359,29.5013188 15.6262358,29.1479217 15.508859,28.8413908 C15.4189263,28.6074815 15.2563721,28.400172 15.0220406,28.2654842" id="Fill-18" fill="#F2655B" mask="url(#mask-2)"></path>
                            <polygon id="Fill-19" fill="#F2655B" mask="url(#mask-2)" points="10.0011827 25.3682606 9.99780498 25.3661495 7.64646811 26.6201395 7.64984586 26.6222506"></polygon>
                            <polygon id="Fill-20" fill="#F2655B" mask="url(#mask-2)" points="0.0159598731 30.6932427 2.37700777 29.4341861 2.37363002 29.432075 0.0125821222 30.6911316"></polygon>
                            <path d="M3.07354224,32.4179646 C3.24791863,32.5150749 3.43707268,32.561519 3.62369342,32.561519 C4.01973472,32.561519 4.4043761,32.3525206 4.61126335,31.9818125 C4.91526093,31.4371501 4.72019582,30.7485112 4.17553348,30.4445136 L2.37477001,29.4366771 L0.0170998641,30.6940449 L0.516584783,30.9853759 L3.07354224,32.4179646 Z" id="Fill-21" fill="#F2655B" mask="url(#mask-2)"></path>
                            <path d="M27.4486596,28.7532315 C27.4461263,28.9601187 27.4993259,29.1547616 27.5943251,29.3228047 C27.7855903,29.6614242 28.1474318,29.892378 28.5645841,29.8970224 C29.1886236,29.9054667 29.700775,29.4055596 29.7087972,28.7815201 L29.7117527,28.2250357 L27.4482374,26.8359356 L27.4486596,28.7532315 Z" id="Fill-22" fill="#0092D3" mask="url(#mask-2)"></path>
                            <path d="M17.1203417,21.7756847 L17.1182306,21.7752625 L17.1194973,32.5067994 C17.116964,32.7136867 17.1701635,32.9083295 17.2647406,33.0763727 C17.4564279,33.4149922 17.8182695,33.6459459 18.2354217,33.6506957 C18.8594612,33.6590347 19.3716127,33.1591276 19.3792126,32.5350881 L19.3889237,23.1694292 L19.3897681,23.1698514 L19.3910348,21.8917949 L17.1220306,20.4997393 L17.1178084,20.5018504 L17.1182306,21.774418 L17.1203417,21.7756847 Z" id="Fill-23" fill="#0092D3" mask="url(#mask-2)"></path>
                            <path d="M24.0055492,32.4622975 C24.0030159,32.6691848 24.0562155,32.8638277 24.1512147,33.0314486 C24.3424799,33.3704903 24.7043214,33.6010218 25.1214737,33.6060884 C25.7455131,33.6141106 26.2576646,33.1146257 26.2656868,32.4905862 L26.2703312,27.39736 L26.2707534,27.39736 L26.2720201,26.1138147 L24.0047048,24.7230257 L24.005127,26.0053044 L24.0093492,26.0082599 L24.005127,26.0061489 L24.0055492,32.4622975 Z" id="Fill-24" fill="#0092D3" mask="url(#mask-2)"></path>
                            <path d="M20.5626499,35.5889549 C20.5601166,35.7958422 20.6133162,35.9904851 20.7078932,36.1585282 C20.8995806,36.4971477 21.2609999,36.7281014 21.6785744,36.7328512 C22.3026138,36.7411902 22.8143431,36.2412831 22.8223653,35.6172436 L22.8299652,25.2834368 L22.8308096,25.283859 L22.8316541,24.0032692 L20.5613832,22.609947 L20.5613832,23.8901146 L20.5634943,23.890959 L20.5613832,23.890959 L20.5626499,35.5889549 Z" id="Fill-25" fill="#0092D3" mask="url(#mask-2)"></path>
                            <polygon id="Fill-26" fill="#0071BC" mask="url(#mask-2)" points="29.7116683 28.2252468 29.7230682 13.396498 27.4473085 14.6821544 27.4481529 26.8361467"></polygon>
                            <path d="M31.0373089,23.2841883 C31.228574,23.62323 31.5904156,23.8537615 32.0075678,23.8589234 C32.6316073,23.8668503 33.1437588,23.3673654 33.1517809,22.7433259 L33.1661364,11.4561489 L30.8903767,12.7422276 L30.8916434,22.7150372 C30.88911,22.9219245 30.9423096,23.1165674 31.0373089,23.2841883" id="Fill-27" fill="#0071BC" mask="url(#mask-2)"></path>
                            <polygon id="Fill-28" fill="#0071BC" mask="url(#mask-2)" points="26.2718512 26.1143635 26.2802956 15.3363825 24.0041137 16.6224612 24.0045359 24.7235746"></polygon>
                            <polygon id="Fill-29" fill="#0071BC" mask="url(#mask-2)" points="22.8316541 24.0036914 22.8371429 17.2764782 20.560961 18.5621347 20.5613832 22.6103692"></polygon>
                            <polygon id="Fill-30" fill="#0071BC" mask="url(#mask-2)" points="19.3910348 21.892386 19.3939903 19.216785 17.1220306 20.5003304"></polygon>
                            <path d="M23.2742661,10.8237917 L21.5220578,11.7450733 L21.8568774,9.79399993 L20.4390664,8.41207758 L22.398162,8.12750207 L23.2742661,6.35207173 L24.1503703,8.12750207 L26.1094658,8.41207758 L24.6916549,9.79399993 L25.0264744,11.7450733 L23.2742661,10.8237917 Z M16.9097389,0.216809388 L16.9097389,0.217231607 L16.9097389,2.72436723 L16.9211388,2.70156742 L17.797243,4.47699775 L19.7559163,4.76157326 L18.3385276,6.14349561 L18.6733471,8.094569 L16.9211388,7.17328743 L16.9097389,7.17919849 L16.9097389,10.2774405 L16.9211388,10.2546407 L17.797243,12.0296488 L19.7559163,12.3146466 L18.3385276,13.6961467 L18.6733471,15.6472201 L16.9211388,14.7263607 L16.9097389,14.7322718 L16.9097389,19.3108132 L16.9101611,19.3112354 L33.1360322,10.185819 L16.9097389,0.216809388 Z" id="Fill-31" fill="#0092D3" mask="url(#mask-2)"></path>
                            <path d="M12.3198821,11.7647065 L10.5676738,10.8434249 L8.81546549,11.7647065 L9.14986283,9.81363311 L7.7324741,8.43171076 L9.69156964,8.14713524 L10.5676738,6.37212713 L11.4437779,8.14713524 L13.4028735,8.43171076 L11.9854847,9.81363311 L12.3198821,11.7647065 Z M15.169015,15.6474312 L15.5034123,13.6963578 L14.0860236,12.3144355 L16.0446969,12.0298599 L16.9098234,10.2776516 L16.9098234,7.17898738 L15.169015,8.09435789 L15.5034123,6.14328451 L14.0860236,4.76136216 L16.0446969,4.47678664 L16.9098234,2.72415613 L16.9098234,0.217020497 L16.8790014,0.233064814 L0.019379846,9.22463779 L16.9098234,19.3110243 L16.9098234,14.7320607 L15.169015,15.6474312 Z" id="Fill-32" fill="#0071BC" mask="url(#mask-2)"></path>
                            <path d="M94.9385918,31.4757951 C95.0537282,31.4757951 95.1410905,31.444486 95.2006787,31.381868 C95.2602668,31.3192499 95.2900609,31.2414823 95.2900609,31.1485652 C95.2900609,31.0516082 95.2602668,30.9708107 95.2006787,30.9061728 C95.1410905,30.8415348 95.0537282,30.8092158 94.9385918,30.8092158 C94.8234554,30.8092158 94.7371031,30.8415348 94.6795348,30.9061728 C94.6219666,30.9708107 94.5931825,31.0516082 94.5931825,31.1485652 C94.5931825,31.2414823 94.6219666,31.3192499 94.6795348,31.381868 C94.7371031,31.444486 94.8234554,31.4757951 94.9385918,31.4757951 Z M97.9321389,31.4424661 L97.9321389,27.5096482 L99.3501348,27.5096482 L99.3501348,27.0309231 L95.9384608,27.0309231 L95.9384608,27.5096482 L97.3534268,27.5096482 L97.3534268,31.4424661 L97.9321389,31.4424661 Z M100.020423,31.4424661 L100.020423,29.1154983 C100.151719,28.8024081 100.401181,28.6458629 100.76881,28.6458629 C100.867786,28.6458629 100.959694,28.6529327 101.044531,28.6670723 L101.044531,28.6670723 L101.044531,28.1459284 C100.987973,28.1176493 100.905155,28.1035098 100.796079,28.1035098 C100.458749,28.1035098 100.198177,28.2499552 100.014363,28.5428461 L100.014363,28.5428461 L100.005273,28.1641079 L99.4598902,28.1641079 L99.4598902,31.4424661 L100.020423,31.4424661 Z M102.807248,31.5030642 C103.356671,31.5030642 103.768738,31.2919808 104.043449,30.8698139 L104.043449,30.8698139 L103.70107,30.6031822 C103.598053,30.736498 103.477867,30.8435547 103.340511,30.9243522 C103.203156,31.0051497 103.035501,31.0455484 102.837547,31.0455484 C102.558796,31.0455484 102.329028,30.9460665 102.148243,30.7471027 C101.967459,30.5481389 101.873027,30.287062 101.864947,29.963872 L101.864947,29.963872 L104.085868,29.963872 L104.085868,29.7305692 C104.085868,29.2074055 103.967702,28.805438 103.731369,28.5246667 C103.495036,28.2438954 103.163767,28.1035098 102.73756,28.1035098 C102.476988,28.1035098 102.235101,28.1757225 102.011898,28.320148 C101.788694,28.4645735 101.61498,28.6645473 101.490754,28.9200694 C101.366528,29.1755915 101.304414,29.4659575 101.304414,29.7911674 L101.304414,29.7911674 L101.304414,29.8941842 C101.304414,30.383009 101.44379,30.7733619 101.722541,31.0652428 C102.001293,31.3571238 102.362862,31.5030642 102.807248,31.5030642 Z M103.525336,29.5033263 L101.883127,29.5033263 C101.919485,29.2063955 102.014422,28.9756177 102.167938,28.8109928 C102.321453,28.6463679 102.511327,28.5640555 102.73756,28.5640555 C102.971873,28.5640555 103.157707,28.642328 103.295063,28.7988732 C103.432418,28.9554183 103.509176,29.1760965 103.525336,29.4609076 L103.525336,29.4609076 L103.525336,29.5033263 Z M105.746257,31.5030642 C106.107825,31.5030642 106.418896,31.3677284 106.679468,31.0970568 C106.699667,31.2626917 106.725926,31.3778281 106.758245,31.4424661 L106.758245,31.4424661 L107.346047,31.4424661 L107.346047,31.3939876 C107.269289,31.2162331 107.23091,30.9768706 107.23091,30.6758999 L107.23091,30.6758999 L107.23091,29.1670067 C107.222831,28.835737 107.111734,28.5756701 106.897621,28.386806 C106.683507,28.1979418 106.387587,28.1035098 106.009858,28.1035098 C105.771506,28.1035098 105.552848,28.1479484 105.353884,28.2368256 C105.15492,28.3257029 104.997365,28.4463941 104.881218,28.5988994 C104.765072,28.7514046 104.706999,28.9094647 104.706999,29.0730797 L104.706999,29.0730797 L105.270561,29.0730797 C105.270561,28.9296641 105.338229,28.8074579 105.473565,28.706461 C105.608901,28.6054642 105.776556,28.5549657 105.976529,28.5549657 C106.204782,28.5549657 106.377487,28.6130389 106.494643,28.7291853 C106.6118,28.8453317 106.670378,29.0013719 106.670378,29.1973058 L106.670378,29.1973058 L106.670378,29.4548478 L106.124995,29.4548478 C105.654349,29.4548478 105.289246,29.5492799 105.029684,29.738144 C104.770122,29.9270081 104.640341,30.1921249 104.640341,30.5334943 C104.640341,30.8142656 104.743863,31.0460534 104.950906,31.2288577 C105.15795,31.4116621 105.423067,31.5030642 105.746257,31.5030642 Z M105.828064,31.0152494 C105.64425,31.0152494 105.493764,30.9657609 105.376608,30.866784 C105.259452,30.767807 105.200874,30.6304513 105.200874,30.4547168 C105.200874,30.0527492 105.544263,29.8517655 106.231042,29.8517655 L106.231042,29.8517655 L106.670378,29.8517655 L106.670378,30.5244046 C106.59968,30.6698401 106.485554,30.7880064 106.327999,30.8789036 C106.170443,30.9698008 106.003799,31.0152494 105.828064,31.0152494 Z M109.315486,31.5030642 C109.689174,31.5030642 109.993175,31.414692 110.227487,31.2379475 C110.4618,31.0612029 110.578957,30.8263852 110.578957,30.5334943 C110.578957,30.3577598 110.537043,30.2087894 110.453215,30.0865832 C110.369388,29.964377 110.240617,29.8598452 110.066902,29.7729879 C109.893188,29.6861306 109.66645,29.6113929 109.386689,29.5487749 C109.106927,29.4861568 108.913518,29.4205089 108.806462,29.351831 C108.699405,29.2831531 108.645877,29.1811463 108.645877,29.0458105 C108.645877,28.902395 108.703445,28.7862486 108.818581,28.6973713 C108.933718,28.6084941 109.093293,28.5640555 109.297306,28.5640555 C109.49526,28.5640555 109.65938,28.6196037 109.789666,28.7307003 C109.919952,28.8417968 109.985095,28.9741027 109.985095,29.127618 L109.985095,29.127618 L110.548658,29.127618 C110.548658,28.8286672 110.433016,28.5832449 110.201733,28.3913508 C109.97045,28.1994568 109.668975,28.1035098 109.297306,28.1035098 C108.943817,28.1035098 108.653451,28.1964269 108.426208,28.3822611 C108.198965,28.5680953 108.085344,28.7953383 108.085344,29.0639899 C108.085344,29.2255849 108.125238,29.3649606 108.205025,29.482117 C108.284813,29.5992733 108.408029,29.7002702 108.574674,29.7851076 C108.741319,29.8699449 108.966542,29.9426627 109.250343,30.0032608 C109.534144,30.0638589 109.733108,30.1360717 109.847234,30.2198991 C109.961361,30.3037265 110.018424,30.4213878 110.018424,30.5728831 C110.018424,30.7162986 109.954291,30.8309301 109.826025,30.9167774 C109.697759,31.0026248 109.527579,31.0455484 109.315486,31.0455484 C109.085213,31.0455484 108.899884,30.9905051 108.759498,30.8804186 C108.619112,30.770332 108.54387,30.6213616 108.53377,30.4335074 L108.53377,30.4335074 L107.973237,30.4335074 C107.973237,30.6274214 108.030301,30.8077008 108.144427,30.9743456 C108.258554,31.1409905 108.416614,31.2707714 108.618607,31.3636885 C108.820601,31.4566057 109.052894,31.5030642 109.315486,31.5030642 Z M112.372661,31.5030642 C112.794828,31.5030642 113.114988,31.3747982 113.333141,31.1182662 L113.333141,31.1182662 L113.345261,31.4424661 L113.878524,31.4424661 L113.878524,28.1641079 L113.317992,28.1641079 L113.317992,30.5486439 C113.176596,30.8677939 112.891785,31.027369 112.463558,31.027369 C112.059571,31.027369 111.857577,30.7789167 111.857577,30.2820121 L111.857577,30.2820121 L111.857577,28.1641079 L111.297044,28.1641079 L111.297044,30.2971617 C111.299064,30.6950893 111.391476,30.995555 111.574281,31.1985587 C111.757085,31.4015624 112.023212,31.5030642 112.372661,31.5030642 Z M115.29046,31.4424661 L115.29046,29.1154983 C115.421756,28.8024081 115.671218,28.6458629 116.038847,28.6458629 C116.137824,28.6458629 116.229731,28.6529327 116.314569,28.6670723 L116.314569,28.6670723 L116.314569,28.1459284 C116.25801,28.1176493 116.175193,28.1035098 116.066116,28.1035098 C115.728787,28.1035098 115.468215,28.2499552 115.2844,28.5428461 L115.2844,28.5428461 L115.275311,28.1641079 L114.729928,28.1641079 L114.729928,31.4424661 L115.29046,31.4424661 Z M117.086715,32.766535 C117.531101,32.766535 117.855301,32.4938435 118.059314,31.9484604 L118.059314,31.9484604 L119.377323,28.1641079 L118.777402,28.1641079 L118.013866,30.6213616 L117.195791,28.1641079 L116.58375,28.1641079 L117.753294,31.4061072 L117.629068,31.7393969 C117.56039,31.9434106 117.473028,32.0837962 117.366981,32.1605538 C117.260934,32.2373114 117.112974,32.2756902 116.9231,32.2756902 L116.9231,32.2756902 L116.771604,32.2635706 L116.771604,32.7180565 L116.980668,32.7574453 L117.086715,32.766535 Z M119.586673,31.4757951 C119.701809,31.4757951 119.789172,31.444486 119.84876,31.381868 C119.908348,31.3192499 119.938142,31.2414823 119.938142,31.1485652 C119.938142,31.0516082 119.908348,30.9708107 119.84876,30.9061728 C119.789172,30.8415348 119.701809,30.8092158 119.586673,30.8092158 C119.471537,30.8092158 119.385184,30.8415348 119.327616,30.9061728 C119.270048,30.9708107 119.241264,31.0516082 119.241264,31.1485652 C119.241264,31.2414823 119.270048,31.3192499 119.327616,31.381868 C119.385184,31.444486 119.471537,31.4757951 119.586673,31.4757951 Z M122.107555,32.733206 C122.531742,32.733206 122.869576,32.6109998 123.121058,32.3665874 C123.37254,32.122175 123.498282,31.7878754 123.498282,31.3636885 L123.498282,31.3636885 L123.498282,28.1641079 L122.986227,28.1641079 L122.958958,28.5276966 C122.734745,28.2449054 122.422665,28.1035098 122.022717,28.1035098 C121.632869,28.1035098 121.319779,28.2545001 121.083447,28.5564807 C120.847114,28.8584613 120.728948,29.2649737 120.728948,29.7760178 C120.728948,30.3092813 120.847619,30.7304382 121.084961,31.0394886 C121.322304,31.348539 121.632869,31.5030642 122.016658,31.5030642 C122.404486,31.5030642 122.710506,31.3737882 122.934719,31.1152363 L122.934719,31.1152363 L122.934719,31.3970175 C122.934719,31.6757689 122.858466,31.8919022 122.705961,32.0454174 C122.553456,32.1989326 122.340858,32.2756902 122.068166,32.2756902 C121.720737,32.2756902 121.426836,32.1272248 121.186463,31.8302941 L121.186463,31.8302941 L120.895592,32.1666136 C121.014769,32.3423482 121.187473,32.4807139 121.413706,32.5817107 C121.639939,32.6827076 121.871222,32.733206 122.107555,32.733206 Z M122.156033,31.027369 C121.883342,31.027369 121.671248,30.9218273 121.519753,30.7107438 C121.368258,30.4996604 121.29251,30.2092944 121.29251,29.8396459 C121.29251,29.4235388 121.369268,29.1094385 121.522783,28.8973451 C121.676298,28.6852517 121.889402,28.579205 122.162093,28.579205 C122.505482,28.579205 122.763024,28.7357501 122.934719,29.0488404 L122.934719,29.0488404 L122.934719,30.5456139 C122.769084,30.866784 122.509522,31.027369 122.156033,31.027369 Z M125.688904,31.5030642 C125.983814,31.5030642 126.244891,31.4323664 126.472134,31.2909708 C126.699377,31.1495752 126.874102,30.9521263 126.996308,30.6986242 C127.118514,30.4451221 127.179617,30.158796 127.179617,29.8396459 L127.179617,29.8396459 L127.179617,29.8002571 C127.179617,29.287193 127.041757,28.8761358 126.766035,28.5670854 C126.490314,28.258035 126.12925,28.1035098 125.682844,28.1035098 C125.393993,28.1035098 125.136956,28.1731976 124.911733,28.3125733 C124.68651,28.4519489 124.510775,28.6499028 124.384529,28.9064348 C124.258283,29.1629669 124.19516,29.4518179 124.19516,29.7729879 L124.19516,29.7729879 L124.19516,29.8123767 C124.19516,30.3214009 124.333021,30.7304382 124.608742,31.0394886 C124.884464,31.348539 125.244517,31.5030642 125.688904,31.5030642 Z M125.688904,31.0455484 C125.406112,31.0455484 125.180384,30.9354618 125.01172,30.7152887 C124.843055,30.4951155 124.758722,30.2032346 124.758722,29.8396459 C124.758722,29.4295986 124.84356,29.1144884 125.013235,28.8943152 C125.182909,28.674142 125.406112,28.5640555 125.682844,28.5640555 C125.965635,28.5640555 126.192373,28.675657 126.363058,28.8988601 C126.533742,29.1220631 126.619085,29.4134391 126.619085,29.7729879 C126.619085,30.1749555 126.535257,30.4875407 126.367602,30.7107438 C126.199948,30.9339469 125.973715,31.0455484 125.688904,31.0455484 Z M129.08441,31.4424661 L130.260014,28.1641079 L129.687361,28.1641079 L128.875347,30.6819597 L128.042122,28.1641079 L127.46947,28.1641079 L128.657193,31.4424661 L129.08441,31.4424661 Z" id=".Treasury.gov" fill="#122B4E" fill-rule="nonzero" mask="url(#mask-2)"></path>
                        </g>
                    </g>
                </g>
            </g>
        </g>
    </g>
</svg>