<svg width="32" height="32" viewBox="0 0 32 32" fill="none" xmlns="http://www.w3.org/2000/svg">
<rect width="32" height="32" rx="3" fill="#F1F1F1"/>
<path d="M8.448 20.5V14.164H6.3V12.676H12.372V14.164H10.224V20.5H8.448ZM12.5656 20.5L14.7376 16.48L12.6976 12.676H14.6656L15.3496 14.152C15.4376 14.328 15.5256 14.52 15.6136 14.728C15.7096 14.936 15.8096 15.164 15.9136 15.412H15.9616C16.0496 15.164 16.1336 14.936 16.2136 14.728C16.3016 14.52 16.3856 14.328 16.4656 14.152L17.0896 12.676H18.9736L16.9456 16.564L19.1056 20.5H17.1376L16.3576 18.904C16.2616 18.696 16.1656 18.492 16.0696 18.292C15.9816 18.084 15.8816 17.86 15.7696 17.62H15.7216C15.6336 17.86 15.5456 18.084 15.4576 18.292C15.3696 18.492 15.2816 18.696 15.1936 18.904L14.4616 20.5H12.5656ZM21.4558 20.5V14.164H19.3078V12.676H25.3798V14.164H23.2318V20.5H21.4558Z" fill="#555555"/>
</svg>
