<svg width="32" height="32" viewBox="0 0 32 32" fill="none" xmlns="http://www.w3.org/2000/svg">
<rect width="32" height="32" rx="3" fill="#DBEBDE"/>
<path d="M6.132 20.5L8.304 16.48L6.264 12.676H8.232L8.916 14.152C9.004 14.328 9.092 14.52 9.18 14.728C9.276 14.936 9.376 15.164 9.48 15.412H9.528C9.616 15.164 9.7 14.936 9.78 14.728C9.868 14.52 9.952 14.328 10.032 14.152L10.656 12.676H12.54L10.512 16.564L12.672 20.5H10.704L9.924 18.904C9.828 18.696 9.732 18.492 9.636 18.292C9.548 18.084 9.448 17.86 9.336 17.62H9.288C9.2 17.86 9.112 18.084 9.024 18.292C8.936 18.492 8.848 18.696 8.76 18.904L8.028 20.5H6.132ZM13.7326 20.5V12.676H15.4966V19.012H18.5926V20.5H13.7326ZM21.9917 20.644C21.4797 20.644 20.9677 20.548 20.4557 20.356C19.9517 20.164 19.4997 19.884 19.0997 19.516L20.1077 18.304C20.3877 18.544 20.6997 18.74 21.0437 18.892C21.3877 19.044 21.7197 19.12 22.0397 19.12C22.4077 19.12 22.6797 19.052 22.8557 18.916C23.0397 18.78 23.1317 18.596 23.1317 18.364C23.1317 18.116 23.0277 17.936 22.8197 17.824C22.6197 17.704 22.3477 17.572 22.0037 17.428L20.9837 16.996C20.7197 16.884 20.4677 16.736 20.2277 16.552C19.9877 16.36 19.7917 16.124 19.6397 15.844C19.4877 15.564 19.4117 15.236 19.4117 14.86C19.4117 14.428 19.5277 14.036 19.7597 13.684C19.9997 13.332 20.3277 13.052 20.7437 12.844C21.1677 12.636 21.6517 12.532 22.1957 12.532C22.6437 12.532 23.0917 12.62 23.5397 12.796C23.9877 12.972 24.3797 13.228 24.7157 13.564L23.8157 14.68C23.5597 14.48 23.3037 14.328 23.0477 14.224C22.7917 14.112 22.5077 14.056 22.1957 14.056C21.8917 14.056 21.6477 14.12 21.4637 14.248C21.2877 14.368 21.1997 14.54 21.1997 14.764C21.1997 15.004 21.3117 15.184 21.5357 15.304C21.7677 15.424 22.0517 15.552 22.3877 15.688L23.3957 16.096C23.8677 16.288 24.2437 16.552 24.5237 16.888C24.8037 17.224 24.9437 17.668 24.9437 18.22C24.9437 18.652 24.8277 19.052 24.5957 19.42C24.3637 19.788 24.0277 20.084 23.5877 20.308C23.1477 20.532 22.6157 20.644 21.9917 20.644Z" fill="#217346"/>
</svg>
