<svg width="32" height="32" viewBox="0 0 32 32" fill="none" xmlns="http://www.w3.org/2000/svg">
<rect width="32" height="32" rx="3" fill="#E5E4FA"/>
<path d="M4.632 20.5L6.804 16.48L4.764 12.676H6.732L7.416 14.152C7.504 14.328 7.592 14.52 7.68 14.728C7.776 14.936 7.876 15.164 7.98 15.412H8.028C8.116 15.164 8.2 14.936 8.28 14.728C8.368 14.52 8.452 14.328 8.532 14.152L9.156 12.676H11.04L9.012 16.564L11.172 20.5H9.204L8.424 18.904C8.328 18.696 8.232 18.492 8.136 18.292C8.048 18.084 7.948 17.86 7.836 17.62H7.788C7.7 17.86 7.612 18.084 7.524 18.292C7.436 18.492 7.348 18.696 7.26 18.904L6.528 20.5H4.632ZM12.2326 20.5V12.676H14.1646L15.4246 16.156C15.5046 16.38 15.5806 16.616 15.6526 16.864C15.7246 17.112 15.8006 17.356 15.8806 17.596H15.9286C16.0086 17.356 16.0806 17.112 16.1446 16.864C16.2166 16.616 16.2926 16.38 16.3726 16.156L17.6086 12.676H19.5286V20.5H17.9206V17.632C17.9206 17.376 17.9326 17.092 17.9566 16.78C17.9886 16.46 18.0206 16.14 18.0526 15.82C18.0926 15.5 18.1246 15.216 18.1486 14.968H18.1006L17.4646 16.828L16.3486 19.816H15.3766L14.2606 16.828L13.6366 14.968H13.5886C13.6206 15.216 13.6526 15.5 13.6846 15.82C13.7166 16.14 13.7446 16.46 13.7686 16.78C13.8006 17.092 13.8166 17.376 13.8166 17.632V20.5H12.2326ZM21.3732 20.5V12.676H23.1372V19.012H26.2332V20.5H21.3732Z" fill="#4D52AF"/>
</svg>
