<svg width="32" height="32" viewBox="0 0 32 32" fill="none" xmlns="http://www.w3.org/2000/svg">
<rect width="32" height="32" rx="3" fill="#FFDDEA"/>
<path d="M5.924 20.5V12.676H8.612C9.188 12.676 9.708 12.756 10.172 12.916C10.644 13.068 11.02 13.328 11.3 13.696C11.58 14.064 11.72 14.564 11.72 15.196C11.72 15.804 11.58 16.304 11.3 16.696C11.02 17.088 10.648 17.38 10.184 17.572C9.72 17.756 9.212 17.848 8.66 17.848H7.688V20.5H5.924ZM7.688 16.444H8.552C9.512 16.444 9.992 16.028 9.992 15.196C9.992 14.788 9.864 14.5 9.608 14.332C9.352 14.164 8.984 14.08 8.504 14.08H7.688V16.444ZM13.0724 20.5V12.676H15.2804C16.0804 12.676 16.7724 12.812 17.3564 13.084C17.9404 13.356 18.3924 13.78 18.7124 14.356C19.0404 14.924 19.2044 15.656 19.2044 16.552C19.2044 17.448 19.0444 18.188 18.7244 18.772C18.4044 19.356 17.9564 19.792 17.3804 20.08C16.8124 20.36 16.1444 20.5 15.3764 20.5H13.0724ZM14.8364 19.072H15.1724C15.6204 19.072 16.0084 18.992 16.3364 18.832C16.6724 18.672 16.9324 18.408 17.1164 18.04C17.3004 17.672 17.3924 17.176 17.3924 16.552C17.3924 15.928 17.3004 15.44 17.1164 15.088C16.9324 14.728 16.6724 14.476 16.3364 14.332C16.0084 14.18 15.6204 14.104 15.1724 14.104H14.8364V19.072ZM20.6896 20.5V12.676H25.6216V14.164H22.4536V15.976H25.1656V17.464H22.4536V20.5H20.6896Z" fill="#D72D79"/>
</svg>
