<?xml version="1.0" encoding="UTF-8"?>
<svg width="171px" height="49px" viewBox="0 0 171 49" version="1.1" xmlns="http://www.w3.org/2000/svg" xmlns:xlink="http://www.w3.org/1999/xlink">
    <title>Group 38</title>
    <defs>
        <polygon id="path-1" points="0 0.280480455 170.292344 0.280480455 170.292344 47.4743182 0 47.4743182"></polygon>
    </defs>
    <g id="Symbols" stroke="none" stroke-width="1" fill="none" fill-rule="evenodd">
        <g id="Footer-(desktop)" transform="translate(-150.000000, -53.000000)">
            <g id="Footer" transform="translate(-2.000000, 0.000000)">
                <g id="Group-38" transform="translate(152.000000, 53.000000)">
                    <polygon id="Fill-1" fill="#FFFFFF" points="60.6210483 25.480176 53.9675498 25.480176 53.9675498 32.3541298 50.5013789 32.3541298 50.5013789 15.5334878 61.453213 15.5334878 61.453213 18.3410207 53.9675498 18.3410207 53.9675498 22.684648 60.6210483 22.684648"></polygon>
                    <g id="Group-37" transform="translate(0.000000, 0.265256)">
                        <mask id="mask-2" fill="white">
                            <use xlink:href="#path-1"></use>
                        </mask>
                        <g id="Clip-3"></g>
                        <path d="M64.598905,32.0888193 L67.949937,32.0888193 L67.949937,19.5894316 L64.598905,19.5894316 L64.598905,32.0888193 Z M64.4030052,16.3546298 C64.4030052,15.8542395 64.5705295,15.4422498 64.9050325,15.1181148 C65.2406268,14.7945255 65.6973625,14.6330036 66.2746939,14.6330036 C66.8443857,14.6330036 67.2989386,14.7945255 67.637807,15.1181148 C67.9766755,15.4422498 68.1458368,15.8542395 68.1458368,16.3546298 C68.1458368,16.8621139 67.9744927,17.2790148 67.6318045,17.6020584 C67.289662,17.9256477 66.8367461,18.0871695 66.2746939,18.0871695 C65.7120959,18.0871695 65.2597257,17.9256477 64.9175832,17.6020584 C64.5743493,17.2790148 64.4030052,16.8621139 64.4030052,16.3546298 L64.4030052,16.3546298 Z" id="Fill-2" fill="#FFFFFF" mask="url(#mask-2)"></path>
                        <path d="M78.6514669,28.6344897 C78.6514669,28.2263197 78.4490189,27.9049131 78.0446687,27.6697242 C77.6403185,27.4350811 76.9915028,27.2249936 76.0982217,27.0405531 C73.1253471,26.4168388 71.6389098,25.1535854 71.6389098,23.2513386 C71.6389098,22.1419674 72.0989196,21.2159454 73.0194848,20.4732724 C73.9395044,19.7295081 75.1427328,19.3578988 76.6291701,19.3578988 C78.2160128,19.3578988 79.484723,19.7322365 80.4363921,20.4787292 C81.3875155,21.2263133 81.8628044,22.1959899 81.8628044,23.3904874 L78.524323,23.3904874 C78.524323,22.9124702 78.3698951,22.5179422 78.0621305,22.2063579 C77.7532746,21.8931365 77.2730746,21.7376172 76.6177108,21.7376172 C76.0556585,21.7376172 75.6207501,21.8653067 75.3129855,22.1195945 C75.0046753,22.3733365 74.850793,22.6963802 74.850793,23.0898167 C74.850793,23.4592433 75.0254112,23.7571856 75.3762846,23.9847349 C75.727158,24.2122842 76.3175858,24.4087297 77.1497505,24.5740713 C77.9808239,24.7394129 78.6820251,24.9260361 79.2522626,25.1344865 C81.0159062,25.7811195 81.8971823,26.9014042 81.8971823,28.4958865 C81.8971823,29.6352702 81.4082514,30.5574724 80.4298439,31.2624933 C79.4519821,31.9675142 78.1892744,32.319479 76.6411751,32.319479 C75.593466,32.319479 74.6636242,32.1328558 73.8511039,31.7596095 C73.0385837,31.3858174 72.401773,30.8739679 71.9390348,30.2229695 C71.477388,29.5725167 71.2465646,28.8691329 71.2465646,28.1150006 L74.4109735,28.1150006 C74.442623,28.7076111 74.6614414,29.162164 75.0701571,29.4775681 C75.4783271,29.7935179 76.0251003,29.9512199 76.7104767,29.9512199 C77.3494701,29.9512199 77.8329442,29.8300786 78.1603533,29.5872502 C78.4877623,29.3455131 78.6514669,29.0273806 78.6514669,28.6344897" id="Fill-4" fill="#FFFFFF" mask="url(#mask-2)"></path>
                        <path d="M90.4278808,29.6277943 C91.0439555,29.6277943 91.5448915,29.458633 91.9295971,29.1192189 C92.3148485,28.7808961 92.5151137,28.330163 92.5309385,27.7681107 L95.6609694,27.7681107 C95.6533299,28.6161002 95.4219608,29.3904227 94.9679535,30.0954436 C94.5139462,30.8004645 93.8924146,31.3472377 93.1022674,31.7357632 C92.3132115,32.12538 91.4406662,32.3196427 90.4851774,32.3196427 C88.6986151,32.3196427 87.2896646,31.7521336 86.2577803,30.6154784 C85.225896,29.4799145 84.709681,27.9110793 84.709681,25.908427 L84.709681,25.6885173 C84.709681,23.7633518 85.2220762,22.2267118 86.246321,21.0796886 C87.2705658,19.9315741 88.6756965,19.3580625 90.4628044,19.3580625 C92.0261828,19.3580625 93.2801596,19.8027932 94.2230978,20.6922545 C95.166036,21.5817159 95.646236,22.7658455 95.6609694,24.2446432 L92.5309385,24.2446432 C92.5151137,23.5941905 92.3148485,23.0665161 91.9295971,22.6588918 C91.5448915,22.2529045 91.036316,22.0493652 90.4049621,22.0493652 C89.6268199,22.0493652 89.0396662,22.3336655 88.6429555,22.9000832 C88.2467905,23.4665009 88.048708,24.3870661 88.048708,25.6595961 L88.048708,26.0066498 C88.048708,27.2950045 88.2451535,28.2199352 88.6374987,28.7836245 C89.029844,29.3462225 89.6268199,29.6277943 90.4278808,29.6277943" id="Fill-5" fill="#FFFFFF" mask="url(#mask-2)"></path>
                        <path d="M103.232195,29.7668886 C103.724946,29.7668886 104.179499,29.6572066 104.595309,29.4372968 C105.011118,29.2179327 105.319428,28.9227188 105.519148,28.5532922 L105.519148,26.4049429 L104.272265,26.4049429 C102.600842,26.4049429 101.71138,26.9822743 101.603881,28.1380284 L101.59133,28.3339282 C101.59133,28.7502834 101.738119,29.0929716 102.03115,29.3625384 C102.32309,29.6315595 102.72362,29.7668886 103.232195,29.7668886 L103.232195,29.7668886 Z M105.993345,32.0887647 C105.838918,31.7880941 105.727598,31.4148477 105.658297,30.9679343 C104.849596,31.8694007 103.798068,32.3195882 102.504256,32.3195882 C101.279746,32.3195882 100.265323,31.9654407 99.4604428,31.2566 C98.6555621,30.548305 98.2528489,29.6550238 98.2528489,28.5767566 C98.2528489,27.2523868 98.7439625,26.2352359 99.7261898,25.5263952 C100.707871,24.8181002 102.12719,24.4606786 103.983054,24.4524934 L105.519148,24.4524934 L105.519148,23.7360132 C105.519148,23.1586818 105.371268,22.6964893 105.074417,22.3499813 C104.778112,22.0034734 104.310463,21.8299466 103.671469,21.8299466 C103.108871,21.8299466 102.66796,21.9652757 102.348191,22.2342968 C102.028967,22.5044093 101.869082,22.8738359 101.869082,23.3436679 L98.530601,23.3436679 C98.530601,22.6195482 98.7537848,21.9499966 99.2006982,21.3339218 C99.647066,20.717847 100.278965,20.2338272 101.095305,19.8834995 C101.9111,19.5337175 102.827845,19.3580079 103.84445,19.3580079 C105.384365,19.3580079 106.607783,19.745442 107.512524,20.5192188 C108.417264,21.2935413 108.869634,22.3810852 108.869634,23.7823961 L108.869634,29.2004709 C108.877274,30.3867832 109.042615,31.2838841 109.366205,31.8923193 L109.366205,32.0887647 L105.993345,32.0887647 Z" id="Fill-6" fill="#FFFFFF" mask="url(#mask-2)"></path>
                        <polygon id="Fill-7" fill="#FFFFFF" mask="url(#mask-2)" points="112.790249 32.0888193 116.140735 32.0888193 116.140735 14.3437923 112.790249 14.3437923"></polygon>
                        <path d="M123.757635,18.0757648 L123.757635,29.3048052 L125.432333,29.3048052 C126.788352,29.3048052 127.824056,28.8617116 128.540536,27.97607 C129.256471,27.0909741 129.622078,25.8233552 129.637357,24.1753962 L129.637357,23.2859348 C129.637357,21.5757648 129.283209,20.2803193 128.574914,19.3984975 C127.866619,18.5172214 126.830915,18.0757648 125.467256,18.0757648 L123.757635,18.0757648 Z M120.291464,32.0888739 L120.291464,15.2682318 L125.467256,15.2682318 C126.946054,15.2682318 128.269332,15.6016434 129.435454,16.2679209 C130.602122,16.9341984 131.513411,17.8815021 132.167683,19.1098318 C132.821956,20.3381616 133.149911,21.73347 133.149911,23.2973941 L133.149911,24.0711709 C133.149911,25.6345493 132.827958,27.0244009 132.184599,28.2418171 C131.541786,29.4586875 130.635409,30.4021714 129.464376,31.071723 C128.293888,31.7418202 126.972792,32.0806887 125.50218,32.0888739 L120.291464,32.0888739 Z" id="Fill-8" fill="#FFFFFF" mask="url(#mask-2)"></path>
                        <path d="M141.113427,29.7668886 C141.606724,29.7668886 142.061277,29.6572066 142.477086,29.4372968 C142.892896,29.2179327 143.20066,28.9227188 143.400925,28.5532922 L143.400925,26.4049429 L142.153497,26.4049429 C140.482619,26.4049429 139.593158,26.9822743 139.485658,28.1380284 L139.473108,28.3339282 C139.473108,28.7502834 139.619896,29.0929716 139.912382,29.3625384 C140.204867,29.6315595 140.605398,29.7668886 141.113427,29.7668886 L141.113427,29.7668886 Z M143.875123,32.0887647 C143.720695,31.7880941 143.60883,31.4148477 143.540074,30.9679343 C142.731374,31.8694007 141.679845,32.3195882 140.386033,32.3195882 C139.161523,32.3195882 138.146555,31.9654407 137.34222,31.2566 C136.536794,30.548305 136.134626,29.6550238 136.134626,28.5767566 C136.134626,27.2523868 136.62574,26.2352359 137.607422,25.5263952 C138.589649,24.8181002 140.008967,24.4606786 141.864831,24.4524934 L143.400925,24.4524934 L143.400925,23.7360132 C143.400925,23.1586818 143.253046,22.6964893 142.956195,22.3499813 C142.65989,22.0034734 142.19224,21.8299466 141.553247,21.8299466 C140.990649,21.8299466 140.549738,21.9652757 140.229968,22.2342968 C139.910745,22.5044093 139.75086,22.8738359 139.75086,23.3436679 L136.412378,23.3436679 C136.412378,22.6195482 136.635562,21.9499966 137.08193,21.3339218 C137.528843,20.717847 138.160743,20.2338272 138.977083,19.8834995 C139.792877,19.5337175 140.709623,19.3580079 141.726228,19.3580079 C143.266142,19.3580079 144.489015,19.745442 145.394301,20.5192188 C146.298496,21.2935413 146.751412,22.3810852 146.751412,23.7823961 L146.751412,29.2004709 C146.759051,30.3867832 146.923847,31.2838841 147.247982,31.8923193 L147.247982,32.0887647 L143.875123,32.0887647 Z" id="Fill-9" fill="#FFFFFF" mask="url(#mask-2)"></path>
                        <path d="M154.495946,16.5165336 L154.495946,19.5892679 L156.632836,19.5892679 L156.632836,22.0377422 L154.495946,22.0377422 L154.495946,28.2765224 C154.495946,28.7381692 154.583801,29.0693981 154.761148,29.2696633 C154.938494,29.4699286 155.277363,29.570334 155.778299,29.570334 C156.147725,29.570334 156.474589,29.5435956 156.75998,29.4890274 L156.75998,32.019354 C156.105162,32.2190736 155.431245,32.319479 154.738229,32.319479 C152.396709,32.319479 151.203848,31.1380779 151.157465,28.7730929 L151.157465,22.0377422 L149.331614,22.0377422 L149.331614,19.5892679 L151.157465,19.5892679 L151.157465,16.5165336 L154.495946,16.5165336 Z" id="Fill-10" fill="#FFFFFF" mask="url(#mask-2)"></path>
                        <path d="M164.157789,29.7668886 C164.650539,29.7668886 165.105092,29.6572066 165.521448,29.4372968 C165.937257,29.2179327 166.245022,28.9227188 166.445287,28.5532922 L166.445287,26.4049429 L165.197858,26.4049429 C163.526435,26.4049429 162.636974,26.9822743 162.529474,28.1380284 L162.517469,28.3339282 C162.517469,28.7502834 162.663712,29.0929716 162.956743,29.3625384 C163.248683,29.6315595 163.649213,29.7668886 164.157789,29.7668886 L164.157789,29.7668886 Z M166.918939,32.0887647 C166.764511,31.7880941 166.653192,31.4148477 166.58389,30.9679343 C165.775735,31.8694007 164.723661,32.3195882 163.430395,32.3195882 C162.205339,32.3195882 161.190917,31.9654407 160.386582,31.2566 C159.581155,30.548305 159.178988,29.6550238 159.178988,28.5767566 C159.178988,27.2523868 159.670101,26.2352359 160.651783,25.5263952 C161.63401,24.8181002 163.053329,24.4606786 164.909193,24.4524934 L166.445287,24.4524934 L166.445287,23.7360132 C166.445287,23.1586818 166.297407,22.6964893 166.000556,22.3499813 C165.703705,22.0034734 165.236056,21.8299466 164.597063,21.8299466 C164.034465,21.8299466 163.593554,21.9652757 163.27433,22.2342968 C162.95456,22.5044093 162.795221,22.8738359 162.795221,23.3436679 L159.45674,23.3436679 C159.45674,22.6195482 159.679378,21.9499966 160.126292,21.3339218 C160.572659,20.717847 161.204559,20.2338272 162.020899,19.8834995 C162.836693,19.5337175 163.753439,19.3580079 164.770044,19.3580079 C166.310504,19.3580079 167.533376,19.745442 168.438663,20.5192188 C169.342857,21.2935413 169.795228,22.3810852 169.795228,23.7823961 L169.795228,29.2004709 C169.803413,30.3867832 169.968209,31.2838841 170.292344,31.8923193 L170.292344,32.0887647 L166.918939,32.0887647 Z" id="Fill-11" fill="#FFFFFF" mask="url(#mask-2)"></path>
                        <path d="M4.69537377,25.5548798 C5.20722332,25.5548798 5.70433945,25.2847673 5.97117786,24.8062043 C6.36461445,24.1017291 6.11250945,23.2122677 5.40857991,22.8188312 L0.000327409091,19.7919341 L0.000327409091,23.1375093 L3.98435036,25.369348 C4.20971695,25.4954005 4.45418241,25.5548798 4.69537377,25.5548798" id="Fill-12" fill="#FFFFFF" mask="url(#mask-2)"></path>
                        <path d="M19.426873,25.116861 L18.1101428,24.3818276 L12.6282232,21.1988655 L5.45681818e-05,13.9374776 L5.45681818e-05,17.3065171 L9.57131366,22.810264 L17.9709939,27.648279 C18.2001803,27.780334 18.4506482,27.8430874 18.6978421,27.8430874 C19.2031434,27.8430874 19.6948028,27.5806144 19.9649153,27.1102367 C20.1930103,26.7140717 20.2077437,26.257336 20.0554984,25.8606253 C19.9398139,25.5588633 19.7297264,25.2903878 19.426873,25.116861" id="Fill-13" fill="#FFFFFF" mask="url(#mask-2)"></path>
                        <path d="M5.40836164,34.0375037 L0.000109136364,31.0106066 L0.000109136364,34.3561818 L3.98467777,36.5885662 C4.21004436,36.714073 4.45396414,36.774098 4.6951555,36.774098 C5.20700505,36.774098 5.70412118,36.5039855 5.97150527,36.0248768 C6.36439618,35.3209473 6.11229118,34.4309402 5.40836164,34.0375037" id="Fill-14" fill="#FFFFFF" mask="url(#mask-2)"></path>
                        <polygon id="Fill-15" fill="#FFFFFF" mask="url(#mask-2)" points="0.016807 39.682964 0.674899273 40.051845 0.0309947273 39.6753245"></polygon>
                        <path d="M19.4146497,36.5308876 L18.0979195,35.7958542 L12.9264929,32.7913301 L12.9303127,32.7902387 L12.9248558,32.7869646 L12.9259472,32.786419 L12.9215818,32.7836905 L12.9204904,32.7842362 L12.6280049,32.6161662 L-0.000163704545,25.3547783 L-0.000163704545,28.7232721 L9.57164107,34.227019 L9.88759084,34.4081853 L9.88377107,34.4098224 L17.9587706,39.0628512 C18.187957,39.1949062 18.4384249,39.257114 18.6856188,39.257114 C19.1909202,39.257114 19.6831252,38.994641 19.952692,38.5242633 C20.180787,38.1280983 20.1960661,37.6713626 20.0438208,37.2746519 C19.9275906,36.9728899 19.7175031,36.7044144 19.4146497,36.5308876" id="Fill-16" fill="#FFFFFF" mask="url(#mask-2)"></path>
                        <path d="M5.39635664,39.3466603 L3.07284345,38.0463006 L3.07666323,38.0446635 L3.07120641,38.0413894 L3.07229777,38.0408437 L3.06738664,38.038661 L3.06629527,38.0392067 L0.000109136364,36.3230374 L0.000109136364,39.6686126 L0.0197536818,39.6795262 L0.0295759545,39.6746151 L0.0252105,39.6718867 L0.0257561818,39.671341 L0.667478,40.0462244 L3.97267277,41.8977228 C4.19803936,42.0232297 4.44195914,42.082709 4.6831505,42.082709 C5.19500005,42.082709 5.69211618,41.8131422 5.95950027,41.3340335 C6.35239118,40.630104 6.10028618,39.7400969 5.39635664,39.3466603" id="Fill-17" fill="#FFFFFF" mask="url(#mask-2)"></path>
                        <path d="M22.1289256,26.4938345 L22.1234688,26.4971086 L22.1234688,28.1417936 L22.1267429,28.142885 L22.1234688,28.1423393 L22.1256515,42.011934 C22.1223775,42.2798638 22.1905877,42.5314231 22.3133661,42.7480588 C22.5611056,43.1862413 23.0282093,43.4841836 23.5678886,43.4908548 C24.3744063,43.5010997 25.0363184,42.8550125 25.0461406,42.0490404 L25.0581456,29.9441806 L25.0597827,29.945272 L25.0614197,28.2940388 L25.0652395,24.8360531 L22.1294713,26.4943802 L22.1289256,26.4938345 Z" id="Fill-18" fill="#FFFFFF" mask="url(#mask-2)"></path>
                        <path d="M35.474393,34.6838638 L35.474393,34.6838638 L35.4749387,37.1612592 C35.4716646,37.4280976 35.5404205,37.679657 35.6631989,37.8968383 C35.9103928,38.3350208 36.3780421,38.6329631 36.9177214,38.6396475 C37.7236935,38.6504249 38.3856055,38.0043376 38.3959735,37.1972742 L38.3997932,36.4786113 L38.4145267,17.3137201 L35.4733017,18.9753213 L35.474393,34.6838638 Z" id="Fill-19" fill="#FFFFFF" mask="url(#mask-2)"></path>
                        <path d="M39.9230095,16.4680225 L39.9251922,29.357027 C39.9219181,29.6244111 39.990674,29.8754247 40.1129068,30.0931518 C40.3606463,30.5307886 40.8277499,30.8287309 41.3668836,30.8359478 C42.173947,30.8461927 42.8353133,30.2001054 42.8456813,29.3935877 L42.8647802,14.8064213 L39.9230095,16.4680225 Z" id="Fill-20" fill="#FFFFFF" mask="url(#mask-2)"></path>
                        <path d="M31.0242487,31.9527808 L31.0242487,31.9527808 L31.0242487,33.6094708 L31.0302512,33.6132906 L31.0242487,33.6111079 L31.02534,41.9545829 C31.0220659,42.2214213 31.0908218,42.4729806 31.2130546,42.6907077 C31.4607941,43.1283445 31.9278977,43.4262867 32.4675771,43.4335037 C33.2740948,43.4437486 33.9360068,42.7976613 33.9458291,41.9911436 L33.9523773,35.4085838 L33.952923,35.4091295 L33.9540143,33.7508024 L33.964928,19.8211827 L31.0231573,21.4827838 L31.0242487,31.9527808 Z" id="Fill-21" fill="#FFFFFF" mask="url(#mask-2)"></path>
                        <path d="M26.5737769,29.2222436 L26.5737769,29.2222436 L26.5737769,30.8756595 L26.5765053,30.8772965 L26.5737769,30.8767509 L26.5754139,45.9954113 C26.5721398,46.2633411 26.6408957,46.5143547 26.7631285,46.7315361 C27.010868,47.1697186 27.4785173,47.4676609 28.017651,47.4743321 C28.8241687,47.484577 29.4860807,46.8384897 29.495903,46.0325177 L29.5057253,32.6769552 L29.5068167,32.6775009 L29.507908,31.0224479 L29.5150019,22.3280995 L26.5732312,23.9902463 L26.5737769,29.2222436 Z" id="Fill-22" fill="#FFFFFF" mask="url(#mask-2)"></path>
                        <path d="M30.0799463,13.98899 L27.8153667,15.1796677 L28.2480924,12.658072 L26.4156929,10.8720554 L28.9476565,10.5037202 L30.0799463,8.20967382 L31.212236,10.5037202 L33.7441997,10.8720554 L31.9123458,12.658072 L32.3445258,15.1796677 L30.0799463,13.98899 Z M23.7009258,7.93956132 L24.1336515,10.461157 L21.869072,9.27102495 L21.8543385,9.27811882 L19.6044924,10.461157 L20.0366724,7.93956132 L18.2048185,6.15409041 L20.7367822,5.78575518 L21.8543385,3.52062995 L21.869072,3.49170882 L23.0013617,5.78575518 L25.5327797,6.15409041 L23.7009258,7.93956132 Z M24.1336515,20.222859 L21.869072,19.0321813 L21.8543385,19.0398209 L19.6044924,20.222859 L20.0366724,17.7012634 L18.2048185,15.9152468 L20.7367822,15.5474572 L21.8543385,13.282332 L21.869072,13.2528652 L23.0013617,15.5474572 L25.5327797,15.9152468 L23.7009258,17.7012634 L24.1336515,20.222859 Z M15.9222315,15.2053147 L13.657652,14.014637 L11.3930724,15.2053147 L11.8257981,12.6831734 L9.99339855,10.8971568 L12.5253622,10.5293672 L13.657652,8.23477518 L14.7899417,10.5293672 L17.3219054,10.8971568 L15.4900515,12.6831734 L15.9222315,15.2053147 Z M21.8543385,0.280371318 L21.8543385,0.280917 L21.8543385,0.280371318 L21.8150495,0.301652909 L0.0248830909,11.9219472 L21.8543385,24.9577402 L21.8548842,24.9582859 L42.8254365,13.163919 L21.8543385,0.280371318 Z" id="Fill-23" fill="#FFFFFF" mask="url(#mask-2)"></path>
                        <path d="M122.265523,41.9802299 C122.265523,41.8525404 122.303175,41.7455867 122.37957,41.6604604 C122.45542,41.575334 122.569468,41.5327708 122.721167,41.5327708 C122.872867,41.5327708 122.988005,41.575334 123.067129,41.6604604 C123.145162,41.7455867 123.184997,41.8525404 123.184997,41.9802299 C123.184997,42.1030083 123.145162,42.2050508 123.067129,42.2874488 C122.988005,42.3703924 122.872867,42.4118642 122.721167,42.4118642 C122.569468,42.4118642 122.45542,42.3703924 122.37957,42.2874488 C122.303175,42.2050508 122.265523,42.1030083 122.265523,41.9802299" id="Fill-24" fill="#FFFFFF" mask="url(#mask-2)"></path>
                        <polygon id="Fill-25" fill="#FFFFFF" mask="url(#mask-2)" points="128.540318 37.1762109 126.669721 37.1762109 126.669721 42.3678277 125.906858 42.3678277 125.906858 37.1762109 124.040626 37.1762109 124.040626 36.5486768 128.540318 36.5486768"></polygon>
                        <path d="M131.077957,38.7066847 C130.966092,38.6881315 130.844951,38.6788549 130.714533,38.6788549 C130.229421,38.6788549 129.900375,38.8851227 129.727394,39.2982038 L129.727394,42.367664 L128.987995,42.367664 L128.987995,38.0431356 L129.707204,38.0431356 L129.719209,38.5429802 C129.961492,38.1566374 130.305271,37.9634661 130.750548,37.9634661 C130.894608,37.9634661 131.003198,37.9820193 131.077957,38.0191256 L131.077957,38.7066847 Z" id="Fill-26" fill="#FFFFFF" mask="url(#mask-2)"></path>
                        <path d="M133.384335,38.5708099 C133.085848,38.5708099 132.83538,38.6794006 132.632932,38.896582 C132.430484,39.1137633 132.304977,39.4182538 132.257503,39.8100533 L134.423314,39.8100533 L134.423314,39.7538481 C134.402032,39.3778733 134.301081,39.0870249 134.119915,38.8802115 C133.938748,38.6739438 133.693191,38.5708099 133.384335,38.5708099 M133.476556,42.4473336 C132.889948,42.4473336 132.413022,42.2552536 132.045232,41.8700022 C131.677443,41.4852965 131.494094,40.9701729 131.494094,40.3257227 L131.494094,40.1898479 C131.494094,39.760942 131.575946,39.3778733 131.73965,39.0400963 C131.903355,38.7034106 132.132541,38.4398463 132.42721,38.2488577 C132.721332,38.0589604 133.040556,37.9634661 133.384335,37.9634661 C133.946388,37.9634661 134.383479,38.1489979 134.695063,38.5189702 C135.007193,38.8894881 135.162713,39.4198908 135.162713,40.1096327 L135.162713,40.4173972 L132.233493,40.4173972 C132.24386,40.8435747 132.368822,41.1884456 132.606739,41.4503729 C132.845748,41.7133915 133.148055,41.8443552 133.515845,41.8443552 C133.777226,41.8443552 133.998228,41.7908783 134.17994,41.6844704 C134.36056,41.5780624 134.519354,41.4367308 134.655228,41.2610213 L135.107053,41.6124404 C134.744175,42.1695815 134.200675,42.4473336 133.476556,42.4473336" id="Fill-27" fill="#FFFFFF" mask="url(#mask-2)"></path>
                        <path d="M137.460961,41.8044112 C137.69233,41.8044112 137.912239,41.7443862 138.120144,41.6243362 C138.328049,41.5042862 138.478112,41.3487669 138.571423,41.1566869 L138.571423,40.2694083 L137.992455,40.2694083 C137.086077,40.2694083 136.633161,40.5346097 136.633161,41.0650124 C136.633161,41.2963815 136.710648,41.4775478 136.865076,41.6085115 C137.019504,41.7389294 137.218132,41.8044112 137.460961,41.8044112 L137.460961,41.8044112 Z M138.687653,42.3675549 C138.64509,42.2824285 138.610167,42.130729 138.583974,41.9119106 C138.240194,42.2693322 137.829842,42.4477701 137.352916,42.4477701 C136.926738,42.4477701 136.576956,42.3271744 136.303569,42.0859831 C136.030729,41.8447917 135.894308,41.5392099 135.894308,41.1686919 C135.894308,40.7185044 136.065107,40.3687224 136.407249,40.1193458 C136.749937,39.8705149 137.231229,39.7460994 137.852214,39.7460994 L138.571423,39.7460994 L138.571423,39.4061397 C138.571423,39.1480322 138.494482,38.9423101 138.340054,38.7889735 C138.18508,38.6356369 137.957531,38.5592415 137.656315,38.5592415 C137.39275,38.5592415 137.171749,38.6258147 136.993311,38.758961 C136.814328,38.8921074 136.725382,39.0530835 136.725382,39.2424351 L135.981617,39.2424351 C135.981617,39.0263451 136.058558,38.8178947 136.211895,38.6165381 C136.364686,38.4157272 136.572591,38.2563881 136.835609,38.1390665 C137.097537,38.0217449 137.385657,37.9633569 137.700515,37.9633569 C138.198722,37.9633569 138.588885,38.0877724 138.871548,38.337149 C139.154211,38.5865256 139.300454,38.9292137 139.311368,39.3663049 L139.311368,41.3569522 C139.311368,41.7536628 139.36157,42.0690669 139.463067,42.3037101 L139.463067,42.3675549 L138.687653,42.3675549 Z" id="Fill-28" fill="#FFFFFF" mask="url(#mask-2)"></path>
                        <path d="M142.988663,41.2208591 C142.988663,41.0211396 142.913359,40.8661659 142.762751,40.7548468 C142.612688,40.6446191 142.349669,40.5496705 141.975877,40.4694552 C141.600994,40.3897857 141.304143,40.2937457 141.084233,40.1818809 C140.864324,40.0700162 140.702256,39.9363241 140.596394,39.7818962 C140.491623,39.6274682 140.438692,39.4435734 140.438692,39.2307575 C140.438692,38.8760643 140.588754,38.5759393 140.888334,38.3309282 C141.187913,38.0859171 141.570982,37.9631387 142.037539,37.9631387 C142.527562,37.9631387 142.925364,38.0902825 143.2304,38.3434789 C143.535436,38.5961296 143.688227,38.9197189 143.688227,39.3142468 L142.944463,39.3142468 C142.944463,39.1117989 142.858791,38.9371807 142.686901,38.790938 C142.515011,38.6441496 142.298375,38.5710282 142.037539,38.5710282 C141.768518,38.5710282 141.557885,38.6294162 141.406186,38.7467378 C141.25394,38.8640593 141.178636,39.0173959 141.178636,39.2067475 C141.178636,39.3851855 141.249029,39.5194232 141.389815,39.6100064 C141.531147,39.7005896 141.786526,39.787353 142.155407,39.8697509 C142.524288,39.9526946 142.823321,40.0509173 143.052508,40.1655105 C143.281694,40.2801037 143.451947,40.4181612 143.562174,40.5791373 C143.672948,40.7406591 143.727516,40.9365589 143.727516,41.1684737 C143.727516,41.5548164 143.573088,41.8653093 143.264232,42.0977698 C142.954831,42.3313216 142.5543,42.4475518 142.061549,42.4475518 C141.715042,42.4475518 141.408368,42.3864355 141.142076,42.2636571 C140.875783,42.1414243 140.667332,41.9700802 140.516724,41.7501705 C140.366116,41.5302607 140.290812,41.2928891 140.290812,41.0369643 L141.030211,41.0369643 C141.043853,41.2847039 141.142621,41.481695 141.328153,41.6263007 C141.513139,41.7719977 141.757605,41.8445734 142.061549,41.8445734 C142.340939,41.8445734 142.565759,41.7878225 142.734921,41.6743207 C142.904082,41.5613646 142.988663,41.4102107 142.988663,41.2208591" id="Fill-29" fill="#FFFFFF" mask="url(#mask-2)"></path>
                        <path d="M147.361048,41.940286 C147.073473,42.2786087 146.65057,42.4477701 146.093974,42.4477701 C145.632873,42.4477701 145.282,42.3140781 145.040808,42.0456026 C144.800163,41.7782185 144.67793,41.3820535 144.675202,40.8571076 L144.675202,38.0430265 L145.415146,38.0430265 L145.415146,40.8374631 C145.415146,41.4928269 145.680893,41.820236 146.214024,41.820236 C146.778805,41.820236 147.154234,41.6101485 147.340857,41.1888822 L147.340857,38.0430265 L148.080256,38.0430265 L148.080256,42.3675549 L147.376872,42.3675549 L147.361048,41.940286 Z" id="Fill-30" fill="#FFFFFF" mask="url(#mask-2)"></path>
                        <path d="M151.293231,38.7066847 C151.181366,38.6881315 151.060225,38.6788549 150.929807,38.6788549 C150.444696,38.6788549 150.115649,38.8851227 149.942668,39.2982038 L149.942668,42.367664 L149.203269,42.367664 L149.203269,38.0431356 L149.922478,38.0431356 L149.934483,38.5429802 C150.176766,38.1566374 150.520545,37.9634661 150.965822,37.9634661 C151.109882,37.9634661 151.218472,37.9820193 151.293231,38.0191256 L151.293231,38.7066847 Z" id="Fill-31" fill="#FFFFFF" mask="url(#mask-2)"></path>
                        <path d="M153.45997,41.284813 L154.467298,38.043463 L155.258537,38.043463 L153.519995,43.0353603 C153.250428,43.7545689 152.823159,44.1147189 152.237097,44.1147189 L152.097402,44.1021682 L151.821287,44.0503285 L151.821287,43.4511698 L152.021007,43.4669946 C152.271475,43.4669946 152.466829,43.4162462 152.607069,43.3152951 C152.746218,43.2137982 152.861357,43.0282664 152.95194,42.7592453 L153.11619,42.3194257 L151.573548,38.043463 L152.380611,38.043463 L153.45997,41.284813 Z" id="Fill-32" fill="#FFFFFF" mask="url(#mask-2)"></path>
                        <path d="M155.505785,41.9802299 C155.505785,41.8525404 155.543437,41.7455867 155.619833,41.6604604 C155.695683,41.575334 155.80973,41.5327708 155.96143,41.5327708 C156.113129,41.5327708 156.228268,41.575334 156.307392,41.6604604 C156.385424,41.7455867 156.425259,41.8525404 156.425259,41.9802299 C156.425259,42.1030083 156.385424,42.2050508 156.307392,42.2874488 C156.228268,42.3703924 156.113129,42.4118642 155.96143,42.4118642 C155.80973,42.4118642 155.695683,42.3703924 155.619833,42.2874488 C155.543437,42.2050508 155.505785,42.1030083 155.505785,41.9802299" id="Fill-33" fill="#FFFFFF" mask="url(#mask-2)"></path>
                        <path d="M158.211767,40.2536927 C158.211767,40.7415322 158.311627,41.1246008 158.511892,41.4023529 C158.711066,41.6811963 158.991546,41.8203452 159.350605,41.8203452 C159.816617,41.8203452 160.159305,41.6080749 160.378124,41.1846258 L160.378124,39.210349 C160.151666,38.7972679 159.811706,38.5910002 159.359336,38.5910002 C158.99864,38.5910002 158.71816,38.7306947 158.515712,39.0106295 C158.313264,39.2900186 158.211767,39.7047367 158.211767,40.2536927 M157.468548,40.1696577 C157.468548,39.4951949 157.624068,38.9593354 157.936198,38.560442 C158.247236,38.1626399 158.660317,37.9634661 159.174895,37.9634661 C159.702024,37.9634661 160.114014,38.1500893 160.409773,38.5227899 L160.446334,38.0431356 L161.121342,38.0431356 L161.121342,42.2639845 C161.121342,42.8233083 160.955455,43.2647649 160.62368,43.5867172 C160.292452,43.9092152 159.846084,44.0701913 159.28676,44.0701913 C158.975176,44.0701913 158.67014,44.0036181 158.371652,43.8704718 C158.073164,43.7373254 157.845069,43.5550677 157.687912,43.3231529 L158.071527,42.8795136 C158.388568,43.2707674 158.776548,43.4672129 159.23492,43.4672129 C159.594525,43.4672129 159.875005,43.3657161 160.076362,43.1632681 C160.277173,42.9608202 160.378124,42.6754286 160.378124,42.3081847 L160.378124,41.9360297 C160.082364,42.2770808 159.67856,42.4478792 159.167256,42.4478792 C158.660317,42.4478792 158.251056,42.2437943 157.937835,41.8361699 C157.625159,41.4285456 157.468548,40.8730415 157.468548,40.1696577" id="Fill-34" fill="#FFFFFF" mask="url(#mask-2)"></path>
                        <path d="M162.78398,40.2536927 C162.78398,40.733347 162.894754,41.1180527 163.117392,41.4083554 C163.34003,41.6986581 163.637427,41.8443552 164.010673,41.8443552 C164.386648,41.8443552 164.68459,41.6975668 164.906137,41.4023529 C165.127138,41.1082304 165.237366,40.6962406 165.237366,40.1658379 C165.237366,39.6916404 165.124955,39.3074804 164.900134,39.0128122 C164.674768,38.7186897 164.375734,38.5708099 164.002488,38.5708099 C163.637427,38.5708099 163.343304,38.716507 163.119575,39.0068097 C162.895845,39.2971124 162.78398,39.712922 162.78398,40.2536927 L162.78398,40.2536927 Z M162.040216,40.1658379 C162.040216,39.7423888 162.123705,39.3609572 162.290138,39.0226345 C162.456571,38.6843117 162.688486,38.4234758 162.985337,38.2395811 C163.282733,38.0556863 163.621602,37.9634661 164.002488,37.9634661 C164.591824,37.9634661 165.068204,38.1675511 165.431628,38.5751754 C165.795598,38.9827997 165.97731,39.5246617 165.97731,40.2013072 L165.97731,40.2536927 C165.97731,40.6744133 165.896549,41.0525708 165.735027,41.3865281 C165.574051,41.7210311 165.343228,41.9813213 165.044194,42.1679445 C164.744069,42.3545677 164.399744,42.4478792 164.010673,42.4478792 C163.424611,42.4478792 162.949867,42.2437943 162.585898,41.8361699 C162.222474,41.4285456 162.040216,40.8888663 162.040216,40.2176777 L162.040216,40.1658379 Z" id="Fill-35" fill="#FFFFFF" mask="url(#mask-2)"></path>
                        <polygon id="Fill-36" fill="#FFFFFF" mask="url(#mask-2)" points="168.271739 41.3647554 169.342912 38.0431902 170.098136 38.0431902 168.547308 42.3677186 167.984164 42.3677186 166.417512 38.0431902 167.17219 38.0431902"></polygon>
                    </g>
                </g>
            </g>
        </g>
    </g>
</svg>