<?xml version="1.0" encoding="UTF-8"?>
<svg width="192px" height="55px" viewBox="0 0 192 55" version="1.1" xmlns="http://www.w3.org/2000/svg" xmlns:xlink="http://www.w3.org/1999/xlink">
    <title>Group 34</title>
    <defs>
        <polygon id="path-1" points="0 0.315409091 191.498911 0.315409091 191.498911 53.3860873 0 53.3860873"></polygon>
    </defs>
    <g id="FINALS-Desktop" stroke="none" stroke-width="1" fill="none" fill-rule="evenodd">
        <g id="!Devs!-pickup-logo-SVG-here" transform="translate(-221.000000, -91.000000)">
            <g id="Group-34" transform="translate(221.000000, 91.000000)">
                <polygon id="Fill-1" fill="#122B4E" points="68.1703977 28.6532591 60.6883295 28.6532591 60.6883295 36.3826227 56.7905114 36.3826227 56.7905114 17.4678955 69.1061932 17.4678955 69.1061932 20.6250545 60.6883295 20.6250545 60.6883295 25.5096 68.1703977 25.5096"></polygon>
                <g id="Group-33" transform="translate(0.000000, 0.298227)">
                    <mask id="mask-2" fill="white">
                        <use xlink:href="#path-1"></use>
                    </mask>
                    <g id="Clip-3"></g>
                    <path d="M72.6441136,36.0842727 L76.4118409,36.0842727 L76.4118409,22.0289318 L72.6441136,22.0289318 L72.6441136,36.0842727 Z M72.4238182,18.3912955 C72.4238182,17.8279773 72.6115909,17.3652955 72.9883636,17.0007955 C73.3651364,16.6375227 73.8781364,16.4552727 74.5279773,16.4552727 C75.1686136,16.4552727 75.6797727,16.6375227 76.0608409,17.0007955 C76.4412955,17.3652955 76.6321364,17.8279773 76.6321364,18.3912955 C76.6321364,18.9625909 76.4394545,19.4307955 76.0540909,19.7940682 C75.6687273,20.1579545 75.1600227,20.3395909 74.5279773,20.3395909 C73.8959318,20.3395909 73.3866136,20.1579545 73.0018636,19.7940682 C72.6158864,19.4307955 72.4238182,18.9625909 72.4238182,18.3912955 L72.4238182,18.3912955 Z" id="Fill-2" fill="#122B4E" mask="url(#mask-2)"></path>
                    <path d="M88.4458636,32.2004455 C88.4458636,31.7414455 88.2188182,31.3800136 87.7641136,31.1155364 C87.3087955,30.8510591 86.5791818,30.6154227 85.5746591,30.4080136 C82.2315682,29.7066273 80.5600227,28.2860591 80.5600227,26.1469227 C80.5600227,24.8994 81.0779318,23.8580591 82.1125227,23.0222864 C83.1477273,22.1865136 84.5007955,21.7686273 86.1717273,21.7686273 C87.9561818,21.7686273 89.3828864,22.1895818 90.4530682,23.0290364 C91.5226364,23.8691045 92.0571136,24.96015 92.0571136,26.3027864 L88.3028864,26.3027864 C88.3028864,25.7652409 88.1292273,25.3221955 87.7831364,24.9711955 C87.4364318,24.6195818 86.8958182,24.4446955 86.1594545,24.4446955 C85.5267955,24.4446955 85.0377273,24.5876727 84.6916364,24.8736273 C84.3449318,25.1595818 84.1718864,25.5228545 84.1718864,25.9646727 C84.1718864,26.3807182 84.3688636,26.7163773 84.7628182,26.97165 C85.1573864,27.2275364 85.8213409,27.4484455 86.75775,27.6343773 C87.6923182,27.8203091 88.4802273,28.0301727 89.1220909,28.2645818 C91.10475,28.9917409 92.0957727,30.2515364 92.0957727,32.0445818 C92.0957727,33.3258545 91.5459545,34.3629 90.4463182,35.1557182 C89.3460682,35.9485364 87.9261136,36.3437182 86.1858409,36.3437182 C85.0070455,36.3437182 83.9614091,36.1344682 83.0477045,35.7147409 C82.134,35.2944 81.4178864,34.7188091 80.8981364,33.9867409 C80.3783864,33.2546727 80.1188182,32.4643091 80.1188182,31.6162636 L83.6779091,31.6162636 C83.7128864,32.2826727 83.9595682,32.7938318 84.4185682,33.1485136 C84.8775682,33.5038091 85.4924318,33.68115 86.2631591,33.68115 C86.9817273,33.68115 87.5254091,33.5449227 87.8935909,33.2718545 C88.2617727,32.9994 88.4458636,32.64165 88.4458636,32.2004455" id="Fill-4" fill="#122B4E" mask="url(#mask-2)"></path>
                    <path d="M101.68875,33.3175091 C102.382159,33.3175091 102.944864,33.1272818 103.377477,32.7456 C103.811318,32.3651455 104.035909,31.8582818 104.053705,31.2262364 L107.574136,31.2262364 C107.565545,32.1792136 107.30475,33.0505773 106.794818,33.8433955 C106.283659,34.6362136 105.584727,35.2510773 104.696182,35.6886 C103.808864,36.1261227 102.827659,36.3439636 101.753795,36.3439636 C99.74475,36.3439636 98.1597273,35.7063955 96.9993409,34.4281909 C95.8389545,33.1506 95.2584545,31.3863955 95.2584545,29.1349636 L95.2584545,28.8876682 C95.2584545,26.7227591 95.8346591,24.9947591 96.9864545,23.7042818 C98.1388636,22.4138045 99.7189773,21.7688727 101.728023,21.7688727 C103.486091,21.7688727 104.896227,22.2689864 105.956591,23.2692136 C107.017568,24.2694409 107.556955,25.6004182 107.574136,27.2639864 L104.053705,27.2639864 C104.035909,26.5325318 103.811318,25.9385318 103.377477,25.4807591 C102.944864,25.0242136 102.372955,24.7953273 101.663591,24.7953273 C100.787932,24.7953273 100.128273,25.1144182 99.6815455,25.7519864 C99.2360455,26.3889409 99.0132955,27.4241455 99.0132955,28.8545318 L99.0132955,29.2454182 C99.0132955,30.6936 99.2342045,31.7343273 99.6754091,32.3682136 C100.117227,33.0008727 100.787932,33.3175091 101.68875,33.3175091" id="Fill-5" fill="#122B4E" mask="url(#mask-2)"></path>
                    <path d="M116.087666,33.4735568 C116.64178,33.4735568 117.152939,33.3502159 117.621143,33.1029205 C118.088734,32.8562386 118.434825,32.524875 118.66003,32.1094432 L118.66003,29.6929432 L117.257257,29.6929432 C115.377689,29.6929432 114.377461,30.3427841 114.256575,31.6418523 L114.243075,31.8627614 C114.243075,32.3303523 114.40753,32.7157159 114.737052,33.0188523 C115.065348,33.321375 115.515757,33.4735568 116.087666,33.4735568 L116.087666,33.4735568 Z M119.192666,36.0845795 C119.019007,35.7470795 118.893825,35.3267386 118.815893,34.8241705 C117.907098,35.8378977 116.724007,36.3441477 115.269075,36.3441477 C113.892075,36.3441477 112.751325,35.9465114 111.846825,35.1493977 C110.941098,34.3522841 110.488848,33.3477614 110.488848,32.1358295 C110.488848,30.6459205 111.040507,29.5027159 112.145052,28.7056023 C113.248984,27.9091023 114.845666,27.5065568 116.932643,27.4973523 L118.66003,27.4973523 L118.66003,26.6922614 C118.66003,26.0424205 118.49312,25.5226705 118.159916,25.1330114 C117.826098,24.7439659 117.300211,24.5488295 116.581643,24.5488295 C115.948984,24.5488295 115.453166,24.7003977 115.094189,25.0035341 C114.734598,25.3066705 114.555416,25.7227159 114.555416,26.2504432 L110.801189,26.2504432 C110.801189,25.4367614 111.051552,24.6832159 111.55412,23.9904205 C112.056075,23.297625 112.766666,22.7539432 113.684666,22.359375 C114.602052,21.9660341 115.632961,21.7684432 116.776166,21.7684432 C118.507848,21.7684432 119.88362,22.204125 120.901643,23.0742614 C121.918439,23.9450114 122.427143,25.1679886 122.427143,26.7438068 L122.427143,32.8372159 C122.435734,34.1706477 122.621666,35.1800795 122.986166,35.8636705 L122.986166,36.0845795 L119.192666,36.0845795 Z" id="Fill-6" fill="#122B4E" mask="url(#mask-2)"></path>
                    <polygon id="Fill-7" fill="#122B4E" mask="url(#mask-2)" points="126.835568 36.0842727 130.603909 36.0842727 130.603909 16.1300455 126.835568 16.1300455"></polygon>
                    <path d="M139.16972,20.3268273 L139.16972,32.9542364 L141.052357,32.9542364 C142.577857,32.9542364 143.741925,32.4559636 144.54763,31.4600318 C145.35272,30.4641 145.76447,29.0392364 145.781039,27.1860545 L145.781039,26.1858273 C145.781039,24.2626909 145.382789,22.8059182 144.586902,21.8142818 C143.789789,20.8226455 142.625107,20.3268273 141.092243,20.3268273 L139.16972,20.3268273 Z M135.271902,36.0843955 L135.271902,17.1696682 L141.092243,17.1696682 C142.755198,17.1696682 144.242652,17.5446 145.553993,18.29385 C146.866561,19.0431 147.89072,20.1077591 148.627084,21.4896682 C149.36222,22.8709636 149.731016,24.4406455 149.731016,26.1987136 L149.731016,27.06885 C149.731016,28.8269182 149.36897,30.38985 148.646107,31.7582591 C147.923243,33.1272818 146.903993,34.1876455 145.58713,34.9411909 C144.27088,35.6947364 142.785266,36.0764182 141.130902,36.0843955 L135.271902,36.0843955 Z" id="Fill-8" fill="#122B4E" mask="url(#mask-2)"></path>
                    <path d="M158.686855,33.4735568 C159.240968,33.4735568 159.752127,33.3502159 160.219718,33.1029205 C160.687923,32.8562386 161.034014,32.524875 161.259218,32.1094432 L161.259218,29.6929432 L159.856445,29.6929432 C157.976877,29.6929432 156.97665,30.3427841 156.855764,31.6418523 L156.84165,31.8627614 C156.84165,32.3303523 157.006718,32.7157159 157.336241,33.0188523 C157.664536,33.321375 158.114945,33.4735568 158.686855,33.4735568 L158.686855,33.4735568 Z M161.791855,36.0845795 C161.618195,35.7470795 161.493014,35.3267386 161.415082,34.8241705 C160.505673,35.8378977 159.323195,36.3441477 157.868264,36.3441477 C156.491264,36.3441477 155.350514,35.9465114 154.4454,35.1493977 C153.540286,34.3522841 153.087423,33.3477614 153.087423,32.1358295 C153.087423,30.6459205 153.639695,29.5027159 154.744241,28.7056023 C155.848173,27.9091023 157.444855,27.5065568 159.531218,27.4973523 L161.259218,27.4973523 L161.259218,26.6922614 C161.259218,26.0424205 161.092309,25.5226705 160.759105,25.1330114 C160.425286,24.7439659 159.8994,24.5488295 159.180832,24.5488295 C158.548173,24.5488295 158.052355,24.7003977 157.693377,25.0035341 C157.333786,25.3066705 157.153991,25.7227159 157.153991,26.2504432 L153.399764,26.2504432 C153.399764,25.4367614 153.650741,24.6832159 154.153309,23.9904205 C154.655264,23.297625 155.365855,22.7539432 156.283855,22.359375 C157.201241,21.9660341 158.23215,21.7684432 159.375355,21.7684432 C161.107036,21.7684432 162.482809,22.204125 163.500218,23.0742614 C164.517627,23.9450114 165.026332,25.1679886 165.026332,26.7438068 L165.026332,32.8372159 C165.034923,34.1706477 165.220855,35.1800795 165.585355,35.8636705 L165.585355,36.0845795 L161.791855,36.0845795 Z" id="Fill-9" fill="#122B4E" mask="url(#mask-2)"></path>
                    <path d="M173.735305,18.5731159 L173.735305,22.0291159 L176.138305,22.0291159 L176.138305,24.7825023 L173.735305,24.7825023 L173.735305,31.7975932 C173.735305,32.3173432 173.8341,32.6892068 174.034145,32.915025 C174.232964,33.1402295 174.614645,33.252525 175.17735,33.252525 C175.592782,33.252525 175.960964,33.2230705 176.281282,33.1610932 L176.281282,36.0071386 C175.544918,36.2311159 174.787691,36.344025 174.008373,36.344025 C171.375259,36.344025 170.033236,35.0155023 169.981077,32.3560023 L169.981077,24.7825023 L167.92785,24.7825023 L167.92785,22.0291159 L169.981077,22.0291159 L169.981077,18.5731159 L173.735305,18.5731159 Z" id="Fill-10" fill="#122B4E" mask="url(#mask-2)"></path>
                    <path d="M184.600411,33.4735568 C185.155139,33.4735568 185.666298,33.3502159 186.133889,33.1029205 C186.60148,32.8562386 186.94757,32.524875 187.172775,32.1094432 L187.172775,29.6929432 L185.770002,29.6929432 C183.891048,29.6929432 182.89082,30.3427841 182.769934,31.6418523 L182.75582,31.8627614 C182.75582,32.3303523 182.920889,32.7157159 183.249798,33.0188523 C183.578707,33.321375 184.028502,33.4735568 184.600411,33.4735568 L184.600411,33.4735568 Z M187.706025,36.0845795 C187.532366,35.7470795 187.40657,35.3267386 187.329252,34.8241705 C186.419843,35.8378977 185.237366,36.3441477 183.782434,36.3441477 C182.405434,36.3441477 181.26407,35.9465114 180.35957,35.1493977 C179.453843,34.3522841 179.001593,33.3477614 179.001593,32.1358295 C179.001593,30.6459205 179.553866,29.5027159 180.657798,28.7056023 C181.762343,27.9091023 183.358411,27.5065568 185.445389,27.4973523 L187.172775,27.4973523 L187.172775,26.6922614 C187.172775,26.0424205 187.00648,25.5226705 186.672661,25.1330114 C186.339457,24.7439659 185.81357,24.5488295 185.095002,24.5488295 C184.462343,24.5488295 183.966525,24.7003977 183.606934,25.0035341 C183.247957,25.3066705 183.068161,25.7227159 183.068161,26.2504432 L179.313934,26.2504432 C179.313934,25.4367614 179.564911,24.6832159 180.066866,23.9904205 C180.569434,23.297625 181.280025,22.7539432 182.198025,22.359375 C183.115411,21.9660341 184.145707,21.7684432 185.288911,21.7684432 C187.021207,21.7684432 188.396366,22.204125 189.414389,23.0742614 C190.431184,23.9450114 190.940502,25.1679886 190.940502,26.7438068 L190.940502,32.8372159 C190.949093,34.1706477 191.134411,35.1800795 191.498911,35.8636705 L191.498911,36.0845795 L187.706025,36.0845795 Z" id="Fill-11" fill="#122B4E" mask="url(#mask-2)"></path>
                    <polygon id="Fill-12" fill="#EF3E32" mask="url(#mask-2)" points="11.1228955 38.6954795 14.5402364 36.8729795 14.2008955 36.6778432 0.000122727273 28.5115705 0.000122727273 32.3001614 10.7633045 38.4899114"></polygon>
                    <path d="M5.28015682,28.7370818 C5.85513409,28.7370818 6.41477045,28.4339455 6.71483864,27.8951727 C7.15727045,27.1029682 6.87377045,26.1027409 6.08217955,25.6603091 L0.000429545455,22.2564682 L0.000429545455,26.0186727 L4.48058864,28.5284455 C4.73402045,28.6701955 5.00892955,28.7370818 5.28015682,28.7370818" id="Fill-13" fill="#EF3E32" mask="url(#mask-2)"></path>
                    <path d="M20.2087636,31.0915432 C20.4664909,31.2400432 20.74815,31.3106114 21.0261273,31.3106114 C21.5943545,31.3106114 22.1478545,31.0148386 22.4509909,30.4864977 C22.7074909,30.0403841 22.7246727,29.5267705 22.5534682,29.0812705 C22.4227636,28.7413159 22.1865136,28.4400205 21.8459455,28.2442705 L20.3652409,27.4183159 L14.20065,23.838975 L-0.000122727273,15.6733159 L-0.000122727273,19.4612932 L10.7630591,25.6510432 L20.2087636,31.0915432 Z" id="Fill-14" fill="#EF3E32" mask="url(#mask-2)"></path>
                    <path d="M5.28015682,41.3532 C5.85513409,41.3532 6.41477045,41.04945 6.71483864,40.5112909 C7.15727045,39.7190864 6.87377045,38.7188591 6.08217955,38.2764273 L0.000429545455,34.8725864 L0.000429545455,38.6347909 L4.48058864,41.1445636 C4.73402045,41.2863136 5.00892955,41.3532 5.28015682,41.3532" id="Fill-15" fill="#EF3E32" mask="url(#mask-2)"></path>
                    <polygon id="Fill-16" fill="#EF3E32" mask="url(#mask-2)" points="0.0345477273 44.6160886 0.0192068182 44.6246795 0.758638636 45.0388841"></polygon>
                    <polygon id="Fill-17" fill="#EF3E32" mask="url(#mask-2)" points="0.033075 44.6152295 0.0281659091 44.612775 3.45962045 42.7822977 -6.13636364e-05 40.846275 -6.13636364e-05 44.6084795 0.0226431818 44.6207523"></polygon>
                    <path d="M21.8324455,41.0799477 L20.3517409,40.2539932 L14.5320136,36.8728568 L11.1146727,38.6953568 L20.1952636,43.9272205 C20.4529909,44.0757205 20.73465,44.1462886 21.0126273,44.1462886 C21.5808545,44.1462886 22.1337409,43.8505159 22.4374909,43.322175 C22.6939909,42.8760614 22.7105591,42.3624477 22.5399682,41.9169477 C22.4092636,41.5769932 22.1730136,41.2756977 21.8324455,41.0799477" id="Fill-18" fill="#F2655B" mask="url(#mask-2)"></path>
                    <polygon id="Fill-19" fill="#F2655B" mask="url(#mask-2)" points="14.5353273 36.8692364 14.5304182 36.8661682 11.1130773 38.6886682 11.1179864 38.6917364"></polygon>
                    <polygon id="Fill-20" fill="#F2655B" mask="url(#mask-2)" points="0.0231954545 44.6083568 3.45465 42.7784932 3.44974091 42.775425 0.0182863636 44.6052886"></polygon>
                    <path d="M4.46696591,47.115 C4.72039773,47.2561364 4.99530682,47.3236364 5.26653409,47.3236364 C5.842125,47.3236364 6.40114773,47.0198864 6.70182955,46.4811136 C7.14364773,45.6895227 6.86014773,44.6886818 6.06855682,44.2468636 L3.45139773,42.7821136 L0.0248522727,44.6095227 L0.750784091,45.0329318 L4.46696591,47.115 Z" id="Fill-21" fill="#F2655B" mask="url(#mask-2)"></path>
                    <path d="M39.8928068,41.7888205 C39.889125,42.0895023 39.9664432,42.3723886 40.1045114,42.6166159 C40.3824886,43.1087523 40.908375,43.4444114 41.5146477,43.4511614 C42.4216023,43.4634341 43.1659432,42.7368886 43.1776023,41.8299341 L43.1818977,41.0211614 L39.8921932,39.0022977 L39.8928068,41.7888205 Z" id="Fill-22" fill="#0092D3" mask="url(#mask-2)"></path>
                    <path d="M24.8820341,31.6479273 L24.8789659,31.6473136 L24.8808068,47.2441091 C24.877125,47.5447909 24.9544432,47.8276773 25.0918977,48.0719045 C25.3704886,48.5640409 25.896375,48.8997 26.5026477,48.9066032 C27.4096023,48.9187227 28.1539432,48.1921773 28.1649886,47.2852227 L28.1791023,33.6735409 L28.1803295,33.6741545 L28.1821705,31.8166773 L24.8844886,29.7935182 L24.8783523,29.7965864 L24.8789659,31.6460864 L24.8820341,31.6479273 Z" id="Fill-23" fill="#0092D3" mask="url(#mask-2)"></path>
                    <path d="M34.888725,47.1794318 C34.8850432,47.4801136 34.9623614,47.763 35.1004295,48.0066136 C35.3784068,48.4993636 35.9042932,48.8344091 36.5105659,48.8417727 C37.4175205,48.8534318 38.1618614,48.1275 38.1735205,47.2205455 L38.1802705,39.81825 L38.1808841,39.81825 L38.182725,37.9527955 L34.8874977,35.9314773 L34.8881114,37.7950909 L34.8942477,37.7993864 L34.8881114,37.7963182 L34.888725,47.1794318 Z" id="Fill-24" fill="#0092D3" mask="url(#mask-2)"></path>
                    <path d="M29.88495,51.7235932 C29.8812682,52.024275 29.9585864,52.3071614 30.0960409,52.5513886 C30.3746318,53.043525 30.8999045,53.3791841 31.5067909,53.3860873 C32.4137455,53.3982068 33.1574727,52.6716614 33.1691318,51.7647068 L33.1801773,36.7459568 L33.1814045,36.7465705 L33.1826318,34.8854114 L29.8831091,32.8604114 L29.8831091,34.7209568 L29.8861773,34.7221841 L29.8831091,34.7221841 L29.88495,51.7235932 Z" id="Fill-25" fill="#0092D3" mask="url(#mask-2)"></path>
                    <polygon id="Fill-26" fill="#0071BC" mask="url(#mask-2)" points="43.181775 41.0214682 43.1983432 19.4699455 39.8908432 21.3384682 39.8920705 39.0026045"></polygon>
                    <path d="M45.1084091,33.8403273 C45.3863864,34.3330773 45.9122727,34.6681227 46.5185455,34.6756249 C47.4255,34.6871455 48.1698409,33.9612136 48.1815,33.0542591 L48.2023636,16.6499182 L44.8948636,18.5190545 L44.8967045,33.0131455 C44.8930227,33.3138273 44.9703409,33.5967136 45.1084091,33.8403273" id="Fill-27" fill="#0071BC" mask="url(#mask-2)"></path>
                    <polygon id="Fill-28" fill="#0071BC" mask="url(#mask-2)" points="38.1824795 37.9535932 38.1947523 22.2892977 34.8866386 24.1584341 34.8872523 35.932275"></polygon>
                    <polygon id="Fill-29" fill="#0071BC" mask="url(#mask-2)" points="33.1826318 34.886025 33.1906091 25.1089568 29.8824955 26.9774795 29.8831091 32.861025"></polygon>
                    <polygon id="Fill-30" fill="#0071BC" mask="url(#mask-2)" points="28.1821705 31.8175364 28.1864659 27.9289227 24.8844886 29.7943773"></polygon>
                    <path d="M33.8259068,15.730875 L31.2793159,17.0698295 L31.7659295,14.2342159 L29.7053386,12.2257841 L32.5526114,11.8121932 L33.8259068,9.23185227 L35.0992023,11.8121932 L37.946475,12.2257841 L35.8858841,14.2342159 L36.3724977,17.0698295 L33.8259068,15.730875 Z M24.5759523,0.315102273 L24.5759523,0.315715909 L24.5759523,3.95948864 L24.5925205,3.92635227 L25.8658159,6.50669318 L28.712475,6.92028409 L26.6524977,8.92871591 L27.1391114,11.7643295 L24.5925205,10.425375 L24.5759523,10.4339659 L24.5759523,14.9368295 L24.5925205,14.9036932 L25.8658159,17.4834205 L28.712475,17.897625 L26.6524977,19.9054432 L27.1391114,22.7410568 L24.5925205,21.4027159 L24.5759523,21.4113068 L24.5759523,28.0655795 L24.5765659,28.0661932 L48.1586114,14.8036705 L24.5759523,0.315102273 Z" id="Fill-31" fill="#0092D3" mask="url(#mask-2)"></path>
                    <path d="M17.9052341,17.0983636 L15.3586432,15.7594091 L12.8120523,17.0983636 L13.2980523,14.26275 L11.238075,12.2543182 L14.0853477,11.8407273 L15.3586432,9.261 L16.6319386,11.8407273 L19.4792114,12.2543182 L17.4192341,14.26275 L17.9052341,17.0983636 Z M22.0460523,22.7413636 L22.5320523,19.90575 L20.472075,17.8973182 L23.3187341,17.4837273 L24.576075,14.9371364 L24.576075,10.4336591 L22.0460523,11.7640227 L22.5320523,8.92840909 L20.472075,6.91997727 L23.3187341,6.50638636 L24.576075,3.95918182 L24.576075,0.315409091 L24.5312795,0.338727273 L0.0281659091,13.4067273 L24.576075,28.0658864 L24.576075,21.411 L22.0460523,22.7413636 Z" id="Fill-32" fill="#0071BC" mask="url(#mask-2)"></path>
                    <path d="M138.003473,45.9065709 C138.17426,45.9065709 138.303849,45.8601287 138.392239,45.7672442 C138.480629,45.6743598 138.524824,45.5590034 138.524824,45.4211749 C138.524824,45.2773539 138.480629,45.157503 138.392239,45.0616224 C138.303849,44.9657417 138.17426,44.9178013 138.003473,44.9178013 C137.832685,44.9178013 137.704595,44.9657417 137.619201,45.0616224 C137.533807,45.157503 137.491111,45.2773539 137.491111,45.4211749 C137.491111,45.5590034 137.533807,45.6743598 137.619201,45.7672442 C137.704595,45.8601287 137.832685,45.9065709 138.003473,45.9065709 Z M142.443947,45.8571324 L142.443947,40.0233922 L144.547329,40.0233922 L144.547329,39.3132759 L139.486627,39.3132759 L139.486627,40.0233922 L141.585515,40.0233922 L141.585515,45.8571324 L142.443947,45.8571324 Z M145.5416,45.8571324 L145.5416,42.4054278 C145.736358,41.9410058 146.106397,41.7087948 146.651719,41.7087948 C146.798536,41.7087948 146.934866,41.7192817 147.06071,41.7402556 L147.06071,41.7402556 L147.06071,40.9672176 C146.976814,40.9252698 146.853967,40.9042959 146.692168,40.9042959 C146.191791,40.9042959 145.805272,41.1215256 145.532611,41.5559849 L145.532611,41.5559849 L145.519128,40.9941841 L144.710135,40.9941841 L144.710135,45.8571324 L145.5416,45.8571324 Z M149.675433,45.9470205 C150.490419,45.9470205 151.101659,45.6339102 151.509151,45.0076895 L151.509151,45.0076895 L151.001283,44.6121817 C150.848474,44.8099356 150.670195,44.9687379 150.466449,45.0885888 C150.262703,45.2084396 150.014012,45.2683651 149.720377,45.2683651 C149.306892,45.2683651 148.966066,45.1207987 148.6979,44.825666 C148.429734,44.5305333 148.289658,44.1432652 148.277673,43.6638618 L148.277673,43.6638618 L151.572073,43.6638618 L151.572073,43.3177925 C151.572073,42.5417582 151.396791,41.9455002 151.046228,41.5290185 C150.695664,41.1125368 150.204275,40.9042959 149.572062,40.9042959 C149.185543,40.9042959 148.82674,41.0114126 148.495652,41.225646 C148.164564,41.4398794 147.906884,41.7365103 147.722614,42.1155386 C147.538343,42.4945669 147.446208,42.9252809 147.446208,43.4076806 L147.446208,43.4076806 L147.446208,43.5604904 C147.446208,44.2855881 147.65295,44.8646175 148.066436,45.2975787 C148.479921,45.7305399 149.016254,45.9470205 149.675433,45.9470205 Z M150.740608,42.9807119 L148.304639,42.9807119 C148.358572,42.54026 148.499397,42.1979361 148.727114,41.9537399 C148.95483,41.7095438 149.23648,41.5874458 149.572062,41.5874458 C149.91963,41.5874458 150.195286,41.7035513 150.399033,41.9357623 C150.602779,42.1679733 150.716638,42.495316 150.740608,42.9177902 L150.740608,42.9177902 L150.740608,42.9807119 Z M154.035008,45.9470205 C154.571341,45.9470205 155.032766,45.7462703 155.419285,45.34477 C155.449248,45.5904642 155.4882,45.7612517 155.53614,45.8571324 L155.53614,45.8571324 L156.408055,45.8571324 L156.408055,45.7852219 C156.294197,45.52155 156.237268,45.1664919 156.237268,44.7200474 L156.237268,44.7200474 L156.237268,42.4818328 C156.225282,41.9904443 156.060488,41.6046743 155.742883,41.324523 C155.425278,41.0443716 154.986324,40.9042959 154.426022,40.9042959 C154.072462,40.9042959 153.748115,40.9702139 153.452982,41.1020498 C153.15785,41.2338858 152.924141,41.412913 152.751855,41.6391315 C152.579569,41.8653499 152.493427,42.0998082 152.493427,42.3425061 L152.493427,42.3425061 L153.329386,42.3425061 C153.329386,42.1297709 153.429761,41.9484965 153.630512,41.7986829 C153.831262,41.6488693 154.079952,41.5739626 154.376583,41.5739626 C154.715162,41.5739626 154.971343,41.6601054 155.145127,41.832391 C155.31891,42.0046766 155.405802,42.2361385 155.405802,42.5267768 L155.405802,42.5267768 L155.405802,42.9088014 L154.596809,42.9088014 C153.898678,42.9088014 153.357102,43.0488771 152.972081,43.3290285 C152.58706,43.6091798 152.39455,44.0024404 152.39455,44.5088103 C152.39455,44.925292 152.548109,45.2691141 152.855226,45.5402767 C153.162344,45.8114392 153.555605,45.9470205 154.035008,45.9470205 Z M154.156357,45.223421 C153.883696,45.223421 153.660474,45.1500124 153.48669,45.0031951 C153.312907,44.8563778 153.226015,44.6526313 153.226015,44.3919557 C153.226015,43.7956977 153.735381,43.4975687 154.754113,43.4975687 L154.754113,43.4975687 L155.405802,43.4975687 L155.405802,44.4953271 C155.300933,44.7110586 155.131643,44.8863405 154.897934,45.0211727 C154.664225,45.1560049 154.417033,45.223421 154.156357,45.223421 Z M159.32942,45.9470205 C159.88373,45.9470205 160.334669,45.8159337 160.682236,45.5537599 C161.029804,45.2915862 161.203587,44.9432696 161.203587,44.5088103 C161.203587,44.2481347 161.141415,44.0271597 161.017069,43.8458853 C160.892724,43.6646109 160.701712,43.5095538 160.444032,43.3807142 C160.186353,43.2518745 159.850022,43.1410124 159.435038,43.048128 C159.020055,42.9552436 158.733162,42.8578648 158.574359,42.7559916 C158.415557,42.6541184 158.336156,42.5028067 158.336156,42.3020565 C158.336156,42.0893212 158.421549,41.9170356 158.592337,41.7851997 C158.763124,41.6533637 158.99983,41.5874458 159.302453,41.5874458 C159.596088,41.5874458 159.839535,41.6698432 160.032794,41.8346382 C160.226054,41.9994331 160.322683,42.1956888 160.322683,42.4234055 L160.322683,42.4234055 L161.158643,42.4234055 C161.158643,41.9799573 160.987107,41.6159104 160.644034,41.3312646 C160.300961,41.0466188 159.853767,40.9042959 159.302453,40.9042959 C158.778106,40.9042959 158.347392,41.0421244 158.010311,41.3177814 C157.673231,41.5934383 157.50469,41.9305188 157.50469,42.3290229 C157.50469,42.5687246 157.563867,42.7754673 157.682219,42.9492511 C157.800572,43.1230348 157.983345,43.2728484 158.230537,43.3986918 C158.477729,43.5245352 158.811814,43.6324009 159.23279,43.7222891 C159.653766,43.8121772 159.948899,43.9192939 160.118188,44.0436392 C160.287477,44.1679844 160.372122,44.3425172 160.372122,44.5672376 C160.372122,44.7799729 160.27699,44.9500112 160.086727,45.0773528 C159.896464,45.2046943 159.644028,45.2683651 159.32942,45.2683651 C158.987845,45.2683651 158.712937,45.1867167 158.504696,45.0234199 C158.296455,44.8601231 158.184844,44.6391481 158.169863,44.3604949 L158.169863,44.3604949 L157.338397,44.3604949 C157.338397,44.6481369 157.423042,44.9155541 157.592331,45.1627465 C157.761621,45.4099389 157.996079,45.6024493 158.295706,45.7402778 C158.595333,45.8781063 158.939904,45.9470205 159.32942,45.9470205 Z M163.864276,45.9470205 C164.490497,45.9470205 164.965406,45.7567573 165.289003,45.3762308 L165.289003,45.3762308 L165.306981,45.8571324 L166.097996,45.8571324 L166.097996,40.9941841 L165.266531,40.9941841 L165.266531,44.5312823 C165.056792,45.0046932 164.634318,45.2413986 163.999108,45.2413986 C163.399854,45.2413986 163.100227,44.8728573 163.100227,44.1357745 L163.100227,44.1357745 L163.100227,40.9941841 L162.268762,40.9941841 L162.268762,44.1582466 C162.271758,44.748512 162.408837,45.1942074 162.68,45.4953326 C162.951162,45.7964579 163.345921,45.9470205 163.864276,45.9470205 Z M168.19239,45.8571324 L168.19239,42.4054278 C168.387148,41.9410058 168.757187,41.7087948 169.302509,41.7087948 C169.449326,41.7087948 169.585656,41.7192817 169.7115,41.7402556 L169.7115,41.7402556 L169.7115,40.9672176 C169.627604,40.9252698 169.504757,40.9042959 169.342958,40.9042959 C168.842581,40.9042959 168.456062,41.1215256 168.183401,41.5559849 L168.183401,41.5559849 L168.169918,40.9941841 L167.360925,40.9941841 L167.360925,45.8571324 L168.19239,45.8571324 Z M170.856861,47.8211882 C171.516041,47.8211882 171.996943,47.4166916 172.299566,46.6076983 L172.299566,46.6076983 L174.254633,40.9941841 L173.364741,40.9941841 L172.23215,44.6391481 L171.01866,40.9941841 L170.11079,40.9941841 L171.845631,45.8031995 L171.66136,46.2975843 C171.559487,46.6002077 171.429898,46.8084485 171.272594,46.9223068 C171.11529,47.0361651 170.895813,47.0930943 170.614164,47.0930943 L170.614164,47.0930943 L170.389443,47.0751167 L170.389443,47.7492777 L170.699557,47.807705 L170.856861,47.8211882 Z M174.565172,45.9065709 C174.735959,45.9065709 174.865548,45.8601287 174.953938,45.7672442 C175.042328,45.6743598 175.086523,45.5590034 175.086523,45.4211749 C175.086523,45.2773539 175.042328,45.157503 174.953938,45.0616224 C174.865548,44.9657417 174.735959,44.9178013 174.565172,44.9178013 C174.394384,44.9178013 174.266293,44.9657417 174.1809,45.0616224 C174.095506,45.157503 174.052809,45.2773539 174.052809,45.4211749 C174.052809,45.5590034 174.095506,45.6743598 174.1809,45.7672442 C174.266293,45.8601287 174.394384,45.9065709 174.565172,45.9065709 Z M178.304518,47.7717498 C178.933735,47.7717498 179.434861,47.5904753 179.807897,47.2279265 C180.180933,46.8653777 180.367451,46.3694948 180.367451,45.7402778 L180.367451,45.7402778 L180.367451,40.9941841 L179.607896,40.9941841 L179.567446,41.5335129 C179.23486,41.1140349 178.771936,40.9042959 178.178675,40.9042959 C177.600394,40.9042959 177.135972,41.1282672 176.785409,41.5762098 C176.434845,42.0241523 176.259563,42.6271519 176.259563,43.3852086 C176.259563,44.1762242 176.435594,44.8009468 176.787656,45.2593763 C177.139718,45.7178058 177.600394,45.9470205 178.169686,45.9470205 C178.74497,45.9470205 179.198905,45.7552592 179.531491,45.3717364 L179.531491,45.3717364 L179.531491,45.7897163 C179.531491,46.2032017 179.418382,46.5238028 179.192163,46.7515194 C178.965945,46.979236 178.650587,47.0930943 178.246091,47.0930943 C177.730732,47.0930943 177.294775,46.8728684 176.938218,46.4324165 L176.938218,46.4324165 L176.506755,46.9312956 C176.683535,47.1919713 176.939717,47.3972158 177.275299,47.5470294 C177.610881,47.696843 177.953954,47.7717498 178.304518,47.7717498 Z M178.376429,45.2413986 C177.971932,45.2413986 177.657323,45.0848435 177.432603,44.7717331 C177.207883,44.4586228 177.095523,44.0279088 177.095523,43.4795911 C177.095523,42.8623592 177.209381,42.396439 177.437098,42.0818305 C177.664814,41.7672221 177.980921,41.6099178 178.385417,41.6099178 C178.894784,41.6099178 179.276808,41.8421288 179.531491,42.3065509 L179.531491,42.3065509 L179.531491,44.5267879 C179.285797,45.0031951 178.900776,45.2413986 178.376429,45.2413986 Z M183.616907,45.9470205 C184.054363,45.9470205 184.441631,45.842151 184.778711,45.632412 C185.115792,45.422673 185.374969,45.1297875 185.556244,44.7537555 C185.737518,44.3777234 185.828155,43.953002 185.828155,43.4795911 L185.828155,43.4795911 L185.828155,43.4211638 C185.828155,42.6601109 185.62366,42.0503697 185.214669,41.5919402 C184.805678,41.1335107 184.270094,40.9042959 183.607918,40.9042959 C183.179452,40.9042959 182.798176,41.0076673 182.464092,41.21441 C182.130007,41.4211527 181.869332,41.7147873 181.682065,42.0953138 C181.494798,42.4758402 181.401164,42.904307 181.401164,43.3807142 L181.401164,43.3807142 L181.401164,43.4391414 C181.401164,44.1942018 181.60566,44.8009468 182.014651,45.2593763 C182.423642,45.7178058 182.957727,45.9470205 183.616907,45.9470205 Z M183.616907,45.2683651 C183.197429,45.2683651 182.862596,45.1050683 182.612407,44.7784747 C182.362219,44.4518811 182.237124,44.0189199 182.237124,43.4795911 C182.237124,42.871348 182.362968,42.4039297 182.614654,42.0773361 C182.866341,41.7507426 183.197429,41.5874458 183.607918,41.5874458 C184.027396,41.5874458 184.363728,41.7529898 184.616913,42.0840777 C184.870098,42.4151657 184.99669,42.8473779 184.99669,43.3807142 C184.99669,43.9769721 184.872345,44.4406451 184.623654,44.7717331 C184.374964,45.1028211 184.039381,45.2683651 183.616907,45.2683651 Z M188.653627,45.8571324 L190.397457,40.9941841 L189.548014,40.9941841 L188.343513,44.7290362 L187.107551,40.9941841 L186.258108,40.9941841 L188.019916,45.8571324 L188.653627,45.8571324 Z" id=".Treasury.gov" fill="#122B4E" fill-rule="nonzero" mask="url(#mask-2)"></path>
                </g>
            </g>
        </g>
    </g>
</svg>