<?xml version="1.0" encoding="UTF-8"?>
<svg width="85px" height="23px" viewBox="0 0 85 23" version="1.1" xmlns="http://www.w3.org/2000/svg" xmlns:xlink="http://www.w3.org/1999/xlink">
    <title>Line 4</title>
    <g id="Debt-Page" stroke="none" stroke-width="1" fill="none" fill-rule="evenodd">
        <g id="Debt---Desktop---November-'21" transform="translate(-845.000000, -1579.000000)" fill="#A9ADD1" fill-rule="nonzero">
            <g id="Group-20" transform="translate(478.000000, 1339.000000)">
                <path id="Line-4" d="M401.18346,210.57584 C401.20392,210.592106 401.226301,210.610114 401.250568,210.629863 L401.418535,210.769221 C401.576915,210.902726 401.780741,211.07963 402.025727,211.299657 C402.666878,211.875489 403.37802,212.55931 404.141553,213.350037 C406.312716,215.598529 408.480241,218.260481 410.502338,221.327683 C416.28031,230.09196 419.75,240.364057 419.75,252.046296 C419.75,264.488873 417.147358,274.585345 411.908125,282.305676 C411.867672,282.365284 411.823005,282.421863 411.774485,282.474984 L411.69886,282.552021 L404.276,289.587 L416.527095,286.507966 C417.283267,286.31789 418.049711,286.738627 418.305636,287.458611 L418.347512,287.597039 C418.537587,288.353212 418.116851,289.119655 417.396867,289.37558 L417.258439,289.417456 L399.454723,293.892689 C398.362333,294.167278 397.385513,293.189611 397.623075,292.118906 L397.655938,291.995016 L403.076659,274.456037 C403.321281,273.66455 404.161214,273.221229 404.952701,273.465852 C405.697629,273.696085 406.134148,274.453651 405.978983,275.201847 L405.942886,275.341893 L402.212,287.41 L409.512,280.491 L409.720996,280.178658 C414.298957,273.201707 416.650924,264.07458 416.746936,252.770772 L416.75,252.046296 C416.75,240.990567 413.46969,231.279131 407.997662,222.978926 C406.082259,220.07356 404.031034,217.554436 401.983447,215.433923 C401.270418,214.695498 400.610466,214.060901 400.021148,213.531622 C399.674844,213.220597 399.43411,213.017629 399.31654,212.92416 C398.668069,212.408624 398.560304,211.46501 399.07584,210.81654 C399.591376,210.168069 400.53499,210.060304 401.18346,210.57584 Z" transform="translate(409.032407, 251.750000) scale(-1, 1) rotate(90.000000) translate(-409.032407, -251.750000) "></path>
            </g>
        </g>
    </g>
</svg>