<?xml version="1.0" encoding="utf-8"?>
<!-- Generator: Adobe Illustrator 24.2.1, SVG Export Plug-In . SVG Version: 6.00 Build 0)  -->
<svg version="1.1" id="Layer_1" xmlns="http://www.w3.org/2000/svg" xmlns:xlink="http://www.w3.org/1999/xlink" x="0px" y="0px"
	 viewBox="0 0 12 14" style="enable-background:new 0 0 12 14;" xml:space="preserve">
<style type="text/css">
	.st0{fill:#FFFFFF;}
</style>
<g>
	<path class="st0" d="M11,2.9c-0.2-0.2-0.5-0.4-0.9-0.4H8.9V1.4c0-0.1,0-0.2-0.1-0.3C8.7,1,8.6,1,8.5,1H7.7C7.6,1,7.5,1,7.4,1.1
		S7.3,1.2,7.3,1.4v1.2H4.1V1.4c0-0.1,0-0.2-0.1-0.3C3.9,1,3.8,1,3.7,1H2.8C2.7,1,2.6,1,2.6,1.1S2.4,1.2,2.4,1.4v1.2H1.2
		c-0.3,0-0.6,0.1-0.9,0.4C0.1,3.2,0,3.5,0,3.8V5h11.4v0V3.8C11.4,3.5,11.3,3.2,11,2.9z"/>
	<path class="st0" d="M0,12.7c0,0.3,0.1,0.6,0.4,0.9C0.6,13.8,0.9,14,1.2,14h8.9c0.3,0,0.6-0.1,0.9-0.4c0.2-0.2,0.4-0.5,0.4-0.9V5.8
		H0V12.7z M6.5,7.3c0-0.1,0-0.2,0.1-0.2C6.7,7,6.7,7,6.8,7C6.9,7,7,7,7.1,7.1l2.2,2.2c0.1,0.1,0.1,0.1,0.1,0.2s0,0.2-0.1,0.2
		l-2.2,2.2C7,12,6.9,12,6.8,12c-0.1,0-0.2,0-0.2-0.1c-0.1-0.1-0.1-0.1-0.1-0.2V7.3z M2.5,7.3c0-0.1,0-0.2,0.1-0.2C2.7,7,2.7,7,2.8,7
		C2.9,7,3,7,3.1,7.1l2.2,2.2c0.1,0.1,0.1,0.1,0.1,0.2s0,0.2-0.1,0.2l-2.2,2.2C3,12,2.9,12,2.8,12c-0.1,0-0.2,0-0.2-0.1
		c-0.1-0.1-0.1-0.1-0.1-0.2V7.3z"/>
</g>
</svg>
