<svg xmlns="http://www.w3.org/2000/svg" width="143" height="143" viewBox="0 0 143 143">
    <g fill="none" fill-rule="evenodd">
        <g>
            <path fill="#FFF" stroke="#F0F6FD" stroke-width="2" d="M71.5 1.155L10.58 36.327v70.346l60.92 35.172 60.92-35.172V36.327L71.5 1.155z" transform="rotate(90 71.5 71.5)"/>
            <path fill="#F0F6FD" d="M71.986 11.673L123.376 41.344 123.376 100.684 71.986 130.354 20.596 100.684 20.596 41.344z" transform="rotate(90 71.5 71.5)"/>
        </g>
        <g transform="translate(52 50)">
            <path fill="#FFF" stroke="#0071BC" stroke-width="1.5" d="M0 10.123c3.29 3.68 9.563 5.521 18.817 5.521s15.731-1.84 19.433-5.521V5.522C34.343 1.84 27.865 0 18.817 0 9.768 0 3.496 1.84 0 5.522v4.6z"/>
            <path fill="#FFF" stroke="#0071BC" stroke-width="1.5" d="M0 13.689c4.935 2.684 11.31 4.026 19.125 4.026 7.815 0 14.19-1.342 19.125-4.026v4.601c-3.29 3.451-9.768 5.177-19.433 5.177C9.15 23.467 2.879 21.74 0 18.29V13.69zM0 23.467c6.106 2.568 12.378 3.852 18.817 3.852 6.438 0 12.916-1.284 19.433-3.852v4.444c-2.673 3.556-9.151 5.333-19.433 5.333-10.283 0-16.555-1.777-18.817-5.333v-4.444zM18.817 36.983c6.44 0 12.917-1.246 19.433-3.739v4.314c-3.496 3.643-9.974 5.464-19.433 5.464-9.46 0-15.732-1.821-18.817-5.464v-4.314c6.104 2.493 12.377 3.739 18.817 3.739z"/>
            <ellipse cx="38.25" cy="31.289" fill="#FFF" stroke="#0071BC" stroke-width="1.5" rx="12" ry="11.961"/>
            <path fill="#0071BC" fill-rule="nonzero" d="M46.096 31.764c.008 4.04-3.298 7.344-7.35 7.347-1.75.001-3.359-.607-4.622-1.624-.329-.264-.353-.755-.055-1.053l.335-.333c.255-.254.663-.282.946-.058.93.736 2.108 1.176 3.39 1.176 3.017 0 5.458-2.434 5.458-5.441 0-3.008-2.442-5.441-5.458-5.441-1.447 0-2.762.56-3.739 1.476l1.506 1.501c.299.298.087.808-.336.808h-4.312c-.262 0-.474-.212-.474-.473V25.35c0-.421.51-.633.81-.334l1.464 1.46c1.32-1.259 3.11-2.032 5.081-2.032 4.058 0 7.349 3.276 7.356 7.32zm-5.288 2.164l.254-.401c.21-.332.161-.81-.109-1.07l-1.05-1.004V28.14c0-.421-.278-.762-.62-.762h-.413c-.343 0-.62.34-.62.762v4.306l1.689 1.616c.27.258.659.198.87-.134z"/>
        </g>
    </g>
</svg>
