<svg xmlns="http://www.w3.org/2000/svg" width="143" height="143" viewBox="0 0 143 143">
    <g fill="none" fill-rule="evenodd">
        <g>
            <path fill="#FFF" stroke="#F0F6FD" stroke-width="2" d="M71.5 1.155L10.58 36.327v70.346l60.92 35.172 60.92-35.172V36.327L71.5 1.155z" transform="rotate(90 71.5 71.5)"/>
            <path fill="#F0F6FD" d="M71.986 11.673L123.376 41.344 123.376 100.684 71.986 130.354 20.596 100.684 20.596 41.344z" transform="rotate(90 71.5 71.5)"/>
        </g>
        <g stroke="#0071BC" stroke-width="1.5">
            <path fill="#FFF" fill-rule="nonzero" d="M29.829 41.58v3.712c0 1.23-1.002 2.228-2.238 2.228H2.237C1.002 47.52 0 46.523 0 45.292V11.137C0 9.907 1.002 8.91 2.237 8.91H8.95v27.472c0 2.866 2.341 5.198 5.22 5.198h15.66zm0-31.928V0h-15.66c-1.236 0-2.238.997-2.238 2.227v34.155c0 1.23 1.002 2.228 2.238 2.228h25.354c1.235 0 2.237-.997 2.237-2.228V11.88h-9.694c-1.23 0-2.237-1.002-2.237-2.228zm11.276-2.88L34.958.653C34.538.235 33.97 0 33.376 0h-.565v8.91h8.949v-.562c0-.591-.236-1.158-.655-1.575h0z" transform="translate(51 47)"/>
            <path stroke-linecap="round" d="M35.75 24L37.5 24M25 24L32.625 24M16 24L23.625 24M17 27.5L15 27.5M27 27.5L19 27.5M37 27.5L29 27.5M35.75 30L37.5 30M25 30L32.625 30M16 30L23.625 30M35.75 17L37.5 17M25 17L32.625 17M16 17L23.625 17M17 19.5L15 19.5M27 19.5L19 19.5M37 19.5L29 19.5" transform="translate(51 47)"/>
        </g>
    </g>
</svg>
