<svg xmlns="http://www.w3.org/2000/svg" width="143" height="143" viewBox="0 0 143 143">
    <g fill="none" fill-rule="evenodd">
        <g>
            <path fill="#FFF" stroke="#F0F6FD" stroke-width="2" d="M71.5 1.155L10.58 36.327v70.346l60.92 35.172 60.92-35.172V36.327L71.5 1.155z" transform="rotate(90 71.5 71.5)"/>
            <path fill="#F0F6FD" d="M71.986 11.673L123.376 41.344 123.376 100.684 71.986 130.354 20.596 100.684 20.596 41.344z" transform="rotate(90 71.5 71.5)"/>
        </g>
        <g fill="#FFF" stroke="#0070C8" stroke-width="1.5">
            <path d="M52.977 44H6.024C2.703 44 0 41.208 0 37.776V8.32C0 6.486 1.439 5 3.213 5s3.212 1.486 3.212 3.32v29.042h46.15V8.319C52.575 6.486 54.013 5 55.788 5 57.563 5 59 6.486 59 8.32v29.456C59 41.208 56.298 44 52.977 44z" transform="translate(42 50)"/>
            <path d="M23.783 0L23.783 13.054 14 13.054 29.002 30 44 13.054 34.217 13.054 34.217 0z" transform="translate(42 50)"/>
        </g>
    </g>
</svg>
