<svg xmlns="http://www.w3.org/2000/svg" width="143" height="143" viewBox="0 0 143 143">
    <g fill="none" fill-rule="evenodd">
        <g>
            <path fill="#FFF" stroke="#F0F6FD" stroke-width="2" d="M71.5 1.155L10.58 36.327v70.346l60.92 35.172 60.92-35.172V36.327L71.5 1.155z" transform="rotate(90 71.5 71.5)"/>
            <path fill="#F0F6FD" d="M71.986 11.673L123.376 41.344 123.376 100.684 71.986 130.354 20.596 100.684 20.596 41.344z" transform="rotate(90 71.5 71.5)"/>
        </g>
        <g transform="translate(48 47)">
            <circle cx="19.364" cy="19.836" r="18.419" fill="#FFF"/>
            <path fill="#0071BC" fill-rule="nonzero" d="M47.984 42.058l-9.473-9.472c-.428-.428-1.007-.665-1.615-.665h-1.55c2.623-3.354 4.181-7.572 4.181-12.16C39.527 8.844 30.681 0 19.764 0 8.847 0 0 8.845 0 19.76c0 10.916 8.846 19.76 19.764 19.76 4.59 0 8.809-1.557 12.162-4.18v1.55c0 .607.238 1.187.666 1.614l9.473 9.472c.446.446 1.029.669 1.61.67.585 0 1.168-.223 1.611-.67l2.689-2.689c.893-.893.893-2.336.01-3.23zm-28.22-4.608c-9.77 0-17.69-7.905-17.69-17.69 0-9.77 7.906-17.689 17.69-17.689 9.771 0 17.69 7.905 17.69 17.69 0 9.77-7.905 17.689-17.69 17.689z"/>
            <path stroke="#0071BC" stroke-linecap="round" stroke-width="1.5" d="M28.377 20.031L30.046 20.031M19.077 20.031L25.441 20.031M9.538 20.031L15.902 20.031M11.446 23.369L9.538 23.369M20.984 23.369L14.308 23.369M29.569 23.369L22.892 23.369M28.377 26.707L30.046 26.707M19.077 26.707L25.441 26.707M9.538 26.707L15.902 26.707M28.377 13.354L30.046 13.354M19.077 13.354L25.441 13.354M9.538 13.354L15.902 13.354M11.446 16.692L9.538 16.692M20.984 16.692L14.308 16.692M29.569 16.692L22.892 16.692"/>
        </g>
    </g>
</svg>
