<svg xmlns="http://www.w3.org/2000/svg" width="143" height="143" viewBox="0 0 143 143">
    <g fill="none" fill-rule="evenodd">
        <g>
            <path fill="#FFF" stroke="#F0F6FD" stroke-width="2" d="M71.5 1.155L10.58 36.327v70.346l60.92 35.172 60.92-35.172V36.327L71.5 1.155z" transform="rotate(90 71.5 71.5)"/>
            <path fill="#F0F6FD" d="M71.986 11.673L123.376 41.344 123.376 100.684 71.986 130.354 20.596 100.684 20.596 41.344z" transform="rotate(90 71.5 71.5)"/>
        </g>
        <path fill="#FFF" fill-rule="nonzero" stroke="#0071BC" stroke-width="1.5" d="M100.19 47.006c-6.185.34-18.477 1.578-26.065 6.08-.523.31-.82.863-.82 1.44v39.799c0 1.263 1.425 2.061 2.627 1.475 7.807-3.808 19.098-4.847 24.68-5.132 1.906-.097 3.388-1.578 3.388-3.353V50.364c.001-1.937-1.732-3.472-3.81-3.358zm-31.315 6.08c-7.587-4.502-19.879-5.739-26.063-6.08-2.079-.114-3.812 1.42-3.812 3.358v36.952c0 1.776 1.482 3.257 3.388 3.353 5.585.285 16.88 1.325 24.688 5.135 1.198.586 2.619-.212 2.619-1.472V54.507c0-.579-.296-1.11-.82-1.42z"/>
    </g>
</svg>
