<svg xmlns="http://www.w3.org/2000/svg" width="143" height="143" viewBox="0 0 143 143">
    <g fill="none" fill-rule="evenodd">
        <g>
            <path fill="#FFF" stroke="#F0F6FD" stroke-width="2" d="M71.5 1.155L10.58 36.327v70.346l60.92 35.172 60.92-35.172V36.327L71.5 1.155z" transform="rotate(90 71.5 71.5)"/>
            <path fill="#F0F6FD" d="M71.986 11.673L123.376 41.344 123.376 100.684 71.986 130.354 20.596 100.684 20.596 41.344z" transform="rotate(90 71.5 71.5)"/>
        </g>
        <path fill="#FFF" fill-rule="nonzero" stroke="#0071BC" stroke-width="2" d="M83.833 50.04c0-1.679-1.38-3.04-3.083-3.04-1.703 0-3.083 1.361-3.083 3.04v9.121h6.166v-9.12zm4.625 12.162H54.542c-.852 0-1.542.68-1.542 1.52v3.04c0 .84.69 1.52 1.542 1.52h1.541v3.04c.001 7.225 5.156 13.451 12.334 14.899v9.425h6.166V86.22c7.178-1.448 12.333-7.674 12.334-14.898v-3.04h1.541c.852 0 1.542-.681 1.542-1.52v-3.041c0-.84-.69-1.52-1.542-1.52zM65.333 50.04c0-1.679-1.38-3.04-3.083-3.04-1.703 0-3.083 1.361-3.083 3.04v9.121h6.166v-9.12z"/>
    </g>
</svg>
